<svg width="210" height="50" viewBox="0 0 210 50" fill="none" xmlns="http://www.w3.org/2000/svg">
<path d="M11.5219 50H198.478C198.837 50 199.232 50 199.591 49.9641L209.964 39.5908C210 39.2319 210 38.8729 210 38.4781V11.5219C210 5.1687 204.831 0 198.478 0H11.5219C11.163 0 10.7681 0.0358817 10.4092 0.0717754L0.0358944 10.4451C6.37025e-07 10.804 0 11.163 0 11.5578V38.514C0 44.8313 5.1687 50 11.5219 50Z" fill="#27348B"/>
<path d="M49.3376 24.62C49.8256 24.788 50.2056 25.052 50.4776 25.412C50.7576 25.764 50.8976 26.176 50.8976 26.648C50.8976 27.16 50.7296 27.604 50.3936 27.98C50.0576 28.356 49.6016 28.644 49.0256 28.844C48.4576 29.044 47.8336 29.144 47.1536 29.144C46.5776 29.144 46.0016 29.072 45.4256 28.928C44.8576 28.784 44.3176 28.564 43.8056 28.268L44.4056 26.876C44.7736 27.1 45.1776 27.272 45.6176 27.392C46.0656 27.504 46.5016 27.56 46.9256 27.56C47.5016 27.56 47.9776 27.456 48.3536 27.248C48.7376 27.04 48.9296 26.748 48.9296 26.372C48.9296 26.06 48.7976 25.824 48.5336 25.664C48.2776 25.504 47.9256 25.424 47.4776 25.424H45.4256V23.96H47.3336C47.7256 23.96 48.0296 23.88 48.2456 23.72C48.4696 23.56 48.5816 23.34 48.5816 23.06C48.5816 22.732 48.4216 22.476 48.1016 22.292C47.7896 22.108 47.3856 22.016 46.8896 22.016C46.5216 22.016 46.1416 22.068 45.7496 22.172C45.3576 22.268 44.9856 22.416 44.6336 22.616L44.0456 21.104C44.9336 20.648 45.8936 20.42 46.9256 20.42C47.5816 20.42 48.1856 20.516 48.7376 20.708C49.2896 20.9 49.7296 21.18 50.0576 21.548C50.3856 21.916 50.5496 22.344 50.5496 22.832C50.5496 23.232 50.4416 23.588 50.2256 23.9C50.0096 24.212 49.7136 24.452 49.3376 24.62ZM58.1246 27.2H54.2246L53.4806 29H51.4886L55.2326 20.6H57.1526L60.9086 29H58.8686L58.1246 27.2ZM57.5126 25.724L56.1806 22.508L54.8486 25.724H57.5126ZM65.2745 25.616H63.9305V29H61.9985V20.6H63.9305V23.996H65.3225L67.5305 20.6H69.5825L66.8345 24.656L69.6665 29H67.4585L65.2745 25.616ZM76.1011 27.2H72.2011L71.4571 29H69.4651L73.2091 20.6H75.1291L78.8851 29H76.8451L76.1011 27.2ZM75.4891 25.724L74.1571 22.508L72.8251 25.724H75.4891ZM84.7751 24.62C85.2631 24.788 85.6431 25.052 85.9151 25.412C86.1951 25.764 86.3351 26.176 86.3351 26.648C86.3351 27.16 86.1671 27.604 85.8311 27.98C85.4951 28.356 85.0391 28.644 84.4631 28.844C83.8951 29.044 83.2711 29.144 82.5911 29.144C82.0151 29.144 81.4391 29.072 80.8631 28.928C80.2951 28.784 79.7551 28.564 79.2431 28.268L79.8431 26.876C80.2111 27.1 80.6151 27.272 81.0551 27.392C81.5031 27.504 81.9391 27.56 82.3631 27.56C82.9391 27.56 83.4151 27.456 83.7911 27.248C84.1751 27.04 84.3671 26.748 84.3671 26.372C84.3671 26.06 84.2351 25.824 83.9711 25.664C83.7151 25.504 83.3631 25.424 82.9151 25.424H80.8631V23.96H82.7711C83.1631 23.96 83.4671 23.88 83.6831 23.72C83.9071 23.56 84.0191 23.34 84.0191 23.06C84.0191 22.732 83.8591 22.476 83.5391 22.292C83.2271 22.108 82.8231 22.016 82.3271 22.016C81.9591 22.016 81.5791 22.068 81.1871 22.172C80.7951 22.268 80.4231 22.416 80.0711 22.616L79.4831 21.104C80.3711 20.648 81.3311 20.42 82.3631 20.42C83.0191 20.42 83.6231 20.516 84.1751 20.708C84.7271 20.9 85.1671 21.18 85.4951 21.548C85.8231 21.916 85.9871 22.344 85.9871 22.832C85.9871 23.232 85.8791 23.588 85.6631 23.9C85.4471 24.212 85.1511 24.452 84.7751 24.62ZM93.5621 27.2H89.6621L88.9181 29H86.9261L90.6701 20.6H92.5901L96.3461 29H94.3061L93.5621 27.2ZM92.9501 25.724L91.6181 22.508L90.2861 25.724H92.9501ZM103.458 22.184H100.77V29H98.8501V22.184H96.1741V20.6H103.458V22.184ZM108.747 23.36C109.771 23.36 110.555 23.588 111.099 24.044C111.651 24.5 111.927 25.176 111.927 26.072C111.927 27.024 111.623 27.752 111.015 28.256C110.415 28.752 109.567 29 108.471 29H104.679V20.6H106.611V23.36H108.747ZM108.363 27.56C108.867 27.56 109.259 27.436 109.539 27.188C109.827 26.94 109.971 26.58 109.971 26.108C109.971 25.236 109.435 24.8 108.363 24.8H106.611V27.56H108.363ZM124.31 20.6L120.734 27.248C120.39 27.888 119.974 28.372 119.486 28.7C119.006 29.028 118.482 29.192 117.914 29.192C117.474 29.192 117.018 29.096 116.546 28.904L117.014 27.428C117.35 27.532 117.63 27.584 117.854 27.584C118.094 27.584 118.31 27.528 118.502 27.416C118.694 27.296 118.87 27.112 119.03 26.864L119.102 26.768L115.79 20.6H117.866L120.098 25.112L122.402 20.6H124.31ZM129.1 29.144C128.244 29.144 127.468 28.96 126.772 28.592C126.084 28.216 125.54 27.7 125.14 27.044C124.748 26.38 124.552 25.632 124.552 24.8C124.552 23.968 124.748 23.224 125.14 22.568C125.54 21.904 126.084 21.388 126.772 21.02C127.468 20.644 128.248 20.456 129.112 20.456C129.84 20.456 130.496 20.584 131.08 20.84C131.672 21.096 132.168 21.464 132.568 21.944L131.32 23.096C130.752 22.44 130.048 22.112 129.208 22.112C128.688 22.112 128.224 22.228 127.816 22.46C127.408 22.684 127.088 23 126.856 23.408C126.632 23.816 126.52 24.28 126.52 24.8C126.52 25.32 126.632 25.784 126.856 26.192C127.088 26.6 127.408 26.92 127.816 27.152C128.224 27.376 128.688 27.488 129.208 27.488C130.048 27.488 130.752 27.156 131.32 26.492L132.568 27.644C132.168 28.132 131.672 28.504 131.08 28.76C130.488 29.016 129.828 29.144 129.1 29.144ZM141.124 20.6V29H139.204V22.184H136.324L136.264 23.936C136.224 25.128 136.128 26.096 135.976 26.84C135.824 27.576 135.568 28.144 135.208 28.544C134.856 28.936 134.36 29.132 133.72 29.132C133.456 29.132 133.136 29.088 132.76 29L132.88 27.356C132.984 27.388 133.1 27.404 133.228 27.404C133.692 27.404 134.016 27.132 134.2 26.588C134.384 26.036 134.5 25.176 134.548 24.008L134.668 20.6H141.124ZM150.806 20.6L147.23 27.248C146.886 27.888 146.47 28.372 145.982 28.7C145.502 29.028 144.978 29.192 144.41 29.192C143.97 29.192 143.514 29.096 143.042 28.904L143.51 27.428C143.846 27.532 144.126 27.584 144.35 27.584C144.59 27.584 144.806 27.528 144.998 27.416C145.19 27.296 145.366 27.112 145.526 26.864L145.598 26.768L142.286 20.6H144.362L146.594 25.112L148.898 20.6H150.806ZM157.646 22.184H153.65L153.662 29H151.73V20.6H157.658L157.646 22.184ZM166.427 20.6L162.851 27.248C162.507 27.888 162.091 28.372 161.603 28.7C161.123 29.028 160.599 29.192 160.031 29.192C159.591 29.192 159.135 29.096 158.663 28.904L159.131 27.428C159.467 27.532 159.747 27.584 159.971 27.584C160.211 27.584 160.427 27.528 160.619 27.416C160.811 27.296 160.987 27.112 161.147 26.864L161.219 26.768L157.907 20.6H159.983L162.215 25.112L164.519 20.6H166.427Z" fill="white"/>
</svg>
