<svg width="60" height="54" viewBox="0 0 60 54" fill="none" xmlns="http://www.w3.org/2000/svg">
<g clip-path="url(#clip0)">
<path d="M55.8984 39.0891C54.0445 39.0891 52.4742 40.3289 51.968 42.0243H46.9242L43.7988 38.7133C44.448 36.3276 44.666 33.8479 44.4539 31.3988C47.4352 30.7554 50.1375 29.2842 52.309 27.1086C55.3031 24.1088 56.952 20.1193 56.952 15.8773C56.952 11.6353 55.3031 7.64572 52.309 4.64591C46.1273 -1.54742 36.0691 -1.54742 29.8875 4.64591C27.7031 6.83442 26.2348 9.55127 25.6008 12.5076C23.4996 12.3256 21.3656 12.4654 19.3043 12.9209L14.4316 7.75726C14.2102 7.52244 13.902 7.38977 13.5797 7.38977H8.03203C7.52695 5.69438 5.95664 4.45454 4.10156 4.45454C1.83984 4.45454 0 6.29786 0 8.56386C0 10.8299 1.83984 12.6732 4.10156 12.6732C5.95547 12.6732 7.52578 11.4333 8.03203 9.73795H13.0758L16.773 13.6547C13.9125 14.6867 11.2734 16.361 9.12422 18.5143C6.58828 21.055 4.74609 24.2192 3.79688 27.6651C3.62461 28.2898 3.99023 28.9367 4.61484 29.1093C4.71914 29.1386 4.82344 29.1515 4.92773 29.1515C5.44219 29.1515 5.91328 28.8099 6.05625 28.2898C6.79453 25.6105 8.14219 23.1226 9.97969 21.0315L15.2625 26.3243C12.0363 30.3303 12.0363 36.0975 15.2625 40.1035L9.97969 45.3963C8.14219 43.304 6.79453 40.8173 6.05625 38.138C5.88398 37.5134 5.23828 37.1459 4.61484 37.3185C3.99141 37.4911 3.62461 38.138 3.79688 38.7627C4.74609 42.2086 6.58828 45.3728 9.12422 47.9135C13.043 51.8397 18.2531 54.0024 23.7949 54.0024C29.3367 54.0024 34.5469 51.8397 38.4668 47.9135C40.4402 45.9364 41.9297 43.6574 42.941 41.2235L45.5684 44.0073C45.7898 44.2421 46.098 44.3748 46.4203 44.3748H51.9691C52.4742 46.0702 54.0445 47.31 55.8996 47.31C58.1613 47.31 60.0012 45.4667 60.0012 43.2007C60 40.9324 58.1602 39.0891 55.8984 39.0891ZM4.10156 10.325C3.13242 10.325 2.34375 9.53483 2.34375 8.56386C2.34375 7.59288 3.13242 6.80272 4.10156 6.80272C5.0707 6.80272 5.85938 7.59288 5.85938 8.56386C5.85938 9.53483 5.0707 10.325 4.10156 10.325ZM50.652 25.4485C48.8414 27.2624 46.5961 28.5023 44.1199 29.0682C43.6172 26.5732 42.6551 24.1546 41.2348 21.9485C42.743 21.9144 44.2406 21.3251 45.3891 20.1744C47.4703 18.0893 47.7188 14.8523 46.1367 12.4912L51.4453 7.17256C55.9043 12.4841 55.6406 20.4504 50.652 25.4485ZM41.0988 12.1495C42.0516 12.1495 43.0055 12.5135 43.7309 13.2403C45.1816 14.6938 45.1816 17.0608 43.7309 18.5143C42.2801 19.9678 39.9188 19.9678 38.468 18.5155C38.468 18.5155 38.468 18.5155 38.4668 18.5143C37.016 17.0608 37.016 14.695 38.4668 13.2403C39.1922 12.5123 40.1461 12.1495 41.0988 12.1495ZM49.7871 5.51122L44.4785 10.8299C42.443 9.45969 39.7559 9.45969 37.7191 10.8299L32.4105 5.51122C37.4168 1.29388 44.7809 1.29388 49.7871 5.51122ZM30.7535 7.17256L36.0621 12.4912C34.4801 14.8523 34.7285 18.0893 36.8098 20.1744C36.8098 20.1744 36.8098 20.1744 36.8109 20.1756C43.7074 27.0863 43.9734 38.1615 37.6113 45.3951L32.3297 40.1035C35.7996 35.7957 35.5395 29.4509 31.5457 25.4496C26.557 20.4504 26.2934 12.4841 30.7535 7.17256ZM25.2785 14.8347C25.2563 15.1799 25.2445 15.5274 25.2445 15.8761C25.2445 18.2536 25.7625 20.5525 26.7457 22.6412C23.4164 21.7149 19.7332 22.3864 16.9195 24.6618L11.6367 19.3702C15.3938 16.0475 20.2699 14.4237 25.2785 14.8347ZM17.7023 27.1086C19.3301 25.4778 21.4934 24.5796 23.7949 24.5796C26.0965 24.5796 28.2598 25.4778 29.8875 27.1086C33.2473 30.4747 33.2473 35.9507 29.8875 39.3168C28.2598 40.9465 26.0965 41.8446 23.7949 41.8446C21.4934 41.8446 19.3301 40.9465 17.7023 39.3157C14.3438 35.9507 14.3438 30.4747 17.7023 27.1086ZM11.6367 47.0553L16.9184 41.7636C18.8602 43.3381 21.2625 44.194 23.7961 44.194C26.3297 44.194 28.7309 43.3381 30.6738 41.7636L35.9555 47.0553C32.5934 50.0281 28.3207 51.653 23.7973 51.653C19.2727 51.6518 14.9988 50.0269 11.6367 47.0553ZM55.8984 44.9595C54.9293 44.9595 54.1406 44.1693 54.1406 43.1984C54.1406 42.2274 54.9293 41.4372 55.8984 41.4372C56.8676 41.4372 57.6562 42.2274 57.6562 43.1984C57.6562 44.1705 56.8676 44.9595 55.8984 44.9595Z" fill="#27348B"/>
<path d="M5.38984 33.2128C5.38984 32.5647 4.86484 32.0387 4.21797 32.0387H4.2168C3.56992 32.0387 3.04492 32.5647 3.04492 33.2128C3.04492 33.8609 3.56992 34.3869 4.2168 34.3869C4.86367 34.3869 5.38984 33.8609 5.38984 33.2128Z" fill="#27348B"/>
<path d="M50.6516 25.4485C48.841 27.2625 46.5957 28.5023 44.1195 29.0683C43.6168 26.5733 42.6547 24.1547 41.2344 21.9486C42.7426 21.9145 44.2402 21.3251 45.3887 20.1745C47.4699 18.0893 47.7184 14.8523 46.1363 12.4912L51.4449 7.17261C55.9039 12.4842 55.6402 20.4504 50.6516 25.4485Z" fill="#E4E6F2"/>
<path d="M30.753 7.17261L36.0616 12.4912C34.4796 14.8523 34.728 18.0893 36.8093 20.1745C36.8093 20.1745 36.8093 20.1745 36.8104 20.1757C43.7069 27.0864 43.9729 38.1616 37.6108 45.3952L32.3292 40.1035C35.7991 35.7958 35.5389 29.451 31.5452 25.4497C26.5565 20.4504 26.2928 12.4842 30.753 7.17261Z" fill="#ED6C71"/>
<path d="M11.6357 47.0552L16.9174 41.7636C18.8592 43.3381 21.2615 44.194 23.7951 44.194C26.3287 44.194 28.7299 43.3381 30.6728 41.7636L35.9545 47.0552C32.5924 50.028 28.3197 51.653 23.7963 51.653C19.2717 51.6518 14.9979 50.0269 11.6357 47.0552Z" fill="#E4E6F2"/>
</g>
<defs>
<clipPath id="clip0">
<rect width="60" height="54" fill="white"/>
</clipPath>
</defs>
</svg>
