<svg width="60" height="56" viewBox="0 0 60 56" fill="none" xmlns="http://www.w3.org/2000/svg">
<g clip-path="url(#clip0)">
<path d="M58.8281 48.1695H56.7973C57.027 47.6655 57.157 47.1053 57.157 46.5158V16.4231C57.157 14.2186 55.3641 12.4254 53.1609 12.4254H46.3664V6.66378C46.3664 6.17739 46.0523 5.72851 45.5953 5.56209L30.5086 0.0700286C30.2496 -0.0249045 29.966 -0.0237325 29.707 0.0700286L14.618 5.56209C14.1727 5.72382 13.8691 6.13755 13.848 6.61104C13.827 7.08453 14.0918 7.52287 14.5207 7.72445L21.027 10.7834V12.4254H6.83906C4.63594 12.4254 2.84297 14.2186 2.84297 16.4231V26.881C2.84297 27.528 3.36797 28.053 4.01484 28.053C4.66172 28.053 5.18672 27.528 5.18672 26.881V16.4231C5.18672 15.5113 5.92734 14.7694 6.83906 14.7694H21.027L21.0187 17.3842H9.24492C8.59805 17.3842 8.07305 17.9093 8.07305 18.5562V44.3827C8.07305 45.0297 8.59805 45.5547 9.24492 45.5547H50.7551C51.402 45.5547 51.927 45.0297 51.927 44.3827V18.5562C51.927 17.9093 51.402 17.3842 50.7551 17.3842H39.1887L39.1863 14.7694H53.1609C54.0715 14.7694 54.8133 15.5113 54.8133 16.4231V46.5158C54.8133 47.4264 54.0727 48.1683 53.1633 48.1695H6.83672C5.92617 48.1683 5.18672 47.4276 5.18672 46.5158V37.1865C5.18672 36.5396 4.66172 36.0145 4.01484 36.0145C3.36797 36.0145 2.84297 36.5396 2.84297 37.1865V46.5158C2.84297 47.1053 2.97187 47.6643 3.20273 48.1695H1.17188C0.525 48.1695 0 48.6945 0 49.3415V52.3805C0 54.3765 1.62305 55.9997 3.61875 55.9997H56.3812C58.377 55.9997 60 54.3765 60 52.3805V49.3415C60 48.6945 59.475 48.1695 58.8281 48.1695ZM30.1078 2.41874L42.0984 6.78333L38.1141 8.59409C33.1066 5.54099 27.0539 5.54568 22.0934 8.69371L18.0668 6.80091L30.1078 2.41874ZM42.2051 36.1833C42.2121 36.1856 42.2191 36.1868 42.225 36.1892C43.766 36.5724 44.973 37.7573 45.3891 39.2891L45.9879 43.2107H31.2785V39.1485L33.9047 41.2136C34.4555 41.6461 35.2863 41.4878 35.6402 40.8854L38.9133 35.3019L42.2051 36.1833ZM23.3707 10.6627C27.5859 8.01511 32.5852 8.01746 36.8426 10.5678V14.1037C32.5066 11.9472 27.7195 11.9414 23.3707 14.1014V10.6627ZM29.0332 14.8257C31.752 14.5526 34.5258 15.3754 36.8426 16.7806L36.8496 19.6602C36.8484 23.2489 34.0957 26.2352 30.6328 26.5107C26.775 26.8037 23.3625 23.6732 23.3625 19.788V16.7841C25.077 15.7422 27.0352 15.032 29.0332 14.8257ZM27.968 28.6238C29.5195 28.9988 31.1801 28.9578 32.7094 28.4996L33.6469 32.5559L30.1078 35.2609L26.5688 32.5559L27.5051 28.5007C27.6574 28.5465 27.8121 28.5875 27.968 28.6238ZM28.193 36.7506L25.916 38.5414L23.6426 34.6644L25.0008 34.3081C25.4555 34.6562 25.9465 35.0312 26.4281 35.3992C27.0633 35.8856 27.6855 36.3626 28.193 36.7506ZM21.2859 35.2808L24.573 40.8854C24.927 41.4878 25.7578 41.6461 26.3086 41.2136L28.9348 39.1485V43.2107H14.0109L14.6062 39.3044C15.0223 37.7655 16.2387 36.5783 17.7926 36.1974C17.7984 36.1962 17.8043 36.195 17.8102 36.1927L21.2859 35.2808ZM34.2973 38.5402L32.0191 36.7494L35.2113 34.3092L36.5637 34.6714L34.2973 38.5402ZM10.4168 19.7282H21.0187C20.9941 22.8762 22.657 25.8602 25.3266 27.5186L24.2742 32.0742L17.2242 33.9237C14.8172 34.5179 12.9398 36.3755 12.3223 38.7746C12.3129 38.8133 12.3047 38.8508 12.2988 38.8906L11.6402 43.2107H10.4168V19.7282ZM49.5832 43.2107H48.3598C48.3598 43.2107 47.6836 38.7957 47.673 38.757C47.0566 36.3685 45.191 34.5144 42.8016 33.9166L35.9414 32.0789L34.8809 27.4905C37.5211 25.8203 39.1699 22.8493 39.1945 19.7282H49.5832V43.2107ZM39.1863 12.4254V10.6826L44.0227 8.48392V12.4254H39.1863ZM2.34375 52.3805V50.5135H6.83437C6.83555 50.5135 6.83789 50.5135 6.83906 50.5135H21.9234V52.0242C21.9234 52.6056 22.05 53.1576 22.275 53.6557H3.61875C2.91562 53.6557 2.34375 53.0837 2.34375 52.3805ZM25.8984 53.6557C24.9984 53.6557 24.2672 52.9243 24.2672 52.0242V50.5135H35.7328V52.0242C35.7328 52.9232 35.0016 53.6557 34.1016 53.6557H25.8984ZM57.6562 52.3805C57.6562 53.0837 57.0844 53.6557 56.3812 53.6557H37.725C37.95 53.1576 38.0766 52.6056 38.0766 52.0242V50.5135H53.1609C53.1621 50.5135 53.1645 50.5135 53.1656 50.5135H57.6562V52.3805Z" fill="#27348B"/>
<path d="M29.2311 22.3578H30.9831C31.63 22.3578 32.155 21.8327 32.155 21.1858C32.155 20.5388 31.63 20.0138 30.9831 20.0138H30.9058L31.4472 18.5265C31.6686 17.9182 31.3546 17.2455 30.7464 17.0239C30.1382 16.8024 29.4655 17.1165 29.244 17.7248L28.1296 20.7849C27.9983 21.1448 28.0511 21.5444 28.2714 21.8585C28.4905 22.1714 28.8491 22.3578 29.2311 22.3578Z" fill="#27348B"/>
<path d="M2.93131 32.5047C3.17623 33.0942 3.86998 33.3826 4.46061 33.1388C5.05123 32.895 5.33834 32.1977 5.09459 31.6081C4.85084 31.0174 4.15592 30.7303 3.56529 30.9741C2.9735 31.2179 2.68873 31.9129 2.93131 32.5047Z" fill="#27348B"/>
<path d="M30.1074 2.41913L42.098 6.78371L38.1137 8.59447C33.1062 5.54137 27.0535 5.54606 22.093 8.69409L18.0664 6.80129L30.1074 2.41913Z" fill="#ED6C71"/>
<path d="M42.2059 36.1835C42.2129 36.1859 42.2199 36.1871 42.2258 36.1894C43.7668 36.5726 44.9738 37.7576 45.3898 39.2894L45.9887 43.2109H31.2793V39.1487L33.9055 41.2138C34.4562 41.6463 35.2871 41.4881 35.641 40.8857L38.9141 35.3022L42.2059 36.1835Z" fill="#ED6C71"/>
<path d="M23.3701 10.663C27.5854 8.01538 32.5846 8.01773 36.842 10.568V14.104C32.5061 11.9475 27.7189 11.9416 23.3701 14.1017V10.663Z" fill="#ED6C71"/>
<path d="M21.2879 35.2811L24.575 40.8857C24.9289 41.4881 25.7598 41.6463 26.3105 41.2139L28.9367 39.1488V43.211H14.0117L14.607 39.3047C15.0242 37.7658 16.2395 36.5785 17.7934 36.1976C17.7992 36.1965 17.8051 36.1953 17.8109 36.193L21.2879 35.2811Z" fill="#ED6C71"/>
<path d="M10.417 19.7285H21.0189C20.9943 22.8765 22.6572 25.8605 25.3268 27.5189L24.2744 32.0745L17.2244 33.924C14.8174 34.5182 12.94 36.3758 12.3225 38.7749C12.3131 38.8136 12.3049 38.8523 12.299 38.891L11.6404 43.211H10.417V19.7285Z" fill="#E4E6F2"/>
<path d="M49.5842 43.211H48.3607C48.3607 43.211 47.6846 38.796 47.674 38.7573C47.0576 36.3688 45.192 34.5147 42.8025 33.9169L35.9424 32.0792L34.8818 27.4908C37.5221 25.8206 39.1709 22.8496 39.1955 19.7285H49.5842V43.211Z" fill="#E4E6F2"/>
<path d="M25.8998 53.6558C24.9998 53.6558 24.2686 52.9245 24.2686 52.0244V50.5137H35.7342V52.0256C35.7342 52.9245 35.0029 53.657 34.1029 53.657H25.8998V53.6558Z" fill="#E4E6F2"/>
</g>
<defs>
<clipPath id="clip0">
<rect width="60" height="56" fill="white"/>
</clipPath>
</defs>
</svg>
