<svg width="30" height="30" viewBox="0 0 30 30" fill="none" xmlns="http://www.w3.org/2000/svg">
<path d="M15 30C23.2703 30 30 23.2711 30 15C30 13.5727 29.8008 12.1656 29.4062 10.818C29.2117 10.1555 28.5203 9.775 27.8555 9.96953C27.1922 10.1633 26.8133 10.8578 27.007 11.5203C27.3336 12.6398 27.5 13.8109 27.5 15C27.5 21.8922 21.8922 27.5 15 27.5C8.10781 27.5 2.5 21.8922 2.5 15C2.5 8.10781 8.10781 2.5 15 2.5C17.5047 2.5 19.9148 3.23281 21.9695 4.61797C22.5414 5.00391 23.3188 4.85234 23.7047 4.28047C24.0906 3.70781 23.9398 2.93125 23.3672 2.54531C20.8984 0.880469 18.0047 0 15 0C6.72969 0 0 6.72891 0 15C0 23.2711 6.72969 30 15 30Z" fill="#ED6C71"/>
<path d="M27.867 2.86639L15.0006 15.732L10.8842 11.6164C10.3959 11.1281 9.60449 11.1281 9.11621 11.6164C8.62793 12.1047 8.62793 12.8961 9.11621 13.3844L14.1162 18.3844C14.3607 18.6289 14.6795 18.7508 14.9998 18.7508C15.3201 18.7508 15.6389 18.6289 15.8834 18.3844L29.6334 4.63436C30.1217 4.14608 30.1217 3.35468 29.6334 2.86639C29.1459 2.37811 28.3553 2.37811 27.867 2.86639Z" fill="#ED6C71"/>
</svg>
