<svg width="57" height="60" viewBox="0 0 57 60" fill="none" xmlns="http://www.w3.org/2000/svg">
<path d="M12.843 24.5568H17.3739C18.6116 24.5568 19.6178 23.5455 19.6178 22.3021V17.7482C19.6178 16.5049 18.6116 15.4935 17.3739 15.4935H12.843C11.6076 15.4935 10.6025 16.5049 10.6025 17.7482V22.3021C10.6025 23.5455 11.6076 24.5568 12.843 24.5568ZM12.9291 17.8385H17.2913V22.2142H12.9291V17.8385Z" fill="#27348B"/>
<path d="M53.2438 32.7516C52.6866 32.7516 52.1271 32.8711 51.6176 33.109C51.2255 31.8563 50.2914 31.0512 49.2236 30.7148V5.53008C49.2236 2.48086 46.7563 0 43.7236 0H5.49992C2.46728 0 0 2.48086 0 5.53008V8.64844C0 10.1133 1.1842 11.3051 2.64061 11.3051H3.77363V55.3184C3.77363 56.7832 4.95784 57.975 6.41424 57.975H37.2012C39.2416 59.3074 41.4681 60.0012 43.7295 60.0012C44.9869 60.0012 46.2549 59.7867 47.5077 59.3484C50.21 58.4039 52.6249 56.4293 54.307 53.7879C56.0903 50.9871 57.0209 47.5418 57 43.8293V36.6785C57 34.0992 55.1097 32.7504 53.2438 32.7516ZM6.10016 55.3172V11.3051H16.758C17.4001 11.3051 17.9213 10.7801 17.9213 10.1332C17.9213 9.48633 17.4001 8.96133 16.758 8.96133H2.64061C2.47077 8.96133 2.32653 8.81836 2.32653 8.64844V5.53008C2.32653 3.77227 3.7492 2.34375 5.49875 2.34375H39.2311C38.5971 3.24492 38.2237 4.34414 38.2237 5.53008V8.64844C38.2237 8.81836 38.0795 8.96133 37.9096 8.96133H27.2285C26.5864 8.96133 26.0653 9.48633 26.0653 10.1332C26.0653 10.7801 26.5864 11.3051 27.2285 11.3051H37.9096C39.3661 11.3051 40.5503 10.1133 40.5503 8.64844V5.53008C40.5503 3.77344 41.9729 2.34375 43.7225 2.34375C45.472 2.34375 46.8947 3.77344 46.8947 5.53008V30.7148C46.7377 30.7641 46.5829 30.8227 46.434 30.8918C45.9036 29.1973 44.382 28.3184 42.8768 28.3184C42.3905 28.3184 41.9043 28.4098 41.4495 28.5902V21.9914C41.4495 19.4133 39.5603 18.0645 37.6956 18.0645C35.8297 18.0645 33.9417 19.4133 33.9417 21.9914V38.9238C33.9417 39.457 33.951 39.9434 33.9592 40.3723C33.9604 40.418 33.9615 40.466 33.9615 40.5129L31.2581 37.5926C29.683 35.8945 27.4054 35.7199 25.7198 37.1695C24.061 38.5957 23.2967 41.4035 25.1475 43.7965L33.2217 54.2355C33.6056 54.7324 34.0046 55.1965 34.4164 55.6324H6.41424C6.24441 55.6301 6.10016 55.4871 6.10016 55.3172ZM54.6735 43.8352C54.7107 50.2172 51.5989 55.4379 46.7458 57.1336C42.6406 58.568 38.2703 56.9461 35.0585 52.7941L26.9843 42.3551C26.0211 41.1105 26.3933 39.6715 27.2309 38.9508C27.4263 38.7832 27.8009 38.5277 28.2743 38.5277C28.6524 38.5277 29.0944 38.6906 29.5586 39.191L32.3911 42.2508C33.1903 43.1133 34.1849 44.1867 35.2876 43.7367C36.1659 43.3781 36.2473 42.3773 36.2741 42.0492C36.3113 41.5969 36.2997 41.0355 36.2857 40.3254C36.2776 39.907 36.2683 39.4336 36.2683 38.9238V21.9902C36.2683 20.4832 37.4583 20.407 37.6956 20.407C37.9329 20.407 39.1229 20.4832 39.1229 21.9902V38.7668C39.1229 39.4137 39.6441 39.9387 40.2862 39.9387C40.9283 39.9387 41.4495 39.4137 41.4495 38.7668V32.243C41.4495 30.7359 42.6395 30.6598 42.8768 30.6598C43.2525 30.6598 43.612 30.7945 43.8621 31.0312C44.1552 31.309 44.3041 31.7168 44.3041 32.243V38.7668C44.3041 39.4137 44.8252 39.9387 45.4674 39.9387C46.1095 39.9387 46.6306 39.4137 46.6306 38.7668V34.4625C46.6306 32.9543 47.8195 32.8781 48.058 32.8781C48.4349 32.8781 48.7943 33.0141 49.0444 33.2496C49.3387 33.5273 49.4876 33.9352 49.4876 34.4625V38.7668C49.4876 39.4137 50.0088 39.9387 50.6509 39.9387C51.293 39.9387 51.8141 39.4137 51.8141 38.7668V36.6773C51.8141 35.1703 53.0053 35.0941 53.2438 35.0941C53.6207 35.0941 53.9801 35.2301 54.2303 35.4656C54.5234 35.7434 54.6735 36.1512 54.6735 36.6773V43.8352Z" fill="#27348B"/>
<path d="M22.1855 16.6662C22.1855 17.3131 22.7067 17.8381 23.3488 17.8381H32.6584C33.3005 17.8381 33.8217 17.3131 33.8217 16.6662C33.8217 16.0193 33.3005 15.4943 32.6584 15.4943H23.3488C22.7067 15.4943 22.1855 16.0193 22.1855 16.6662Z" fill="#27348B"/>
<path d="M30.682 22.2142H23.3488C22.7067 22.2142 22.1855 22.7392 22.1855 23.386C22.1855 24.0329 22.7067 24.5579 23.3488 24.5579H30.682C31.3242 24.5579 31.8453 24.0329 31.8453 23.386C31.8453 22.7392 31.3253 22.2142 30.682 22.2142Z" fill="#27348B"/>
<path d="M11.7658 31.2797H29.5335C30.1756 31.2797 30.6968 30.7547 30.6968 30.1078C30.6968 29.4609 30.1756 28.9359 29.5335 28.9359H11.7658C11.1237 28.9359 10.6025 29.4609 10.6025 30.1078C10.6025 30.7547 11.1237 31.2797 11.7658 31.2797Z" fill="#27348B"/>
<path d="M11.7658 37.9992H21.3499C21.9921 37.9992 22.5132 37.4742 22.5132 36.8273C22.5132 36.1804 21.9921 35.6554 21.3499 35.6554H11.7658C11.1237 35.6554 10.6025 36.1804 10.6025 36.8273C10.6025 37.4742 11.1237 37.9992 11.7658 37.9992Z" fill="#27348B"/>
<path d="M11.7658 44.721H20.2065C20.8486 44.721 21.3697 44.196 21.3697 43.5491C21.3697 42.9022 20.8486 42.3772 20.2065 42.3772H11.7658C11.1237 42.3772 10.6025 42.9022 10.6025 43.5491C10.6025 44.196 11.1237 44.721 11.7658 44.721Z" fill="#27348B"/>
<path d="M24.1499 49.097H11.7658C11.1237 49.097 10.6025 49.622 10.6025 50.2689C10.6025 50.9158 11.1237 51.4408 11.7658 51.4408H24.1499C24.792 51.4408 25.3132 50.9158 25.3132 50.2689C25.3132 49.622 24.792 49.097 24.1499 49.097Z" fill="#27348B"/>
<path d="M21.9933 11.3049H22.0003C22.6424 11.3049 23.1601 10.7799 23.1601 10.133C23.1601 9.48614 22.6355 8.96114 21.9933 8.96114C21.3512 8.96114 20.8301 9.48614 20.8301 10.133C20.8301 10.7799 21.3512 11.3049 21.9933 11.3049Z" fill="#27348B"/>
</svg>
