<svg width="43" height="60" viewBox="0 0 43 60" fill="none" xmlns="http://www.w3.org/2000/svg">
<g clip-path="url(#clip0)">
<path d="M22.3273 4.86341C22.1101 4.64427 21.8088 4.52005 21.5017 4.52005C21.1946 4.52005 20.8933 4.64427 20.6761 4.86341C20.4589 5.08138 20.334 5.38255 20.334 5.69193C20.334 6.00013 20.4589 6.30247 20.6761 6.52044C20.8933 6.73841 21.1946 6.8638 21.5017 6.8638C21.8088 6.8638 22.1101 6.73841 22.3273 6.52044C22.5445 6.3013 22.6695 6.00013 22.6695 5.69193C22.6695 5.38372 22.5445 5.08138 22.3273 4.86341Z" fill="#27348B"/>
<path d="M34.0793 30.8283C33.8621 30.6104 33.5608 30.485 33.2537 30.485C32.9466 30.485 32.6453 30.6104 32.4281 30.8283C32.2109 31.0463 32.0859 31.3487 32.0859 31.6569C32.0859 31.9651 32.2109 32.2674 32.4281 32.4854C32.6453 32.7045 32.9466 32.8287 33.2537 32.8287C33.5608 32.8287 33.8621 32.7045 34.0793 32.4854C34.2965 32.2674 34.4214 31.9651 34.4214 31.6569C34.4214 31.3487 34.2976 31.0463 34.0793 30.8283Z" fill="#27348B"/>
<path d="M38.3197 0H4.68034C2.09961 0 0 2.10703 0 4.69688V28.1332C0 30.723 2.09961 32.8301 4.68034 32.8301H10.0531C10.6977 32.8301 11.2209 32.3051 11.2209 31.6582C11.2209 31.0113 10.6977 30.4863 10.0531 30.4863H4.68034C3.38764 30.4863 2.33666 29.4305 2.33666 28.1344V4.69688C2.33666 3.39961 3.38764 2.34492 4.68034 2.34492H38.3197C39.6124 2.34492 40.6633 3.39961 40.6633 4.69688V28.1332C40.6633 29.4305 39.6112 30.4852 38.3197 30.4852C37.6751 30.4852 37.1519 31.0102 37.1519 31.657C37.1519 32.3039 37.6751 32.8289 38.3197 32.8289C40.9004 32.8289 43 30.7219 43 28.132V4.69688C43 2.10703 40.9016 0 38.3197 0Z" fill="#27348B"/>
<path d="M24.8422 18.7393H22.6678V9.94788C22.6678 9.301 22.1447 8.776 21.5001 8.776H19.3584C18.7138 8.776 18.1907 9.301 18.1907 9.94788C18.1907 10.5948 18.7138 11.1198 19.3584 11.1198H20.3323V18.7393H18.158C17.5134 18.7393 16.9902 19.2643 16.9902 19.9112C16.9902 20.558 17.5134 21.083 18.158 21.083H24.8422C25.4868 21.083 26.0099 20.558 26.0099 19.9112C26.0099 19.2643 25.4868 18.7393 24.8422 18.7393Z" fill="#27348B"/>
<path d="M41.8322 57.6553H34.1193V54.1385C34.1193 53.4963 33.6031 52.9748 32.9644 52.9666L33.7619 50.4154C34.4322 48.2709 34.772 46.0443 34.772 43.7978V37.6877C34.772 35.8408 33.275 34.3385 31.4346 34.3385C31.0633 34.3385 30.7071 34.4006 30.3743 34.5131C30.0812 32.965 28.7231 31.7896 27.0964 31.7896C26.6398 31.7896 26.2043 31.8822 25.8072 32.0498C25.2864 30.8779 24.1163 30.0588 22.7571 30.0588C22.4079 30.0588 22.0716 30.1127 21.7552 30.2135V27.6517C21.7552 25.8049 20.2581 24.3025 18.4177 24.3025C16.5774 24.3025 15.0803 25.8049 15.0803 27.6517V37.1826L14.7276 36.5287C13.832 34.8646 11.8129 34.2283 10.1302 35.0803C8.69038 35.8092 7.94886 37.417 8.32721 38.9896L9.97958 45.8603C10.3743 47.501 11.0773 49.0232 12.0698 50.3861L13.9756 53.0041C13.47 53.133 13.0963 53.5912 13.0963 54.1385V57.6564H1.16775C0.523151 57.6564 0 58.1814 0 58.8283C0 59.4752 0.523151 60.0002 1.16775 60.0002H41.8322C42.4768 60.0002 43 59.4752 43 58.8283C43 58.1803 42.478 57.6553 41.8322 57.6553ZM31.7826 57.6553H15.4306V55.3103H16.2469H16.2481H16.2492H31.3669C31.3692 55.3103 31.3716 55.3103 31.3751 55.3103C31.3786 55.3103 31.3797 55.3103 31.3821 55.3103H31.7826V57.6553ZM32.4354 43.799C32.4354 45.8076 32.1318 47.7986 31.5327 49.7158L30.5168 52.9678H16.8389L13.9534 49.0045C13.1442 47.8935 12.5708 46.6502 12.2485 45.3119L10.5961 38.4412C10.4735 37.9314 10.7141 37.4111 11.18 37.1744C11.7254 36.8978 12.3793 37.1041 12.6701 37.6431L15.2181 42.3775C15.4727 42.8498 16.0133 43.0889 16.5318 42.9576C17.0503 42.8264 17.4135 42.3576 17.4135 41.8209V27.6529C17.4135 27.0986 17.863 26.6474 18.4154 26.6474C18.9677 26.6474 19.4173 27.0986 19.4173 27.6529V38.8162C19.4173 39.4631 19.9405 39.9881 20.5851 39.9881C21.2297 39.9881 21.7528 39.4631 21.7528 38.8162V33.4092C21.7528 32.8549 22.2024 32.4037 22.7547 32.4037C23.3071 32.4037 23.7567 32.8549 23.7567 33.4092V38.8162C23.7567 39.4631 24.2798 39.9881 24.9244 39.9881C25.569 39.9881 26.0922 39.4631 26.0922 38.8162V35.14C26.0922 34.5857 26.5418 34.1346 27.0941 34.1346C27.6464 34.1346 28.096 34.5857 28.096 35.14V38.8162C28.096 39.4631 28.6192 39.9881 29.2638 39.9881C29.9084 39.9881 30.4315 39.4631 30.4315 38.8162V37.6888C30.4315 37.1346 30.8811 36.6834 31.4334 36.6834C31.9858 36.6834 32.4354 37.1346 32.4354 37.6888V43.799Z" fill="#27348B"/>
<path d="M31.7817 57.6558H15.4297V55.3109H16.2459H16.2471H16.2483H31.3671C31.3695 55.3109 31.3718 55.3109 31.3753 55.3109C31.3788 55.3109 31.38 55.3109 31.3823 55.3109H31.7829L31.7817 57.6558Z" fill="#ED6C71"/>
<path d="M32.4352 43.7987C32.4352 45.8073 32.1316 47.7983 31.5326 49.7155L30.5166 52.9674H16.84L13.9545 49.0041C13.1452 47.8932 12.5718 46.6498 12.2495 45.3116L10.5972 38.4409C10.4746 37.9311 10.7151 37.4108 11.181 37.1741C11.7264 36.8975 12.3803 37.1037 12.6711 37.6428L15.2191 42.3772C15.4737 42.8495 16.0144 43.0885 16.5328 42.9573C17.0513 42.826 17.4145 42.3573 17.4145 41.8205V27.6526C17.4145 27.0983 17.8641 26.6471 18.4164 26.6471C18.9688 26.6471 19.4183 27.0983 19.4183 27.6526V38.8159C19.4183 39.4627 19.9415 39.9877 20.5861 39.9877C21.2307 39.9877 21.7538 39.4627 21.7538 38.8159V33.4088C21.7538 32.8545 22.2034 32.4034 22.7558 32.4034C23.3081 32.4034 23.7577 32.8545 23.7577 33.4088V38.8159C23.7577 39.4627 24.2809 39.9877 24.9255 39.9877C25.57 39.9877 26.0932 39.4627 26.0932 38.8159V35.1397C26.0932 34.5854 26.5428 34.1342 27.0951 34.1342C27.6475 34.1342 28.0971 34.5854 28.0971 35.1397V38.8159C28.0971 39.4627 28.6202 39.9877 29.2648 39.9877C29.9094 39.9877 30.4326 39.4627 30.4326 38.8159V37.6885C30.4326 37.1342 30.8821 36.683 31.4345 36.683C31.9868 36.683 32.4364 37.1342 32.4364 37.6885L32.4352 43.7987Z" fill="#E4E6F2"/>
</g>
<defs>
<clipPath id="clip0">
<rect width="43" height="60" fill="white"/>
</clipPath>
</defs>
</svg>
