<svg width="60" height="60" viewBox="0 0 60 60" fill="none" xmlns="http://www.w3.org/2000/svg">
<g clip-path="url(#clip0)">
<path d="M50.7611 53.856C50.4682 53.7224 50.1318 53.7154 49.833 53.8361C47.2619 54.8814 44.3029 55.4345 41.276 55.4345C36.8193 55.4345 32.6451 54.2673 29.5221 52.1486C26.5385 50.1247 24.8955 47.4798 24.8955 44.7001C24.8955 43.9865 25.0045 43.2775 25.2189 42.5861C25.2752 42.5755 25.3326 42.5673 25.3889 42.5568C30.9904 41.515 35.6791 38.3697 38.7951 34.0912C39.6096 34.0091 40.4404 33.9658 41.276 33.9658C45.7314 33.9658 49.9057 35.1329 53.0287 37.2517C56.0123 39.2755 57.6564 41.9216 57.6564 44.7001C57.6564 46.9197 56.6088 49.0595 54.626 50.8876C54.2475 51.2369 54.1408 51.7935 54.3646 52.2576L56.3662 56.4154L50.7611 53.856Z" fill="#ED6C71"/>
<path d="M56.8412 51.9985C58.9119 49.8445 60.0006 47.3379 60.0006 44.7012C60.0006 41.1211 57.992 37.7871 54.3451 35.3133C50.8377 32.9344 46.1959 31.6242 41.2763 31.6242C40.9634 31.6242 40.6517 31.6313 40.34 31.6418C42.5912 27.4746 43.49 22.5422 42.5572 17.5324C42.188 15.5613 41.5541 13.6652 40.674 11.8981C40.3857 11.3192 39.6826 11.0824 39.1025 11.3719C38.5236 11.6602 38.288 12.3633 38.5763 12.9434C39.3603 14.5172 39.924 16.2059 40.2533 17.9637C42.181 28.3277 35.322 38.3274 24.9603 40.2563C21.5009 40.902 17.9396 40.5832 14.6607 39.3328C14.3525 39.2156 14.0091 39.2332 13.715 39.382C10.6986 40.9008 6.45991 41.7188 3.02632 41.5102C4.78179 38.0121 5.2728 35.1141 5.52124 32.4867C5.54585 32.2266 5.48257 31.9653 5.34194 31.7449C4.02124 29.6777 3.12241 27.3961 2.67007 24.9633C0.741162 14.5992 7.60249 4.59962 17.963 2.67189C22.8591 1.759 27.8455 2.7715 32.0033 5.52071C32.5435 5.87814 33.2701 5.72931 33.6275 5.18907C33.9849 4.64884 33.8361 3.92228 33.2959 3.56486C28.6294 0.478137 23.0302 -0.65741 17.5341 0.366809C5.9021 2.53126 -1.79946 13.7578 0.366162 25.3922C0.848974 27.9867 1.7853 30.4289 3.14937 32.6578C2.83413 35.6684 2.17202 38.427 0.159912 41.8817C-0.032276 42.2121 -0.051026 42.6152 0.108349 42.9621C0.268896 43.309 0.587646 43.5563 0.963818 43.6242C1.94585 43.8012 3.0146 43.8867 4.12788 43.8867C7.52398 43.8867 11.3255 43.0934 14.3068 41.6965C17.0115 42.6539 19.8744 43.0535 22.7291 42.8813C22.6107 43.4801 22.5521 44.0883 22.5521 44.6988C22.5521 48.2789 24.5595 51.6129 28.2064 54.0867C31.7138 56.4656 36.3556 57.7758 41.2763 57.7758C44.4193 57.7758 47.5072 57.2297 50.24 56.1926L58.3412 59.8922C58.497 59.9637 58.6634 59.9977 58.8275 59.9977C59.1357 59.9977 59.4392 59.8758 59.6654 59.6461C60.0111 59.2934 60.0978 58.7625 59.8845 58.3172L56.8412 51.9985ZM50.7615 53.8559C50.4685 53.7223 50.1322 53.7152 49.8334 53.8359C47.2623 54.8813 44.3033 55.4344 41.2763 55.4344C36.8197 55.4344 32.6455 54.2672 29.5224 52.1484C26.5388 50.1246 24.8959 47.4797 24.8959 44.7C24.8959 43.9863 25.0048 43.2774 25.2193 42.5859C25.2755 42.5754 25.333 42.5672 25.3892 42.5567C30.9908 41.5149 35.6795 38.3695 38.7955 34.091C39.6099 34.009 40.4408 33.9656 41.2763 33.9656C45.7318 33.9656 49.906 35.1328 53.0291 37.2516C56.0127 39.2754 57.6568 41.9215 57.6568 44.7C57.6568 46.9195 56.6091 49.0594 54.6263 50.8875C54.2478 51.2367 54.1412 51.7934 54.365 52.2574L56.3666 56.4152L50.7615 53.8559Z" fill="#27348B"/>
<path d="M33.2949 43.3887C32.648 43.3887 32.123 43.9172 32.123 44.5641C32.123 45.2109 32.648 45.7359 33.2949 45.7359C33.9418 45.7359 34.4668 45.2109 34.4668 44.5641V44.557C34.4668 43.9102 33.9418 43.3887 33.2949 43.3887Z" fill="#27348B"/>
<path d="M41.2754 43.3887C40.6285 43.3887 40.1035 43.9172 40.1035 44.5641C40.1035 45.2109 40.6285 45.7359 41.2754 45.7359C41.9223 45.7359 42.4473 45.2109 42.4473 44.5641V44.557C42.4473 43.9102 41.9223 43.3887 41.2754 43.3887Z" fill="#27348B"/>
<path d="M49.2559 43.3887C48.609 43.3887 48.084 43.9172 48.084 44.5641C48.084 45.2109 48.609 45.7359 49.2559 45.7359C49.9027 45.7359 50.4277 45.2109 50.4277 44.5641V44.557C50.4277 43.9102 49.9027 43.3887 49.2559 43.3887Z" fill="#27348B"/>
<path d="M36.6694 9.18321C36.8452 9.18321 37.0245 9.14336 37.1921 9.05899C37.771 8.76954 38.0053 8.06524 37.7159 7.48633L37.7124 7.4793C37.4229 6.90039 36.7198 6.66953 36.142 6.95899C35.5631 7.24844 35.3299 7.95508 35.6194 8.53399C35.8256 8.94532 36.2393 9.18321 36.6694 9.18321Z" fill="#27348B"/>
<path d="M23.8834 9.17361C21.6662 9.17361 20.8576 11.2971 20.5131 12.2029L19.2029 15.633C18.8807 16.4803 18.5455 16.8154 18.1037 16.9478C17.8799 15.8428 16.9014 15.0072 15.7307 15.0072H11.5236C10.1889 15.0072 9.10254 16.0935 9.10254 17.4283V29.3838C9.10254 30.7185 10.1889 31.8049 11.5236 31.8049H15.7318C16.6342 31.8049 17.4217 31.308 17.8377 30.5732C18.9779 31.0842 20.4135 31.3994 21.8068 31.3994H27.1014C30.7787 31.3994 33.7705 28.4076 33.7705 24.7303V20.8842C33.7705 18.2908 31.6588 16.1814 29.0643 16.1814H27.3334V12.6213C27.3346 10.7205 25.7865 9.17361 23.8834 9.17361ZM15.8092 29.3838C15.8092 29.4224 15.7717 29.4611 15.7318 29.4611H11.5236C11.4826 29.4611 11.4463 29.4248 11.4463 29.3838V17.4283C11.4463 17.3885 11.4826 17.351 11.5236 17.351H15.7318C15.7705 17.351 15.8092 17.3896 15.8092 17.4283V29.3838ZM29.0654 18.5228C30.3686 18.5228 31.4279 19.581 31.4279 20.8818V24.7279C31.4279 27.1127 29.4873 29.0533 27.1025 29.0533H21.808C20.2951 29.0533 18.8338 28.5447 18.1529 28.0818V19.3197C19.2522 19.1662 20.5846 18.5967 21.3943 16.4662L22.7033 13.0373C23.2377 11.6346 23.5928 11.5174 23.8834 11.5174C24.494 11.5174 24.9908 12.0119 24.9908 12.6213V17.3521C24.9908 17.999 25.5158 18.524 26.1627 18.524L29.0654 18.5228Z" fill="#27348B"/>
<path d="M15.8082 29.3836C15.8082 29.4222 15.7707 29.4609 15.7309 29.4609H11.5227C11.4816 29.4609 11.4453 29.4246 11.4453 29.3836V17.4281C11.4453 17.3882 11.4816 17.3507 11.5227 17.3507H15.7309C15.7695 17.3507 15.8082 17.3894 15.8082 17.4281V29.3836Z" fill="#E4E6F2"/>
</g>
<defs>
<clipPath id="clip0">
<rect width="60" height="60" fill="white"/>
</clipPath>
</defs>
</svg>
