<svg width="60" height="60" viewBox="0 0 60 60" fill="none" xmlns="http://www.w3.org/2000/svg">
<g clip-path="url(#clip0)">
<path d="M52.9699 29.6868C47.9402 34.7165 40.3512 35.8439 34.0863 32.4923C33.8051 32.3423 33.4758 32.313 33.1734 32.4103L24.9258 35.0728L27.5859 26.8216C27.6832 26.5193 27.6539 26.19 27.5039 25.9099C24.2062 19.7423 25.3594 11.9775 30.3082 7.02746C33.4336 3.90442 37.5363 2.34231 41.6402 2.34231C45.743 2.34231 49.8469 3.90442 52.9699 7.02746C59.2172 13.2747 59.2172 23.4396 52.9699 29.6868Z" fill="#E4E6F2"/>
<path d="M38.1867 7.96782C35.6461 7.96782 33.5801 10.035 33.5801 12.5756V13.9116C33.5801 14.5584 34.1051 15.0834 34.752 15.0834C35.3988 15.0834 35.9238 14.5584 35.9238 13.9116V12.5756C35.9238 11.3276 36.9387 10.3127 38.1867 10.3127C39.4348 10.3127 40.4496 11.3276 40.4496 12.5756V13.9116C40.4496 14.3557 39.9293 14.9768 39.4266 15.5768C38.6449 16.5096 37.7578 17.5678 37.7578 19.0022V22.2811C37.7578 22.928 38.2828 23.453 38.9297 23.453C39.5766 23.453 40.1016 22.928 40.1016 22.2811V19.0022C40.1016 18.4209 40.6465 17.7706 41.2231 17.0827C41.959 16.2038 42.7934 15.2088 42.7934 13.9116V12.5756C42.7945 10.035 40.7274 7.96782 38.1867 7.96782Z" fill="#27348B"/>
<path d="M38.9365 26.3639C38.2896 26.3639 37.7646 26.8889 37.7646 27.5358V27.5393C37.7646 28.1862 38.2896 28.71 38.9365 28.71C39.5834 28.71 40.1084 28.1838 40.1084 27.5358C40.1084 26.8878 39.5834 26.3639 38.9365 26.3639Z" fill="#27348B"/>
<path d="M48.5674 8.02407C47.9205 8.02407 47.3955 8.54907 47.3955 9.19595V22.2799C47.3955 22.9268 47.9205 23.4518 48.5674 23.4518C49.2142 23.4518 49.7392 22.9268 49.7392 22.2799V9.19595C49.7404 8.54907 49.2154 8.02407 48.5674 8.02407Z" fill="#27348B"/>
<path d="M48.5674 26.3579C47.9205 26.3579 47.3955 26.8829 47.3955 27.5297V27.5391C47.3955 28.186 47.9205 28.7063 48.5674 28.7063C49.2142 28.7063 49.7392 28.1766 49.7392 27.5297C49.7404 26.8817 49.2154 26.3579 48.5674 26.3579Z" fill="#27348B"/>
<path d="M34.4824 41.0369C34.4566 41.0111 34.4297 40.9865 34.4015 40.963C32.6168 39.4747 30.1183 39.5052 28.589 41.0345C28.589 41.0345 24.2554 45.3693 23.2242 46.4005L23.1176 46.5072C19.1355 44.099 15.9058 40.8904 13.4613 36.9154L17.359 33.0177L18.9691 31.4111C20.4961 29.8806 20.5254 27.3822 19.0394 25.5998C19.016 25.5716 18.9914 25.5447 18.9656 25.5189L11.823 18.422C10.6054 17.2138 9.45701 17.0966 8.70701 17.2126C7.51521 17.3955 6.44529 18.2802 5.69411 19.7052L2.04958 26.6322C1.12497 28.3865 0.0585683 30.749 0.00231832 33.4712C-0.0644785 36.7056 1.31247 39.756 4.09333 42.538L7.04997 45.5017C7.27849 45.7314 7.57966 45.8462 7.87966 45.8462C8.17966 45.8462 8.47849 45.7326 8.70701 45.504C9.16521 45.047 9.16638 44.3052 8.70935 43.847L5.75154 40.8822C0.813256 35.9439 2.1574 31.4591 4.12263 27.7244L6.2906 23.6029L14.8734 32.188L12.2683 34.7931C11.9695 34.2095 11.6836 33.6119 11.414 32.999C11.1539 32.406 10.4613 32.1365 9.86951 32.3966C9.27654 32.6568 9.00701 33.3482 9.26716 33.9412C9.77458 35.0978 10.3347 36.2052 10.9418 37.2669C10.95 37.2833 10.9605 37.2997 10.9699 37.3162C14.4058 43.2927 19.4156 47.7458 25.9078 50.5818C26.0601 50.6486 26.2195 50.6802 26.3765 50.6802C26.8277 50.6802 27.259 50.4177 27.4511 49.9771C27.7101 49.3841 27.4394 48.6927 26.8465 48.4337C26.3039 48.197 25.7742 47.9462 25.2539 47.6849C26.0109 46.9279 26.9836 45.9564 27.8133 45.1255L36.3925 53.7083L32.2722 55.8763C28.5398 57.8427 24.0586 59.188 19.1191 54.2497L16.1519 51.2861C15.6937 50.829 14.9519 50.829 14.4937 51.2872C14.0367 51.7454 14.0367 52.4872 14.4949 52.9443L17.4621 55.9079C20.1797 58.6244 23.1527 60.0001 26.3027 60.0001C26.3777 60.0001 26.4539 59.999 26.5289 59.9978C29.2523 59.9415 31.6125 58.874 33.3656 57.9505L40.2914 54.306C41.7176 53.5572 42.6035 52.4872 42.7863 51.2931C42.9011 50.5431 42.7851 49.3935 41.5769 48.1794L34.4824 41.0369ZM7.43435 21.429L7.76716 20.7962C8.14568 20.0791 8.64138 19.5927 9.06091 19.5283C9.45349 19.4685 9.88122 19.7978 10.1695 20.0837L17.2699 27.1384C17.8605 27.8767 18.0621 28.9994 17.3109 29.7529L16.5316 30.531L7.43435 21.429ZM40.4707 50.938C40.4062 51.3587 39.9199 51.8544 39.2015 52.2318L38.5664 52.5658L29.4715 43.4673L30.2472 42.6915C31.0008 41.938 32.1234 42.1396 32.8617 42.7314L39.9164 49.833C40.2023 50.1201 40.5304 50.5455 40.4707 50.938Z" fill="#27348B"/>
<path d="M54.6296 5.3708C47.4694 -1.78935 35.8163 -1.78935 28.6526 5.3708C25.8108 8.21377 24.0132 11.8149 23.4542 15.7853C22.9374 19.4579 23.5597 23.2665 25.2062 26.5677L21.9941 36.5333C21.8593 36.9517 21.9694 37.411 22.2812 37.7216C22.5038 37.9442 22.8038 38.0649 23.1097 38.0649C23.2304 38.0649 23.3511 38.0462 23.4694 38.0087L33.4304 34.7931C36.7327 36.4407 40.5413 37.0642 44.214 36.5474C48.1843 35.9884 51.7855 34.1907 54.6296 31.3466C61.7898 24.1841 61.7898 12.5321 54.6296 5.3708ZM52.9714 29.6872C47.9417 34.7169 40.3526 35.8442 34.0878 32.4927C33.8066 32.3427 33.4773 32.3134 33.1749 32.4106L24.9273 35.0731L27.5874 26.822C27.6847 26.5196 27.6554 26.1903 27.5054 25.9103C24.2077 19.7427 25.3609 11.9778 30.3097 7.02784C33.4351 3.90479 37.5378 2.34268 41.6417 2.34268C45.7444 2.34268 49.8483 3.90479 52.9714 7.02784C59.2187 13.2751 59.2187 23.4399 52.9714 29.6872Z" fill="#27348B"/>
<path d="M10.7733 47.5651C10.3151 48.0233 10.3151 48.7651 10.7733 49.2221L10.7769 49.2256C11.0054 49.4541 11.3042 49.5678 11.603 49.5678C11.903 49.5678 12.203 49.453 12.4327 49.2233C12.8909 48.7651 12.8886 48.0221 12.4315 47.5639C11.9733 47.108 11.2315 47.1081 10.7733 47.5651Z" fill="#27348B"/>
<path d="M7.43457 21.4288L7.76738 20.796C8.1459 20.0788 8.6416 19.5924 9.06113 19.528C9.45371 19.4682 9.88144 19.7975 10.1697 20.0835L17.2701 27.1381C17.8607 27.8764 18.0623 28.9991 17.3111 29.7526L16.5318 30.5307L7.43457 21.4288Z" fill="#ED6C71"/>
<path d="M40.4699 50.9378C40.4055 51.3585 39.9192 51.8542 39.2008 52.2315L38.5656 52.5655L29.4707 43.4671L30.2465 42.6913C31 41.9378 32.1227 42.1394 32.8609 42.7312L39.9156 49.8327C40.2016 50.1198 40.5297 50.5452 40.4699 50.9378Z" fill="#ED6C71"/>
</g>
<defs>
<clipPath id="clip0">
<rect width="60" height="60" fill="white"/>
</clipPath>
</defs>
</svg>
