<svg width="60" height="42" viewBox="0 0 60 42" fill="none" xmlns="http://www.w3.org/2000/svg">
<g clip-path="url(#clip0)">
<path d="M53.1074 35.6032C53.7546 35.6032 54.2793 35.0809 54.2793 34.4366C54.2793 33.7922 53.7546 33.2699 53.1074 33.2699C52.4602 33.2699 51.9355 33.7922 51.9355 34.4366C51.9355 35.0809 52.4602 35.6032 53.1074 35.6032Z" fill="#27348B"/>
<path d="M59.9649 24.8185C59.8887 24.5163 59.6907 24.2538 59.4212 24.0963L50.3661 18.781C50.2922 18.5838 50.2032 18.3902 50.0977 18.2035C49.8458 17.7567 49.5141 17.3717 49.1251 17.0555C49.0172 16.6647 48.5403 15.6695 48.4348 15.5038C48.6212 14.5682 48.4688 13.608 47.993 12.7668C47.5208 11.9327 46.7813 11.3015 45.886 10.9632C46.3606 9.86883 46.3524 8.59133 45.7524 7.483C45.2227 6.50533 44.3344 5.80067 43.2505 5.49733C42.9141 5.40283 42.5719 5.35267 42.2309 5.34333C42.3094 4.53483 42.1395 3.724 41.7305 2.9995C41.1973 2.05567 40.3208 1.37317 39.2637 1.078C38.2137 0.785167 37.1098 0.907667 36.1524 1.42567C36.0352 1.4875 34.0008 2.56317 31.1239 4.10317C28.8106 2.74983 25.0852 0.572833 25.0852 0.572833C24.4477 0.198333 23.72 0 22.9817 0C21.552 0 20.2055 0.747833 19.4672 1.95067C18.9024 2.8735 18.7348 3.95733 18.9973 5.00383C18.9997 5.01433 19.0032 5.02483 19.0055 5.03533C17.952 5.28733 17.0204 5.943 16.4508 6.87167C15.8848 7.7945 15.7172 8.87833 15.9797 9.92483C15.9821 9.93533 15.9856 9.94583 15.9879 9.95633C14.9356 10.2083 14.0028 10.864 13.4321 11.7927C12.927 12.6163 12.7407 13.5695 12.893 14.5087C12.7044 14.6918 12.5286 14.8785 12.3669 15.0687C11.5653 15.3942 10.8727 15.9658 10.4145 16.7137C10.0044 17.3822 9.80513 18.1358 9.82506 18.8988L0.614119 23.8863C0.337557 24.0357 0.13365 24.2888 0.0457597 24.5887C-0.0409591 24.8897 -0.00345907 25.2117 0.150057 25.4847L9.1524 41.405C9.36685 41.7853 9.76529 42 10.1743 42C10.3653 42 10.5598 41.9533 10.7379 41.8553L16.9817 38.4323C17.2559 38.2818 17.4587 38.0287 17.5442 37.73C17.6297 37.4313 17.5911 37.1093 17.4376 36.8375L16.2657 34.769L19.2153 33.1473C20.9403 34.0083 22.793 34.44 24.6715 34.44C26.7047 34.44 28.7708 33.9348 30.7372 32.9268C32.2758 33.5312 33.8532 33.8333 35.4176 33.8333C37.1567 33.8333 38.8782 33.4588 40.5036 32.7157L43.3911 34.4365L42.1465 36.463C41.9848 36.7278 41.9344 37.051 42.0094 37.352C42.0833 37.6518 42.279 37.9155 42.5462 38.0742L48.6645 41.7083C48.8461 41.8157 49.0536 41.8728 49.2645 41.8728C49.6758 41.8728 50.0508 41.664 50.2653 41.314L51.361 39.5255C51.6973 38.976 51.5227 38.2562 50.9708 37.9213C50.7868 37.8093 50.577 37.751 50.3614 37.751C49.9489 37.751 49.5751 37.9598 49.3606 38.3098L48.8684 39.1125L44.7645 36.6742L53.0977 23.1058L57.2075 25.5068L54.8544 29.3463C54.5169 29.8958 54.6926 30.6145 55.2434 30.9505C55.4274 31.0625 55.6383 31.1208 55.8528 31.1208C56.2653 31.1208 56.6403 30.912 56.8547 30.562V30.5608L59.829 25.7098C59.9919 25.4438 60.0411 25.1195 59.9649 24.8185ZM45.7782 25.123C45.7782 25.123 48.4782 23.7218 48.4852 23.7183C49.3864 23.2283 50.0544 22.4443 50.3883 21.4958L51.0751 21.896L44.611 32.4427L42.1782 30.9925C42.177 30.9937 45.7618 25.1568 45.7782 25.123ZM21.4676 3.16633C21.7876 2.64483 22.3536 2.33333 22.9817 2.33333C23.3004 2.33333 23.6157 2.41967 23.8911 2.58183L26.1223 3.8955C26.5243 4.13233 26.8079 4.50683 26.918 4.95017C27.027 5.38533 26.9567 5.83683 26.7212 6.22183C26.5934 6.43067 26.4235 6.60217 26.2278 6.73517C26.12 6.7935 26.0133 6.85067 25.9067 6.909C25.4215 7.11083 24.8497 7.105 24.3598 6.84367L22.0653 5.49383C21.6633 5.257 21.3809 4.8825 21.2696 4.43917C21.1618 4.004 21.2321 3.55133 21.4676 3.16633ZM18.4524 8.08733C18.7723 7.56467 19.3372 7.25317 19.9641 7.25317C20.2829 7.25317 20.5981 7.3395 20.8735 7.50167L24.7794 9.8C25.1813 10.0368 25.4637 10.4113 25.5751 10.8547C25.684 11.2898 25.6137 11.7413 25.3782 12.1263C24.8977 12.9103 23.843 13.188 23.0192 12.7493L19.0477 10.4113C18.6458 10.1745 18.3633 9.80117 18.2532 9.35783C18.1454 8.925 18.2157 8.4735 18.4524 8.08733ZM15.4337 13.0083C15.7501 12.4938 16.3301 12.1742 16.9477 12.1742C17.2665 12.1742 17.5805 12.2605 17.8559 12.4227L21.8743 14.7875C22.2762 15.0243 22.5587 15.3988 22.67 15.8422C22.779 16.2773 22.7087 16.7288 22.4731 17.1138C21.9739 17.9282 20.8864 18.1907 20.0508 17.6983L16.0337 15.3335C15.6317 15.0967 15.3481 14.7222 15.2379 14.2788C15.1278 13.8448 15.1981 13.3933 15.4337 13.0083ZM17.0708 18.6562C17.4727 18.893 17.7551 19.2675 17.8665 19.7108C17.9754 20.146 17.9051 20.5975 17.6696 20.9825C17.1692 21.798 16.0817 22.0605 15.2462 21.5682L13.0149 20.2545C12.6129 20.0177 12.3305 19.6432 12.2192 19.1998C12.1102 18.7647 12.1805 18.3132 12.4161 17.9282C12.7313 17.4137 13.3126 17.094 13.9301 17.094C14.2489 17.094 14.5641 17.1803 14.8395 17.3425L17.0708 18.6562ZM10.6254 39.2537L2.7774 25.3727L6.97037 23.1128L14.8149 36.9565L10.6254 39.2537ZM15.1149 32.7367L9.02115 21.9823L10.5856 21.1412C10.9102 21.5903 11.3274 21.9718 11.8219 22.2635L12.7524 22.8118L17.604 31.3682L15.1149 32.7367ZM20.0614 30.9575L16.2001 24.1465C17.5747 24.1302 18.9106 23.4372 19.67 22.1993C20.0438 21.5903 20.2419 20.9102 20.2594 20.2172C20.4903 20.2568 20.7223 20.2778 20.9544 20.2778C22.3454 20.2778 23.7047 19.5825 24.4735 18.3295C25.0395 17.4078 25.2059 16.3228 24.9446 15.2775C24.9352 15.2402 24.9235 15.2028 24.9141 15.1655C25.909 14.9077 26.8055 14.2812 27.3797 13.3432C27.9458 12.4215 28.1122 11.3365 27.8508 10.2912C27.7219 9.77783 27.4981 9.30533 27.1934 8.89C27.2977 8.83283 37.234 3.49533 37.2575 3.48367C37.261 3.48133 37.2657 3.479 37.2692 3.47667C37.6876 3.24917 38.1715 3.19433 38.6309 3.32383C39.0856 3.451 39.4618 3.7415 39.688 4.144C39.9106 4.53717 39.9645 4.99217 39.8391 5.42617C39.7114 5.87067 39.4126 6.2405 38.9965 6.46683L38.9942 6.468C38.9942 6.468 38.993 6.468 38.993 6.46917L32.4657 10.0158C31.8973 10.325 31.6887 11.0332 31.9981 11.599C32.2114 11.9875 32.6133 12.2068 33.0282 12.2068C33.218 12.2068 33.4102 12.1602 33.5883 12.0633L41.2547 7.89717C41.6731 7.66967 42.1571 7.616 42.6165 7.74433C43.0829 7.875 43.4637 8.176 43.6887 8.59133C44.1305 9.40567 43.786 10.4498 42.9247 10.9177L35.3133 15.0535C34.745 15.3627 34.5364 16.0708 34.8469 16.6367C35.0602 17.0252 35.4622 17.2445 35.877 17.2445C36.0669 17.2445 36.259 17.1978 36.4372 17.101L43.5422 13.2393C43.9583 13.0165 44.4376 12.964 44.8946 13.0912C45.3493 13.2183 45.7254 13.51 45.9516 13.9113C46.1743 14.3045 46.2282 14.7595 46.1028 15.1935C45.9739 15.6392 45.6739 16.009 45.2637 16.2318L38.0907 19.901C37.5141 20.1938 37.2856 20.8973 37.5809 21.4702C37.7883 21.8738 38.1985 22.106 38.6251 22.106C38.8044 22.106 38.986 22.0652 39.1571 21.9777L45.6586 18.6702C46.0723 18.4532 46.5469 18.4018 46.9981 18.529C47.4528 18.6562 47.829 18.9478 48.0551 19.3492C48.2778 19.7423 48.3317 20.1973 48.2063 20.6313C48.0786 21.0735 47.7821 21.441 47.3696 21.6685L29.9579 30.7008C29.9508 30.7043 29.945 30.7078 29.9379 30.7113C26.6391 32.5022 23.1434 32.5873 20.0614 30.9575ZM33.7606 31.3577L41.754 27.2102L39.7337 30.4978C37.8516 31.409 35.7997 31.6972 33.7606 31.3577Z" fill="#27348B"/>
<path d="M45.8207 25.123C45.8207 25.123 48.5207 23.7218 48.5277 23.7183C49.4289 23.2283 50.0969 22.4443 50.4309 21.4958L51.1176 21.896L44.6535 32.4427L42.2207 30.9925C42.2195 30.9937 45.8043 25.1568 45.8207 25.123Z" fill="#E4E6F2"/>
<path d="M21.5132 3.16634C21.8331 2.64484 22.3991 2.33334 23.0273 2.33334C23.346 2.33334 23.6613 2.41967 23.9366 2.58184L26.1679 3.89551C26.5698 4.13234 26.8534 4.50684 26.9636 4.95017C27.0726 5.38534 27.0023 5.83684 26.7667 6.22184C26.639 6.43067 26.4691 6.60217 26.2734 6.73517C26.1656 6.79351 26.0589 6.85067 25.9523 6.90901C25.4671 7.11084 24.8952 7.10501 24.4054 6.84367L22.1109 5.49384C21.7089 5.25701 21.4265 4.88251 21.3152 4.43917C21.2073 4.00401 21.2765 3.55134 21.5132 3.16634Z" fill="#E4E6F2"/>
<path d="M18.4946 8.08741C18.8145 7.56474 19.3793 7.25324 20.0063 7.25324C20.325 7.25324 20.6403 7.33957 20.9157 7.50174L24.8215 9.80007C25.2235 10.0369 25.5059 10.4114 25.6172 10.8547C25.7262 11.2899 25.6559 11.7414 25.4204 12.1264C24.9399 12.9104 23.8852 13.1881 23.0614 12.7494L19.0899 10.4114C18.6879 10.1746 18.4055 9.80124 18.2954 9.35791C18.1876 8.92507 18.2579 8.47357 18.4946 8.08741Z" fill="#E4E6F2"/>
<path d="M15.477 13.0083C15.7935 12.4938 16.3735 12.1741 16.9911 12.1741C17.3099 12.1741 17.6239 12.2604 17.8993 12.4226L21.9177 14.7874C22.3196 15.0243 22.602 15.3988 22.7134 15.8421C22.8224 16.2773 22.752 16.7288 22.5165 17.1138C22.0173 17.9281 20.9298 18.1906 20.0942 17.6983L16.077 15.3334C15.6751 15.0966 15.3915 14.7221 15.2813 14.2788C15.1712 13.8448 15.2415 13.3933 15.477 13.0083Z" fill="#E4E6F2"/>
<path d="M17.1145 18.6562C17.5165 18.893 17.7989 19.2675 17.9102 19.7108C18.0192 20.146 17.9489 20.5975 17.7134 20.9825C17.213 21.798 16.1255 22.0605 15.2899 21.5682L13.0587 20.2545C12.6567 20.0177 12.3743 19.6432 12.263 19.1998C12.154 18.7647 12.2243 18.3132 12.4599 17.9282C12.7751 17.4137 13.3563 17.094 13.9739 17.094C14.2927 17.094 14.6079 17.1803 14.8833 17.3425L17.1145 18.6562Z" fill="#E4E6F2"/>
<path d="M10.6693 39.2538L2.82129 25.3728L7.01426 23.113L14.8588 36.9566L10.6693 39.2538Z" fill="#ED6C71"/>
<path d="M33.8037 31.3577L41.7971 27.2102L39.7768 30.4978C37.8947 31.409 35.8428 31.6972 33.8037 31.3577Z" fill="#E4E6F2"/>
</g>
<defs>
<clipPath id="clip0">
<rect width="60" height="42" fill="white"/>
</clipPath>
</defs>
</svg>
