<svg width="36" height="36" viewBox="0 0 36 36" fill="none" xmlns="http://www.w3.org/2000/svg">
<rect width="36" height="36" rx="18" fill="white"/>
<rect x="9" y="26.543" width="18" height="1" fill="#28348B"/>
<rect x="9" y="23.543" width="1" height="4" rx="0.5" fill="#28348B"/>
<rect x="26" y="23.543" width="1" height="4" rx="0.5" fill="#28348B"/>
<path d="M17.5692 23.912C17.5689 23.9117 17.5689 23.9117 17.5686 23.9114L14.4056 20.8325C14.1687 20.6019 14.1696 20.2289 14.4077 19.999C14.6459 19.7695 15.0309 19.7704 15.2678 20.0011L17.3916 22.0685V9.58926C17.3916 9.26369 17.6638 9 17.9999 9C18.336 9 18.6082 9.26369 18.6082 9.58926V22.0685L20.7317 20.0014C20.9686 19.7707 21.3536 19.7698 21.5918 19.9993C21.8299 20.2289 21.8308 20.6021 21.5939 20.8328L18.4309 23.9117C18.4306 23.912 18.4306 23.912 18.4303 23.9123C18.1927 24.143 17.8062 24.1421 17.5692 23.912Z" fill="#28348B"/>
</svg>
