<svg width="73" height="76" viewBox="0 0 73 76" fill="none" xmlns="http://www.w3.org/2000/svg">
<g opacity="0.15">
<path d="M13.63 0.799805H4.08L3.69 0.819809L0.0100002 4.48981L0 4.87981V14.4298V22.8898C0 23.2298 0.28 23.4598 0.57 23.4598C0.71 23.4598 0.849999 23.4098 0.969999 23.2898L5.75 18.5098H13.63L14.02 18.4898L17.69 14.8198L17.71 14.4298V4.87981C17.72 2.61981 15.89 0.799805 13.63 0.799805Z" fill="white"/>
<path d="M68.2499 0.799805H58.6999L58.3099 0.819809L54.6299 4.48981L54.6099 4.87981V14.4298V22.8898C54.6099 23.2298 54.8899 23.4598 55.1799 23.4598C55.3199 23.4598 55.4599 23.4098 55.5799 23.2898L60.3599 18.5098H68.2399L68.6299 18.4898L72.2999 14.8198L72.3199 14.4298V4.87981C72.3299 2.61981 70.4999 0.799805 68.2499 0.799805Z" fill="white"/>
<path d="M13.63 52.9298H4.08L3.69 52.9498L0.0100002 56.6198L0 57.0198V66.5698V75.0298C0 75.3698 0.28 75.5998 0.57 75.5998C0.71 75.5998 0.849999 75.5498 0.969999 75.4298L5.75 70.6498H13.63L14.02 70.6298L17.69 66.9598L17.71 66.5698V57.0198C17.72 54.7598 15.89 52.9298 13.63 52.9298Z" fill="white"/>
</g>
</svg>
