<svg width="127" height="75" viewBox="0 0 127 75" fill="none" xmlns="http://www.w3.org/2000/svg">
<g opacity="0.15">
<path d="M13.63 0H4.08L3.69 0.0200005L0.0100002 3.69L0 4.08V13.63V22.09C0 22.43 0.28 22.66 0.57 22.66C0.71 22.66 0.849999 22.61 0.969999 22.49L5.75 17.71H13.63L14.02 17.69L17.69 14.02L17.71 13.63V4.08C17.72 1.83 15.89 0 13.63 0Z" fill="white"/>
<path d="M68.2499 0H58.6999L58.3099 0.0200005L54.6299 3.69L54.6099 4.08V13.63V22.09C54.6099 22.43 54.8899 22.66 55.1799 22.66C55.3199 22.66 55.4599 22.61 55.5799 22.49L60.3599 17.71H68.2399L68.6299 17.69L72.2999 14.02L72.3199 13.63V4.08C72.3299 1.83 70.4999 0 68.2499 0Z" fill="white"/>
<path d="M122.86 0H113.31L112.92 0.0200005L109.25 3.69L109.23 4.08V13.63V22.09C109.23 22.43 109.51 22.66 109.8 22.66C109.94 22.66 110.08 22.61 110.2 22.49L114.98 17.71H122.86L123.25 17.69L126.92 14.02L126.94 13.63V4.08C126.94 1.83 125.11 0 122.86 0Z" fill="white"/>
<path d="M13.63 52.14H4.08L3.69 52.16L0.0100002 55.83L0 56.22V65.77V74.23C0 74.57 0.28 74.8 0.57 74.8C0.71 74.8 0.849999 74.75 0.969999 74.63L5.75 69.85H13.63L14.02 69.83L17.69 66.16L17.71 65.77V56.22C17.72 53.96 15.89 52.14 13.63 52.14Z" fill="white"/>
<path d="M122.86 52.14H113.31L112.92 52.16L109.25 55.83L109.23 56.22V65.77V74.23C109.23 74.57 109.51 74.8 109.8 74.8C109.94 74.8 110.08 74.75 110.2 74.63L114.98 69.85H122.86L123.25 69.83L126.92 66.16L126.94 65.77V56.22C126.94 53.96 125.11 52.14 122.86 52.14Z" fill="white"/>
<path d="M68.2499 52.14H58.6999L58.3099 52.16L54.6299 55.83L54.6099 56.22V65.77V74.23C54.6099 74.57 54.8899 74.8 55.1799 74.8C55.3199 74.8 55.4599 74.75 55.5799 74.63L60.3599 69.85H68.2399L68.6299 69.83L72.2999 66.16L72.3199 65.77V56.22C72.3299 53.96 70.4999 52.14 68.2499 52.14Z" fill="white"/>
</g>
</svg>
