<svg width="480" height="248" viewBox="0 0 480 248" fill="none" xmlns="http://www.w3.org/2000/svg">
<g clip-path="url(#clip0)">
<path d="M268.092 40.5364V51.0048H263.397V44.8887H240.145V17.153H245.154V40.5364H258.985V17.153H264.023V40.5364H268.092Z" fill="white"/>
<path d="M293.304 40.5648V44.8887H272.756V17.153H292.764V21.4769H277.851V28.7025H291.084V32.941H277.851V40.5648H293.304Z" fill="white"/>
<path d="M323.328 17.153V44.8887H318.234V32.9979H304.061V44.8887H298.966V17.153H304.061V28.6171H318.234V17.153H323.328Z" fill="white"/>
<path d="M350.879 21.5338H341.8V44.8887H336.763V21.5338H327.713V17.153H350.879V21.5338Z" fill="white"/>
<path d="M371.343 31.1204C372.481 30.1817 373.079 28.8162 373.079 27.0525C373.079 25.2888 372.51 23.9234 371.343 22.9846C370.205 22.0459 368.525 21.5623 366.306 21.5623H360.357V32.5712H366.306C368.525 32.5428 370.205 32.0592 371.343 31.1204ZM372.737 18.3478C374.502 19.1443 375.84 20.2822 376.779 21.7614C377.718 23.2407 378.173 25.0044 378.173 27.0241C378.173 29.0438 377.689 30.7791 376.779 32.2583C375.84 33.766 374.474 34.9039 372.737 35.7004C370.973 36.4969 368.895 36.8952 366.533 36.8952H360.357V44.8887H355.263V17.153H366.533C368.924 17.153 370.973 17.5513 372.737 18.3478Z" fill="white"/>
<path d="M257.73 92.9073C259.181 92.0824 260.348 90.916 261.174 89.4368C261.999 87.9291 262.426 86.2792 262.426 84.4301C262.426 82.5811 261.999 80.9027 261.174 79.4235C260.348 77.9442 259.181 76.7779 257.73 75.953C256.279 75.128 254.628 74.7013 252.806 74.7013C250.985 74.7013 249.334 75.128 247.883 75.953C246.431 76.7779 245.265 77.9442 244.439 79.4235C243.614 80.9312 243.187 82.5811 243.187 84.4301C243.187 86.2792 243.614 87.9576 244.439 89.4368C245.265 90.916 246.431 92.0824 247.883 92.9073C249.334 93.7323 250.985 94.159 252.806 94.159C254.628 94.159 256.279 93.7323 257.73 92.9073ZM245.236 96.833C242.988 95.6098 241.223 93.903 239.943 91.7126C238.662 89.5221 238.036 87.1041 238.036 84.4017C238.036 81.6992 238.662 79.2812 239.943 77.0908C241.223 74.9004 242.988 73.2221 245.236 71.9704C247.485 70.7472 249.989 70.1213 252.778 70.1213C255.567 70.1213 258.072 70.7472 260.32 71.9704C262.568 73.1936 264.333 74.9004 265.613 77.0624C266.894 79.2244 267.549 81.6708 267.549 84.4017C267.549 87.1326 266.894 89.5506 265.613 91.741C264.333 93.903 262.568 95.6098 260.32 96.833C258.072 98.0562 255.567 98.682 252.778 98.682C249.989 98.682 247.485 98.0562 245.236 96.833Z" fill="white"/>
<path d="M292.681 74.9016H283.602V98.2849H278.565V74.9016H269.514V70.5492H292.681V74.9016Z" fill="white"/>
<path d="M307.162 86.5932H302.067V98.2849H297.059V70.5492H302.067V82.1555H307.304L315.187 70.5492H320.595L311.231 83.9761L320.936 98.2849H315.187L307.162 86.5932Z" fill="white"/>
<path d="M340.516 84.4882C341.655 83.5494 342.224 82.184 342.224 80.4203C342.224 78.6566 341.655 77.2911 340.516 76.3524C339.378 75.4136 337.699 74.93 335.479 74.93H329.531V85.939H335.479C337.67 85.9105 339.35 85.4269 340.516 84.4882ZM341.882 71.7155C343.647 72.512 344.985 73.6499 345.924 75.1291C346.863 76.6084 347.318 78.3721 347.318 80.3918C347.318 82.4115 346.863 84.1468 345.924 85.626C344.985 87.1053 343.618 88.2716 341.882 89.0397C340.118 89.8362 338.04 90.2344 335.678 90.2344H329.502V98.228H324.408V70.5492H335.678C338.069 70.5492 340.146 70.9475 341.882 71.7155Z" fill="white"/>
<path d="M378.998 70.5492H384.006V98.2849H378.998V70.5492ZM368.354 92.9369C369.435 92.0266 369.947 90.6611 369.947 88.8974C369.947 85.5407 367.898 83.8623 363.772 83.8623H357.226V94.3308H363.772C365.735 94.3023 367.272 93.8472 368.354 92.9369ZM372.395 82.1555C374.159 83.6632 375.042 85.8536 375.042 88.7836C375.042 91.8559 374.074 94.1886 372.139 95.81C370.204 97.4315 367.5 98.2565 363.999 98.2565H352.217V70.5492H357.226V79.9367H364.825C368.098 79.9367 370.63 80.6763 372.395 82.1555Z" fill="white"/>
<path d="M411.582 74.9016H402.504V98.2849H397.466V74.9016H388.416V70.5492H411.582V74.9016Z" fill="white"/>
<path d="M442.776 70.5492H447.784V98.2849H442.776V70.5492ZM432.132 92.9369C433.213 92.0266 433.725 90.6611 433.725 88.8974C433.725 85.5407 431.648 83.8623 427.55 83.8623H421.004V94.3308H427.55C429.542 94.3023 431.079 93.8472 432.132 92.9369ZM436.201 82.1555C437.966 83.6632 438.848 85.8536 438.848 88.7836C438.848 91.8559 437.88 94.1886 435.945 95.81C434.01 97.4315 431.306 98.2565 427.806 98.2565H416.023V70.5492H421.032V79.9367H428.631C431.904 79.9367 434.437 80.6763 436.201 82.1555Z" fill="white"/>
<path d="M462.411 67.2198C461.216 66.2526 460.618 64.8303 460.59 62.9528H464.147C464.175 63.92 464.489 64.688 465.086 65.2001C465.684 65.7406 466.566 65.9966 467.704 65.9966C468.814 65.9966 469.697 65.7406 470.351 65.2001C470.977 64.6596 471.319 63.92 471.347 62.9528H474.876C474.848 64.8018 474.222 66.2242 473.026 67.2198C471.803 68.2154 470.038 68.699 467.733 68.699C465.371 68.6706 463.606 68.187 462.411 67.2198ZM455.552 70.5481H460.561V90.2333L475.275 70.5481H479.999V98.2838H474.99V78.627L460.277 98.2838H455.552V70.5481Z" fill="white"/>
<path d="M256.193 137.854C257.331 136.915 257.901 135.55 257.901 133.786C257.901 132.022 257.331 130.657 256.193 129.718C255.055 128.779 253.375 128.296 251.156 128.296H245.208V139.305H251.156C253.375 139.276 255.055 138.821 256.193 137.854ZM257.587 125.11C259.352 125.906 260.69 127.044 261.629 128.523C262.568 130.003 263.023 131.766 263.023 133.786C263.023 135.806 262.568 137.541 261.629 139.049C260.69 140.528 259.324 141.694 257.587 142.462C255.823 143.259 253.745 143.657 251.383 143.657H245.208V151.651H240.113V123.915H251.383C253.774 123.915 255.823 124.313 257.587 125.11Z" fill="white"/>
<path d="M288.407 147.327V151.651H267.859V123.915H287.866V128.239H272.953V135.436H286.187V139.675H272.953V147.327H288.407Z" fill="white"/>
<path d="M312.688 128.267H299.112L299.141 151.651H294.132V123.915H312.716L312.688 128.267Z" fill="white"/>
<path d="M317.012 123.915H322.05V143.6L336.763 123.915H341.488V151.651H336.479V131.994L321.765 151.651H317.012V123.915Z" fill="white"/>
<path d="M366.788 146.273C368.239 145.448 369.406 144.282 370.231 142.803C371.057 141.295 371.483 139.645 371.483 137.796C371.483 135.947 371.057 134.269 370.231 132.79C369.406 131.31 368.239 130.144 366.788 129.291C365.336 128.466 363.685 128.039 361.864 128.039C360.043 128.039 358.392 128.466 356.941 129.291C355.489 130.116 354.322 131.282 353.497 132.79C352.672 134.269 352.245 135.947 352.245 137.796C352.245 139.645 352.672 141.324 353.497 142.803C354.322 144.282 355.489 145.448 356.941 146.273C358.392 147.098 360.043 147.525 361.864 147.525C363.657 147.525 365.308 147.098 366.788 146.273ZM354.294 150.199C352.045 148.976 350.281 147.269 349 145.079C347.72 142.888 347.094 140.47 347.094 137.768C347.094 135.065 347.72 132.647 349 130.457C350.281 128.267 352.045 126.588 354.294 125.336C356.542 124.113 359.047 123.487 361.836 123.487C364.625 123.487 367.129 124.113 369.377 125.336C371.626 126.56 373.39 128.267 374.671 130.428C375.952 132.59 376.578 135.037 376.578 137.768C376.578 140.499 375.923 142.945 374.671 145.107C373.39 147.269 371.626 148.976 369.377 150.199C367.129 151.422 364.625 152.048 361.836 152.048C359.047 152.048 356.542 151.422 354.294 150.199Z" fill="white"/>
<path d="M406.574 123.915V151.651H401.48V139.76H387.336V151.651H382.241V123.915H387.336V135.379H401.48V123.915H406.574Z" fill="white"/>
<path d="M126.873 128.409H64.6318V65.4278H126.873V128.409ZM147.535 0H40.1281L0 40.6222V193.837H151.405L191.505 153.243V44.4909C191.505 19.9128 171.811 0 147.535 0Z" fill="white"/>
<path d="M126.873 128.409L10.5301 246.15C6.63109 250.104 0 247.317 0 241.741V130.827L64.6318 65.3987V128.409H126.873Z" fill="#28348B"/>
<path d="M64.6309 191.42L126.872 128.41H64.6309V191.42Z" fill="#28348B"/>
</g>
<path d="M241.323 178.153L243.909 181.704L246.495 178.153H247.615L244.512 182.465L247.873 187.172H246.724L243.909 183.282L241.094 187.172H240.002L243.334 182.522L240.232 178.153H241.323Z" fill="white"/>
<path d="M252.614 186.157C252.988 185.932 253.275 185.565 253.447 185.143V184.043H251.293C250.115 184.043 249.54 184.438 249.54 185.255C249.54 185.65 249.684 185.96 250 186.185C250.316 186.411 250.718 186.523 251.264 186.523C251.81 186.523 252.241 186.383 252.614 186.157ZM253.649 181C254.137 181.451 254.367 182.099 254.367 182.972V187.172H253.476V186.101C253.275 186.467 252.959 186.721 252.557 186.918C252.155 187.115 251.666 187.228 251.12 187.228C250.374 187.228 249.741 187.059 249.311 186.693C248.851 186.326 248.621 185.847 248.621 185.255C248.621 184.692 248.822 184.212 249.253 183.874C249.684 183.536 250.345 183.339 251.264 183.339H253.447V182.916C253.447 182.324 253.275 181.873 252.959 181.591C252.614 181.281 252.155 181.141 251.523 181.141C251.092 181.141 250.69 181.225 250.287 181.366C249.885 181.507 249.54 181.704 249.253 181.958L248.822 181.281C249.167 181 249.598 180.774 250.058 180.605C250.546 180.436 251.063 180.351 251.58 180.351C252.499 180.323 253.189 180.549 253.649 181Z" fill="white"/>
<path d="M256.834 180.38H257.753V183.396H262.034V180.38H262.953V187.172H262.034V184.185H257.753V187.172H256.834V180.38Z" fill="white"/>
<path d="M270.395 181.198H267.81V187.172H266.89V181.198H264.305V180.38H270.395V181.198Z" fill="white"/>
<path d="M278.382 180.381H279.302V187.173H278.382V180.381ZM275.825 186.102C276.141 185.849 276.314 185.454 276.314 184.947C276.314 184.439 276.141 184.073 275.825 183.848C275.509 183.594 275.021 183.481 274.389 183.481L272.665 183.453V186.469L274.389 186.497C275.021 186.497 275.481 186.356 275.825 186.102ZM276.572 183.34C277.032 183.707 277.233 184.242 277.233 184.947C277.233 185.68 277.003 186.215 276.515 186.61C276.027 187.004 275.337 187.173 274.447 187.173L271.746 187.145V180.353H272.665V182.72L274.619 182.749C275.452 182.805 276.113 182.974 276.572 183.34Z" fill="white"/>
<path d="M284.786 183.285H281.396V184.074H284.786V183.285Z" fill="white"/>
<path d="M296.54 178.152V187.17H295.621V179.955L292.058 186.015H291.599L288.036 179.983V187.17H287.117V178.152H287.893L291.829 184.831L295.736 178.152H296.54Z" fill="white"/>
<path d="M302.739 186.157C303.113 185.932 303.4 185.565 303.572 185.143V184.043H301.418C300.24 184.043 299.665 184.438 299.665 185.255C299.665 185.65 299.809 185.96 300.125 186.185C300.441 186.411 300.843 186.523 301.389 186.523C301.935 186.523 302.366 186.383 302.739 186.157ZM303.774 181C304.262 181.451 304.492 182.099 304.492 182.972V187.172H303.601V186.101C303.4 186.467 303.084 186.721 302.682 186.918C302.28 187.115 301.791 187.228 301.245 187.228C300.499 187.228 299.867 187.059 299.436 186.693C298.976 186.326 298.746 185.847 298.746 185.255C298.746 184.692 298.947 184.212 299.378 183.874C299.809 183.536 300.47 183.339 301.389 183.339H303.572V182.916C303.572 182.324 303.4 181.873 303.084 181.591C302.739 181.281 302.28 181.141 301.648 181.141C301.217 181.141 300.815 181.225 300.412 181.366C300.01 181.507 299.665 181.704 299.378 181.958L298.947 181.281C299.292 181 299.723 180.774 300.182 180.605C300.671 180.436 301.188 180.351 301.705 180.351C302.624 180.323 303.314 180.549 303.774 181Z" fill="white"/>
<path d="M306.939 180.38H307.859V183.396H312.168V180.38H313.087V187.172H312.168V184.185H307.859V187.172H306.939V180.38Z" fill="white"/>
<path d="M316.763 186.807C316.217 186.525 315.815 186.102 315.499 185.567C315.211 185.031 315.039 184.439 315.039 183.791C315.039 183.115 315.183 182.523 315.499 182.016C315.786 181.508 316.217 181.086 316.763 180.804C317.28 180.522 317.883 180.353 318.573 180.353C319.147 180.353 319.693 180.466 320.153 180.691C320.612 180.917 320.986 181.255 321.244 181.678L320.555 182.157C320.325 181.818 320.038 181.565 319.693 181.396C319.348 181.227 318.975 181.142 318.573 181.142C318.084 181.142 317.625 181.255 317.251 181.48C316.849 181.706 316.562 182.016 316.332 182.41C316.102 182.805 315.987 183.284 315.987 183.791C315.987 184.327 316.102 184.778 316.332 185.172C316.562 185.567 316.849 185.877 317.251 186.102C317.653 186.328 318.084 186.44 318.573 186.44C318.975 186.44 319.348 186.356 319.693 186.187C320.038 186.018 320.325 185.764 320.555 185.426L321.244 185.905C320.986 186.328 320.612 186.666 320.124 186.891C319.664 187.117 319.118 187.23 318.544 187.23C317.883 187.23 317.28 187.089 316.763 186.807Z" fill="white"/>
<path d="M323.021 180.38H323.941V185.791L328.509 180.38H329.313V187.172H328.394V181.789L323.855 187.172H323.021V180.38Z" fill="white"/>
<path d="M333.654 178.973C333.309 178.692 333.137 178.269 333.137 177.733H333.798C333.798 178.072 333.913 178.325 334.171 178.551C334.401 178.748 334.717 178.861 335.091 178.861C335.464 178.861 335.78 178.748 336.01 178.551C336.24 178.353 336.383 178.072 336.383 177.733H337.044C337.044 178.269 336.843 178.692 336.498 178.973C336.154 179.255 335.665 179.396 335.091 179.396C334.459 179.396 333.999 179.255 333.654 178.973ZM331.959 180.383H332.879V185.766L337.446 180.383H338.251V187.175H337.331V181.792L332.792 187.175H331.959V180.383Z" fill="white"/>
<path d="M341.929 186.807C341.383 186.525 340.981 186.102 340.665 185.567C340.377 185.031 340.205 184.439 340.205 183.791C340.205 183.115 340.349 182.523 340.665 182.016C340.952 181.508 341.383 181.086 341.929 180.804C342.446 180.522 343.078 180.353 343.739 180.353C344.313 180.353 344.859 180.466 345.319 180.691C345.778 180.917 346.152 181.255 346.41 181.678L345.721 182.157C345.491 181.818 345.204 181.565 344.859 181.396C344.514 181.227 344.141 181.142 343.739 181.142C343.25 181.142 342.791 181.255 342.417 181.48C342.015 181.706 341.728 182.016 341.498 182.41C341.268 182.805 341.153 183.284 341.153 183.791C341.153 184.327 341.268 184.778 341.498 185.172C341.728 185.567 342.015 185.877 342.417 186.102C342.819 186.328 343.25 186.44 343.739 186.44C344.141 186.44 344.514 186.356 344.859 186.187C345.204 186.018 345.491 185.764 345.721 185.426L346.41 185.905C346.152 186.328 345.778 186.666 345.29 186.891C344.83 187.117 344.284 187.23 343.71 187.23C343.078 187.23 342.475 187.089 341.929 186.807Z" fill="white"/>
<path d="M350.66 184.157H349.109V187.172H348.189V180.38H349.109V183.368H350.689L353.102 180.38H354.079L351.407 183.678L354.28 187.172H353.188L350.66 184.157Z" fill="white"/>
<path d="M355.74 180.38H356.66V185.791L361.199 180.38H362.032V187.172H361.112V181.789L356.573 187.172H355.74V180.38Z" fill="white"/>
<path d="M366.371 178.973C366.026 178.692 365.854 178.269 365.854 177.733H366.515C366.515 178.072 366.63 178.325 366.888 178.551C367.118 178.748 367.434 178.861 367.808 178.861C368.181 178.861 368.497 178.748 368.727 178.551C368.957 178.353 369.1 178.072 369.1 177.733H369.761C369.761 178.269 369.56 178.692 369.215 178.973C368.871 179.255 368.382 179.396 367.808 179.396C367.233 179.396 366.716 179.255 366.371 178.973ZM364.676 180.383H365.596V185.766L370.163 180.383H370.996V187.175H370.077V181.792L365.538 187.175H364.705V180.383H364.676Z" fill="white"/>
<path d="M244.396 201.632C244.769 201.406 245.056 201.04 245.229 200.617V199.518H243.074C241.896 199.518 241.322 199.913 241.322 200.73C241.322 201.125 241.465 201.435 241.781 201.66C242.097 201.885 242.499 201.998 243.045 201.998C243.562 201.998 244.022 201.857 244.396 201.632ZM245.43 196.474C245.889 196.925 246.148 197.573 246.148 198.447V202.646H245.257V201.575C245.056 201.942 244.74 202.195 244.338 202.393C243.936 202.59 243.448 202.703 242.902 202.703C242.155 202.703 241.523 202.534 241.092 202.167C240.632 201.801 240.402 201.322 240.402 200.73C240.402 200.166 240.603 199.687 241.034 199.349C241.465 199.011 242.126 198.814 243.045 198.814H245.229V198.391C245.229 197.799 245.056 197.348 244.74 197.066C244.396 196.756 243.936 196.615 243.304 196.615C242.873 196.615 242.471 196.7 242.069 196.841C241.666 196.982 241.322 197.179 241.034 197.433L240.632 196.756C240.977 196.474 241.408 196.249 241.867 196.08C242.356 195.911 242.873 195.826 243.39 195.826C244.252 195.798 244.941 196.023 245.43 196.474Z" fill="white"/>
<path d="M252.985 201.633C253.273 201.435 253.416 201.153 253.416 200.731C253.416 200.336 253.273 200.026 253.014 199.829C252.755 199.632 252.324 199.547 251.75 199.547H249.48V201.914H251.635C252.238 201.914 252.698 201.83 252.985 201.633ZM249.48 198.871H251.52C252.037 198.871 252.439 198.758 252.727 198.561C253.014 198.363 253.158 198.082 253.158 197.687C253.158 197.321 253.014 197.039 252.727 196.841C252.439 196.644 252.037 196.56 251.52 196.56H249.48V198.871ZM254.335 200.815C254.335 201.407 254.106 201.858 253.675 202.196C253.244 202.506 252.583 202.675 251.692 202.675H248.59V195.883H251.606C252.382 195.883 252.985 196.024 253.445 196.334C253.876 196.644 254.106 197.067 254.106 197.631C254.106 197.997 253.991 198.307 253.79 198.589C253.589 198.842 253.301 199.04 252.928 199.181C253.876 199.35 254.335 199.913 254.335 200.815Z" fill="white"/>
<path d="M261.288 196.671H258.702V202.646H257.783V196.671H255.197V195.854H261.288V196.671Z" fill="white"/>
<path d="M266.433 201.575C266.806 201.35 267.122 201.04 267.324 200.645C267.553 200.251 267.64 199.771 267.64 199.264C267.64 198.757 267.525 198.278 267.324 197.883C267.094 197.489 266.806 197.179 266.433 196.953C266.059 196.728 265.6 196.615 265.14 196.615C264.652 196.615 264.221 196.728 263.847 196.953C263.474 197.179 263.158 197.489 262.928 197.883C262.698 198.278 262.583 198.757 262.583 199.264C262.583 199.771 262.698 200.251 262.928 200.645C263.158 201.04 263.445 201.35 263.847 201.575C264.25 201.801 264.681 201.913 265.14 201.913C265.629 201.913 266.059 201.801 266.433 201.575ZM263.359 202.28C262.842 201.97 262.411 201.575 262.124 201.04C261.836 200.504 261.664 199.912 261.664 199.264C261.664 198.588 261.808 197.996 262.124 197.489C262.44 196.953 262.842 196.559 263.359 196.277C263.876 195.995 264.479 195.854 265.14 195.854C265.801 195.854 266.375 195.995 266.921 196.277C267.467 196.559 267.869 196.981 268.157 197.489C268.444 198.024 268.616 198.616 268.616 199.264C268.616 199.912 268.473 200.532 268.157 201.04C267.869 201.575 267.438 201.97 266.921 202.28C266.404 202.59 265.801 202.731 265.14 202.731C264.479 202.702 263.876 202.562 263.359 202.28Z" fill="white"/>
<path d="M270.559 195.854H271.478V198.87H275.787V195.854H276.706V202.646H275.787V199.659H271.478V202.646H270.559V195.854Z" fill="white"/>
<path d="M283.462 201.575C283.835 201.35 284.151 201.04 284.352 200.645C284.553 200.251 284.668 199.771 284.668 199.264C284.668 198.757 284.553 198.278 284.352 197.883C284.122 197.489 283.835 197.179 283.462 196.953C283.088 196.728 282.629 196.615 282.169 196.615C281.681 196.615 281.25 196.728 280.876 196.953C280.503 197.179 280.187 197.489 279.957 197.883C279.727 198.278 279.612 198.757 279.612 199.264C279.612 199.771 279.727 200.251 279.957 200.645C280.187 201.04 280.474 201.35 280.876 201.575C281.278 201.801 281.709 201.913 282.169 201.913C282.629 201.913 283.059 201.801 283.462 201.575ZM280.359 202.28C279.842 201.97 279.411 201.575 279.124 201.04C278.836 200.504 278.664 199.912 278.664 199.264C278.664 198.588 278.808 197.996 279.124 197.489C279.44 196.953 279.842 196.559 280.359 196.277C280.876 195.995 281.479 195.854 282.14 195.854C282.801 195.854 283.375 195.995 283.921 196.277C284.467 196.559 284.869 196.981 285.157 197.489C285.444 198.024 285.616 198.616 285.616 199.264C285.616 199.912 285.473 200.532 285.157 201.04C284.869 201.575 284.438 201.97 283.921 202.28C283.404 202.59 282.801 202.731 282.14 202.731C281.479 202.702 280.905 202.562 280.359 202.28Z" fill="white"/>
<path d="M295.216 195.854V202.646H294.383V197.291L291.625 201.829H291.195L288.437 197.263V202.646H287.604V195.854H288.523L291.424 200.758L294.383 195.854H295.216Z" fill="white"/>
<path d="M297.861 195.854H298.781V198.87H303.061V195.854H303.98V202.646H303.061V199.659H298.781V202.646H297.861V195.854Z" fill="white"/>
<path d="M313.257 195.854H314.177V202.646H313.257V195.854ZM310.7 201.575C311.016 201.321 311.189 200.927 311.189 200.42C311.189 199.912 311.016 199.546 310.7 199.32C310.384 199.067 309.896 198.954 309.264 198.954L307.54 198.926V201.942L309.264 201.97C309.896 201.97 310.384 201.857 310.7 201.575ZM311.447 198.841C311.907 199.208 312.108 199.743 312.108 200.448C312.108 201.181 311.878 201.716 311.39 202.111C310.902 202.505 310.212 202.674 309.322 202.674L306.621 202.646V195.854H307.54V198.221L309.494 198.25C310.327 198.278 310.988 198.447 311.447 198.841Z" fill="white"/>
<path d="M318.513 194.444C318.168 194.162 317.996 193.74 317.996 193.204H318.656C318.656 193.542 318.771 193.796 319.03 194.022C319.26 194.219 319.576 194.332 319.949 194.332C320.323 194.332 320.639 194.219 320.868 194.022C321.098 193.824 321.242 193.542 321.242 193.204H321.903C321.903 193.74 321.702 194.162 321.357 194.444C321.012 194.726 320.524 194.867 319.949 194.867C319.317 194.895 318.858 194.726 318.513 194.444ZM316.789 195.853H317.708V201.236L322.276 195.853H323.081V202.645H322.161V197.263L317.622 202.645H316.789V195.853Z" fill="white"/>
<path d="M333.251 201.575C333.625 201.35 333.941 201.04 334.142 200.645C334.372 200.251 334.458 199.771 334.458 199.264C334.458 198.757 334.343 198.278 334.142 197.883C333.912 197.489 333.625 197.179 333.251 196.953C332.878 196.728 332.418 196.615 331.959 196.615C331.47 196.615 331.039 196.728 330.666 196.953C330.292 197.179 329.976 197.489 329.746 197.883C329.517 198.278 329.402 198.757 329.402 199.264C329.402 199.771 329.517 200.251 329.746 200.645C329.976 201.04 330.264 201.35 330.666 201.575C331.068 201.801 331.499 201.913 331.959 201.913C332.447 201.913 332.878 201.801 333.251 201.575ZM330.177 202.28C329.66 201.97 329.229 201.575 328.942 201.04C328.655 200.504 328.482 199.912 328.482 199.264C328.482 198.588 328.626 197.996 328.942 197.489C329.258 196.953 329.66 196.559 330.177 196.277C330.694 195.995 331.298 195.854 331.959 195.854C332.619 195.854 333.194 195.995 333.74 196.277C334.285 196.559 334.688 196.981 334.975 197.489C335.262 198.024 335.435 198.616 335.435 199.264C335.435 199.912 335.291 200.532 334.975 201.04C334.688 201.575 334.257 201.97 333.74 202.28C333.223 202.59 332.619 202.731 331.959 202.731C331.298 202.702 330.694 202.562 330.177 202.28Z" fill="white"/>
<path d="M339.861 199.631H338.31V202.646H337.391V195.854H338.31V198.841H339.89L342.303 195.854H343.28L340.608 199.151L343.481 202.646H342.389L339.861 199.631Z" fill="white"/>
<path d="M349.68 201.573C350.082 201.348 350.369 201.038 350.599 200.643C350.829 200.248 350.944 199.769 350.944 199.262C350.944 198.755 350.829 198.276 350.599 197.881C350.369 197.487 350.082 197.177 349.68 196.951C349.306 196.726 348.846 196.613 348.387 196.613C347.898 196.613 347.468 196.726 347.094 196.951C346.721 197.177 346.405 197.487 346.175 197.881C345.945 198.276 345.83 198.727 345.83 199.262C345.83 199.769 345.945 200.248 346.175 200.643C346.405 201.038 346.692 201.348 347.094 201.573C347.468 201.799 347.898 201.911 348.387 201.911C348.875 201.911 349.306 201.799 349.68 201.573ZM350.197 196.246C350.714 196.528 351.116 196.951 351.403 197.458C351.691 197.994 351.834 198.586 351.834 199.262C351.834 199.938 351.691 200.558 351.403 201.066C351.116 201.573 350.714 201.996 350.197 202.278C349.68 202.559 349.105 202.7 348.444 202.7C347.898 202.7 347.381 202.588 346.95 202.362C346.491 202.137 346.146 201.799 345.859 201.348V205.124H344.939V195.852H345.83V197.205C346.117 196.754 346.462 196.416 346.922 196.162C347.381 195.908 347.898 195.796 348.473 195.796C349.076 195.824 349.68 195.965 350.197 196.246Z" fill="white"/>
<path d="M359.453 195.854L356.035 203.463C355.747 204.112 355.431 204.563 355.058 204.816C354.685 205.07 354.254 205.211 353.737 205.211C353.392 205.211 353.105 205.154 352.817 205.042C352.53 204.929 352.3 204.788 352.07 204.591L352.501 203.914C352.846 204.253 353.248 204.422 353.737 204.422C354.053 204.422 354.311 204.337 354.541 204.168C354.771 203.999 354.972 203.717 355.144 203.294L355.431 202.646L352.386 195.882H353.334L355.891 201.66L358.477 195.882H359.453V195.854Z" fill="white"/>
<path d="M365.713 196.671H361.806V202.646H360.887V195.854H365.713V196.671Z" fill="white"/>
<path d="M373.327 198.757H369.938V199.547H373.327V198.757Z" fill="white"/>
<path d="M388.205 201.376C388.751 201.066 389.182 200.615 389.498 200.052C389.814 199.488 389.958 198.84 389.958 198.135C389.958 197.431 389.785 196.782 389.498 196.219C389.182 195.655 388.751 195.204 388.205 194.894C387.659 194.584 387.056 194.415 386.367 194.415C385.706 194.415 385.103 194.584 384.557 194.894C384.011 195.232 383.58 195.655 383.264 196.219C382.948 196.782 382.804 197.431 382.804 198.135C382.804 198.84 382.948 199.488 383.264 200.052C383.58 200.615 384.011 201.066 384.557 201.376C385.103 201.714 385.706 201.855 386.367 201.855C387.056 201.884 387.659 201.714 388.205 201.376ZM388.694 194.133C389.383 194.528 389.929 195.091 390.331 195.768C390.733 196.472 390.934 197.262 390.934 198.107C390.934 198.981 390.733 199.77 390.331 200.474C389.929 201.179 389.383 201.714 388.694 202.109C388.004 202.504 387.229 202.701 386.367 202.701C385.562 202.701 384.815 202.532 384.155 202.165C383.494 201.799 382.948 201.292 382.546 200.644C382.144 199.995 381.914 199.263 381.856 198.473H379.989V202.616H379.041V193.598H379.989V197.6H381.856C381.914 196.811 382.172 196.106 382.575 195.486C382.977 194.866 383.523 194.387 384.183 194.021C384.844 193.682 385.562 193.513 386.367 193.513C387.229 193.541 388.004 193.739 388.694 194.133Z" fill="white"/>
<path d="M397.834 196.671H393.927V202.646H393.008V195.854H397.834V196.671Z" fill="white"/>
<path d="M403.921 201.573C404.323 201.348 404.611 201.038 404.841 200.643C405.07 200.248 405.157 199.769 405.157 199.262C405.157 198.755 405.042 198.276 404.841 197.881C404.611 197.487 404.323 197.177 403.921 196.951C403.519 196.726 403.088 196.613 402.628 196.613C402.14 196.613 401.709 196.726 401.336 196.951C400.962 197.177 400.646 197.487 400.416 197.881C400.187 198.276 400.072 198.727 400.072 199.262C400.072 199.769 400.187 200.248 400.416 200.643C400.646 201.038 400.933 201.348 401.336 201.573C401.738 201.799 402.169 201.911 402.628 201.911C403.088 201.911 403.519 201.799 403.921 201.573ZM404.41 196.246C404.927 196.528 405.329 196.951 405.616 197.458C405.903 197.994 406.047 198.586 406.047 199.262C406.047 199.938 405.903 200.558 405.616 201.066C405.329 201.573 404.927 201.996 404.41 202.278C403.892 202.559 403.318 202.7 402.657 202.7C402.111 202.7 401.594 202.588 401.163 202.362C400.704 202.137 400.359 201.799 400.072 201.348V205.124H399.152V195.852H400.043V197.205C400.33 196.754 400.675 196.416 401.135 196.162C401.594 195.908 402.111 195.796 402.686 195.796C403.318 195.824 403.892 195.965 404.41 196.246Z" fill="white"/>
<path d="M411.388 201.632C411.761 201.406 412.048 201.04 412.221 200.617V199.518H410.066C408.888 199.518 408.314 199.913 408.314 200.73C408.314 201.125 408.457 201.435 408.773 201.66C409.089 201.885 409.492 201.998 410.037 201.998C410.583 201.998 411.014 201.857 411.388 201.632ZM412.422 196.474C412.91 196.925 413.14 197.573 413.14 198.447V202.646H412.25V201.575C412.048 201.942 411.732 202.195 411.33 202.393C410.928 202.59 410.44 202.703 409.894 202.703C409.118 202.703 408.515 202.534 408.084 202.167C407.624 201.801 407.395 201.322 407.395 200.73C407.395 200.166 407.596 199.687 408.027 199.349C408.457 199.011 409.118 198.814 410.037 198.814H412.221V198.391C412.221 197.799 412.048 197.348 411.732 197.066C411.416 196.756 410.928 196.615 410.296 196.615C409.865 196.615 409.434 196.7 409.061 196.841C408.659 196.982 408.314 197.179 408.027 197.433L407.624 196.756C407.969 196.474 408.4 196.249 408.86 196.08C409.348 195.911 409.865 195.826 410.382 195.826C411.273 195.798 411.962 196.023 412.422 196.474Z" fill="white"/>
<defs>
<clipPath id="clip0">
<rect width="480" height="248" fill="white"/>
</clipPath>
</defs>
</svg>
