<svg width="36" height="36" viewBox="0 0 36 36" fill="none" xmlns="http://www.w3.org/2000/svg">
<rect width="36" height="36" rx="18" fill="white"/>
<path d="M22.9066 12.4845C22.9062 12.4845 22.9062 12.4845 22.9058 12.4845L18.4921 12.425C18.1614 12.4206 17.8983 12.685 17.9042 13.0159C17.9103 13.3466 18.1832 13.6182 18.5139 13.6226L21.4775 13.6625L12.6533 22.4867C12.4231 22.7169 12.4291 23.0958 12.6668 23.3334C12.9044 23.5711 13.2833 23.5771 13.5136 23.3469L22.3377 14.5227L22.3776 17.4859C22.382 17.8166 22.6536 18.0895 22.9843 18.0956C23.315 18.1017 23.5796 17.8384 23.5752 17.5077L23.5157 13.094C23.5157 13.0936 23.5157 13.0936 23.5157 13.0932C23.5108 12.7621 23.2369 12.4894 22.9066 12.4845Z" fill="#48BED8"/>
</svg>
