<svg width="50" height="50" viewBox="0 0 50 50" fill="none" xmlns="http://www.w3.org/2000/svg">
<path d="M38.4781 49H11.5219C5.71896 49 1 44.277 1 38.514V11.5578C1 11.3036 1.00034 11.0874 1.00807 10.8871L10.8615 1.0337C11.0953 1.01378 11.319 1 11.5219 1H38.4781C44.279 1 49 5.72098 49 11.5219V38.4781C49 38.7323 48.9997 38.9485 48.9919 39.1488L39.1491 48.9916C38.939 48.9996 38.7139 49 38.4781 49Z" stroke="#ED6C70" stroke-width="2"/>
<g clip-path="url(#clip0)">
<path d="M24.5428 32.8166C24.5425 32.8162 24.5425 32.8162 24.5422 32.8159L21.1873 29.5503C20.936 29.3056 20.937 28.91 21.1896 28.6663C21.4422 28.4228 21.8506 28.4238 22.1019 28.6684L24.3544 30.8612V17.625C24.3544 17.2797 24.6431 17 24.9996 17C25.356 17 25.6448 17.2797 25.6448 17.625V30.8612L27.897 28.6687C28.1483 28.4241 28.5567 28.4231 28.8093 28.6666C29.0619 28.91 29.0628 29.3059 28.8115 29.5506L25.4567 32.8162C25.4564 32.8166 25.4564 32.8166 25.456 32.8169C25.2041 33.0616 24.7941 33.0606 24.5428 32.8166Z" fill="#48BED8"/>
</g>
<defs>
<clipPath id="clip0">
<rect width="16" height="8" fill="white" transform="matrix(0 1 1 0 21 17)"/>
</clipPath>
</defs>
</svg>
