<svg width="36" height="36" viewBox="0 0 36 36" fill="none" xmlns="http://www.w3.org/2000/svg">
<rect width="36" height="36" rx="18" fill="white"/>
<path d="M22.9066 12.4844C22.9062 12.4844 22.9062 12.4844 22.9058 12.4844L18.4921 12.4248C18.1614 12.4204 17.8983 12.6848 17.9042 13.0157C17.9103 13.3464 18.1832 13.618 18.5139 13.6225L21.4775 13.6623L12.6533 22.4865C12.4231 22.7167 12.4291 23.0956 12.6668 23.3333C12.9044 23.5709 13.2833 23.5769 13.5136 23.3467L22.3377 14.5226L22.3776 17.4858C22.382 17.8164 22.6536 18.0893 22.9843 18.0954C23.315 18.1015 23.5796 17.8382 23.5752 17.5075L23.5157 13.0938C23.5157 13.0934 23.5157 13.0934 23.5157 13.093C23.5108 12.7619 23.2369 12.4892 22.9066 12.4844Z" fill="#27348B"/>
</svg>
