<svg width="1360" height="120" viewBox="0 0 1360 120" fill="none" xmlns="http://www.w3.org/2000/svg">
<mask id="mask0" mask-type="alpha" maskUnits="userSpaceOnUse" x="0" y="0" width="1360" height="120">
<path d="M0 10C0 4.47715 4.47715 0 10 0H1360V110C1360 115.523 1355.52 120 1350 120H0V10Z" fill="#ED6C71"/>
</mask>
<g mask="url(#mask0)">
<path d="M109.245 50H35.6971C34.7084 50 33.7196 50.0759 32.7309 50.1518L4.43739 78.3951C4.36134 79.3821 4.28528 80.3691 4.28528 81.3561V154.773V219.763C4.28528 222.42 6.49095 224.167 8.69662 224.167C9.76143 224.167 10.9023 223.787 11.7389 222.876L48.5508 186.129H109.169C110.158 186.129 111.146 186.053 112.211 185.978L140.505 157.734C140.581 156.747 140.657 155.76 140.657 154.697V81.3561C140.657 64.0457 126.586 50 109.245 50Z" fill="#ED6C71"/>
<path d="M115.067 50L31.0874 50C30.1085 50 29.1399 50.0514 28.1816 50.1439L-0.804217 77.4439C-0.886651 78.3895 -0.948483 79.366 -0.948483 80.3322L-0.948483 151.337L-0.948483 151.347L-1 240C-1 240 14.951 221.827 20.1752 215.732C23.6478 211.682 29.5418 205.433 35.4564 200.931C42.2985 195.72 55.4055 196.408 55.4055 196.408L115.644 196.532C116.623 196.532 117.592 196.48 118.55 196.398L146.856 168.584C146.948 167.628 147 166.652 147 165.675L147 78.5334C147.01 61.7793 131.873 50 115.067 50ZM134.594 161.358C134.594 162.222 134.552 163.065 134.47 163.907L113.862 183.951C113.017 184.023 112.161 184.074 111.306 184.074C111.306 184.074 58.9398 183.499 41.4947 183.971C37.9501 184.064 34.0139 184.691 28.0374 188.463C22.5246 191.937 17.6198 197.765 17.6198 197.765L10.9117 206.06L11.3033 152.221L11.3033 152.21L11.3033 84.0941C11.3033 83.241 11.3445 83.4569 11.4269 82.6243L32.0045 62.3549C32.8495 62.2829 35.1576 62.2315 36.0232 62.2315L111.224 62.2315C125.959 62.2315 134.604 73.2708 134.604 87.9692L134.604 161.358L134.594 161.358Z" fill="#C0595C"/>
<path d="M103.4 73.2222L41.307 73.2222C40.6384 73.2222 37.6448 73.2533 36.9864 73.3155L23.644 87.2942C23.5823 87.9475 23.5514 93.5991 23.5514 94.2628L23.5514 147.906L23.5514 147.917L23.3148 178.778C23.3148 178.778 30.3718 174.039 36.8116 172.659C38.7661 172.245 46.8518 171.892 46.8518 171.892L103.472 171.975C104.141 171.975 108.575 171.944 109.223 171.882L121.526 159.396C121.588 158.733 121.629 155.798 121.629 155.124L121.629 95.2583C121.619 83.6854 114.881 73.2222 103.4 73.2222ZM107.423 147.274C107.423 147.761 107.402 151.38 107.351 151.847L98.9562 160.101C98.483 160.143 94.9545 160.174 94.471 160.174L51.3576 160.112C51.3576 160.112 49.1458 160.122 48.4052 160.112C42.3872 160.029 40.8956 160.153 38.5912 161.024C37.8403 161.304 35.7211 162.476 35.7211 162.476L35.752 142.141L35.752 103.876C35.752 103.399 35.7726 96.6893 35.824 96.2227L45.1544 85.8631C45.6174 85.8216 49.6705 85.7905 50.1437 85.7905L94.4299 85.7905C102.618 85.7905 107.423 91.7014 107.423 104.581L107.423 147.274Z" fill="#C0595C"/>
<path d="M48.6859 148.167L95.2002 148.167L95.2002 98.5557L48.6859 98.5557L48.6859 148.167ZM82.9836 134.778L60.9126 134.778L60.9126 111.944L82.9836 111.944L82.9836 134.778Z" fill="#C0595C"/>
<path d="M35.3932 14H24.6068C24.4618 14 24.3168 14.0113 24.1718 14.0227L20.0223 18.2389C20.0112 18.3862 20 18.5336 20 18.6809V29.6408V39.3426C20 39.7393 20.3235 40 20.647 40C20.8031 40 20.9704 39.9433 21.0931 39.8073L26.4919 34.3217H35.382C35.527 34.3217 35.6721 34.3104 35.8282 34.299L39.9777 30.0828C39.9888 29.9355 40 29.7881 40 29.6295V18.6809C40 16.0968 37.9364 14 35.3932 14Z" fill="#C0595C"/>
<path d="M164.269 18H115.731C115.078 18 114.426 18.0484 113.773 18.0968L95.1004 36.0968C95.0502 36.7258 95 37.3548 95 37.9839V84.7742V126.194C95 127.887 96.4557 129 97.9113 129C98.6141 129 99.367 128.758 99.9191 128.177L124.214 104.758H164.219C164.872 104.758 165.524 104.71 166.227 104.661L184.9 86.6613C184.95 86.0322 185 85.4032 185 84.7258V37.9839C185 26.9516 175.714 18 164.269 18Z" fill="white"/>
</g>
<g clip-path="url(#clip0)">
<path d="M121.954 51.6073C121.954 51.479 121.968 51.3527 121.995 51.2312L135.676 64.2008L122.029 75.8375C121.979 75.6759 121.953 75.5064 121.953 75.3311L121.954 51.6073Z" fill="#27348B"/>
<path d="M158.165 77.041H123.658C123.65 77.041 123.642 77.04 123.634 77.04L137.103 65.5542L139.214 67.5562C139.396 67.7285 139.636 67.8235 139.885 67.8235H141.939C142.188 67.8235 142.428 67.7276 142.61 67.5562L144.721 65.5542L158.191 77.041C158.182 77.041 158.173 77.041 158.165 77.041Z" fill="#27348B"/>
<path d="M159.87 75.3319C159.87 75.5073 159.845 75.6767 159.795 75.8383L146.149 64.2007L154.24 56.5298C155.696 58.0528 157.667 59.0753 159.87 59.3104V75.3319Z" fill="#27348B"/>
<path d="M160.847 57.4035C164.824 57.4035 168.048 54.17 168.048 50.1812C168.048 46.1924 164.824 42.9589 160.847 42.9589C156.87 42.9589 153.646 46.1924 153.646 50.1812C153.646 54.17 156.87 57.4035 160.847 57.4035Z" fill="#ED6C71"/>
<path d="M123.658 49.8975H151.697C151.694 49.9915 151.693 50.0865 151.693 50.1815C151.693 51.9357 152.187 53.5762 153.041 54.9719L141.55 65.8652H140.273L123.445 49.9102C123.515 49.9014 123.586 49.8975 123.658 49.8975Z" fill="#27348B"/>
<path d="M161.175 47.0441H160.131C159.592 47.0441 159.155 47.4829 159.155 48.0236C159.155 48.5642 159.592 49.003 160.131 49.003H160.199V52.9197C160.199 53.4604 160.636 53.8992 161.175 53.8992C161.714 53.8992 162.152 53.4604 162.152 52.9197V48.0236C162.152 47.4829 161.714 47.0441 161.175 47.0441Z" fill="white"/>
</g>
<defs>
<clipPath id="clip0">
<rect width="50" height="38" fill="white" transform="translate(120 41)"/>
</clipPath>
</defs>
</svg>
