<svg width="409" height="265" viewBox="0 0 409 265" fill="none" xmlns="http://www.w3.org/2000/svg">
<path d="M269.381 99H80.6191C78.0814 99 75.5438 99.1879 73.0061 99.3758L0.390407 169.268C0.195204 171.71 0 174.153 0 176.595V358.276V519.103C0 525.679 5.6609 530 11.3218 530C14.0547 530 16.9827 529.061 19.1299 526.806L113.608 435.871H269.186C271.723 435.871 274.261 435.684 276.994 435.496L349.61 365.604C349.805 363.161 350 360.719 350 358.089V176.595C350 133.758 313.887 99 269.381 99Z" fill="#48BED8"/>
<path d="M110.245 0H36.697C35.7082 0 34.7195 0.0759227 33.7307 0.151845L5.43727 28.3951C5.36121 29.3821 5.28516 30.3691 5.28516 31.3561V104.773V169.763C5.28516 172.42 7.49083 174.167 9.6965 174.167C10.7613 174.167 11.9022 173.787 12.7388 172.876L49.5507 136.129H110.169C111.157 136.129 112.146 136.053 113.211 135.978L141.504 107.734C141.581 106.747 141.657 105.76 141.657 104.697V31.3561C141.657 14.0457 127.586 0 110.245 0Z" fill="#48BED8"/>
<path d="M116.067 -2.3357e-07L32.0874 -6.45719e-08C31.1085 -6.2602e-08 30.1399 0.051393 29.1816 0.1439L0.195783 27.4439C0.113349 28.3895 0.0515166 29.366 0.0515166 30.3322L0.0515168 101.337L0.0515168 101.347L3.82351e-07 190C3.82351e-07 190 15.951 171.827 21.1752 165.732C24.6478 161.682 30.5418 155.433 36.4564 150.931C43.2985 145.72 56.4055 146.408 56.4055 146.408L116.644 146.532C117.623 146.532 118.592 146.48 119.55 146.398L147.856 118.584C147.948 117.628 148 116.652 148 115.675L148 28.5334C148.01 11.7793 132.873 -2.67391e-07 116.067 -2.3357e-07ZM135.594 111.358C135.594 112.222 135.552 113.065 135.47 113.907L114.862 133.951C114.017 134.023 113.161 134.074 112.306 134.074C112.306 134.074 59.9398 133.499 42.4947 133.971C38.9501 134.064 35.0139 134.691 29.0374 138.463C23.5246 141.937 18.6198 147.765 18.6198 147.765L11.9117 156.06L12.3033 102.221L12.3033 102.21L12.3033 34.0941C12.3033 33.241 12.3445 33.4569 12.4269 32.6243L33.0045 12.3549C33.8495 12.2829 36.1576 12.2315 37.0232 12.2315L112.224 12.2315C126.959 12.2315 135.604 23.2708 135.604 37.9692L135.604 111.358L135.594 111.358Z" fill="#43A7BB"/>
<path d="M104.4 23.2222L42.3067 23.2222C41.638 23.2222 38.6445 23.2533 37.9861 23.3155L24.6436 37.2942C24.5819 37.9475 24.5511 43.5991 24.5511 44.2628L24.5511 97.9064L24.5511 97.9168L24.3145 128.778C24.3145 128.778 31.3714 124.039 37.8112 122.659C39.7657 122.245 47.8515 121.892 47.8515 121.892L104.472 121.975C105.141 121.975 109.574 121.944 110.222 121.882L122.526 109.396C122.588 108.733 122.629 105.798 122.629 105.124L122.629 45.2583C122.618 33.6854 115.88 23.2222 104.4 23.2222ZM108.422 97.2739C108.422 97.7613 108.402 101.38 108.35 101.847L99.9559 110.101C99.4827 110.143 95.9542 110.174 95.4707 110.174L52.3572 110.112C52.3572 110.112 50.1455 110.122 49.4048 110.112C43.3868 110.029 41.8952 110.153 39.5909 111.024C38.8399 111.304 36.7208 112.476 36.7208 112.476L36.7516 92.1407L36.7516 53.8757C36.7516 53.3987 36.7722 46.6893 36.8236 46.2227L46.1541 35.8631C46.617 35.8216 50.6701 35.7905 51.1433 35.7905L95.4295 35.7905C103.618 35.7905 108.422 41.7014 108.422 54.5808L108.422 97.2739Z" fill="#43A7BB"/>
<path d="M49.6855 98.1668L96.1998 98.1668L96.1998 48.5557L49.6855 48.5557L49.6855 98.1668ZM83.9832 84.7785L61.9123 84.7785L61.9123 61.944L83.9832 61.944L83.9832 84.7785Z" fill="#43A7BB"/>
<path d="M401.859 193H385.141C384.916 193 384.691 193.017 384.466 193.035L378.035 199.521C378.017 199.748 378 199.975 378 200.201V217.063V231.989C378 232.599 378.501 233 379.003 233C379.245 233 379.504 232.913 379.694 232.704L388.062 224.264H401.842C402.067 224.264 402.292 224.247 402.534 224.229L408.965 217.743C408.983 217.516 409 217.289 409 217.045V200.201C409 196.226 405.801 193 401.859 193Z" fill="white"/>
</svg>
