<svg width="746" height="475" viewBox="0 0 746 475" fill="none" xmlns="http://www.w3.org/2000/svg">
<path d="M661.369 -82H294.631C289.701 -82 284.771 -81.6347 279.84 -81.2694L138.759 54.6225C138.379 59.3714 138 64.1203 138 68.8692V422.115V734.813C138 747.598 148.998 756 159.997 756C165.306 756 170.995 754.174 175.167 749.79L358.725 572.984H660.989C665.92 572.984 670.85 572.619 676.159 572.254L817.241 436.362C817.621 431.613 818 426.864 818 421.75V68.8692C818 -14.4193 747.838 -82 661.369 -82Z" fill="#27348B"/>
<path d="M709.443 259H539.557C537.273 259 534.989 259.169 532.706 259.338L467.351 322.257C467.176 324.456 467 326.655 467 328.854V492.409V637.19C467 643.11 472.095 647 477.19 647C479.649 647 482.284 646.154 484.217 644.125L569.248 562.262H709.267C711.551 562.262 713.835 562.093 716.294 561.924L781.649 499.005C781.824 496.806 782 494.608 782 492.24V328.854C782 290.29 749.499 259 709.443 259Z" fill="#47529C"/>
<path d="M805.245 123H731.697C730.708 123 729.719 123.076 728.731 123.152L700.437 151.395C700.361 152.382 700.285 153.369 700.285 154.356V227.773V292.763C700.285 295.42 702.491 297.167 704.697 297.167C705.761 297.167 706.902 296.787 707.739 295.876L744.551 259.129H805.169C806.157 259.129 807.146 259.053 808.211 258.978L836.504 230.734C836.581 229.747 836.657 228.76 836.657 227.697V154.356C836.657 137.046 822.586 123 805.245 123Z" fill="#283583"/>
<path d="M811.067 123L727.087 123C726.109 123 725.14 123.051 724.182 123.144L695.196 150.444C695.113 151.39 695.052 152.366 695.052 153.332L695.052 224.337L695.052 224.347L695 313C695 313 710.951 294.827 716.175 288.732C719.648 284.682 725.542 278.433 731.456 273.931C738.298 268.72 751.405 269.408 751.405 269.408L811.644 269.532C812.623 269.532 813.592 269.48 814.55 269.398L842.856 241.584C842.948 240.628 843 239.652 843 238.675L843 151.533C843.01 134.779 827.873 123 811.067 123ZM830.594 234.358C830.594 235.222 830.552 236.065 830.47 236.907L809.862 256.951C809.017 257.023 808.161 257.074 807.306 257.074C807.306 257.074 754.94 256.499 737.495 256.971C733.95 257.064 730.014 257.691 724.037 261.463C718.525 264.937 713.62 270.765 713.62 270.765L706.912 279.06L707.303 225.221L707.303 225.21L707.303 157.094C707.303 156.241 707.344 156.457 707.427 155.624L728.005 135.355C728.849 135.283 731.158 135.232 732.023 135.232L807.224 135.232C821.959 135.232 830.604 146.271 830.604 160.969L830.604 234.358L830.594 234.358Z" fill="#47529C"/>
<path d="M799.4 146.222L737.307 146.222C736.638 146.222 733.644 146.253 732.986 146.315L719.644 160.294C719.582 160.947 719.551 166.599 719.551 167.263L719.551 220.906L719.551 220.917L719.314 251.778C719.314 251.778 726.371 247.039 732.811 245.659C734.766 245.245 742.851 244.892 742.851 244.892L799.472 244.975C800.141 244.975 804.574 244.944 805.222 244.882L817.526 232.396C817.588 231.733 817.629 228.798 817.629 228.124L817.629 168.258C817.618 156.685 810.88 146.222 799.4 146.222ZM803.422 220.274C803.422 220.761 803.402 224.38 803.35 224.847L794.956 233.101C794.483 233.143 790.954 233.174 790.471 233.174L747.357 233.112C747.357 233.112 745.145 233.122 744.405 233.112C738.387 233.029 736.895 233.153 734.591 234.024C733.84 234.304 731.721 235.476 731.721 235.476L731.752 215.141L731.752 176.876C731.752 176.399 731.772 169.689 731.824 169.223L741.154 158.863C741.617 158.822 745.67 158.791 746.143 158.791L790.43 158.791C798.618 158.791 803.422 164.701 803.422 177.581L803.422 220.274Z" fill="#47529C"/>
<path d="M744.686 221.167L791.2 221.167L791.2 171.556L744.686 171.556L744.686 221.167ZM778.983 207.778L756.912 207.778L756.912 184.944L778.983 184.944L778.983 207.778Z" fill="#47529C"/>
<path d="M865.755 235H744.501C742.871 235 741.241 235.126 739.611 235.251L692.965 281.939C692.839 283.571 692.714 285.202 692.714 286.834V408.199V515.632C692.714 520.025 696.35 522.911 699.987 522.911C701.742 522.911 703.623 522.284 705.002 520.778L765.692 460.033H865.63C867.26 460.033 868.89 459.907 870.646 459.782L917.292 413.093C917.417 411.462 917.542 409.83 917.542 408.073V286.834C917.542 258.219 894.345 235 865.755 235Z" fill="#283583"/>
<path d="M875.354 235L736.901 235C735.287 235 733.69 235.085 732.11 235.238L684.323 280.367C684.187 281.93 684.085 283.544 684.085 285.141L684.085 402.518L684.085 402.535L684 549.085C684 549.085 710.298 519.044 718.911 508.969C724.636 502.274 734.353 491.943 744.104 484.501C755.384 475.886 776.993 477.025 776.993 477.025L876.305 477.229C877.919 477.229 879.516 477.144 881.096 477.008L927.762 431.029C927.915 429.449 928 427.835 928 426.221L928 282.168C928.017 254.472 903.061 235 875.354 235ZM907.546 419.084C907.546 420.512 907.478 421.905 907.342 423.298L873.366 456.431C871.973 456.55 870.563 456.635 869.153 456.635C869.153 456.635 782.82 455.684 754.059 456.465C748.215 456.618 741.726 457.655 731.872 463.89C722.784 469.634 714.697 479.268 714.697 479.268L703.638 492.98L704.284 403.979L704.284 403.962L704.284 291.36C704.284 289.95 704.352 290.307 704.488 288.931L738.413 255.424C739.806 255.305 743.611 255.22 745.038 255.22L869.017 255.22C893.31 255.22 907.563 273.468 907.563 297.766L907.563 419.084L907.546 419.084Z" fill="#47529C"/>
<path d="M856.119 273.389L753.749 273.389C752.646 273.389 747.711 273.44 746.626 273.543L724.629 296.651C724.527 297.731 724.476 307.073 724.476 308.17L724.476 396.848L724.476 396.865L724.086 447.88C724.086 447.88 735.72 440.046 746.337 437.766C749.56 437.081 762.89 436.498 762.89 436.498L856.237 436.635C857.34 436.635 864.65 436.584 865.718 436.481L886.002 415.841C886.104 414.744 886.172 409.893 886.172 408.779L886.172 309.816C886.155 290.685 875.046 273.389 856.119 273.389ZM862.75 395.802C862.75 396.608 862.716 402.59 862.631 403.362L848.792 417.007C848.012 417.076 842.195 417.127 841.398 417.127L770.319 417.024C770.319 417.024 766.672 417.041 765.451 417.024C755.53 416.887 753.07 417.093 749.271 418.533C748.033 418.996 744.54 420.933 744.54 420.933L744.59 387.317L744.59 324.061C744.59 323.273 744.624 312.182 744.709 311.41L760.092 294.285C760.855 294.217 767.537 294.165 768.317 294.165L841.33 294.165C854.83 294.165 862.75 303.936 862.75 325.227L862.75 395.802Z" fill="#47529C"/>
<path d="M507.755 373H386.501C384.871 373 383.241 373.126 381.611 373.251L334.965 419.939C334.839 421.571 334.714 423.202 334.714 424.834V546.199V653.632C334.714 658.025 338.35 660.911 341.987 660.911C343.742 660.911 345.623 660.284 347.002 658.778L407.692 598.033H507.63C509.26 598.033 510.89 597.907 512.646 597.782L559.292 551.093C559.417 549.462 559.542 547.83 559.542 546.073V424.834C559.542 396.219 536.345 373 507.755 373Z" fill="#283583"/>
<path d="M517.354 373L378.901 373C377.287 373 375.69 373.085 374.11 373.238L326.323 418.367C326.187 419.93 326.085 421.544 326.085 423.141L326.085 540.518L326.085 540.535L326 687.085C326 687.085 352.298 657.044 360.911 646.969C366.636 640.274 376.353 629.943 386.104 622.501C397.384 613.886 418.993 615.025 418.993 615.025L518.305 615.229C519.919 615.229 521.516 615.144 523.096 615.008L569.762 569.029C569.915 567.449 570 565.835 570 564.221L570 420.168C570.017 392.472 545.061 373 517.354 373ZM549.546 557.084C549.546 558.512 549.478 559.905 549.342 561.298L515.366 594.431C513.973 594.55 512.563 594.635 511.153 594.635C511.153 594.635 424.82 593.684 396.059 594.465C390.215 594.618 383.726 595.655 373.872 601.89C364.784 607.634 356.697 617.268 356.697 617.268L345.638 630.98L346.284 541.979L346.284 541.962L346.284 429.36C346.284 427.95 346.352 428.307 346.488 426.931L380.413 393.424C381.806 393.305 385.611 393.22 387.038 393.22L511.017 393.22C535.31 393.22 549.563 411.468 549.563 435.766L549.563 557.084L549.546 557.084Z" fill="#47529C"/>
<path d="M498.119 411.389L395.749 411.389C394.646 411.389 389.711 411.44 388.626 411.543L366.629 434.651C366.527 435.731 366.476 445.073 366.476 446.17L366.476 534.848L366.476 534.865L366.086 585.88C366.086 585.88 377.72 578.046 388.337 575.766C391.56 575.081 404.89 574.498 404.89 574.498L498.237 574.635C499.34 574.635 506.65 574.584 507.718 574.481L528.002 553.841C528.104 552.744 528.172 547.893 528.172 546.779L528.172 447.816C528.155 428.685 517.046 411.389 498.119 411.389ZM504.75 533.802C504.75 534.608 504.716 540.59 504.631 541.362L490.792 555.007C490.012 555.076 484.195 555.127 483.398 555.127L412.319 555.024C412.319 555.024 408.672 555.041 407.451 555.024C397.53 554.887 395.07 555.093 391.271 556.533C390.033 556.996 386.54 558.933 386.54 558.933L386.59 525.317L386.59 462.061C386.59 461.273 386.624 450.182 386.709 449.41L402.092 432.285C402.855 432.217 409.537 432.165 410.317 432.165L483.33 432.165C496.83 432.165 504.75 441.936 504.75 463.227L504.75 533.802Z" fill="#47529C"/>
<path d="M407.914 535.278L484.6 535.278L484.6 453.267L407.914 453.267L407.914 535.278ZM464.459 513.146L428.072 513.146L428.072 475.399L464.459 475.399L464.459 513.146Z" fill="#47529C"/>
<path d="M687.245 414H613.697C612.708 414 611.719 414.076 610.731 414.152L582.437 442.395C582.361 443.382 582.285 444.369 582.285 445.356V518.773V583.763C582.285 586.42 584.491 588.167 586.697 588.167C587.761 588.167 588.902 587.787 589.739 586.876L626.551 550.129H687.169C688.157 550.129 689.146 550.053 690.211 549.978L718.504 521.734C718.581 520.747 718.657 519.76 718.657 518.697V445.356C718.657 428.046 704.586 414 687.245 414Z" fill="#283583"/>
<path d="M693.067 414L609.087 414C608.109 414 607.14 414.051 606.182 414.144L577.196 441.444C577.113 442.39 577.052 443.366 577.052 444.332L577.052 515.337L577.052 515.347L577 604C577 604 592.951 585.827 598.175 579.732C601.648 575.682 607.542 569.433 613.456 564.931C620.298 559.72 633.405 560.408 633.405 560.408L693.644 560.532C694.623 560.532 695.592 560.48 696.55 560.398L724.856 532.584C724.948 531.628 725 530.652 725 529.675L725 442.533C725.01 425.779 709.873 414 693.067 414ZM712.594 525.358C712.594 526.222 712.552 527.065 712.47 527.907L691.862 547.951C691.017 548.023 690.161 548.074 689.306 548.074C689.306 548.074 636.94 547.499 619.495 547.971C615.95 548.064 612.014 548.691 606.037 552.463C600.525 555.937 595.62 561.765 595.62 561.765L588.912 570.06L589.303 516.221L589.303 516.21L589.303 448.094C589.303 447.241 589.344 447.457 589.427 446.624L610.005 426.355C610.849 426.283 613.158 426.232 614.023 426.232L689.224 426.232C703.959 426.232 712.604 437.271 712.604 451.969L712.604 525.358L712.594 525.358Z" fill="#47529C"/>
<path d="M681.4 437.222L619.307 437.222C618.638 437.222 615.644 437.253 614.986 437.315L601.644 451.294C601.582 451.947 601.551 457.599 601.551 458.263L601.551 511.906L601.551 511.917L601.314 542.778C601.314 542.778 608.371 538.039 614.811 536.659C616.766 536.245 624.851 535.892 624.851 535.892L681.472 535.975C682.141 535.975 686.574 535.944 687.222 535.882L699.526 523.396C699.588 522.733 699.629 519.798 699.629 519.124L699.629 459.258C699.618 447.685 692.88 437.222 681.4 437.222ZM685.422 511.274C685.422 511.761 685.402 515.38 685.35 515.847L676.956 524.101C676.483 524.143 672.954 524.174 672.471 524.174L629.357 524.112C629.357 524.112 627.145 524.122 626.405 524.112C620.387 524.029 618.895 524.153 616.591 525.024C615.84 525.304 613.721 526.476 613.721 526.476L613.752 506.141L613.752 467.876C613.752 467.399 613.772 460.689 613.824 460.223L623.154 449.863C623.617 449.822 627.67 449.791 628.143 449.791L672.43 449.791C680.618 449.791 685.422 455.701 685.422 468.581L685.422 511.274Z" fill="#47529C"/>
<path d="M626.686 512.167L673.2 512.167L673.2 462.556L626.686 462.556L626.686 512.167ZM660.983 498.778L638.912 498.778L638.912 475.944L660.983 475.944L660.983 498.778Z" fill="#47529C"/>
<path d="M666.245 166H592.697C591.708 166 590.719 166.076 589.731 166.152L561.437 194.395C561.361 195.382 561.285 196.369 561.285 197.356V270.773V335.763C561.285 338.42 563.491 340.167 565.697 340.167C566.761 340.167 567.902 339.787 568.739 338.876L605.551 302.129H666.169C667.157 302.129 668.146 302.053 669.211 301.978L697.504 273.734C697.581 272.747 697.657 271.76 697.657 270.697V197.356C697.657 180.046 683.586 166 666.245 166Z" fill="#283583"/>
<path d="M672.067 166L588.087 166C587.109 166 586.14 166.051 585.182 166.144L556.196 193.444C556.113 194.39 556.052 195.366 556.052 196.332L556.052 267.337L556.052 267.347L556 356C556 356 571.951 337.827 577.175 331.732C580.648 327.682 586.542 321.433 592.456 316.931C599.298 311.72 612.405 312.408 612.405 312.408L672.644 312.532C673.623 312.532 674.592 312.48 675.55 312.398L703.856 284.584C703.948 283.628 704 282.652 704 281.675L704 194.533C704.01 177.779 688.873 166 672.067 166ZM691.594 277.358C691.594 278.222 691.552 279.065 691.47 279.907L670.862 299.951C670.017 300.023 669.161 300.074 668.306 300.074C668.306 300.074 615.94 299.499 598.495 299.971C594.95 300.064 591.014 300.691 585.037 304.463C579.525 307.937 574.62 313.765 574.62 313.765L567.912 322.06L568.303 268.221L568.303 268.21L568.303 200.094C568.303 199.241 568.344 199.457 568.427 198.624L589.005 178.355C589.849 178.283 592.158 178.232 593.023 178.232L668.224 178.232C682.959 178.232 691.604 189.271 691.604 203.969L691.604 277.358L691.594 277.358Z" fill="#47529C"/>
<path d="M660.4 189.222L598.307 189.222C597.638 189.222 594.644 189.253 593.986 189.315L580.644 203.294C580.582 203.947 580.551 209.599 580.551 210.263L580.551 263.906L580.551 263.917L580.314 294.778C580.314 294.778 587.371 290.039 593.811 288.659C595.766 288.245 603.851 287.892 603.851 287.892L660.472 287.975C661.141 287.975 665.574 287.944 666.222 287.882L678.526 275.396C678.588 274.733 678.629 271.798 678.629 271.124L678.629 211.258C678.618 199.685 671.88 189.222 660.4 189.222ZM664.422 263.274C664.422 263.761 664.402 267.38 664.35 267.847L655.956 276.101C655.483 276.143 651.954 276.174 651.471 276.174L608.357 276.112C608.357 276.112 606.145 276.122 605.405 276.112C599.387 276.029 597.895 276.153 595.591 277.024C594.84 277.304 592.721 278.476 592.721 278.476L592.752 258.141L592.752 219.876C592.752 219.399 592.772 212.689 592.824 212.223L602.154 201.863C602.617 201.822 606.67 201.791 607.143 201.791L651.43 201.791C659.618 201.791 664.422 207.701 664.422 220.581L664.422 263.274Z" fill="#47529C"/>
<path d="M605.686 264.167L652.2 264.167L652.2 214.556L605.686 214.556L605.686 264.167ZM639.983 250.778L617.912 250.778L617.912 227.944L639.983 227.944L639.983 250.778Z" fill="#47529C"/>
<path d="M591.245 372H517.697C516.708 372 515.719 372.076 514.731 372.152L486.437 400.395C486.361 401.382 486.285 402.369 486.285 403.356V476.773V541.763C486.285 544.42 488.491 546.167 490.697 546.167C491.761 546.167 492.902 545.787 493.739 544.876L530.551 508.129H591.169C592.157 508.129 593.146 508.053 594.211 507.978L622.504 479.734C622.581 478.747 622.657 477.76 622.657 476.697V403.356C622.657 386.046 608.586 372 591.245 372Z" fill="white"/>
<path d="M597.067 372L513.087 372C512.109 372 511.14 372.051 510.182 372.144L481.196 399.444C481.113 400.39 481.052 401.366 481.052 402.332L481.052 473.337L481.052 473.347L481 562C481 562 496.951 543.827 502.175 537.732C505.648 533.682 511.542 527.433 517.456 522.931C524.298 517.72 537.405 518.408 537.405 518.408L597.644 518.532C598.623 518.532 599.592 518.48 600.55 518.398L628.856 490.584C628.948 489.628 629 488.652 629 487.675L629 400.533C629.01 383.779 613.873 372 597.067 372ZM616.594 483.358C616.594 484.222 616.552 485.065 616.47 485.907L595.862 505.951C595.017 506.023 594.161 506.074 593.306 506.074C593.306 506.074 540.94 505.499 523.495 505.971C519.95 506.064 516.014 506.691 510.037 510.463C504.525 513.937 499.62 519.765 499.62 519.765L492.912 528.06L493.303 474.221L493.303 474.21L493.303 406.094C493.303 405.241 493.344 405.457 493.427 404.624L514.005 384.355C514.849 384.283 517.158 384.232 518.023 384.232L593.224 384.232C607.959 384.232 616.604 395.271 616.604 409.969L616.604 483.358L616.594 483.358Z" fill="#48BED8"/>
<path d="M585.4 395.222L523.307 395.222C522.638 395.222 519.644 395.253 518.986 395.315L505.644 409.294C505.582 409.947 505.551 415.599 505.551 416.263L505.551 469.906L505.551 469.917L505.314 500.778C505.314 500.778 512.371 496.039 518.811 494.659C520.766 494.245 528.851 493.892 528.851 493.892L585.472 493.975C586.141 493.975 590.574 493.944 591.222 493.882L603.526 481.396C603.588 480.733 603.629 477.798 603.629 477.124L603.629 417.258C603.618 405.685 596.88 395.222 585.4 395.222ZM589.422 469.274C589.422 469.761 589.402 473.38 589.35 473.847L580.956 482.101C580.483 482.143 576.954 482.174 576.471 482.174L533.357 482.112C533.357 482.112 531.145 482.122 530.405 482.112C524.387 482.029 522.895 482.153 520.591 483.024C519.84 483.304 517.721 484.476 517.721 484.476L517.752 464.141L517.752 425.876C517.752 425.399 517.772 418.689 517.824 418.223L527.154 407.863C527.617 407.822 531.67 407.791 532.143 407.791L576.43 407.791C584.618 407.791 589.422 413.701 589.422 426.581L589.422 469.274Z" fill="#48BED8"/>
<path d="M530.686 470.167L577.2 470.167L577.2 420.556L530.686 420.556L530.686 470.167ZM564.983 456.778L542.912 456.778L542.912 433.944L564.983 433.944L564.983 456.778Z" fill="#48BED8"/>
<path d="M719.859 30H703.141C702.916 30 702.691 30.0174 702.466 30.0349L696.035 36.5214C696.017 36.748 696 36.9747 696 37.2014V54.0628V68.9887C696 69.599 696.501 70 697.003 70C697.245 70 697.504 69.9128 697.694 69.7036L706.062 61.2642H719.842C720.067 61.2642 720.292 61.2467 720.534 61.2293L726.965 54.7428C726.983 54.5161 727 54.2895 727 54.0453V37.2014C727 33.2258 723.801 30 719.859 30Z" fill="#47529C"/>
<path d="M94.8595 434H78.1405C77.9158 434 77.691 434.017 77.4663 434.035L71.0346 440.521C71.0173 440.748 71 440.975 71 441.201V458.063V472.989C71 473.599 71.5014 474 72.0028 474C72.2448 474 72.5042 473.913 72.6944 473.704L81.0625 465.264H94.8422C95.0669 465.264 95.2917 465.247 95.5337 465.229L101.965 458.743C101.983 458.516 102 458.289 102 458.045V441.201C102 437.226 98.8014 434 94.8595 434Z" fill="#48BED8"/>
<path d="M23.8595 328H7.14055C6.91578 328 6.69102 328.017 6.46626 328.035L0.0345789 334.521C0.0172895 334.748 0 334.975 0 335.201V352.063V366.989C0 367.599 0.501394 368 1.00279 368C1.24484 368 1.50418 367.913 1.69437 367.704L10.0625 359.264H23.8422C24.0669 359.264 24.2917 359.247 24.5337 359.229L30.9654 352.743C30.9827 352.516 31 352.289 31 352.045V335.201C31 331.226 27.8014 328 23.8595 328Z" fill="#47529C"/>
<path d="M635.859 78H619.141C618.916 78 618.691 78.0174 618.466 78.0349L612.035 84.5214C612.017 84.748 612 84.9747 612 85.2014V102.063V116.989C612 117.599 612.501 118 613.003 118C613.245 118 613.504 117.913 613.694 117.704L622.062 109.264H635.842C636.067 109.264 636.292 109.247 636.534 109.229L642.965 102.743C642.983 102.516 643 102.289 643 102.045V85.2014C643 81.2258 639.801 78 635.859 78Z" fill="#47529C"/>
</svg>
