<svg width="39" height="48" viewBox="0 0 39 48" fill="none" xmlns="http://www.w3.org/2000/svg">
<path d="M30.0167 0H8.98327C8.7005 0 8.41774 0.0209241 8.13497 0.0418483L0.0435025 7.82563C0.0217513 8.09765 0 8.36966 0 8.64167V28.8753V46.7864C0 47.5187 0.630786 48 1.26157 48C1.56609 48 1.89236 47.8954 2.13162 47.6443L12.6592 37.517H29.995C30.2777 37.517 30.5605 37.4961 30.865 37.4752L38.9565 29.6914C38.9782 29.4194 39 29.1473 39 28.8544V8.64167C39 3.87097 34.976 0 30.0167 0Z" fill="#48BED8"/>
<g clip-path="url(#clip0)">
<path d="M14.9751 21.2027V17.382C14.9751 17.1062 15.0145 16.8375 15.0887 16.5808H12.5145C12.0968 16.5808 11.7186 16.7507 11.4442 17.0253C11.1698 17.3 11 17.6785 11 18.096V21.1363C11 21.5062 11.1351 21.8472 11.3583 22.1121C11.4746 22.25 11.6152 22.3667 11.7732 22.4562V26.875C11.7732 27.198 12.0348 27.4597 12.3576 27.4597H15.947V23.375C15.3334 22.8207 14.9751 22.0308 14.9751 21.2027Z" fill="white"/>
<path d="M14.1555 15.8892C15.4178 15.8892 16.4448 14.8614 16.4448 13.5981C16.4448 12.3349 15.4178 11.3071 14.1555 11.3071C12.8932 11.3071 11.8662 12.3353 11.8662 13.5981C11.8662 14.861 12.8932 15.8892 14.1555 15.8892Z" fill="white"/>
<path d="M22.0248 15.6277H17.8975C17.4143 15.6277 16.9759 15.8246 16.6586 16.1421C16.3413 16.4597 16.1445 16.8984 16.1445 17.382V21.2027C16.1445 21.6312 16.3007 22.0257 16.5591 22.3324C16.7125 22.514 16.9022 22.6644 17.1164 22.7718V28.4152C17.1164 28.7382 17.378 29 17.7008 29H22.2215C22.5444 29 22.8059 28.7382 22.8059 28.4152V22.7718C23.0206 22.6644 23.2102 22.514 23.3633 22.3324C23.622 22.0257 23.7782 21.6312 23.7782 21.2027V17.382C23.7782 16.8984 23.5815 16.4597 23.2641 16.1421C22.9464 15.8246 22.508 15.6277 22.0248 15.6277Z" fill="white"/>
<path d="M19.9602 14.4582C21.4638 14.4582 22.6871 13.234 22.6871 11.7293C22.6871 10.2246 21.4638 9 19.9602 9C18.4567 9 17.2334 10.2242 17.2334 11.7289C17.2334 13.2336 18.4563 14.4582 19.9602 14.4582Z" fill="white"/>
<path d="M28.5559 17.0253C28.2819 16.7511 27.9033 16.5808 27.4856 16.5808H24.8329C24.9067 16.8375 24.9465 17.1062 24.9465 17.382V21.2027C24.9465 22.0304 24.5882 22.8207 23.9746 23.375V27.4554C23.9976 27.4582 24.0214 27.4597 24.0453 27.4597H27.6425C27.9653 27.4597 28.2268 27.198 28.2268 26.875V22.4562C28.3849 22.3667 28.5254 22.25 28.6418 22.1121C28.8654 21.8468 29.0001 21.5062 29.0001 21.1363V18.096C29.0001 17.6785 28.8299 17.2996 28.5559 17.0253Z" fill="white"/>
<path d="M25.843 15.8892C27.1053 15.8892 28.1323 14.8614 28.1323 13.5981C28.1323 12.3349 27.1053 11.3071 25.843 11.3071C24.5807 11.3071 23.5537 12.3349 23.5537 13.5981C23.5537 14.8614 24.5811 15.8892 25.843 15.8892Z" fill="white"/>
</g>
<defs>
<clipPath id="clip0">
<rect width="18" height="20" fill="white" transform="translate(11 9)"/>
</clipPath>
</defs>
</svg>
