<svg width="39" height="48" viewBox="0 0 39 48" fill="none" xmlns="http://www.w3.org/2000/svg">
<path d="M30.0167 0H8.98327C8.7005 0 8.41774 0.0209241 8.13497 0.0418483L0.0435025 7.82563C0.0217513 8.09765 0 8.36966 0 8.64167V28.8753V46.7864C0 47.5187 0.630786 48 1.26157 48C1.56609 48 1.89236 47.8954 2.13162 47.6443L12.6592 37.517H29.995C30.2777 37.517 30.5605 37.4961 30.865 37.4752L38.9565 29.6914C38.9782 29.4194 39 29.1473 39 28.8544V8.64167C39 3.87097 34.976 0 30.0167 0Z" fill="#48BED8"/>
<path d="M20 10.8809C19.6551 10.8809 19.375 10.6008 19.375 10.2559V8.625C19.375 8.28008 19.6551 8 20 8C20.3449 8 20.625 8.28008 20.625 8.625V10.2559C20.625 10.6008 20.3449 10.8809 20 10.8809Z" fill="white"/>
<path d="M25.4755 13.1494C25.3153 13.1494 25.1556 13.0885 25.0337 12.9662C24.7896 12.7221 24.7896 12.3264 25.0337 12.0822L26.1872 10.9287C26.4313 10.6846 26.8271 10.6846 27.0712 10.9287C27.3153 11.1729 27.3153 11.5686 27.0712 11.8127L25.9177 12.9662C25.7954 13.0877 25.6356 13.1494 25.4755 13.1494Z" fill="white"/>
<path d="M29.375 18.625H27.7441C27.3992 18.625 27.1191 18.3449 27.1191 18C27.1191 17.6551 27.3992 17.375 27.7441 17.375H29.375C29.7199 17.375 30 17.6551 30 18C30 18.3449 29.7199 18.625 29.375 18.625Z" fill="white"/>
<path d="M26.629 25.2544C26.4688 25.2544 26.3091 25.1935 26.1872 25.0712L25.0337 23.9177C24.7896 23.6735 24.7896 23.2778 25.0337 23.0337C25.2778 22.7896 25.6735 22.7896 25.9177 23.0337L27.0712 24.1872C27.3153 24.4313 27.3153 24.8271 27.0712 25.0712C26.9489 25.1935 26.7888 25.2544 26.629 25.2544Z" fill="white"/>
<path d="M13.371 25.2544C13.2108 25.2544 13.0511 25.1935 12.9292 25.0712C12.6851 24.8271 12.6851 24.4313 12.9292 24.1872L14.0827 23.0337C14.3269 22.7896 14.7226 22.7896 14.9667 23.0337C15.2108 23.2778 15.2108 23.6735 14.9667 23.9177L13.8132 25.0712C13.6913 25.1935 13.5312 25.2544 13.371 25.2544Z" fill="white"/>
<path d="M12.2559 18.625H10.625C10.2801 18.625 10 18.3449 10 18C10 17.6551 10.2801 17.375 10.625 17.375H12.2559C12.6008 17.375 12.8809 17.6551 12.8809 18C12.8809 18.3449 12.6008 18.625 12.2559 18.625Z" fill="white"/>
<path d="M14.5241 13.1494C14.364 13.1494 14.2042 13.0885 14.0823 12.9662L12.9292 11.8127C12.6851 11.5686 12.6851 11.1729 12.9292 10.9287C13.1733 10.6846 13.569 10.6846 13.8132 10.9287L14.9667 12.0822C15.2108 12.3264 15.2108 12.7221 14.9667 12.9662C14.8433 13.0877 14.6839 13.1494 14.5241 13.1494Z" fill="white"/>
<path d="M22.4996 25.5V26.5418C22.4996 27.3418 21.8414 28 21.0414 28H18.9582C18.2582 28 17.5 27.4668 17.5 26.3V25.5H22.4996Z" fill="white"/>
<path d="M23.6753 13.4669C22.3086 12.3587 20.5086 11.9251 18.7503 12.3001C16.5421 12.7583 14.7503 14.5583 14.2921 16.7669C13.8253 19.0337 14.6753 21.2837 16.4921 22.6587C16.9839 23.0255 17.3253 23.5919 17.4421 24.2505V24.2587C17.4589 24.2505 17.4839 24.2505 17.5003 24.2505H22.5003C22.5171 24.2505 22.5253 24.2505 22.5421 24.2587V24.2501C22.6589 23.6169 23.0339 23.0333 23.6089 22.5833C25.0171 21.4665 25.8339 19.8001 25.8339 18.0001C25.8336 16.2333 25.0503 14.5833 23.6753 13.4669ZM23.1253 18.4169C22.7836 18.4169 22.5003 18.1337 22.5003 17.7919C22.5003 16.5251 21.4753 15.5001 20.2086 15.5001C19.8668 15.5001 19.5836 15.2169 19.5836 14.8751C19.5836 14.5333 19.8668 14.2501 20.2086 14.2501C22.1586 14.2501 23.7503 15.8419 23.7503 17.7919C23.7503 18.1333 23.4671 18.4169 23.1253 18.4169Z" fill="white"/>
<path d="M17.4414 24.25H17.4996C17.4828 24.25 17.4578 24.25 17.4414 24.2582V24.25Z" fill="white"/>
<path d="M22.5418 24.25V24.2582C22.525 24.25 22.5168 24.25 22.5 24.25H22.5418Z" fill="white"/>
</svg>
