<svg width="39" height="48" viewBox="0 0 39 48" fill="none" xmlns="http://www.w3.org/2000/svg">
<path d="M30.0167 0H8.98327C8.7005 0 8.41774 0.0209241 8.13497 0.0418483L0.0435025 7.82563C0.0217513 8.09765 0 8.36966 0 8.64167V28.8753V46.7864C0 47.5187 0.630786 48 1.26157 48C1.56609 48 1.89236 47.8954 2.13162 47.6443L12.6592 37.517H29.995C30.2777 37.517 30.5605 37.4961 30.865 37.4752L38.9565 29.6914C38.9782 29.4194 39 29.1473 39 28.8544V8.64167C39 3.87097 34.976 0 30.0167 0Z" fill="#48BED8"/>
<g clip-path="url(#clip0)">
<path d="M30.9109 14.3857L17.2707 27.9111C17.15 28.0308 16.9563 28.0308 16.8356 27.9111L9.09053 20.2312C8.96982 20.1116 8.96982 19.9195 9.09053 19.7998L10.9714 17.9348C11.0921 17.8151 11.2858 17.8151 11.4065 17.9348L17.0517 23.5326L28.5949 12.0893C28.7157 11.9696 28.9093 11.9696 29.0301 12.0893L30.9109 13.9543C31.0316 14.074 31.0316 14.266 30.9109 14.3857Z" fill="white"/>
</g>
<defs>
<clipPath id="clip0">
<rect width="22" height="16" fill="white" transform="translate(9 12)"/>
</clipPath>
</defs>
</svg>
