<svg width="210" height="50" viewBox="0 0 210 50" fill="none" xmlns="http://www.w3.org/2000/svg">
<path d="M11.5219 50H198.478C198.837 50 199.232 50 199.591 49.9641L209.964 39.5908C210 39.2319 210 38.8729 210 38.4781V11.5219C210 5.1687 204.831 0 198.478 0H11.5219C11.163 0 10.7681 0.0358817 10.4092 0.0717754L0.0358944 10.4451C6.37025e-07 10.804 0 11.163 0 11.5578V38.514C0 44.8313 5.1687 50 11.5219 50Z" fill="#48BED8"/>
<path d="M77.2558 20.6V29H75.3118V25.556H71.4958V29H69.5518V20.6H71.4958V23.912H75.3118V20.6H77.2558ZM85.0484 27.2H81.1484L80.4044 29H78.4124L82.1564 20.6H84.0764L87.8324 29H85.7924L85.0484 27.2ZM84.4364 25.724L83.1044 22.508L81.7724 25.724H84.4364ZM96.6023 20.6V29H94.6703V22.184H90.8783V29H88.9463V20.6H96.6023ZM98.6846 20.6H100.617V26.072L104.625 20.6H106.449V29H104.529V23.54L100.521 29H98.6846V20.6ZM112.512 29.144C111.656 29.144 110.88 28.96 110.184 28.592C109.496 28.216 108.952 27.7 108.552 27.044C108.16 26.38 107.964 25.632 107.964 24.8C107.964 23.968 108.16 23.224 108.552 22.568C108.952 21.904 109.496 21.388 110.184 21.02C110.88 20.644 111.66 20.456 112.524 20.456C113.252 20.456 113.908 20.584 114.492 20.84C115.084 21.096 115.58 21.464 115.98 21.944L114.732 23.096C114.164 22.44 113.46 22.112 112.62 22.112C112.1 22.112 111.636 22.228 111.228 22.46C110.82 22.684 110.5 23 110.268 23.408C110.044 23.816 109.932 24.28 109.932 24.8C109.932 25.32 110.044 25.784 110.268 26.192C110.5 26.6 110.82 26.92 111.228 27.152C111.636 27.376 112.1 27.488 112.62 27.488C113.46 27.488 114.164 27.156 114.732 26.492L115.98 27.644C115.58 28.132 115.084 28.504 114.492 28.76C113.9 29.016 113.24 29.144 112.512 29.144ZM122.771 27.2H118.871L118.127 29H116.135L119.879 20.6H121.799L125.555 29H123.515L122.771 27.2ZM122.159 25.724L120.827 22.508L119.495 25.724H122.159ZM132.667 22.184H129.979V29H128.059V22.184H125.383V20.6H132.667V22.184ZM137.956 23.36C138.98 23.36 139.764 23.588 140.308 24.044C140.86 24.5 141.136 25.176 141.136 26.072C141.136 27.024 140.832 27.752 140.224 28.256C139.624 28.752 138.776 29 137.68 29H133.888V20.6H135.82V23.36H137.956ZM137.572 27.56C138.076 27.56 138.468 27.436 138.748 27.188C139.036 26.94 139.18 26.58 139.18 26.108C139.18 25.236 138.644 24.8 137.572 24.8H135.82V27.56H137.572Z" fill="white"/>
</svg>
