<svg width="72" height="90" viewBox="0 0 72 90" fill="none" xmlns="http://www.w3.org/2000/svg">
<path d="M56.2447 0H15.7553C15.2593 0 14.7634 0.0392328 14.2675 0.0784656L0.0762967 14.6731C0.0381484 15.1831 0 15.6931 0 16.2031V54.1412V87.7245C0 89.0977 1.1063 90 2.2126 90C2.74668 90 3.31891 89.8038 3.73854 89.3331L22.2023 70.3444H56.2066C56.7025 70.3444 57.1984 70.3051 57.7325 70.2659L71.9237 55.6713C71.9618 55.1613 72 54.6513 72 54.102V16.2031C72 7.25807 64.9426 0 56.2447 0Z" fill="#48BED8"/>
<g clip-path="url(#clip0)">
<path d="M36.5002 26.3531C39.6167 26.3531 42.143 23.8116 42.143 20.6766C42.143 17.5415 39.6167 15 36.5002 15C33.3838 15 30.8574 17.5415 30.8574 20.6766C30.8574 23.8116 33.3838 26.3531 36.5002 26.3531Z" fill="white"/>
<path d="M42.5096 48.3876L46.0867 44.2313C46.3251 43.954 46.402 43.572 46.2894 43.2235C46.1768 42.8751 45.891 42.611 45.5361 42.5282L40.2132 41.2813L37.3895 36.5743C37.2016 36.2603 36.8637 36.0688 36.4995 36.0688C36.1353 36.0688 35.7975 36.2603 35.6095 36.5743L32.7858 41.2813L27.4629 42.5282C27.108 42.611 26.8222 42.8751 26.7096 43.2235C26.597 43.572 26.6739 43.9548 26.9123 44.2313L30.4894 48.3876L30.0242 53.8657C29.9931 54.2306 30.1547 54.5853 30.449 54.8009C30.7433 55.0165 31.1293 55.061 31.4648 54.9181L36.4995 52.7798L41.5342 54.9181C41.6639 54.9735 41.8022 55.0001 41.9381 55.0001C42.1547 55.0001 42.3691 54.9321 42.5492 54.8001C42.8444 54.5845 43.0051 54.2298 42.9741 53.8649L42.5096 48.3876Z" fill="white"/>
<path d="M53.6215 47.4549L50.6991 45.0369L50.383 41.2432C50.3527 40.8783 50.1345 40.5557 49.8083 40.3932C49.4822 40.2307 49.0946 40.2518 48.7879 40.4494L47.6859 41.1572C48.0555 41.5299 48.3406 41.9869 48.5067 42.4986C48.8694 43.6221 48.6178 44.8736 47.8497 45.7658L44.9165 49.1744L45.2233 52.7799L46.7376 54.5463C46.9372 54.7791 47.2253 54.9088 47.5251 54.9088C47.5834 54.9088 47.6416 54.9041 47.6999 54.8939C48.0586 54.8322 48.36 54.5861 48.4928 54.2455L49.8759 50.7025L53.3644 49.2283C53.6999 49.0861 53.9375 48.7783 53.9903 48.4158C54.0424 48.051 53.9026 47.6877 53.6215 47.4549Z" fill="white"/>
<path d="M24.4946 42.4987C24.66 41.9862 24.9458 41.5283 25.3155 41.1565L24.2135 40.4487C23.9067 40.2518 23.5192 40.2299 23.193 40.3924C22.8668 40.5549 22.6486 40.8776 22.6183 41.2424L22.3022 45.0362L19.3791 47.4541C19.098 47.6869 18.9582 48.051 19.011 48.4135C19.0638 48.776 19.3014 49.0846 19.6369 49.226L23.1254 50.7002L24.5086 54.2432C24.6414 54.5838 24.9427 54.8307 25.3015 54.8916C25.3597 54.9018 25.418 54.9065 25.4762 54.9065C25.776 54.9065 26.0641 54.776 26.2637 54.544L27.7781 52.7776L28.0848 49.1721L25.1516 45.7635C24.3843 44.8729 24.1319 43.6213 24.4946 42.4987Z" fill="white"/>
<path d="M31.2992 39.222L33.615 35.3618C34.2208 34.3517 35.3267 33.7235 36.5001 33.7235C37.6736 33.7235 38.7787 34.3517 39.3852 35.3618L41.701 39.2212L46.0656 40.2438C46.2209 40.2798 46.3715 40.3282 46.5183 40.386V30.7657C46.5183 28.3563 44.8424 26.336 42.6066 25.8267C41.3795 27.297 39.6384 28.3188 37.665 28.611V30.7501C37.665 31.397 37.1432 31.922 36.5001 31.922C35.8571 31.922 35.3352 31.397 35.3352 30.7501V28.611C33.3611 28.3188 31.6207 27.297 30.3937 25.8267C28.1578 26.336 26.4819 28.3563 26.4819 30.7657V40.3868C26.6287 40.329 26.7794 40.2806 26.9347 40.2446L31.2992 39.222Z" fill="white"/>
</g>
<defs>
<clipPath id="clip0">
<rect width="35" height="40" fill="white" transform="translate(19 15)"/>
</clipPath>
</defs>
</svg>
