<svg width="147" height="106" viewBox="0 0 147 106" fill="none" xmlns="http://www.w3.org/2000/svg">
<path d="M109.245 36H35.697C34.7082 36 33.7195 36.0759 32.7307 36.1518L4.43727 64.3951C4.36121 65.3821 4.28516 66.3691 4.28516 67.3561V140.773V205.763C4.28516 208.42 6.49083 210.167 8.6965 210.167C9.76131 210.167 10.9022 209.787 11.7388 208.876L48.5507 172.129H109.169C110.157 172.129 111.146 172.053 112.211 171.978L140.504 143.734C140.581 142.747 140.657 141.76 140.657 140.697V67.3561C140.657 50.0457 126.586 36 109.245 36Z" fill="#F4F5FB"/>
<path d="M115.067 36L31.0874 36C30.1085 36 29.1399 36.0514 28.1816 36.1439L-0.804217 63.4439C-0.886651 64.3895 -0.948483 65.366 -0.948483 66.3322L-0.948483 137.337L-0.948483 137.347L-1 226C-1 226 14.951 207.827 20.1752 201.732C23.6478 197.682 29.5418 191.433 35.4564 186.931C42.2985 181.72 55.4055 182.408 55.4055 182.408L115.644 182.532C116.623 182.532 117.592 182.48 118.55 182.398L146.856 154.584C146.948 153.628 147 152.652 147 151.675L147 64.5334C147.01 47.7793 131.873 36 115.067 36ZM134.594 147.358C134.594 148.222 134.552 149.065 134.47 149.907L113.862 169.951C113.017 170.023 112.161 170.074 111.306 170.074C111.306 170.074 58.9398 169.499 41.4947 169.971C37.9501 170.064 34.0139 170.691 28.0374 174.463C22.5246 177.937 17.6198 183.765 17.6198 183.765L10.9117 192.06L11.3033 138.221L11.3033 138.21L11.3033 70.0941C11.3033 69.241 11.3445 69.4569 11.4269 68.6243L32.0045 48.3549C32.8495 48.2829 35.1576 48.2315 36.0232 48.2315L111.224 48.2315C125.959 48.2315 134.604 59.2708 134.604 73.9692L134.604 147.358L134.594 147.358Z" fill="#E4E6F2"/>
<path d="M103.4 59.2222L41.3072 59.2222C40.6385 59.2222 37.6449 59.2533 36.9866 59.3155L23.6441 73.2942C23.5824 73.9475 23.5515 79.5991 23.5515 80.2628L23.5515 133.906L23.5515 133.917L23.3149 164.778C23.3149 164.778 30.3719 160.039 36.8117 158.659C38.7662 158.245 46.8519 157.892 46.8519 157.892L103.472 157.975C104.141 157.975 108.575 157.944 109.223 157.882L121.526 145.396C121.588 144.733 121.629 141.798 121.629 141.124L121.629 81.2583C121.619 69.6854 114.881 59.2222 103.4 59.2222ZM107.423 133.274C107.423 133.761 107.402 137.38 107.351 137.847L98.9563 146.101C98.4831 146.143 94.9546 146.174 94.4711 146.174L51.3577 146.112C51.3577 146.112 49.146 146.122 48.4053 146.112C42.3873 146.029 40.8957 146.153 38.5914 147.024C37.8404 147.304 35.7212 148.476 35.7212 148.476L35.7521 128.141L35.7521 89.8757C35.7521 89.3987 35.7727 82.6893 35.8241 82.2227L45.1546 71.8631C45.6175 71.8216 49.6706 71.7905 50.1438 71.7905L94.43 71.7905C102.619 71.7905 107.423 77.7014 107.423 90.5808L107.423 133.274Z" fill="#E4E6F2"/>
<path d="M48.686 134.167L95.2003 134.167L95.2003 84.5557L48.686 84.5557L48.686 134.167ZM82.9837 120.778L60.9128 120.778L60.9128 97.944L82.9837 97.944L82.9837 120.778Z" fill="#E4E6F2"/>
<path d="M35.3932 0H24.6068C24.4618 0 24.3168 0.0113339 24.1718 0.0226678L20.0223 4.23888C20.0112 4.38622 20 4.53357 20 4.68091V15.6408V25.3426C20 25.7393 20.3235 26 20.647 26C20.8031 26 20.9704 25.9433 21.0931 25.8073L26.4919 20.3217H35.382C35.527 20.3217 35.6721 20.3104 35.8282 20.299L39.9777 16.0828C39.9888 15.9355 40 15.7881 40 15.6295V4.68091C40 2.09677 37.9364 0 35.3932 0Z" fill="#E4E6F2"/>
</svg>
