<svg width="8" height="8" viewBox="0 0 8 8" fill="none" xmlns="http://www.w3.org/2000/svg">
<path fill-rule="evenodd" clip-rule="evenodd" d="M0.23195 6.63621C-0.0773167 6.94819 -0.0773168 7.45402 0.23195 7.76601C0.541217 8.078 1.04264 8.078 1.35191 7.76601L4.00008 5.09455L6.64825 7.76601C6.95751 8.078 7.45893 8.078 7.7682 7.76601C8.07747 7.45402 8.07747 6.94819 7.7682 6.63621L5.12003 3.96475L7.69832 1.36379C8.00759 1.05181 8.00759 0.545976 7.69832 0.23399C7.38905 -0.0779968 6.88763 -0.0779964 6.57836 0.23399L4.00008 2.83495L1.42179 0.23399C1.11252 -0.0779964 0.6111 -0.0779968 0.301832 0.23399C-0.00743461 0.545976 -0.00743451 1.05181 0.301833 1.36379L2.88012 3.96475L0.23195 6.63621Z" fill="#28348B"/>
</svg>
