<svg width="192" height="70" viewBox="0 0 192 70" fill="none" xmlns="http://www.w3.org/2000/svg">
<g clip-path="url(#clip0)">
<path d="M75.3894 11.4418V14.3966H74.0689V12.6703H67.5303V4.84167H68.9388V11.4418H72.8284V4.84167H74.2449V11.4418H75.3894Z" fill="white"/>
<path d="M82.4804 11.4498V12.6703H76.7021V4.84167H82.3284V6.06214H78.1347V8.1016H81.8562V9.29797H78.1347V11.4498H82.4804Z" fill="white"/>
<path d="M90.924 4.84167V12.6703H89.4914V9.31403H85.5058V12.6703H84.0732V4.84167H85.5058V8.07751H89.4914V4.84167H90.924Z" fill="white"/>
<path d="M98.6708 6.0782H96.1178V12.6703H94.7013V6.0782H92.1562V4.84167H98.6708V6.0782Z" fill="white"/>
<path d="M104.425 8.78409C104.745 8.51912 104.913 8.13371 104.913 7.63589C104.913 7.13807 104.753 6.75266 104.425 6.48769C104.105 6.22273 103.633 6.08623 103.009 6.08623H101.336V9.19359H103.009C103.633 9.18556 104.105 9.04906 104.425 8.78409ZM104.817 5.17891C105.313 5.40373 105.69 5.7249 105.954 6.14243C106.218 6.55996 106.346 7.05778 106.346 7.62786C106.346 8.19795 106.21 8.68774 105.954 9.10527C105.69 9.53082 105.305 9.852 104.817 10.0768C104.321 10.3016 103.737 10.4141 103.073 10.4141H101.336V12.6703H99.9033V4.84167H103.073C103.745 4.84167 104.321 4.95409 104.817 5.17891Z" fill="white"/>
<path d="M72.4767 26.2238C72.8848 25.991 73.213 25.6618 73.445 25.2442C73.6771 24.8187 73.7972 24.353 73.7972 23.8311C73.7972 23.3092 73.6771 22.8354 73.445 22.4179C73.213 22.0004 72.8848 21.6712 72.4767 21.4383C72.0685 21.2055 71.6043 21.085 71.0921 21.085C70.5799 21.085 70.1157 21.2055 69.7076 21.4383C69.2994 21.6712 68.9713 22.0004 68.7392 22.4179C68.5071 22.8435 68.387 23.3092 68.387 23.8311C68.387 24.353 68.5071 24.8267 68.7392 25.2442C68.9713 25.6618 69.2994 25.991 69.7076 26.2238C70.1157 26.4567 70.5799 26.5771 71.0921 26.5771C71.6043 26.5771 72.0685 26.4567 72.4767 26.2238ZM68.9633 27.3319C68.331 26.9866 67.8348 26.5048 67.4747 25.8866C67.1145 25.2683 66.9385 24.5858 66.9385 23.823C66.9385 23.0602 67.1145 22.3778 67.4747 21.7595C67.8348 21.1412 68.331 20.6675 68.9633 20.3142C69.5955 19.9689 70.2998 19.7923 71.0841 19.7923C71.8684 19.7923 72.5727 19.9689 73.205 20.3142C73.8372 20.6595 74.3334 21.1412 74.6935 21.7515C75.0537 22.3617 75.2378 23.0522 75.2378 23.823C75.2378 24.5939 75.0537 25.2764 74.6935 25.8946C74.3334 26.5048 73.8372 26.9866 73.205 27.3319C72.5727 27.6771 71.8684 27.8538 71.0841 27.8538C70.2998 27.8538 69.5955 27.6771 68.9633 27.3319Z" fill="white"/>
<path d="M82.3046 21.1414H79.7516V27.7415H78.335V21.1414H75.79V19.9129H82.3046V21.1414Z" fill="white"/>
<path d="M86.3782 24.4415H84.9457V27.7415H83.5371V19.9129H84.9457V23.1889H86.4183L88.6351 19.9129H90.1557L87.5227 23.7028L90.2518 27.7415H88.6351L86.3782 24.4415Z" fill="white"/>
<path d="M95.7573 23.8473C96.0775 23.5823 96.2375 23.1969 96.2375 22.6991C96.2375 22.2013 96.0775 21.8159 95.7573 21.5509C95.4372 21.2859 94.965 21.1494 94.3408 21.1494H92.6681V24.2568H94.3408C94.957 24.2488 95.4292 24.1123 95.7573 23.8473ZM96.1415 20.2421C96.6377 20.4669 97.0138 20.7881 97.2779 21.2056C97.542 21.6232 97.6701 22.121 97.6701 22.6911C97.6701 23.2611 97.542 23.7509 97.2779 24.1685C97.0138 24.586 96.6297 24.9152 96.1415 25.132C95.6453 25.3568 95.0611 25.4692 94.3968 25.4692H92.6601V27.7255H91.2275V19.9129H94.3968C95.0691 19.9129 95.6533 20.0253 96.1415 20.2421Z" fill="white"/>
<path d="M106.578 19.9129H107.986V27.7415H106.578V19.9129ZM103.585 26.232C103.889 25.9751 104.033 25.5897 104.033 25.0918C104.033 24.1444 103.457 23.6706 102.296 23.6706H100.455V26.6255H102.296C102.848 26.6174 103.281 26.489 103.585 26.232ZM104.721 23.1889C105.217 23.6144 105.465 24.2327 105.465 25.0597C105.465 25.9269 105.193 26.5853 104.649 27.043C104.105 27.5007 103.345 27.7335 102.36 27.7335H99.0469V19.9129H100.455V22.5626H102.592C103.513 22.5626 104.225 22.7714 104.721 23.1889Z" fill="white"/>
<path d="M115.741 21.1414H113.188V27.7415H111.772V21.1414H109.227V19.9129H115.741V21.1414Z" fill="white"/>
<path d="M124.513 19.9129H125.922V27.7415H124.513V19.9129ZM121.52 26.232C121.824 25.9751 121.968 25.5897 121.968 25.0918C121.968 24.1444 121.384 23.6706 120.232 23.6706H118.391V26.6255H120.232C120.792 26.6174 121.224 26.489 121.52 26.232ZM122.664 23.1889C123.161 23.6144 123.409 24.2327 123.409 25.0597C123.409 25.9269 123.137 26.5853 122.592 27.043C122.048 27.5007 121.288 27.7335 120.304 27.7335H116.99V19.9129H118.399V22.5626H120.536C121.456 22.5626 122.168 22.7714 122.664 23.1889Z" fill="white"/>
<path d="M130.035 18.9734C129.699 18.7004 129.531 18.2989 129.523 17.769H130.523C130.531 18.042 130.619 18.2588 130.787 18.4033C130.956 18.5559 131.204 18.6281 131.524 18.6281C131.836 18.6281 132.084 18.5559 132.268 18.4033C132.444 18.2507 132.54 18.042 132.548 17.769H133.541C133.533 18.2909 133.357 18.6924 133.02 18.9734C132.676 19.2544 132.18 19.3909 131.532 19.3909C130.868 19.3829 130.371 19.2464 130.035 18.9734ZM128.106 19.9128H129.515V25.4691L133.653 19.9128H134.981V27.7415H133.573V22.1932L129.435 27.7415H128.106V19.9128Z" fill="white"/>
<path d="M72.0442 38.9105C72.3644 38.6456 72.5244 38.2601 72.5244 37.7623C72.5244 37.2645 72.3644 36.8791 72.0442 36.6141C71.7241 36.3492 71.2519 36.2127 70.6277 36.2127H68.955V39.32H70.6277C71.2519 39.312 71.7241 39.1835 72.0442 38.9105ZM72.4364 35.3134C72.9326 35.5382 73.3087 35.8594 73.5729 36.2769C73.837 36.6944 73.965 37.1922 73.965 37.7623C73.965 38.3324 73.837 38.8222 73.5729 39.2478C73.3087 39.6653 72.9246 39.9945 72.4364 40.2113C71.9402 40.4361 71.356 40.5485 70.6917 40.5485H68.955V42.8048H67.5225V34.9761H70.6917C71.364 34.9761 71.9402 35.0885 72.4364 35.3134Z" fill="white"/>
<path d="M81.1044 41.5843V42.8048H75.3262V34.9761H80.9524V36.1966H76.7587V38.228H80.4802V39.4244H76.7587V41.5843H81.1044Z" fill="white"/>
<path d="M87.9309 36.2046H84.1134L84.1214 42.8048H82.7129V34.9761H87.9389L87.9309 36.2046Z" fill="white"/>
<path d="M89.1475 34.9761H90.564V40.5325L94.7017 34.9761H96.0302V42.8048H94.6216V37.2565L90.484 42.8048H89.1475V34.9761Z" fill="white"/>
<path d="M103.145 41.2869C103.553 41.0541 103.881 40.7249 104.113 40.3073C104.345 39.8818 104.465 39.4161 104.465 38.8942C104.465 38.3723 104.345 37.8985 104.113 37.481C103.881 37.0635 103.553 36.7343 103.145 36.4934C102.736 36.2605 102.272 36.1401 101.76 36.1401C101.248 36.1401 100.784 36.2605 100.376 36.4934C99.9674 36.7263 99.6393 37.0555 99.4072 37.481C99.1751 37.8985 99.055 38.3723 99.055 38.8942C99.055 39.4161 99.1751 39.8898 99.4072 40.3073C99.6393 40.7249 99.9674 41.0541 100.376 41.2869C100.784 41.5198 101.248 41.6402 101.76 41.6402C102.264 41.6402 102.728 41.5198 103.145 41.2869ZM99.6312 42.395C98.999 42.0497 98.5028 41.568 98.1427 40.9497C97.7825 40.3314 97.6064 39.6489 97.6064 38.8861C97.6064 38.1234 97.7825 37.4409 98.1427 36.8226C98.5028 36.2043 98.999 35.7306 99.6312 35.3773C100.263 35.0321 100.968 34.8554 101.752 34.8554C102.536 34.8554 103.241 35.0321 103.873 35.3773C104.505 35.7226 105.001 36.2043 105.362 36.8146C105.722 37.4248 105.898 38.1153 105.898 38.8861C105.898 39.657 105.714 40.3475 105.362 40.9577C105.001 41.568 104.505 42.0497 103.873 42.395C103.241 42.7402 102.536 42.9169 101.752 42.9169C100.968 42.9169 100.263 42.7402 99.6312 42.395Z" fill="white"/>
<path d="M114.333 34.9761V42.8048H112.9V39.4485H108.923V42.8048H107.49V34.9761H108.923V38.212H112.9V34.9761H114.333Z" fill="white"/>
<path d="M35.6781 36.2445H18.1752V18.4675H35.6781V36.2445ZM41.4884 0H11.2845L0 11.4659V54.7121H42.5768L53.8533 43.2542V12.5579C53.8533 5.62055 48.3151 0 41.4884 0Z" fill="white"/>
<path d="M35.6781 36.2444L2.96117 69.4779C1.86474 70.594 0 69.8071 0 68.2334V36.9269L18.1752 18.4594V36.2444H35.6781Z" fill="#48BED8"/>
<path d="M18.1748 54.0296L35.6777 36.2445H18.1748V54.0296Z" fill="#48BED8"/>
</g>
<path d="M68.4415 50.4692L70.3008 53.0324L72.1601 50.4692H72.9658L70.7346 53.5816L73.1517 56.9788H72.3254L70.3008 54.1715L68.2762 56.9788H67.4912L69.8876 53.6223L67.6565 50.4692H68.4415Z" fill="white"/>
<path d="M76.562 56.2455C76.8306 56.0828 77.0372 55.8184 77.1611 55.5132V54.7199H75.6117C74.7647 54.7199 74.3515 55.0047 74.3515 55.5946C74.3515 55.8794 74.4548 56.1032 74.6821 56.2659C74.9093 56.4286 75.1985 56.51 75.5911 56.51C75.9836 56.51 76.2935 56.4083 76.562 56.2455ZM77.3057 52.5229C77.6569 52.8484 77.8222 53.3163 77.8222 53.9469V56.9779H77.1818V56.2048C77.0372 56.4693 76.8099 56.6524 76.5207 56.7948C76.2315 56.9372 75.8803 57.0185 75.4878 57.0185C74.9506 57.0185 74.4961 56.8965 74.1862 56.632C73.8557 56.3676 73.6904 56.0218 73.6904 55.5946C73.6904 55.1877 73.835 54.8419 74.1449 54.5978C74.4548 54.3537 74.93 54.2113 75.5911 54.2113H77.1611V53.9062C77.1611 53.479 77.0372 53.1535 76.8099 52.9501C76.562 52.7263 76.2315 52.6246 75.777 52.6246C75.4671 52.6246 75.1779 52.6857 74.8887 52.7874C74.5994 52.8891 74.3515 53.0315 74.1449 53.2145L73.835 52.7263C74.0829 52.5229 74.3928 52.3602 74.7234 52.2381C75.0746 52.1161 75.4464 52.055 75.8183 52.055C76.4794 52.0347 76.9752 52.1974 77.3057 52.5229Z" fill="white"/>
<path d="M79.5967 52.0768H80.2578V54.2534H83.3359V52.0768H83.997V56.9793H83.3359V54.823H80.2578V56.9793H79.5967V52.0768Z" fill="white"/>
<path d="M89.3465 52.6667H87.4872V56.9793H86.8261V52.6667H84.9668V52.0768H89.3465V52.6667Z" fill="white"/>
<path d="M95.0915 52.0756H95.7526V56.9781H95.0915V52.0756ZM93.2529 56.2051C93.4801 56.022 93.6041 55.7373 93.6041 55.3711C93.6041 55.0049 93.4801 54.7405 93.2529 54.5777C93.0256 54.3947 92.6744 54.3133 92.22 54.3133L90.9804 54.293V56.4696L92.22 56.4899C92.6744 56.4899 93.005 56.3882 93.2529 56.2051ZM93.79 54.2116C94.1206 54.476 94.2652 54.8625 94.2652 55.3711C94.2652 55.9 94.0999 56.2865 93.7487 56.5713C93.3975 56.8561 92.9017 56.9781 92.2613 56.9781L90.3193 56.9578V52.0553H90.9804V53.764L92.3852 53.7844C92.9843 53.8251 93.4595 53.9471 93.79 54.2116Z" fill="white"/>
<path d="M99.6975 54.1736H97.2598V54.744H99.6975V54.1736Z" fill="white"/>
<path d="M108.149 50.4692V56.9787H107.488V51.7711L104.926 56.1447H104.596L102.034 51.7914V56.9787H101.373V50.4692H101.931L104.761 55.2903L107.571 50.4692H108.149Z" fill="white"/>
<path d="M112.609 56.2455C112.877 56.0828 113.084 55.8184 113.208 55.5132V54.7199H111.659C110.812 54.7199 110.398 55.0047 110.398 55.5946C110.398 55.8794 110.502 56.1032 110.729 56.2659C110.956 56.4286 111.245 56.51 111.638 56.51C112.03 56.51 112.34 56.4083 112.609 56.2455ZM113.353 52.5229C113.704 52.8484 113.869 53.3163 113.869 53.9469V56.9779H113.229V56.2048C113.084 56.4693 112.857 56.6524 112.568 56.7948C112.278 56.9372 111.927 57.0185 111.535 57.0185C110.997 57.0185 110.543 56.8965 110.233 56.632C109.903 56.3676 109.737 56.0218 109.737 55.5946C109.737 55.1877 109.882 54.8419 110.192 54.5978C110.502 54.3537 110.977 54.2113 111.638 54.2113H113.208V53.9062C113.208 53.479 113.084 53.1535 112.857 52.9501C112.609 52.7263 112.278 52.6246 111.824 52.6246C111.514 52.6246 111.225 52.6857 110.936 52.7874C110.646 52.8891 110.398 53.0315 110.192 53.2145L109.882 52.7263C110.13 52.5229 110.44 52.3602 110.77 52.2381C111.121 52.1161 111.493 52.055 111.865 52.055C112.526 52.0347 113.022 52.1974 113.353 52.5229Z" fill="white"/>
<path d="M115.627 52.0768H116.288V54.2534H119.387V52.0768H120.048V56.9793H119.387V54.823H116.288V56.9793H115.627V52.0768Z" fill="white"/>
<path d="M122.692 56.7137C122.299 56.5102 122.01 56.2051 121.783 55.8186C121.576 55.4321 121.452 55.0049 121.452 54.537C121.452 54.0488 121.555 53.6217 121.783 53.2555C121.989 52.8893 122.299 52.5842 122.692 52.3808C123.064 52.1774 123.497 52.0553 123.993 52.0553C124.406 52.0553 124.799 52.1367 125.129 52.2994C125.46 52.4621 125.729 52.7063 125.914 53.0114L125.419 53.3572C125.253 53.1131 125.047 52.93 124.799 52.808C124.551 52.6859 124.282 52.6249 123.993 52.6249C123.642 52.6249 123.311 52.7063 123.043 52.869C122.754 53.0317 122.547 53.2555 122.382 53.5403C122.217 53.8251 122.134 54.1709 122.134 54.537C122.134 54.9235 122.217 55.249 122.382 55.5338C122.547 55.8186 122.754 56.0424 123.043 56.2051C123.332 56.3678 123.642 56.4492 123.993 56.4492C124.282 56.4492 124.551 56.3882 124.799 56.2661C125.047 56.1441 125.253 55.961 125.419 55.7169L125.914 56.0627C125.729 56.3678 125.46 56.612 125.109 56.7747C124.778 56.9374 124.386 57.0188 123.973 57.0188C123.497 57.0188 123.064 56.9171 122.692 56.7137Z" fill="white"/>
<path d="M127.193 52.0768H127.854V55.9825L131.139 52.0768H131.718V56.9793H131.057V53.0939L127.792 56.9793H127.193V52.0768Z" fill="white"/>
<path d="M134.838 51.0617C134.59 50.8583 134.466 50.5531 134.466 50.1666H134.941C134.941 50.4107 135.024 50.5938 135.21 50.7566C135.375 50.8989 135.602 50.9803 135.871 50.9803C136.14 50.9803 136.367 50.8989 136.532 50.7566C136.697 50.6142 136.801 50.4107 136.801 50.1666H137.276C137.276 50.5531 137.131 50.8583 136.883 51.0617C136.635 51.2651 136.284 51.3668 135.871 51.3668C135.416 51.3668 135.086 51.2651 134.838 51.0617ZM133.619 52.0788H134.28V55.9642L137.565 52.0788H138.143V56.9813H137.482V53.0959L134.218 56.9813H133.619V52.0788Z" fill="white"/>
<path d="M140.788 56.7137C140.396 56.5102 140.107 56.2051 139.879 55.8186C139.673 55.4321 139.549 55.0049 139.549 54.537C139.549 54.0488 139.652 53.6217 139.879 53.2555C140.086 52.8893 140.396 52.5842 140.788 52.3808C141.16 52.1774 141.615 52.0553 142.09 52.0553C142.503 52.0553 142.896 52.1367 143.226 52.2994C143.557 52.4621 143.825 52.7063 144.011 53.0114L143.515 53.3572C143.35 53.1131 143.143 52.93 142.896 52.808C142.648 52.6859 142.379 52.6249 142.09 52.6249C141.739 52.6249 141.408 52.7063 141.14 52.869C140.85 53.0317 140.644 53.2555 140.478 53.5403C140.313 53.8251 140.231 54.1709 140.231 54.537C140.231 54.9235 140.313 55.249 140.478 55.5338C140.644 55.8186 140.85 56.0424 141.14 56.2051C141.429 56.3678 141.739 56.4492 142.09 56.4492C142.379 56.4492 142.648 56.3882 142.896 56.2661C143.143 56.1441 143.35 55.961 143.515 55.7169L144.011 56.0627C143.825 56.3678 143.557 56.612 143.205 56.7747C142.875 56.9374 142.482 57.0188 142.069 57.0188C141.615 57.0188 141.181 56.9171 140.788 56.7137Z" fill="white"/>
<path d="M147.068 54.8026H145.952V56.9793H145.291V52.0768H145.952V54.2331H147.088L148.824 52.0768H149.526L147.605 54.4568L149.671 56.9793H148.886L147.068 54.8026Z" fill="white"/>
<path d="M150.724 52.0768H151.385V55.9825L154.649 52.0768H155.248V56.9793H154.587V53.0939L151.323 56.9793H150.724V52.0768Z" fill="white"/>
<path d="M158.368 51.0617C158.12 50.8583 157.996 50.5531 157.996 50.1666H158.472C158.472 50.4107 158.554 50.5938 158.74 50.7566C158.905 50.8989 159.133 50.9803 159.401 50.9803C159.67 50.9803 159.897 50.8989 160.062 50.7566C160.228 50.6142 160.331 50.4107 160.331 50.1666H160.806C160.806 50.5531 160.661 50.8583 160.413 51.0617C160.166 51.2651 159.814 51.3668 159.401 51.3668C158.988 51.3668 158.616 51.2651 158.368 51.0617ZM157.149 52.0788H157.81V55.9642L161.095 52.0788H161.694V56.9813H161.033V53.0959L157.769 56.9813H157.17V52.0788H157.149Z" fill="white"/>
<path d="M70.6509 67.415C70.9194 67.2523 71.126 66.9879 71.25 66.6827V65.8894H69.7006C68.8536 65.8894 68.4404 66.1742 68.4404 66.7641C68.4404 67.0489 68.5437 67.2727 68.7709 67.4354C68.9982 67.5981 69.2874 67.6795 69.6799 67.6795C70.0518 67.6795 70.3823 67.5778 70.6509 67.415ZM71.3946 63.6924C71.7251 64.0179 71.9111 64.4858 71.9111 65.1164V68.1474H71.2706V67.3744C71.126 67.6388 70.8988 67.8219 70.6096 67.9643C70.3203 68.1067 69.9691 68.1881 69.5766 68.1881C69.0395 68.1881 68.585 68.066 68.2751 67.8016C67.9446 67.5371 67.7793 67.1913 67.7793 66.7641C67.7793 66.3572 67.9239 66.0114 68.2338 65.7673C68.5437 65.5232 69.0188 65.3808 69.6799 65.3808H71.25V65.0757C71.25 64.6485 71.126 64.323 70.8988 64.1196C70.6509 63.8958 70.3203 63.7941 69.8658 63.7941C69.556 63.7941 69.2667 63.8551 68.9775 63.9569C68.6883 64.0586 68.4404 64.201 68.2338 64.384L67.9446 63.8958C68.1925 63.6924 68.5024 63.5297 68.8329 63.4076C69.1841 63.2856 69.556 63.2245 69.9278 63.2245C70.5476 63.2042 71.0434 63.3669 71.3946 63.6924Z" fill="white"/>
<path d="M76.8297 67.4156C77.0363 67.2732 77.1396 67.0697 77.1396 66.7646C77.1396 66.4798 77.0363 66.2561 76.8504 66.1137C76.6645 65.9713 76.3546 65.9102 75.9414 65.9102H74.3094V67.619H75.8588C76.2926 67.619 76.6231 67.558 76.8297 67.4156ZM74.3094 65.422H75.7762C76.148 65.422 76.4372 65.3407 76.6438 65.1983C76.8504 65.0559 76.9537 64.8524 76.9537 64.5676C76.9537 64.3032 76.8504 64.0998 76.6438 63.9574C76.4372 63.815 76.148 63.754 75.7762 63.754H74.3094V65.422ZM77.8007 66.8256C77.8007 67.2528 77.6354 67.5783 77.3256 67.8224C77.0157 68.0462 76.5405 68.1682 75.9001 68.1682H73.6689V63.2657H75.8381C76.3959 63.2657 76.8297 63.3675 77.1603 63.5912C77.4702 63.815 77.6354 64.1201 77.6354 64.527C77.6354 64.7914 77.5528 65.0152 77.4082 65.2186C77.2636 65.4017 77.057 65.5441 76.7884 65.6458C77.4702 65.7679 77.8007 66.1747 77.8007 66.8256Z" fill="white"/>
<path d="M82.7967 63.8352H80.9374V68.1478H80.2763V63.8352H78.417V63.2453H82.7967V63.8352Z" fill="white"/>
<path d="M86.4968 67.3748C86.7653 67.212 86.9926 66.9883 87.1372 66.7035C87.3025 66.4187 87.3644 66.0729 87.3644 65.7067C87.3644 65.3405 87.2818 64.9947 87.1372 64.7099C86.9719 64.4251 86.7653 64.2014 86.4968 64.0386C86.2282 63.8759 85.8977 63.7945 85.5671 63.7945C85.2159 63.7945 84.906 63.8759 84.6375 64.0386C84.3689 64.2014 84.1416 64.4251 83.9764 64.7099C83.8111 64.9947 83.7285 65.3405 83.7285 65.7067C83.7285 66.0729 83.8111 66.4187 83.9764 66.7035C84.1416 66.9883 84.3482 67.212 84.6375 67.3748C84.9267 67.5375 85.2366 67.6189 85.5671 67.6189C85.9183 67.6189 86.2282 67.5375 86.4968 67.3748ZM84.2863 67.8833C83.9144 67.6596 83.6045 67.3748 83.3979 66.9883C83.1913 66.6018 83.0674 66.1746 83.0674 65.7067C83.0674 65.2185 83.1707 64.7913 83.3979 64.4251C83.6252 64.0386 83.9144 63.7538 84.2863 63.5504C84.6581 63.347 85.092 63.2453 85.5671 63.2453C86.0423 63.2453 86.4555 63.347 86.848 63.5504C87.2405 63.7538 87.5297 64.059 87.7363 64.4251C87.9429 64.8116 88.0668 65.2388 88.0668 65.7067C88.0668 66.1746 87.9635 66.6221 87.7363 66.9883C87.5297 67.3748 87.2198 67.6596 86.848 67.8833C86.4761 68.1071 86.0423 68.2088 85.5671 68.2088C85.092 68.1885 84.6581 68.0867 84.2863 67.8833Z" fill="white"/>
<path d="M89.4697 63.2453H90.1308V65.4219H93.2296V63.2453H93.8907V68.1478H93.2296V65.9915H90.1308V68.1478H89.4697V63.2453Z" fill="white"/>
<path d="M98.7449 67.3748C99.0135 67.212 99.2407 66.9883 99.3854 66.7035C99.53 66.4187 99.6126 66.0729 99.6126 65.7067C99.6126 65.3405 99.53 64.9947 99.3854 64.7099C99.2201 64.4251 99.0135 64.2014 98.7449 64.0386C98.4764 63.8759 98.1458 63.7945 97.8153 63.7945C97.4641 63.7945 97.1542 63.8759 96.8856 64.0386C96.6171 64.2014 96.3898 64.4251 96.2246 64.7099C96.0593 64.9947 95.9767 65.3405 95.9767 65.7067C95.9767 66.0729 96.0593 66.4187 96.2246 66.7035C96.3898 66.9883 96.5964 67.212 96.8856 67.3748C97.1749 67.5375 97.4848 67.6189 97.8153 67.6189C98.1458 67.6189 98.4557 67.5375 98.7449 67.3748ZM96.5138 67.8833C96.1419 67.6596 95.8321 67.3748 95.6255 66.9883C95.4189 66.6018 95.2949 66.1746 95.2949 65.7067C95.2949 65.2185 95.3982 64.7913 95.6255 64.4251C95.8527 64.0386 96.1419 63.7538 96.5138 63.5504C96.8856 63.347 97.3195 63.2453 97.7946 63.2453C98.2698 63.2453 98.683 63.347 99.0755 63.5504C99.468 63.7538 99.7572 64.059 99.9638 64.4251C100.17 64.8116 100.294 65.2388 100.294 65.7067C100.294 66.1746 100.191 66.6221 99.9638 66.9883C99.7572 67.3748 99.4473 67.6596 99.0755 67.8833C98.7036 68.1071 98.2698 68.2088 97.7946 68.2088C97.3195 68.1885 96.9063 68.0867 96.5138 67.8833Z" fill="white"/>
<path d="M107.196 63.2453V68.1478H106.597V64.2827L104.614 67.5578H104.304L102.321 64.2624V68.1478H101.722V63.2453H102.383L104.469 66.7848L106.597 63.2453H107.196Z" fill="white"/>
<path d="M109.098 63.2453H109.759V65.4219H112.837V63.2453H113.498V68.1478H112.837V65.9915H109.759V68.1478H109.098V63.2453Z" fill="white"/>
<path d="M120.171 63.2453H120.832V68.1478H120.171V63.2453ZM118.332 67.3748C118.559 67.1917 118.683 66.9069 118.683 66.5407C118.683 66.1746 118.559 65.9101 118.332 65.7474C118.105 65.5643 117.754 65.4829 117.299 65.4829L116.06 65.4626V67.6392L117.299 67.6596C117.754 67.6596 118.105 67.5782 118.332 67.3748ZM118.869 65.4016C119.2 65.666 119.344 66.0525 119.344 66.5611C119.344 67.09 119.179 67.4765 118.828 67.7613C118.477 68.0461 117.981 68.1681 117.34 68.1681L115.398 68.1478V63.2453H116.06V64.954L117.464 64.9744C118.063 64.9947 118.539 65.1168 118.869 65.4016Z" fill="white"/>
<path d="M123.95 62.2279C123.703 62.0245 123.579 61.7193 123.579 61.3328H124.054C124.054 61.5769 124.136 61.76 124.322 61.9228C124.488 62.0651 124.715 62.1465 124.983 62.1465C125.252 62.1465 125.479 62.0651 125.645 61.9228C125.81 61.7804 125.913 61.5769 125.913 61.3328H126.388C126.388 61.7193 126.244 62.0245 125.996 62.2279C125.748 62.4313 125.397 62.533 124.983 62.533C124.529 62.5534 124.198 62.4313 123.95 62.2279ZM122.711 63.245H123.372V67.1304L126.657 63.245H127.235V68.1475H126.574V64.2621L123.31 68.1475H122.711V63.245Z" fill="white"/>
<path d="M134.549 67.3748C134.818 67.212 135.045 66.9883 135.19 66.7035C135.355 66.4187 135.417 66.0729 135.417 65.7067C135.417 65.3405 135.335 64.9947 135.19 64.7099C135.025 64.4251 134.818 64.2014 134.549 64.0386C134.281 63.8759 133.95 63.7945 133.62 63.7945C133.269 63.7945 132.959 63.8759 132.69 64.0386C132.422 64.2014 132.194 64.4251 132.029 64.7099C131.864 64.9947 131.781 65.3405 131.781 65.7067C131.781 66.0729 131.864 66.4187 132.029 66.7035C132.194 66.9883 132.401 67.212 132.69 67.3748C132.979 67.5375 133.289 67.6189 133.62 67.6189C133.971 67.6189 134.281 67.5375 134.549 67.3748ZM132.339 67.8833C131.967 67.6596 131.657 67.3748 131.451 66.9883C131.244 66.6018 131.12 66.1746 131.12 65.7067C131.12 65.2185 131.223 64.7913 131.451 64.4251C131.678 64.0386 131.967 63.7538 132.339 63.5504C132.711 63.347 133.145 63.2453 133.62 63.2453C134.095 63.2453 134.508 63.347 134.901 63.5504C135.293 63.7538 135.582 64.059 135.789 64.4251C135.996 64.8116 136.12 65.2388 136.12 65.7067C136.12 66.1746 136.016 66.6221 135.789 66.9883C135.582 67.3748 135.273 67.6596 134.901 67.8833C134.529 68.1071 134.095 68.2088 133.62 68.2088C133.145 68.1885 132.711 68.0867 132.339 67.8833Z" fill="white"/>
<path d="M139.302 65.9712H138.186V68.1478H137.525V63.2453H138.186V65.4016H139.323L141.058 63.2453H141.76L139.839 65.6253L141.905 68.1478H141.12L139.302 65.9712Z" fill="white"/>
<path d="M146.365 67.3735C146.654 67.2108 146.861 66.987 147.026 66.7022C147.191 66.4174 147.274 66.0716 147.274 65.7055C147.274 65.3393 147.191 64.9935 147.026 64.7087C146.861 64.4239 146.654 64.2001 146.365 64.0374C146.096 63.8747 145.766 63.7933 145.435 63.7933C145.084 63.7933 144.774 63.8747 144.505 64.0374C144.237 64.2001 144.01 64.4239 143.844 64.7087C143.679 64.9935 143.596 65.319 143.596 65.7055C143.596 66.0716 143.679 66.4174 143.844 66.7022C144.01 66.987 144.216 67.2108 144.505 67.3735C144.774 67.5363 145.084 67.6176 145.435 67.6176C145.786 67.6176 146.096 67.5363 146.365 67.3735ZM146.737 63.5289C147.108 63.7323 147.398 64.0374 147.604 64.4036C147.811 64.7901 147.914 65.2173 147.914 65.7055C147.914 66.1937 147.811 66.6412 147.604 67.0074C147.398 67.3735 147.108 67.6787 146.737 67.8821C146.365 68.0855 145.952 68.1872 145.476 68.1872C145.084 68.1872 144.712 68.1059 144.402 67.9431C144.072 67.7804 143.824 67.5363 143.617 67.2108V69.9367H142.956V63.2441H143.596V64.2205C143.803 63.895 144.051 63.6509 144.382 63.4678C144.712 63.2847 145.084 63.2034 145.497 63.2034C145.931 63.2237 146.365 63.3254 146.737 63.5289Z" fill="white"/>
<path d="M153.391 63.2453L150.933 68.7377C150.726 69.2056 150.499 69.5311 150.231 69.7141C149.962 69.8972 149.652 69.9989 149.28 69.9989C149.032 69.9989 148.826 69.9582 148.619 69.8769C148.413 69.7955 148.247 69.6938 148.082 69.5514L148.392 69.0632C148.64 69.3073 148.929 69.4293 149.28 69.4293C149.507 69.4293 149.693 69.3683 149.859 69.2463C150.024 69.1242 150.169 68.9208 150.293 68.6157L150.499 68.1478L148.309 63.2656H148.991L150.83 67.4358L152.689 63.2656H153.391V63.2453Z" fill="white"/>
<path d="M157.894 63.8352H155.084V68.1478H154.423V63.2453H157.894V63.8352Z" fill="white"/>
<path d="M163.37 65.3392H160.933V65.9095H163.37V65.3392Z" fill="white"/>
<path d="M174.069 67.2307C174.461 67.0069 174.771 66.6814 174.998 66.2746C175.226 65.8677 175.329 65.3999 175.329 64.8913C175.329 64.3827 175.205 63.9149 174.998 63.508C174.771 63.1012 174.461 62.7757 174.069 62.5519C173.676 62.3282 173.242 62.2061 172.747 62.2061C172.271 62.2061 171.838 62.3282 171.445 62.5519C171.052 62.796 170.743 63.1012 170.515 63.508C170.288 63.9149 170.185 64.3827 170.185 64.8913C170.185 65.3999 170.288 65.8677 170.515 66.2746C170.743 66.6814 171.052 67.0069 171.445 67.2307C171.838 67.4748 172.271 67.5765 172.747 67.5765C173.242 67.5968 173.676 67.4748 174.069 67.2307ZM174.42 62.0027C174.916 62.2875 175.308 62.6943 175.597 63.1825C175.887 63.6911 176.031 64.2607 176.031 64.871C176.031 65.5016 175.887 66.0712 175.597 66.5797C175.308 67.0883 174.916 67.4748 174.42 67.7595C173.924 68.0443 173.366 68.1867 172.747 68.1867C172.168 68.1867 171.631 68.0647 171.156 67.8002C170.681 67.5358 170.288 67.1696 169.999 66.7018C169.71 66.2339 169.544 65.705 169.503 65.1354H168.16V68.1257H167.479V61.6162H168.16V64.5048H169.503C169.544 63.9352 169.73 63.4267 170.02 62.9791C170.309 62.5316 170.701 62.1858 171.176 61.9213C171.652 61.6772 172.168 61.5552 172.747 61.5552C173.366 61.5755 173.924 61.7179 174.42 62.0027Z" fill="white"/>
<path d="M180.991 63.8352H178.182V68.1478H177.521V63.2453H180.991V63.8352Z" fill="white"/>
<path d="M185.37 67.3735C185.659 67.2108 185.866 66.987 186.031 66.7022C186.196 66.4174 186.258 66.0716 186.258 65.7055C186.258 65.3393 186.175 64.9935 186.031 64.7087C185.866 64.4239 185.659 64.2001 185.37 64.0374C185.081 63.8747 184.771 63.7933 184.44 63.7933C184.089 63.7933 183.779 63.8747 183.51 64.0374C183.242 64.2001 183.015 64.4239 182.849 64.7087C182.684 64.9935 182.601 65.319 182.601 65.7055C182.601 66.0716 182.684 66.4174 182.849 66.7022C183.015 66.987 183.221 67.2108 183.51 67.3735C183.8 67.5363 184.11 67.6176 184.44 67.6176C184.771 67.6176 185.081 67.5363 185.37 67.3735ZM185.721 63.5289C186.093 63.7323 186.382 64.0374 186.589 64.4036C186.795 64.7901 186.899 65.2173 186.899 65.7055C186.899 66.1937 186.795 66.6412 186.589 67.0074C186.382 67.3735 186.093 67.6787 185.721 67.8821C185.349 68.0855 184.936 68.1872 184.461 68.1872C184.068 68.1872 183.696 68.1059 183.387 67.9431C183.056 67.7804 182.808 67.5363 182.601 67.2108V69.9367H181.94V63.2441H182.581V64.2205C182.787 63.895 183.035 63.6509 183.366 63.4678C183.696 63.2847 184.068 63.2034 184.481 63.2034C184.936 63.2237 185.349 63.3254 185.721 63.5289Z" fill="white"/>
<path d="M190.74 67.415C191.008 67.2523 191.215 66.9879 191.339 66.6827V65.8894H189.789C188.942 65.8894 188.529 66.1742 188.529 66.7641C188.529 67.0489 188.633 67.2727 188.86 67.4354C189.087 67.5981 189.376 67.6795 189.769 67.6795C190.161 67.6795 190.471 67.5778 190.74 67.415ZM191.483 63.6924C191.835 64.0179 192 64.4858 192 65.1164V68.1474H191.359V67.3744C191.215 67.6388 190.988 67.8219 190.698 67.9643C190.409 68.1067 190.058 68.1881 189.665 68.1881C189.108 68.1881 188.674 68.066 188.364 67.8016C188.033 67.5371 187.868 67.1913 187.868 66.7641C187.868 66.3572 188.013 66.0114 188.323 65.7673C188.633 65.5232 189.108 65.3808 189.769 65.3808H191.339V65.0757C191.339 64.6485 191.215 64.323 190.988 64.1196C190.76 63.8958 190.409 63.7941 189.955 63.7941C189.645 63.7941 189.335 63.8551 189.066 63.9569C188.777 64.0586 188.529 64.201 188.323 64.384L188.033 63.8958C188.281 63.6924 188.591 63.5297 188.922 63.4076C189.273 63.2856 189.645 63.2245 190.017 63.2245C190.657 63.2042 191.153 63.3669 191.483 63.6924Z" fill="white"/>
<defs>
<clipPath id="clip0">
<rect width="134.981" height="70" fill="white"/>
</clipPath>
</defs>
</svg>
