<svg width="210" height="50" viewBox="0 0 210 50" fill="none" xmlns="http://www.w3.org/2000/svg">
<path d="M11.5219 50H198.478C198.837 50 199.232 50 199.591 49.9641L209.964 39.5908C210 39.2319 210 38.8729 210 38.4781V11.5219C210 5.1687 204.831 0 198.478 0H11.5219C11.163 0 10.7681 0.0358817 10.4092 0.0717754L0.0358944 10.4451C6.37025e-07 10.804 0 11.163 0 11.5578V38.514C0 44.8313 5.1687 50 11.5219 50Z" fill="#27348B"/>
<path d="M63.4383 20.6V29H61.5063V22.184H57.7143V29H55.7823V20.6H63.4383ZM69.5286 29.144C68.6566 29.144 67.8686 28.956 67.1646 28.58C66.4686 28.204 65.9206 27.688 65.5206 27.032C65.1286 26.368 64.9326 25.624 64.9326 24.8C64.9326 23.976 65.1286 23.236 65.5206 22.58C65.9206 21.916 66.4686 21.396 67.1646 21.02C67.8686 20.644 68.6566 20.456 69.5286 20.456C70.4006 20.456 71.1846 20.644 71.8806 21.02C72.5766 21.396 73.1246 21.916 73.5246 22.58C73.9246 23.236 74.1246 23.976 74.1246 24.8C74.1246 25.624 73.9246 26.368 73.5246 27.032C73.1246 27.688 72.5766 28.204 71.8806 28.58C71.1846 28.956 70.4006 29.144 69.5286 29.144ZM69.5286 27.488C70.0246 27.488 70.4726 27.376 70.8726 27.152C71.2726 26.92 71.5846 26.6 71.8086 26.192C72.0406 25.784 72.1566 25.32 72.1566 24.8C72.1566 24.28 72.0406 23.816 71.8086 23.408C71.5846 23 71.2726 22.684 70.8726 22.46C70.4726 22.228 70.0246 22.112 69.5286 22.112C69.0326 22.112 68.5846 22.228 68.1846 22.46C67.7846 22.684 67.4686 23 67.2366 23.408C67.0126 23.816 66.9006 24.28 66.9006 24.8C66.9006 25.32 67.0126 25.784 67.2366 26.192C67.4686 26.6 67.7846 26.92 68.1846 27.152C68.5846 27.376 69.0326 27.488 69.5286 27.488ZM84.0518 27.416V30.74H82.2518V29H76.3238V30.74H74.5238L74.5358 27.416H74.8718C75.3758 27.4 75.7318 27.032 75.9398 26.312C76.1478 25.592 76.2758 24.564 76.3238 23.228L76.4198 20.6H82.8758V27.416H84.0518ZM78.0398 23.408C77.9998 24.408 77.9158 25.248 77.7878 25.928C77.6598 26.6 77.4638 27.096 77.1998 27.416H80.9557V22.184H78.0758L78.0398 23.408ZM93.0164 20.6V29H91.0844V22.184H87.2924V29H85.3604V20.6H93.0164ZM95.0987 20.6H97.0307V26.072L101.039 20.6H102.863V29H100.943V23.54L96.9347 29H95.0987V20.6ZM108.926 29.144C108.07 29.144 107.294 28.96 106.598 28.592C105.91 28.216 105.366 27.7 104.966 27.044C104.574 26.38 104.378 25.632 104.378 24.8C104.378 23.968 104.574 23.224 104.966 22.568C105.366 21.904 105.91 21.388 106.598 21.02C107.294 20.644 108.074 20.456 108.938 20.456C109.666 20.456 110.322 20.584 110.906 20.84C111.498 21.096 111.994 21.464 112.394 21.944L111.146 23.096C110.578 22.44 109.874 22.112 109.034 22.112C108.514 22.112 108.05 22.228 107.642 22.46C107.234 22.684 106.914 23 106.682 23.408C106.458 23.816 106.346 24.28 106.346 24.8C106.346 25.32 106.458 25.784 106.682 26.192C106.914 26.6 107.234 26.92 107.642 27.152C108.05 27.376 108.514 27.488 109.034 27.488C109.874 27.488 110.578 27.156 111.146 26.492L112.394 27.644C111.994 28.132 111.498 28.504 110.906 28.76C110.314 29.016 109.654 29.144 108.926 29.144ZM119.185 27.2H115.285L114.541 29H112.549L116.293 20.6H118.213L121.969 29H119.929L119.185 27.2ZM118.573 25.724L117.241 22.508L115.909 25.724H118.573ZM129.081 22.184H126.393V29H124.473V22.184H121.797V20.6H129.081V22.184ZM134.37 23.36C135.394 23.36 136.178 23.588 136.722 24.044C137.274 24.5 137.55 25.176 137.55 26.072C137.55 27.024 137.246 27.752 136.638 28.256C136.038 28.752 135.19 29 134.094 29H130.302V20.6H132.234V23.36H134.37ZM133.986 27.56C134.49 27.56 134.882 27.436 135.162 27.188C135.45 26.94 135.594 26.58 135.594 26.108C135.594 25.236 135.058 24.8 133.986 24.8H132.234V27.56H133.986ZM142.922 29.144C142.066 29.144 141.29 28.96 140.594 28.592C139.906 28.216 139.362 27.7 138.962 27.044C138.57 26.38 138.374 25.632 138.374 24.8C138.374 23.968 138.57 23.224 138.962 22.568C139.362 21.904 139.906 21.388 140.594 21.02C141.29 20.644 142.07 20.456 142.934 20.456C143.662 20.456 144.318 20.584 144.902 20.84C145.494 21.096 145.99 21.464 146.39 21.944L145.142 23.096C144.574 22.44 143.87 22.112 143.03 22.112C142.51 22.112 142.046 22.228 141.638 22.46C141.23 22.684 140.91 23 140.678 23.408C140.454 23.816 140.342 24.28 140.342 24.8C140.342 25.32 140.454 25.784 140.678 26.192C140.91 26.6 141.23 26.92 141.638 27.152C142.046 27.376 142.51 27.488 143.03 27.488C143.87 27.488 144.574 27.156 145.142 26.492L146.39 27.644C145.99 28.132 145.494 28.504 144.902 28.76C144.31 29.016 143.65 29.144 142.922 29.144ZM154.201 20.6V29H152.281V26.768H150.505L149.017 29H146.965L148.717 26.468C148.149 26.236 147.713 25.888 147.409 25.424C147.105 24.952 146.953 24.388 146.953 23.732C146.953 23.084 147.101 22.528 147.397 22.064C147.693 21.592 148.113 21.232 148.657 20.984C149.201 20.728 149.841 20.6 150.577 20.6H154.201ZM150.625 22.184C150.073 22.184 149.649 22.312 149.353 22.568C149.065 22.824 148.921 23.204 148.921 23.708C148.921 24.196 149.061 24.572 149.341 24.836C149.621 25.1 150.033 25.232 150.577 25.232H152.281V22.184H150.625Z" fill="white"/>
</svg>
