<svg width="20" height="20" viewBox="0 0 20 20" fill="none" xmlns="http://www.w3.org/2000/svg">
<path d="M9.99995 5C11.3806 5 12.4999 3.88071 12.4999 2.5C12.4999 1.11929 11.3806 0 9.99995 0C8.61927 0 7.5 1.11929 7.5 2.5C7.5 3.88071 8.61927 5 9.99995 5Z" fill="#48BED8"/>
<path d="M13.7447 11.7949L13.1771 7.375C13.1135 6.73359 12.5783 6.25 11.9346 6.25H11.2498C11.0834 6.25 10.9248 6.31641 10.8073 6.43242L9.99984 7.23984L9.19244 6.43242C9.07486 6.31602 8.91627 6.25 8.74987 6.25H8.06629C7.42138 6.25 6.88623 6.73359 6.82374 7.35859L6.255 11.7961C6.23234 11.9734 6.28742 12.1535 6.40617 12.2875C6.52491 12.4227 6.69483 12.5 6.87491 12.5H7.54989L8.07254 18.875C8.13504 19.5148 8.67136 20 9.31626 20H10.685C11.3299 20 11.865 19.5148 11.9299 18.8637L12.451 12.5H13.1248C13.3049 12.5 13.4748 12.4227 13.5935 12.2875C13.7134 12.1539 13.7685 11.9738 13.7447 11.7949Z" fill="#48BED8"/>
<path d="M16.25 5C17.6306 5 18.7499 3.88071 18.7499 2.5C18.7499 1.11929 17.6306 0 16.25 0C14.8693 0 13.75 1.11929 13.75 2.5C13.75 3.88071 14.8693 5 16.25 5Z" fill="#48BED8"/>
<path d="M3.74995 0C2.37107 0 1.25 1.12109 1.25 2.5C1.25 3.87891 2.37107 5 3.74995 5C5.12727 5 6.2499 3.87891 6.2499 2.5C6.2499 1.12109 5.12727 0 3.74995 0Z" fill="#48BED8"/>
<path d="M19.9946 11.7949L19.427 7.37617C19.3634 6.73359 18.8294 6.25 18.1845 6.25H17.4997C17.3333 6.25 17.1747 6.31641 17.0572 6.43242L16.2498 7.23984L15.4424 6.43242C15.3248 6.31602 15.1662 6.25 15.001 6.25H14.3162C14.2389 6.25 14.1685 6.27734 14.0951 6.29141C14.2564 6.57656 14.3826 6.88516 14.4201 7.23125L14.9865 11.6363C15.0564 12.1727 14.8888 12.7125 14.5291 13.1187C14.3592 13.3137 14.1416 13.4512 13.9092 13.5586L14.324 17.625C14.3877 18.2664 14.9228 18.75 15.5677 18.75H16.9365C17.5814 18.75 18.1165 18.2648 18.1814 17.6137L18.7009 12.5H19.3747C19.5548 12.5 19.7247 12.4227 19.8434 12.2875C19.9634 12.1539 20.0184 11.9738 19.9946 11.7949Z" fill="#48BED8"/>
<path d="M5.46739 13.1125C5.11232 12.7113 4.94748 12.1727 5.01506 11.6387L5.58379 7.2C5.61622 6.86758 5.73887 6.56758 5.89512 6.28984C5.8252 6.27734 5.75879 6.25 5.68496 6.25H4.99982C4.83342 6.25 4.67483 6.31641 4.55725 6.43242L3.74985 7.23984L2.94244 6.43242C2.82486 6.31602 2.66627 6.25 2.50104 6.25H1.8159C1.17099 6.25 0.635844 6.73359 0.573345 7.35859L0.0049968 11.7961C-0.017659 11.9734 0.0374181 12.1535 0.156166 12.2875C0.274913 12.4227 0.446004 12.5 0.624907 12.5H1.29989L1.82254 17.625C1.88504 18.2648 2.42136 18.75 3.06627 18.75H4.43499C5.0799 18.75 5.61504 18.2648 5.67989 17.6137L6.09472 13.5574C5.86113 13.4488 5.64239 13.3102 5.46739 13.1125Z" fill="#48BED8"/>
</svg>
