<svg width="15" height="16" viewBox="0 0 15 16" fill="none" xmlns="http://www.w3.org/2000/svg">
<g clip-path="url(#clip0)">
<path d="M5.41888 8.82768C5.41888 8.62742 5.26301 8.46484 5.07069 8.46484H3.85581C3.6638 8.46484 3.50793 8.62709 3.50793 8.82768V10.0948C3.50793 10.2954 3.6638 10.458 3.85581 10.458H5.07101C5.26333 10.458 5.4192 10.2954 5.4192 10.0948L5.41888 8.82768Z" fill="#48BED8"/>
<path d="M8.45545 8.82768C8.45545 8.62742 8.29958 8.46484 8.10757 8.46484H6.89237C6.70036 8.46484 6.54449 8.62709 6.54449 8.82768V10.0948C6.54449 10.2954 6.70036 10.458 6.89237 10.458H8.10757C8.29958 10.458 8.45545 10.2954 8.45545 10.0948V8.82768Z" fill="#48BED8"/>
<path d="M11.4924 8.82768C11.4924 8.62742 11.3365 8.46484 11.1445 8.46484H9.9293C9.73698 8.46484 9.58112 8.62709 9.58112 8.82768V10.0948C9.58112 10.2954 9.73698 10.458 9.9293 10.458H11.1445C11.3365 10.458 11.4924 10.2954 11.4924 10.0948V8.82768Z" fill="#48BED8"/>
<path d="M5.41888 11.994C5.41888 11.7931 5.26301 11.6309 5.07069 11.6309H3.85581C3.6638 11.6309 3.50793 11.7931 3.50793 11.994V13.2609C3.50793 13.4614 3.6638 13.6237 3.85581 13.6237H5.07101C5.26333 13.6237 5.4192 13.4611 5.4192 13.2609L5.41888 11.994Z" fill="#48BED8"/>
<path d="M8.45545 11.994C8.45545 11.7931 8.29958 11.6309 8.10757 11.6309H6.89237C6.70036 11.6309 6.54449 11.7931 6.54449 11.994V13.2609C6.54449 13.4614 6.70036 13.6237 6.89237 13.6237H8.10757C8.29958 13.6237 8.45545 13.4611 8.45545 13.2609V11.994Z" fill="#48BED8"/>
<path d="M11.4924 11.994C11.4924 11.7931 11.3365 11.6309 11.1445 11.6309H9.9293C9.73698 11.6309 9.58112 11.7931 9.58112 11.994V13.2609C9.58112 13.4614 9.73698 13.6237 9.9293 13.6237H11.1445C11.3365 13.6237 11.4924 13.4611 11.4924 13.2609V11.994Z" fill="#48BED8"/>
<path d="M13.6648 1.78227V3.71774C13.6648 4.59255 12.9844 5.29758 12.1457 5.29758H11.1875C10.3488 5.29758 9.65936 4.59255 9.65936 3.71774V1.77539H5.34033V3.71774C5.34033 4.59255 4.65087 5.29758 3.81246 5.29758H2.854C2.01559 5.29758 1.33493 4.59255 1.33493 3.71774V1.78227C0.602413 1.80555 0 2.43814 0 3.2156V14.5583C0 15.3505 0.615612 16.0012 1.37515 16.0012H13.6252C14.3834 16.0012 15.0003 15.3492 15.0003 14.5583V3.2156C15 2.43814 14.3979 1.80555 13.6648 1.78227ZM13.2198 13.852C13.2198 14.1942 12.9536 14.4721 12.6252 14.4721H2.34838C2.01999 14.4721 1.75382 14.1945 1.75382 13.852V7.99314C1.75382 7.65063 2.01999 7.37301 2.34838 7.37301H12.6252C12.9536 7.37301 13.2198 7.65063 13.2198 7.99314V13.852Z" fill="#48BED8"/>
<path d="M2.85086 4.25935H3.79863C4.08648 4.25935 4.31965 4.01647 4.31965 3.71623V0.543112C4.31965 0.242876 4.08648 0 3.79863 0H2.85086C2.56301 0 2.32983 0.243204 2.32983 0.543112V3.71623C2.32983 4.01614 2.56301 4.25935 2.85086 4.25935Z" fill="#48BED8"/>
<path d="M11.1753 4.25935H12.123C12.4106 4.25935 12.6437 4.01647 12.6437 3.71623V0.543112C12.6437 0.242876 12.4106 0 12.123 0H11.1753C10.8877 0 10.6542 0.243204 10.6542 0.543112V3.71623C10.6546 4.01614 10.8877 4.25935 11.1753 4.25935Z" fill="#48BED8"/>
</g>
<defs>
<clipPath id="clip0">
<rect width="15" height="16" fill="white"/>
</clipPath>
</defs>
</svg>
