<svg width="24" height="30" viewBox="0 0 24 30" fill="none" xmlns="http://www.w3.org/2000/svg">
<path d="M18.4718 0H5.52817C5.35416 0 5.18015 0.0130776 5.00613 0.0261552L0.0267708 4.89102C0.0133854 5.06103 0 5.23104 0 5.40105V18.0471V29.2415C0 29.6992 0.388176 30 0.776352 30C0.963748 30 1.16453 29.9346 1.31177 29.7777L7.7903 23.4481H18.4585C18.6325 23.4481 18.8065 23.435 18.9939 23.422L23.9732 18.5571C23.9866 18.3871 24 18.2171 24 18.034V5.40105C24 2.41935 21.5237 0 18.4718 0Z" fill="#55A932"/>
<g clip-path="url(#clip0)">
<path d="M12.0001 9.5C10.7571 9.5 9.74707 10.6207 9.74707 12C9.74707 13.3793 10.7571 14.5 12.0001 14.5C13.2432 14.5 14.2532 13.3793 14.2532 12C14.2532 10.6207 13.2432 9.5 12.0001 9.5Z" fill="white"/>
<path d="M18.837 11.4828C18.0755 10.4311 15.3563 7 12.0001 7C8.64385 7 5.92434 10.4311 5.1632 11.4828C4.9456 11.7757 4.9456 12.2068 5.1632 12.5172C5.92464 13.5689 8.64385 17 12.0001 17C15.3563 17 18.0755 13.5689 18.837 12.5172C19.0543 12.2243 19.0543 11.7932 18.837 11.4828ZM12.0001 15.6207C10.1977 15.6207 8.73702 13.9999 8.73702 12C8.73702 10.0001 10.1974 8.37931 12.0001 8.37931C13.8028 8.37931 15.2631 10.0001 15.2631 12C15.2631 13.9999 13.8025 15.6207 12.0001 15.6207Z" fill="white"/>
</g>
<defs>
<clipPath id="clip0">
<rect width="14" height="10" fill="white" transform="translate(5 7)"/>
</clipPath>
</defs>
</svg>
