<svg width="7" height="4" viewBox="0 0 7 4" fill="none" xmlns="http://www.w3.org/2000/svg">
<path fill-rule="evenodd" clip-rule="evenodd" d="M0.221427 1.23204L2.99199 3.80351C3.2739 4.06516 3.71679 4.06516 3.9987 3.80351L6.76927 1.23204C7.07267 0.950441 7.07226 0.477755 6.76954 0.196368C6.48763 -0.0652834 6.04448 -0.065541 5.76256 0.196105L3.49529 2.30034L1.22196 0.190381C0.942605 -0.0602737 0.512859 -0.0602575 0.233456 0.190324M6.10269 0.56259C6.1109 0.554969 6.11958 0.548043 6.12864 0.541812C6.21898 0.479661 6.34724 0.486587 6.42913 0.56259C6.51922 0.646338 6.51922 0.781943 6.42913 0.865566L6.40483 0.888118L3.65856 3.43703C3.56847 3.52065 3.42223 3.52065 3.33213 3.43703L0.561567 0.865566C0.472958 0.780436 0.475528 0.644831 0.567249 0.56259C0.648324 0.489846 0.772546 0.483056 0.861676 0.542221C0.863811 0.543638 0.865926 0.545093 0.86802 0.546586C0.874924 0.551509 0.881597 0.556844 0.888001 0.56259L3.49528 2.9825L6.10269 0.56259ZM0.221427 1.23204C-0.0779791 0.944394 -0.0734783 0.46566 0.233456 0.190324L0.221427 1.23204Z" fill="#48BED8"/>
</svg>
