<svg width="24" height="30" viewBox="0 0 24 30" fill="none" xmlns="http://www.w3.org/2000/svg">
<path d="M18.4718 0H5.52817C5.35416 0 5.18015 0.0130776 5.00613 0.0261552L0.0267708 4.89102C0.0133854 5.06103 0 5.23104 0 5.40105V18.0471V29.2415C0 29.6992 0.388176 30 0.776352 30C0.963748 30 1.16453 29.9346 1.31177 29.7777L7.7903 23.4481H18.4585C18.6325 23.4481 18.8065 23.435 18.9939 23.422L23.9732 18.5571C23.9866 18.3871 24 18.2171 24 18.034V5.40105C24 2.41935 21.5237 0 18.4718 0Z" fill="#55A932"/>
<rect x="6" y="7" width="12" height="2" rx="1" fill="white"/>
<rect x="6" y="11" width="9" height="2" rx="1" fill="white"/>
<rect x="6" y="15" width="12" height="2" rx="1" fill="white"/>
</svg>
