<svg width="24" height="30" viewBox="0 0 24 30" fill="none" xmlns="http://www.w3.org/2000/svg">
<path d="M18.4718 0H5.52817C5.35416 0 5.18015 0.0130776 5.00613 0.0261552L0.0267708 4.89102C0.0133854 5.06103 0 5.23104 0 5.40105V18.0471V29.2415C0 29.6992 0.388176 30 0.776352 30C0.963748 30 1.16453 29.9346 1.31177 29.7777L7.7903 23.4481H18.4585C18.6325 23.4481 18.8065 23.435 18.9939 23.422L23.9732 18.5571C23.9866 18.3871 24 18.2171 24 18.034V5.40105C24 2.41935 21.5237 0 18.4718 0Z" fill="#55A932"/>
<g clip-path="url(#clip0)">
<path d="M18.9433 8.49139L10.2632 16.9448C10.1864 17.0196 10.0631 17.0196 9.98628 16.9448L5.05761 12.1448C4.9808 12.07 4.9808 11.95 5.05761 11.8752L6.2545 10.7096C6.33131 10.6347 6.45457 10.6347 6.53139 10.7096L10.1238 14.2082L17.4695 7.05611C17.5463 6.9813 17.6696 6.9813 17.7464 7.05611L18.9433 8.22173C19.0201 8.29654 19.0201 8.41658 18.9433 8.49139Z" fill="white"/>
</g>
<defs>
<clipPath id="clip0">
<rect width="14" height="10" fill="white" transform="translate(5 7)"/>
</clipPath>
</defs>
</svg>
