<svg width="50" height="50" viewBox="0 0 50 50" fill="none" xmlns="http://www.w3.org/2000/svg">
<circle cx="25" cy="25" r="25" fill="white"/>
<g clip-path="url(#clip0)">
<path d="M36.9763 20.0561C36.9201 18.7809 36.7139 17.9042 36.4185 17.1445C36.1137 16.3381 35.6449 15.6162 35.0306 15.016C34.4305 14.4065 33.7038 13.9329 32.9067 13.6329C32.1427 13.3375 31.2706 13.1313 29.9954 13.0751C28.7106 13.0141 28.3028 13 25.0443 13C21.7859 13 21.378 13.0141 20.098 13.0703C18.8228 13.1266 17.9461 13.333 17.1867 13.6282C16.3801 13.9329 15.6582 14.4018 15.058 15.016C14.4485 15.6162 13.9751 16.3429 13.6749 17.1399C13.3795 17.9042 13.1733 18.7761 13.1171 20.0513C13.0561 21.336 13.042 21.7439 13.042 25.0023C13.042 28.2608 13.0561 28.6686 13.1123 29.9486C13.1685 31.2238 13.3749 32.1005 13.6703 32.8602C13.9751 33.6666 14.4485 34.3885 15.058 34.9887C15.6582 35.5982 16.3849 36.0718 17.1819 36.3718C17.9461 36.6672 18.8181 36.8734 20.0935 36.9296C21.3733 36.986 21.7813 36.9999 25.0397 36.9999C28.2982 36.9999 28.706 36.986 29.986 36.9296C31.2612 36.8734 32.1379 36.6672 32.8974 36.3718C34.5103 35.7482 35.7855 34.4729 36.4091 32.8602C36.7044 32.096 36.9108 31.2238 36.967 29.9486C37.0232 28.6686 37.0373 28.2608 37.0373 25.0023C37.0373 21.7439 37.0325 21.336 36.9763 20.0561ZM34.8151 29.8549C34.7634 31.027 34.5665 31.6599 34.4025 32.0819C33.9992 33.1274 33.1694 33.9572 32.1238 34.3605C31.7019 34.5246 31.0643 34.7215 29.8968 34.7729C28.631 34.8293 28.2513 34.8433 25.0491 34.8433C21.8469 34.8433 21.4624 34.8293 20.2012 34.7729C19.0291 34.7215 18.3961 34.5246 17.9742 34.3605C17.4539 34.1682 16.9803 33.8634 16.5958 33.4649C16.1973 33.0758 15.8926 32.6069 15.7003 32.0866C15.5362 31.6647 15.3393 31.027 15.2878 29.8596C15.2314 28.5937 15.2175 28.2139 15.2175 25.0117C15.2175 21.8095 15.2314 21.425 15.2878 20.1639C15.3393 18.9918 15.5362 18.3589 15.7003 17.9369C15.8926 17.4165 16.1973 16.943 16.6006 16.5584C16.9896 16.1599 17.4584 15.8552 17.9789 15.6631C18.4009 15.499 19.0386 15.3021 20.2059 15.2504C21.4718 15.1942 21.8516 15.1801 25.0537 15.1801C28.2606 15.1801 28.6403 15.1942 29.9016 15.2504C31.0737 15.3021 31.7066 15.499 32.1286 15.6631C32.6489 15.8552 33.1225 16.1599 33.5069 16.5584C33.9054 16.9476 34.2102 17.4165 34.4025 17.9369C34.5665 18.3589 34.7634 18.9964 34.8151 20.1639C34.8713 21.4298 34.8854 21.8095 34.8854 25.0117C34.8854 28.2139 34.8713 28.589 34.8151 29.8549Z" fill="#27348B"/>
<path d="M25.0442 18.837C21.6405 18.837 18.8789 21.5984 18.8789 25.0023C18.8789 28.4062 21.6405 31.1676 25.0442 31.1676C28.448 31.1676 31.2094 28.4062 31.2094 25.0023C31.2094 21.5984 28.448 18.837 25.0442 18.837ZM25.0442 29.0016C22.836 29.0016 21.0449 27.2106 21.0449 25.0023C21.0449 22.794 22.836 21.0031 25.0442 21.0031C27.2525 21.0031 29.0434 22.794 29.0434 25.0023C29.0434 27.2106 27.2525 29.0016 25.0442 29.0016Z" fill="#27348B"/>
<path d="M32.8935 18.5933C32.8935 19.3881 32.249 20.0326 31.454 20.0326C30.6591 20.0326 30.0146 19.3881 30.0146 18.5933C30.0146 17.7983 30.6591 17.154 31.454 17.154C32.249 17.154 32.8935 17.7983 32.8935 18.5933Z" fill="#27348B"/>
</g>
<defs>
<clipPath id="clip0">
<rect width="24" height="24" fill="white" transform="translate(13 13)"/>
</clipPath>
</defs>
</svg>
