<svg width="185" height="80" viewBox="0 0 185 80" fill="none" xmlns="http://www.w3.org/2000/svg">
<g clip-path="url(#clip0)">
<path d="M81.7266 9.96251H80.1421V13.5404H78.5791V5.04553H80.1421V8.60204H81.7805L84.2273 5.04553H85.9088L82.9985 9.15908L86.0274 13.5404H84.2273L81.7266 9.96251Z" fill="black"/>
<path d="M92.1284 9.31977C92.4842 9.03053 92.6674 8.61275 92.6674 8.06642C92.6674 7.52009 92.4842 7.10231 92.1284 6.81307C91.7727 6.52384 91.2446 6.37387 90.5547 6.37387H88.7007V9.74826H90.5547C91.2446 9.75898 91.7727 9.609 92.1284 9.31977ZM92.5596 5.40975C93.1093 5.65614 93.5297 5.99893 93.8208 6.44885C94.1118 6.89877 94.2627 7.43439 94.2627 8.06642C94.2627 8.67703 94.1118 9.21265 93.8208 9.67328C93.5297 10.1339 93.1093 10.4767 92.5596 10.7231C92.0099 10.9695 91.3631 11.0873 90.6302 11.0873H88.7007V13.5404H87.1162V5.04553H90.6302C91.3631 5.04553 92.0099 5.17408 92.5596 5.40975Z" fill="black"/>
<path d="M100.471 10.3374L98.8654 6.63096L97.2701 10.3374H100.471ZM101 11.5694H96.7311L95.8904 13.5404H94.252L98.0893 5.04553H99.6522L103.511 13.5404H101.851L101 11.5694Z" fill="black"/>
<path d="M111.724 5.04553L108.016 11.9015C107.693 12.5121 107.305 12.962 106.852 13.2619C106.399 13.5619 105.903 13.7118 105.386 13.7118C104.965 13.7118 104.545 13.6261 104.125 13.444L104.513 12.2121C104.847 12.3192 105.127 12.3728 105.343 12.3728C105.86 12.3728 106.281 12.1157 106.615 11.5801L106.755 11.3765L103.349 5.04553H105.041L107.563 10.0268L110.161 5.04553H111.724Z" fill="black"/>
<path d="M114.71 10.6374C114.569 11.3658 114.354 11.8907 114.052 12.2121H118.385V6.38455H115.044L114.979 7.88428C114.936 8.98765 114.839 9.89821 114.71 10.6374ZM121.177 12.2014V15.3401H119.711V13.5297H113.157V15.3401H111.681L111.691 12.2014H112.058C112.597 12.1799 112.974 11.7836 113.19 11.023C113.405 10.2624 113.535 9.16976 113.589 7.74502L113.686 5.05621H119.948V12.2121H121.177V12.2014Z" fill="black"/>
<path d="M124.26 13.1012C123.559 12.7262 123.02 12.2013 122.621 11.5479C122.222 10.8837 122.028 10.1339 122.028 9.29829C122.028 8.46273 122.222 7.71286 122.621 7.04869C123.02 6.38453 123.57 5.87033 124.26 5.48469C124.96 5.10975 125.736 4.91693 126.599 4.91693C127.299 4.91693 127.935 5.03477 128.517 5.28115C129.099 5.52754 129.584 5.87033 129.983 6.34168L128.959 7.29508C128.345 6.63091 127.579 6.29883 126.674 6.29883C126.092 6.29883 125.564 6.42738 125.1 6.68447C124.637 6.94157 124.27 7.29508 124.012 7.745C123.753 8.19492 123.624 8.70911 123.624 9.28758C123.624 9.86605 123.753 10.3802 124.012 10.8302C124.27 11.2801 124.637 11.6336 125.1 11.8907C125.564 12.1478 126.092 12.2763 126.674 12.2763C127.579 12.2763 128.334 11.9442 128.959 11.2694L129.983 12.2442C129.584 12.7048 129.099 13.0583 128.517 13.3047C127.935 13.5511 127.288 13.6689 126.599 13.6689C125.726 13.6582 124.949 13.4761 124.26 13.1012Z" fill="black"/>
<path d="M136.774 11.8907C137.227 11.6336 137.582 11.28 137.852 10.8194C138.11 10.3588 138.24 9.8553 138.24 9.28755C138.24 8.71979 138.11 8.2056 137.852 7.75568C137.593 7.29505 137.237 6.94154 136.774 6.68444C136.321 6.42734 135.804 6.2988 135.232 6.2988C134.661 6.2988 134.155 6.42734 133.691 6.68444C133.238 6.94154 132.872 7.29505 132.613 7.75568C132.354 8.21631 132.225 8.71979 132.225 9.28755C132.225 9.8553 132.354 10.3695 132.613 10.8194C132.872 11.28 133.228 11.6336 133.691 11.8907C134.144 12.1478 134.661 12.2763 135.232 12.2763C135.804 12.2763 136.321 12.1478 136.774 11.8907ZM132.883 13.1012C132.182 12.7262 131.632 12.2013 131.233 11.5371C130.835 10.873 130.641 10.1231 130.641 9.29826C130.641 8.47341 130.835 7.72354 131.233 7.05937C131.632 6.39521 132.182 5.8703 132.883 5.49537C133.583 5.12044 134.37 4.92761 135.243 4.92761C136.116 4.92761 136.903 5.12044 137.593 5.49537C138.294 5.8703 138.843 6.39521 139.242 7.05937C139.641 7.72354 139.835 8.47341 139.835 9.30897C139.835 10.1445 139.641 10.8944 139.242 11.5586C138.843 12.2227 138.294 12.7369 137.593 13.1119C136.892 13.4868 136.106 13.6796 135.243 13.6796C134.359 13.6582 133.583 13.4761 132.883 13.1012Z" fill="black"/>
<path d="M146.605 9.31977C146.961 9.03053 147.144 8.61275 147.144 8.06642C147.144 7.52009 146.961 7.10231 146.605 6.81307C146.249 6.52384 145.721 6.37387 145.031 6.37387H143.177V9.74826H145.031C145.732 9.75898 146.249 9.609 146.605 9.31977ZM147.047 5.40975C147.597 5.65614 148.017 5.99893 148.308 6.44885C148.599 6.89877 148.75 7.43439 148.75 8.06642C148.75 8.67703 148.599 9.21265 148.308 9.67328C148.017 10.1339 147.597 10.4767 147.047 10.7231C146.497 10.9695 145.85 11.0873 145.107 11.0873H143.177V13.5404H141.593V5.04553H145.107C145.85 5.04553 146.497 5.17408 147.047 5.40975Z" fill="black"/>
<path d="M151.962 13.1012C151.261 12.7262 150.722 12.2013 150.323 11.5479C149.924 10.8837 149.73 10.1339 149.73 9.29829C149.73 8.46273 149.924 7.71286 150.323 7.04869C150.722 6.38453 151.272 5.87033 151.962 5.48469C152.662 5.10975 153.438 4.91693 154.301 4.91693C155.001 4.91693 155.637 5.03477 156.219 5.28115C156.801 5.52754 157.287 5.87033 157.685 6.34168L156.661 7.29508C156.047 6.63091 155.282 6.29883 154.376 6.29883C153.794 6.29883 153.266 6.42738 152.802 6.68447C152.339 6.94157 151.972 7.29508 151.714 7.745C151.455 8.19492 151.326 8.70911 151.326 9.28758C151.326 9.86605 151.455 10.3802 151.714 10.8302C151.972 11.2801 152.339 11.6336 152.802 11.8907C153.266 12.1478 153.794 12.2763 154.376 12.2763C155.282 12.2763 156.036 11.9442 156.661 11.2694L157.685 12.2442C157.287 12.7048 156.801 13.0583 156.219 13.3047C155.637 13.5511 154.991 13.6689 154.301 13.6689C153.438 13.6582 152.662 13.4761 151.962 13.1012Z" fill="black"/>
<path d="M159.185 5.04553H160.748V11.0766L165.329 5.04553H166.805V13.5404H165.242V7.52009L160.661 13.5404H159.185V5.04553Z" fill="black"/>
<path d="M176.797 5.04553V13.5404H175.202V9.89824H170.794V13.5404H169.198V5.04553H170.794V8.54848H175.202V5.04553H176.797Z" fill="black"/>
<path d="M184.979 6.38458H180.753L180.764 13.5404H179.201V5.04553H185L184.979 6.38458Z" fill="black"/>
<path d="M86.1459 21.3924V29.8873H84.583V22.7207H80.1528V29.8873H78.5898V21.3924H86.1459Z" fill="black"/>
<path d="M93.5611 25.6562C93.9168 25.367 94.1 24.9492 94.1 24.4029C94.1 23.8565 93.9168 23.4388 93.5611 23.1495C93.2054 22.8603 92.6772 22.7103 91.9873 22.7103H90.1333V26.0847H91.9873C92.6772 26.0954 93.2054 25.9562 93.5611 25.6562ZM94.003 21.7569C94.5527 22.0033 94.9731 22.3461 95.2641 22.796C95.5552 23.2459 95.7061 23.7816 95.7061 24.4136C95.7061 25.0242 95.5552 25.5598 95.2641 26.0204C94.9731 26.4811 94.5527 26.8239 94.003 27.0703C93.4533 27.3166 92.8065 27.4345 92.0628 27.4345H90.1333V29.8876H88.5488V21.3927H92.0628C92.8065 21.3927 93.4533 21.5105 94.003 21.7569Z" fill="black"/>
<path d="M102.821 28.2379C103.274 27.9808 103.629 27.6272 103.899 27.1666C104.157 26.706 104.287 26.2025 104.287 25.6347C104.287 25.067 104.157 24.5528 103.899 24.1029C103.64 23.6422 103.284 23.2887 102.821 23.0316C102.368 22.7745 101.851 22.646 101.279 22.646C100.708 22.646 100.201 22.7745 99.738 23.0316C99.2853 23.2887 98.9296 23.6422 98.6601 24.1029C98.4014 24.5635 98.272 25.067 98.272 25.6347C98.272 26.2025 98.4014 26.7167 98.6601 27.1666C98.9188 27.6272 99.2745 27.9808 99.738 28.2379C100.191 28.4949 100.708 28.6235 101.279 28.6235C101.851 28.6235 102.357 28.4949 102.821 28.2379ZM98.9188 29.4376C98.2181 29.0627 97.6684 28.5378 97.2696 27.8736C96.8708 27.2095 96.6768 26.4596 96.6768 25.6347C96.6768 24.8099 96.8708 24.06 97.2696 23.3959C97.6684 22.7317 98.2181 22.2068 98.9188 21.8319C99.6194 21.4569 100.406 21.2641 101.279 21.2641C102.152 21.2641 102.939 21.4569 103.629 21.8319C104.33 22.2068 104.88 22.7317 105.278 23.3959C105.677 24.06 105.871 24.8099 105.871 25.6455C105.871 26.481 105.666 27.2309 105.278 27.8951C104.88 28.5592 104.33 29.0734 103.629 29.4483C102.929 29.8233 102.142 30.0161 101.279 30.0161C100.406 30.0054 99.6194 29.8126 98.9188 29.4376Z" fill="black"/>
<path d="M114.042 28.559V29.8873H107.64V21.3924H113.881V22.71H109.224V24.9168H113.353V26.2237H109.224V28.559H114.042Z" fill="black"/>
<path d="M118.968 26.2987H117.383V29.8766H115.82V21.3924H117.383V24.9489H119.011L121.469 21.3924H123.15L120.24 25.5059L123.258 29.8766H121.469L118.968 26.2987Z" fill="black"/>
<path d="M130.458 22.7207H127.634V29.8873H126.06V22.7207H123.236V21.3924H130.458V22.7207Z" fill="black"/>
<path d="M140.192 21.3924H141.755V29.8873H140.192V21.3924ZM136.872 28.2483C137.206 27.9698 137.368 27.552 137.368 27.0164C137.368 25.988 136.721 25.4738 135.438 25.4738H133.401V28.6768H135.438C136.063 28.6661 136.538 28.5268 136.872 28.2483ZM138.133 24.9489C138.683 25.4095 138.952 26.0844 138.952 26.9843C138.952 27.9269 138.65 28.6447 138.047 29.1374C137.443 29.6302 136.602 29.8873 135.514 29.8873H131.838V21.3924H133.401V24.2633H135.772C136.796 24.2633 137.583 24.499 138.133 24.9489Z" fill="black"/>
<path d="M87.3316 44.5846C87.7628 44.3382 88.0969 43.9847 88.3449 43.5241C88.5928 43.0742 88.7114 42.5493 88.7114 41.9708C88.7114 41.3923 88.5928 40.8674 88.3449 40.4175C88.0969 39.9676 87.7628 39.6141 87.3316 39.357C86.9005 39.1106 86.4154 38.982 85.8873 38.982C85.3591 38.982 84.8848 39.1106 84.4536 39.357C84.0225 39.6141 83.6883 39.9569 83.4404 40.4175C83.1925 40.8674 83.0632 41.3923 83.0632 41.9708C83.0632 42.5493 83.1817 43.0742 83.4404 43.5241C83.6883 43.974 84.0225 44.3275 84.4536 44.5846C84.8848 44.8417 85.3591 44.9595 85.8873 44.9595C86.4154 44.9595 86.9005 44.8417 87.3316 44.5846ZM88.1508 38.1786C88.8191 38.5535 89.3473 39.0785 89.7354 39.7426C90.1234 40.4068 90.3066 41.1567 90.3066 41.9922C90.3066 42.8278 90.1126 43.5776 89.7354 44.2418C89.3581 44.906 88.8299 45.4202 88.1508 45.8058C87.4825 46.1808 86.728 46.3736 85.8873 46.3736C85.1219 46.3736 84.4213 46.2129 83.7961 45.9022C83.1709 45.5916 82.6536 45.1417 82.244 44.5739C81.8451 44.0061 81.5864 43.3634 81.4894 42.6457H80.1421V46.245H78.5791V37.7501H80.1421V41.2316H81.511C81.6296 40.5246 81.8882 39.9033 82.2871 39.357C82.6859 38.8106 83.2033 38.3822 83.8285 38.0822C84.4536 37.7823 85.1327 37.6323 85.8873 37.6323C86.728 37.6109 87.4825 37.8037 88.1508 38.1786Z" fill="black"/>
<path d="M97.8733 39.068H93.6371L93.6479 46.2239H92.085V37.7397H97.884L97.8733 39.068Z" fill="black"/>
<path d="M104.233 42.0032C104.589 41.714 104.772 41.2962 104.772 40.7499C104.772 40.2036 104.589 39.7858 104.233 39.4965C103.877 39.2073 103.349 39.0573 102.659 39.0573H100.805V42.4317H102.659C103.349 42.4424 103.877 42.2925 104.233 42.0032ZM104.664 38.0932C105.214 38.3396 105.634 38.6824 105.925 39.1323C106.216 39.5822 106.367 40.1179 106.367 40.7499C106.367 41.3605 106.216 41.8961 105.925 42.3567C105.634 42.8174 105.214 43.1602 104.664 43.4066C104.114 43.6529 103.468 43.7708 102.735 43.7708H100.805V46.2239H99.2207V37.729H102.735C103.468 37.729 104.114 37.8576 104.664 38.0932Z" fill="black"/>
<path d="M116.231 37.7397H117.794V46.2346H116.231V37.7397ZM112.911 44.5849C113.245 44.3064 113.407 43.8886 113.407 43.353C113.407 42.3246 112.76 41.8104 111.477 41.8104H109.44V45.0134H111.477C112.102 45.0134 112.577 44.8741 112.911 44.5849ZM114.172 41.2962C114.722 41.7568 114.991 42.4317 114.991 43.3315C114.991 44.2742 114.689 44.9812 114.086 45.4847C113.482 45.9775 112.641 46.2346 111.553 46.2346H107.877V37.7397H109.44V40.6106H111.811C112.835 40.6106 113.622 40.8356 114.172 41.2962Z" fill="black"/>
<path d="M81.5328 61.5425V62.7422H81.1664V61.8745H77.9219V58.1788H78.3099V61.5425H80.552V58.1788H80.94V61.5425H81.5328Z" fill="black"/>
<path d="M84.9494 61.5425V61.8745H82.3193V58.1788H84.874V58.5109H82.7074V59.8285H84.6368V60.1606H82.7074V61.5425H84.9494Z" fill="black"/>
<path d="M88.9374 58.1788V61.8745H88.5493V60.1713H86.2211V61.8745H85.8223V58.1788H86.2211V59.8285H88.5493V58.1788H88.9374Z" fill="black"/>
<path d="M92.6236 58.5109H91.3193V61.8745H90.9313V58.5109H89.6162V58.1788H92.6236V58.5109Z" fill="black"/>
<path d="M95.5447 60.1282C95.7387 59.9675 95.8357 59.7425 95.8357 59.4533C95.8357 59.1533 95.7387 58.9284 95.5447 58.7677C95.3507 58.607 95.0704 58.5213 94.6931 58.5213H93.7015V60.3745H94.6931C95.0704 60.3638 95.3507 60.2888 95.5447 60.1282ZM95.8357 58.5106C96.1052 58.7355 96.2453 59.0462 96.2453 59.4426C96.2453 59.8389 96.1052 60.1496 95.8357 60.3745C95.5662 60.5995 95.189 60.7066 94.7147 60.7066H93.7123V61.8743H93.3242V58.1678H94.7147C95.189 58.1785 95.5662 58.2856 95.8357 58.5106Z" fill="black"/>
<path d="M100.923 61.3603C101.161 61.2317 101.344 61.0496 101.484 60.814C101.624 60.5783 101.689 60.3212 101.689 60.032C101.689 59.7427 101.624 59.4856 101.484 59.25C101.344 59.0143 101.161 58.8322 100.923 58.7036C100.686 58.5751 100.417 58.5001 100.126 58.5001C99.8348 58.5001 99.5653 58.5644 99.3282 58.7036C99.0911 58.8429 98.897 59.0143 98.7677 59.25C98.6276 59.4856 98.5629 59.7427 98.5629 60.032C98.5629 60.3212 98.6276 60.589 98.7677 60.814C98.9078 61.0496 99.0911 61.2317 99.3282 61.3603C99.5653 61.4888 99.8348 61.5531 100.126 61.5531C100.417 61.5638 100.686 61.4995 100.923 61.3603ZM99.1234 61.6602C98.8216 61.4996 98.5844 61.2746 98.4228 60.9854C98.2503 60.6961 98.1641 60.3747 98.1641 60.0212C98.1641 59.6677 98.2503 59.3464 98.4228 59.0571C98.5952 58.7679 98.8216 58.5429 99.1234 58.3822C99.4252 58.2216 99.7594 58.1359 100.126 58.1359C100.492 58.1359 100.826 58.2216 101.118 58.3822C101.419 58.5429 101.646 58.7679 101.818 59.0571C101.991 59.3464 102.077 59.6677 102.077 60.0212C102.077 60.3747 101.991 60.6961 101.818 60.9854C101.646 61.2746 101.419 61.4996 101.118 61.6602C100.826 61.8209 100.492 61.9066 100.126 61.9066C99.7594 61.9066 99.4252 61.8316 99.1234 61.6602Z" fill="black"/>
<path d="M105.397 58.5109H104.093V61.8745H103.705V58.5109H102.4V58.1788H105.397V58.5109Z" fill="black"/>
<path d="M107.326 60.182H106.475V61.8745H106.098V58.1788H106.475V59.8392H107.326L108.588 58.1788H109.019L107.628 59.9785L109.094 61.8745H108.642L107.326 60.182Z" fill="black"/>
<path d="M111.93 60.1285C112.124 59.9678 112.221 59.7429 112.221 59.4536C112.221 59.1537 112.124 58.9287 111.93 58.768C111.735 58.6074 111.455 58.5217 111.078 58.5217H110.086V60.3749H111.078C111.455 60.3642 111.735 60.2892 111.93 60.1285ZM112.21 58.5109C112.479 58.7359 112.619 59.0466 112.619 59.4429C112.619 59.8393 112.479 60.1499 112.21 60.3749C111.94 60.5999 111.563 60.707 111.089 60.707H110.086V61.8746H109.698V58.1682H111.089C111.574 58.1789 111.94 58.286 112.21 58.5109Z" fill="black"/>
<path d="M116.985 58.1788H117.373V61.8746H116.985V58.1788ZM115.681 61.339C115.864 61.189 115.95 60.964 115.95 60.6641C115.95 60.0963 115.594 59.8178 114.894 59.8178H113.816V61.5639H114.894C115.239 61.5639 115.497 61.4889 115.681 61.339ZM115.993 59.7964C116.23 59.9892 116.338 60.2785 116.338 60.6641C116.338 61.0605 116.219 61.3604 115.972 61.5746C115.724 61.7782 115.368 61.8853 114.904 61.8853H113.428V58.1788H113.816V59.5072H114.991C115.422 59.4965 115.756 59.5929 115.993 59.7964Z" fill="black"/>
<path d="M121.07 58.5109H119.755V61.8745H119.367V58.5109H118.062V58.1788H121.07V58.5109Z" fill="black"/>
<path d="M125.317 58.1788H125.705V61.8745H125.317V58.1788ZM124.013 61.3389C124.196 61.1889 124.282 60.964 124.282 60.664C124.282 60.0963 123.926 59.8178 123.226 59.8178H122.148V61.5639H123.226C123.571 61.5639 123.829 61.4889 124.013 61.3389ZM124.325 59.7963C124.552 59.9892 124.67 60.2784 124.67 60.664C124.67 61.0604 124.552 61.3603 124.304 61.5746C124.056 61.7888 123.7 61.8852 123.236 61.8852H121.76V58.1788H122.148V59.5071H123.323C123.754 59.4964 124.088 59.5928 124.325 59.7963Z" fill="black"/>
<path d="M127.882 57.7289C127.731 57.6111 127.645 57.4397 127.645 57.2255H127.936C127.936 57.3647 127.99 57.4718 128.098 57.5575C128.205 57.6325 128.335 57.6754 128.507 57.6754C128.68 57.6754 128.82 57.6325 128.917 57.5575C129.025 57.4718 129.079 57.3647 129.079 57.2255H129.37C129.37 57.4397 129.283 57.6111 129.132 57.7289C128.982 57.8468 128.766 57.9111 128.507 57.9111C128.249 57.9111 128.033 57.8468 127.882 57.7289ZM126.955 58.1789H127.343V61.2426L129.725 58.1789H130.081V61.8853H129.693V58.8216L127.311 61.8853H126.955V58.1789Z" fill="black"/>
<path d="M134.964 60.1286C135.158 59.9679 135.255 59.7429 135.255 59.4537C135.255 59.1538 135.158 58.9288 134.964 58.7681C134.77 58.6074 134.489 58.5217 134.112 58.5217H133.12V60.375H134.112C134.489 60.3642 134.77 60.2893 134.964 60.1286ZM135.244 58.511C135.513 58.736 135.654 59.0466 135.654 59.443C135.654 59.8393 135.513 60.15 135.244 60.375C134.974 60.5999 134.597 60.707 134.123 60.707H133.12V61.8747H132.732V58.1682H134.123C134.608 58.1789 134.974 58.286 135.244 58.511Z" fill="black"/>
<path d="M139.092 61.5425V61.8745H136.462V58.1788H139.017V58.5109H136.861V59.8285H138.779V60.1606H136.861V61.5425H139.092Z" fill="black"/>
<path d="M142.337 58.5109H140.354V61.8745H139.966V58.1788H142.337V58.5109Z" fill="black"/>
<path d="M143.016 58.1788H143.404V61.2425L145.786 58.1788H146.142V61.8745H145.753V58.8215L143.371 61.8745H143.016V58.1788Z" fill="black"/>
<path d="M149.828 61.3603C150.065 61.2317 150.248 61.0496 150.388 60.814C150.528 60.5783 150.593 60.3212 150.593 60.032C150.593 59.7427 150.528 59.4856 150.388 59.25C150.248 59.0143 150.065 58.8322 149.828 58.7036C149.591 58.5751 149.321 58.5001 149.03 58.5001C148.739 58.5001 148.47 58.5644 148.232 58.7036C147.995 58.8322 147.801 59.0143 147.672 59.25C147.532 59.4856 147.467 59.7427 147.467 60.032C147.467 60.3212 147.532 60.589 147.672 60.814C147.812 61.0496 147.995 61.2317 148.232 61.3603C148.47 61.4888 148.739 61.5531 149.03 61.5531C149.321 61.5638 149.591 61.4995 149.828 61.3603ZM148.028 61.6602C147.726 61.4996 147.489 61.2746 147.327 60.9854C147.155 60.6961 147.068 60.3747 147.068 60.0212C147.068 59.6677 147.155 59.3464 147.327 59.0571C147.5 58.7679 147.726 58.5429 148.028 58.3822C148.33 58.2216 148.664 58.1359 149.03 58.1359C149.397 58.1359 149.731 58.2216 150.022 58.3822C150.324 58.5429 150.55 58.7679 150.722 59.0571C150.895 59.3464 150.981 59.6677 150.981 60.0212C150.981 60.3747 150.895 60.6961 150.722 60.9854C150.55 61.2746 150.324 61.4996 150.022 61.6602C149.731 61.8209 149.397 61.9066 149.03 61.9066C148.664 61.9066 148.33 61.8316 148.028 61.6602Z" fill="black"/>
<path d="M155.034 58.1788V61.8745H154.646V60.1713H152.318V61.8745H151.919V58.1788H152.318V59.8285H154.646V58.1788H155.034Z" fill="black"/>
<path d="M62.3026 49.0734C62.3457 48.6235 62.3673 48.1735 62.3673 47.7022V14.2796C62.3673 6.39529 55.943 0 47.9989 0H14.3684C13.9049 0 13.4522 0.0214247 12.9995 0.0642742L0.064674 12.9191C0.021558 13.369 0 13.819 0 14.2796V41.8425L21.0514 20.9213H41.3267V41.0712L20.2645 61.9925H47.9989C48.4624 61.9925 48.9259 61.9711 49.3786 61.9282L62.3026 49.0734Z" fill="#28348B"/>
<path d="M21.4502 42.5707V58.6929L37.6618 42.5707H21.4502Z" fill="#ED6C70"/>
<path d="M19.5316 44.2209H0V59.5931H19.5316V44.2209Z" fill="#58AB34"/>
<path d="M19.5317 42.3247V41.0714V24.5529L1.66016 42.3247H19.5317Z" fill="#50BDD6"/>
<path d="M0 61.4892V80.0002L18.6261 61.4892H0Z" fill="#F9B234"/>
</g>
<defs>
<clipPath id="clip0">
<rect width="185" height="80" fill="white"/>
</clipPath>
</defs>
</svg>
