<svg width="222" height="40" viewBox="0 0 222 40" fill="none" xmlns="http://www.w3.org/2000/svg">
<g clip-path="url(#clip0)">
<path d="M20.9159 20.7122L1.73617 39.7031C1.09693 40.3362 0 39.888 0 38.9916V21.1021L10.6548 10.5508V20.7122H20.9159Z" fill="#ED6C71"/>
<path d="M24.3218 0H6.61485L0 6.55061V31.2642H24.9584L31.5707 24.7161V7.17858C31.5707 3.21327 28.326 0 24.3218 0ZM20.9159 20.7128H10.6548V10.5514H20.9159V20.7128Z" fill="white"/>
<path d="M20.9159 20.7122L1.73617 39.7031C1.09693 40.3362 0 39.888 0 38.9916V21.1021L10.6548 10.5508V20.7122H20.9159Z" fill="#ED6C71"/>
<path d="M20.9159 20.7129L10.6548 30.8718V20.7129H20.9159Z" fill="#C0595C"/>
<path d="M44.5526 4.39844V9.60702H44.0054V4.87448H40.6762V9.60702H40.1265V4.39844H44.5526Z" fill="white"/>
<path d="M47.2168 9.30498C46.7923 9.07456 46.4625 8.75804 46.2247 8.35543C45.9869 7.95282 45.8667 7.50211 45.8667 7.00075C45.8667 6.49938 45.9843 6.04867 46.2247 5.64606C46.4625 5.24345 46.7923 4.92693 47.2168 4.69651C47.6412 4.46609 48.1117 4.34961 48.6333 4.34961C49.1549 4.34961 49.6229 4.46356 50.0422 4.69145C50.459 4.91934 50.7888 5.23585 51.0292 5.64099C51.2696 6.04613 51.3897 6.49685 51.3897 6.99821C51.3897 7.49957 51.2696 7.95282 51.0292 8.35543C50.7888 8.75804 50.459 9.07709 50.0422 9.30498C49.6229 9.53287 49.1549 9.64682 48.6333 9.64682C48.1117 9.64682 47.6387 9.5354 47.2168 9.30498ZM49.7584 8.88212C50.0933 8.69727 50.3567 8.43899 50.5485 8.10728C50.7377 7.77811 50.8349 7.40842 50.8349 7.00328C50.8349 6.59561 50.7403 6.22845 50.5485 5.89927C50.3567 5.57009 50.0959 5.31182 49.7584 5.12444C49.4234 4.93959 49.0476 4.84591 48.6308 4.84591C48.214 4.84591 47.8381 4.93959 47.5006 5.12444C47.1631 5.30928 46.8972 5.56756 46.7054 5.89927C46.5136 6.22845 46.4164 6.59814 46.4164 7.00328C46.4164 7.41095 46.5136 7.77811 46.7054 8.10728C46.8972 8.43646 47.1631 8.69474 47.5006 8.88212C47.8381 9.06949 48.2165 9.16065 48.6308 9.16065C49.045 9.16065 49.4234 9.06696 49.7584 8.88212Z" fill="white"/>
<path d="M56.2661 4.87448C56.6471 5.19099 56.8363 5.62905 56.8363 6.18359C56.8363 6.73812 56.6471 7.17365 56.2661 7.49016C55.8851 7.80415 55.3584 7.96367 54.6885 7.96367H53.277V9.60702H52.7222V4.39844H54.691C55.3584 4.39844 55.8851 4.55796 56.2661 4.87448ZM55.8672 7.14073C56.1434 6.91537 56.2815 6.59632 56.2815 6.18359C56.2815 5.76325 56.1434 5.43914 55.8672 5.21378C55.5911 4.98842 55.1947 4.87448 54.6731 4.87448H53.277V7.4775H54.6731C55.1947 7.48004 55.5936 7.36609 55.8672 7.14073Z" fill="white"/>
<path d="M61.247 4.87448H59.3983V9.60702H58.8511V4.87448H57.0024V4.39844H61.247V4.87448Z" fill="white"/>
<path d="M65.3277 8.21689H62.3974L61.7659 9.60702H61.188L63.5915 4.39844H64.1413L66.5448 9.60702H65.9593L65.3277 8.21689ZM65.1231 7.7687L63.86 4.9707L62.5969 7.7687H65.1231Z" fill="white"/>
<path d="M71.6895 4.39844V9.60702H71.1423V4.87448H68.6032L68.5444 6.61658C68.5188 7.3357 68.46 7.91556 68.368 8.35362C68.2759 8.79168 68.1327 9.12085 67.9435 9.33608C67.7517 9.55131 67.5012 9.6602 67.1841 9.6602C67.0486 9.6602 66.908 9.64247 66.7622 9.60702L66.8082 9.11579C66.8926 9.13604 66.977 9.14617 67.0563 9.14617C67.2762 9.14617 67.4551 9.06008 67.5932 8.88536C67.7313 8.71065 67.8336 8.44224 67.9052 8.07762C67.9768 7.71299 68.0228 7.23189 68.0484 6.63177L68.1225 4.40097H71.6895V4.39844Z" fill="white"/>
<path d="M76.3227 9.30498C75.8983 9.07456 75.5684 8.75804 75.3306 8.35543C75.0928 7.95282 74.9727 7.50211 74.9727 7.00075C74.9727 6.49938 75.0903 6.04867 75.3306 5.64606C75.5684 5.24345 75.8983 4.92693 76.3227 4.69651C76.7472 4.46609 77.2177 4.34961 77.7393 4.34961C78.2609 4.34961 78.7288 4.46356 79.1482 4.69145C79.565 4.91934 79.8948 5.23585 80.1352 5.64099C80.3755 6.04613 80.4957 6.49685 80.4957 6.99821C80.4957 7.49957 80.3755 7.95282 80.1352 8.35543C79.8948 8.75804 79.565 9.07709 79.1482 9.30498C78.7288 9.53287 78.2609 9.64682 77.7393 9.64682C77.2177 9.64682 76.7446 9.5354 76.3227 9.30498ZM78.8643 8.88212C79.1993 8.69727 79.4627 8.43899 79.6544 8.10728C79.8437 7.77811 79.9408 7.40842 79.9408 7.00328C79.9408 6.59561 79.8462 6.22845 79.6544 5.89927C79.4627 5.57009 79.2019 5.31182 78.8643 5.12444C78.5294 4.93959 78.1535 4.84591 77.7367 4.84591C77.3199 4.84591 76.9441 4.93959 76.6066 5.12444C76.269 5.30928 76.0031 5.56756 75.8113 5.89927C75.6196 6.22845 75.5224 6.59814 75.5224 7.00328C75.5224 7.41095 75.6196 7.77811 75.8113 8.10728C76.0031 8.43646 76.269 8.69474 76.6066 8.88212C76.9441 9.06949 77.3225 9.16065 77.7367 9.16065C78.151 9.16065 78.5294 9.06696 78.8643 8.88212Z" fill="white"/>
<path d="M85.1904 4.87448H83.3417V9.60702H82.7945V4.87448H80.9458V4.39844H85.1904V4.87448Z" fill="white"/>
<path d="M87.9108 7.21923H86.7091V9.60702H86.167V4.39844H86.7091V6.73559H87.9108L89.6905 4.39844H90.2914L88.3379 6.92803L90.4039 9.60702H89.7646L87.9108 7.21923Z" fill="white"/>
<path d="M94.8071 4.87448C95.1881 5.19099 95.3773 5.62905 95.3773 6.18359C95.3773 6.73812 95.1881 7.17365 94.8071 7.49016C94.4261 7.80415 93.8994 7.96367 93.2295 7.96367H91.818V9.60702H91.2632V4.39844H93.232C93.902 4.39844 94.4261 4.55796 94.8071 4.87448ZM94.4082 7.14073C94.6844 6.91537 94.8225 6.59632 94.8225 6.18359C94.8225 5.76325 94.6844 5.43914 94.4082 5.21378C94.1321 4.98842 93.7358 4.87448 93.2141 4.87448H91.818V7.4775H93.2141C93.7358 7.48004 94.1347 7.36609 94.4082 7.14073Z" fill="white"/>
<path d="M100.146 6.67482C100.473 6.95335 100.637 7.35849 100.637 7.8953C100.637 8.45491 100.463 8.8803 100.115 9.1715C99.7673 9.46269 99.2636 9.60702 98.609 9.60702H96.52V4.39844H97.0698V6.25955H98.7216C99.3429 6.25955 99.8185 6.39882 100.146 6.67482ZM99.7009 8.84738C99.954 8.63469 100.079 8.31817 100.079 7.9029C100.079 7.10528 99.5832 6.7052 98.5911 6.7052H97.0672V9.16896H98.5911C99.0795 9.16896 99.4477 9.06262 99.7009 8.84738ZM101.547 4.39844H102.094V9.60702H101.547V4.39844Z" fill="white"/>
<path d="M107.308 4.87448H105.459V9.60702H104.912V4.87448H103.063V4.39844H107.308V4.87448Z" fill="white"/>
<path d="M109.101 9.30498C108.676 9.07456 108.346 8.75804 108.108 8.35543C107.871 7.95282 107.75 7.50211 107.75 7.00075C107.75 6.49938 107.868 6.04867 108.108 5.64606C108.346 5.24345 108.676 4.92693 109.101 4.69651C109.525 4.46609 109.995 4.34961 110.517 4.34961C111.039 4.34961 111.507 4.46356 111.926 4.69145C112.343 4.91934 112.673 5.23585 112.913 5.64099C113.153 6.04613 113.274 6.49685 113.274 6.99821C113.274 7.49957 113.153 7.95282 112.913 8.35543C112.673 8.75804 112.343 9.07709 111.926 9.30498C111.507 9.53287 111.039 9.64682 110.517 9.64682C109.995 9.64682 109.525 9.5354 109.101 9.30498ZM111.645 8.88212C111.98 8.69727 112.243 8.43899 112.435 8.10728C112.624 7.77811 112.721 7.40842 112.721 7.00328C112.721 6.59561 112.627 6.22845 112.435 5.89927C112.243 5.57009 111.982 5.31182 111.645 5.12444C111.31 4.93959 110.934 4.84591 110.517 4.84591C110.1 4.84591 109.724 4.93959 109.387 5.12444C109.049 5.30928 108.784 5.56756 108.592 5.89927C108.4 6.22845 108.303 6.59814 108.303 7.00328C108.303 7.41095 108.4 7.77811 108.592 8.10728C108.784 8.43646 109.049 8.69474 109.387 8.88212C109.724 9.06949 110.103 9.16065 110.517 9.16065C110.931 9.16065 111.307 9.06696 111.645 8.88212Z" fill="white"/>
<path d="M117.947 4.87448H115.145L115.153 9.60702H114.603V4.39844H117.947V4.87448Z" fill="white"/>
<path d="M119.078 9.30498C118.653 9.07456 118.323 8.75804 118.086 8.35543C117.848 7.95282 117.728 7.50211 117.728 7.00075C117.728 6.49938 117.845 6.04867 118.086 5.64606C118.323 5.24345 118.653 4.92693 119.078 4.69651C119.502 4.46609 119.973 4.34961 120.494 4.34961C121.016 4.34961 121.484 4.46356 121.903 4.69145C122.32 4.91934 122.65 5.23585 122.89 5.64099C123.13 6.04613 123.251 6.49685 123.251 6.99821C123.251 7.49957 123.13 7.95282 122.89 8.35543C122.65 8.75804 122.32 9.07709 121.903 9.30498C121.484 9.53287 121.016 9.64682 120.494 9.64682C119.973 9.64682 119.502 9.5354 119.078 9.30498ZM121.622 8.88212C121.957 8.69727 122.22 8.43899 122.412 8.10728C122.601 7.77811 122.698 7.40842 122.698 7.00328C122.698 6.59561 122.604 6.22845 122.412 5.89927C122.22 5.57009 121.959 5.31182 121.622 5.12444C121.287 4.93959 120.911 4.84591 120.494 4.84591C120.077 4.84591 119.702 4.93959 119.364 5.12444C119.026 5.30928 118.761 5.56756 118.569 5.89927C118.377 6.22845 118.28 6.59814 118.28 7.00328C118.28 7.41095 118.377 7.77811 118.569 8.10728C118.761 8.43646 119.026 8.69474 119.364 8.88212C119.702 9.06949 120.08 9.16065 120.494 9.16065C120.908 9.16065 121.284 9.06696 121.622 8.88212Z" fill="white"/>
<path d="M130.975 4.39844V9.60702H130.428V4.87448H127.099V9.60702H126.549V4.39844H130.975Z" fill="white"/>
<path d="M136.293 4.87448C136.674 5.19099 136.864 5.62905 136.864 6.18359C136.864 6.73812 136.674 7.17365 136.293 7.49016C135.912 7.80415 135.386 7.96367 134.716 7.96367H133.304V9.60702H132.75V4.39844H134.718C135.388 4.39844 135.912 4.55796 136.293 4.87448ZM135.895 7.14073C136.171 6.91537 136.309 6.59632 136.309 6.18359C136.309 5.76325 136.171 5.43914 135.895 5.21378C135.618 4.98842 135.222 4.87448 134.7 4.87448H133.304V7.4775H134.7C135.222 7.48004 135.621 7.36609 135.895 7.14073Z" fill="white"/>
<path d="M141.111 8.21689H138.181L137.549 9.60702H136.971L139.375 4.39844H139.924L142.328 9.60702H141.742L141.111 8.21689ZM140.906 7.7687L139.643 4.9707L138.38 7.7687H140.906Z" fill="white"/>
<path d="M147.286 7.35596C147.478 7.57119 147.572 7.85226 147.572 8.19916C147.572 8.64988 147.411 8.99678 147.087 9.23986C146.764 9.48295 146.289 9.60449 145.662 9.60449H143.333V4.39844H145.519C146.079 4.39844 146.519 4.51238 146.834 4.74027C147.148 4.96817 147.307 5.29734 147.307 5.73033C147.307 6.02406 147.232 6.26968 147.082 6.46972C146.931 6.66975 146.721 6.82168 146.45 6.92043C146.818 6.9964 147.094 7.14073 147.286 7.35596ZM143.883 6.75838H145.491C145.898 6.75838 146.21 6.67735 146.427 6.51276C146.644 6.34817 146.754 6.11015 146.754 5.7987C146.754 5.48725 146.644 5.24923 146.427 5.08464C146.21 4.92006 145.898 4.83903 145.491 4.83903H143.883V6.75838ZM147.023 8.16371C147.023 7.50789 146.57 7.18124 145.662 7.18124H143.883V9.16896H145.662C146.57 9.16896 147.023 8.83472 147.023 8.16371Z" fill="white"/>
<path d="M148.961 4.39844H149.511V8.71318L152.876 4.39844H153.379V9.60702H152.832V5.29987L149.467 9.60702H148.963V4.39844H148.961Z" fill="white"/>
<path d="M158.593 4.87448H156.744V9.60702H156.197V4.87448H154.348V4.39844H158.593V4.87448Z" fill="white"/>
<path d="M163.287 9.13098V9.60702H159.569V4.39844H163.175V4.87448H160.124V6.72799H162.845V7.19644H160.124V9.13098H163.287Z" fill="white"/>
<path d="M168.644 4.39844V9.60702H168.097V4.87448H165.558L165.499 6.61658C165.473 7.3357 165.415 7.91556 165.323 8.35362C165.231 8.79168 165.087 9.12085 164.898 9.33608C164.706 9.55131 164.456 9.6602 164.139 9.6602C164.003 9.6602 163.863 9.64247 163.717 9.60702L163.763 9.11579C163.847 9.13604 163.932 9.14617 164.011 9.14617C164.231 9.14617 164.41 9.06008 164.548 8.88536C164.686 8.71065 164.788 8.44224 164.86 8.07762C164.931 7.71299 164.977 7.23189 165.003 6.63177L165.077 4.40097H168.644V4.39844Z" fill="white"/>
<path d="M174.042 6.67482C174.369 6.95335 174.533 7.35849 174.533 7.8953C174.533 8.45491 174.359 8.8803 174.011 9.1715C173.663 9.46269 173.16 9.60702 172.505 9.60702H170.416V4.39844H170.966V6.25955H172.618C173.239 6.25955 173.714 6.39882 174.042 6.67482ZM173.599 8.84738C173.853 8.63469 173.978 8.31817 173.978 7.9029C173.978 7.10528 173.482 6.7052 172.49 6.7052H170.966V9.16896H172.49C172.976 9.16896 173.346 9.06262 173.599 8.84738Z" fill="white"/>
<path d="M176.642 9.31084C176.223 9.08295 175.896 8.76643 175.658 8.36129C175.42 7.95615 175.3 7.50543 175.3 7.00407C175.3 6.50271 175.417 6.04946 175.658 5.64685C175.898 5.24424 176.225 4.9252 176.645 4.69731C177.067 4.46941 177.537 4.35547 178.056 4.35547C178.447 4.35547 178.808 4.41877 179.138 4.54791C179.468 4.67705 179.749 4.86443 179.979 5.11257L179.626 5.46201C179.215 5.04927 178.698 4.84417 178.072 4.84417C177.655 4.84417 177.279 4.93786 176.936 5.12777C176.596 5.31514 176.328 5.57342 176.136 5.9026C175.944 6.22924 175.847 6.5964 175.847 7.00407C175.847 7.41175 175.944 7.7789 176.136 8.10555C176.328 8.43219 176.596 8.69047 176.936 8.88038C177.276 9.06776 177.655 9.16398 178.072 9.16398C178.703 9.16398 179.222 8.95634 179.626 8.53854L179.979 8.88797C179.749 9.13612 179.468 9.32603 179.133 9.4577C178.8 9.58937 178.437 9.65521 178.046 9.65521C177.529 9.65268 177.059 9.53873 176.642 9.31084Z" fill="white"/>
<path d="M184.505 4.87448H182.656V9.60702H182.109V4.87448H180.26V4.39844H184.505V4.87448Z" fill="white"/>
<path d="M189.432 7.35596C189.624 7.57119 189.718 7.85226 189.718 8.19916C189.718 8.64988 189.557 8.99678 189.233 9.23986C188.91 9.48295 188.435 9.60449 187.808 9.60449H185.479V4.39844H187.665C188.225 4.39844 188.665 4.51238 188.979 4.74027C189.294 4.96817 189.453 5.29734 189.453 5.73033C189.453 6.02406 189.378 6.26968 189.227 6.46972C189.077 6.66975 188.867 6.82168 188.596 6.92043C188.964 6.9964 189.243 7.14073 189.432 7.35596ZM186.029 6.75838H187.637C188.044 6.75838 188.356 6.67735 188.573 6.51276C188.79 6.34817 188.9 6.11015 188.9 5.7987C188.9 5.48725 188.79 5.24923 188.573 5.08464C188.356 4.92006 188.044 4.83903 187.637 4.83903H186.029V6.75838ZM189.169 8.16371C189.169 7.50789 188.716 7.18124 187.808 7.18124H186.029V9.16896H187.808C188.716 9.16896 189.169 8.83472 189.169 8.16371Z" fill="white"/>
<path d="M194.475 8.21689H191.544L190.913 9.60702H190.335L192.738 4.39844H193.288L195.692 9.60702H195.106L194.475 8.21689ZM194.27 7.7687L193.007 4.9707L191.744 7.7687H194.27Z" fill="white"/>
<path d="M204.255 4.69731C204.656 4.9252 204.971 5.24171 205.199 5.64685C205.426 6.05199 205.541 6.50271 205.541 7.00407C205.541 7.50543 205.426 7.95868 205.199 8.36129C204.971 8.76643 204.656 9.08295 204.255 9.31084C203.854 9.53873 203.406 9.65268 202.91 9.65268C202.44 9.65268 202.01 9.54886 201.626 9.34122C201.24 9.13359 200.931 8.8424 200.696 8.47017C200.461 8.09795 200.328 7.68015 200.297 7.21171H199.215V9.6071H198.666V4.39851H199.215V6.71288H200.305C200.345 6.26216 200.484 5.85702 200.721 5.49746C200.959 5.1379 201.269 4.85683 201.649 4.65679C202.03 4.45675 202.45 4.35547 202.913 4.35547C203.406 4.35547 203.856 4.46941 204.255 4.69731ZM203.971 8.88291C204.286 8.69807 204.534 8.43979 204.715 8.11314C204.897 7.7865 204.986 7.41681 204.986 7.00407C204.986 6.59134 204.897 6.22165 204.715 5.895C204.534 5.56836 204.288 5.31008 203.971 5.12523C203.657 4.94039 203.301 4.8467 202.913 4.8467C202.527 4.8467 202.176 4.94039 201.862 5.12523C201.547 5.31008 201.299 5.56836 201.118 5.895C200.936 6.22165 200.847 6.59134 200.847 7.00407C200.847 7.41681 200.936 7.78397 201.118 8.11314C201.299 8.43979 201.545 8.69807 201.862 8.88291C202.176 9.06776 202.527 9.16144 202.913 9.16144C203.301 9.16144 203.654 9.06776 203.971 8.88291Z" fill="white"/>
<path d="M210.213 4.87448H207.41L207.418 9.60702H206.868V4.39844H210.213V4.87448Z" fill="white"/>
<path d="M214.713 4.87448C215.094 5.19099 215.283 5.62905 215.283 6.18359C215.283 6.73812 215.094 7.17365 214.713 7.49016C214.332 7.80415 213.805 7.96367 213.135 7.96367H211.724V9.60702H211.169V4.39844H213.138C213.808 4.39844 214.332 4.55796 214.713 4.87448ZM214.317 7.14073C214.593 6.91537 214.731 6.59632 214.731 6.18359C214.731 5.76325 214.593 5.43914 214.317 5.21378C214.04 4.98842 213.644 4.87448 213.122 4.87448H211.726V7.4775H213.122C213.642 7.48004 214.04 7.36609 214.317 7.14073Z" fill="white"/>
<path d="M220.052 6.67482C220.379 6.95335 220.542 7.35849 220.542 7.8953C220.542 8.45491 220.369 8.8803 220.021 9.1715C219.673 9.46269 219.169 9.60702 218.515 9.60702H216.426V4.39844H216.976V6.25955H218.627C219.249 6.25955 219.724 6.39882 220.052 6.67482ZM219.607 8.84738C219.86 8.63469 219.985 8.31817 219.985 7.9029C219.985 7.10528 219.489 6.7052 218.497 6.7052H216.973V9.16896H218.497C218.985 9.16896 219.356 9.06262 219.607 8.84738ZM221.453 4.39844H222V9.60702H221.453V4.39844Z" fill="white"/>
<path d="M41.9853 24.8379C41.2975 24.4707 40.7606 23.9592 40.3694 23.3085C39.9781 22.6552 39.7812 21.9259 39.7812 21.1207C39.7812 20.3155 39.9756 19.5837 40.3694 18.933C40.7606 18.2797 41.3001 17.7707 41.9853 17.4036C42.6732 17.0364 43.4428 16.8516 44.2968 16.8516C45.1509 16.8516 45.9231 17.0364 46.6083 17.4036C47.2961 17.7707 47.8331 18.2797 48.2243 18.9279C48.6155 19.5761 48.8124 20.3079 48.8124 21.1233C48.8124 21.9386 48.6155 22.6704 48.2243 23.3186C47.8331 23.9668 47.2936 24.4758 46.6083 24.843C45.9205 25.2101 45.1509 25.395 44.2968 25.395C43.4428 25.3899 42.6706 25.2076 41.9853 24.8379ZM45.8054 23.6655C46.2529 23.4174 46.6032 23.0679 46.8589 22.6223C47.1146 22.1766 47.2424 21.6753 47.2424 21.1207C47.2424 20.5662 47.1146 20.0674 46.8589 19.6192C46.6032 19.1735 46.2529 18.8241 45.8054 18.5759C45.358 18.3278 44.8543 18.2012 44.2968 18.2012C43.7369 18.2012 43.2357 18.3253 42.7882 18.5759C42.3408 18.8266 41.9905 19.1735 41.7348 19.6192C41.4791 20.0674 41.3512 20.5662 41.3512 21.1207C41.3512 21.6753 41.4791 22.1741 41.7348 22.6223C41.9905 23.0679 42.3408 23.4174 42.7882 23.6655C43.2357 23.9137 43.7394 24.0403 44.2968 24.0403C44.8568 24.0377 45.358 23.9137 45.8054 23.6655Z" fill="white"/>
<path d="M56.5035 18.2728H53.7241V25.2716H52.1797V18.2728H49.4131V16.9688H56.5035V18.2728Z" fill="white"/>
<path d="M60.9351 21.7722H59.3779V25.2716H57.8438V16.9688H59.3779V20.4454H60.9837L63.3923 16.9688H65.0441L62.1803 20.9898L65.1515 25.2716H63.3898L60.9351 21.7722Z" fill="white"/>
<path d="M71.5669 17.3232C72.1065 17.5613 72.5181 17.9006 72.8071 18.3437C73.0934 18.7868 73.2392 19.3135 73.2392 19.9212C73.2392 20.5213 73.096 21.0455 72.8071 21.4937C72.5181 21.9418 72.1065 22.2837 71.5669 22.5192C71.0274 22.7572 70.3958 22.8762 69.6671 22.8762H67.775V25.2716H66.2178V16.9688H69.6671C70.3958 16.9688 71.0274 17.0878 71.5669 17.3232ZM71.1425 21.1442C71.4928 20.8606 71.6692 20.453 71.6692 19.9212C71.6692 19.392 71.4928 18.9843 71.1425 18.6982C70.7922 18.4146 70.2757 18.2703 69.5981 18.2703H67.7775V21.5671H69.5981C70.2757 21.5722 70.7896 21.4278 71.1425 21.1442Z" fill="white"/>
<path d="M80.8998 20.4504C81.4393 20.8961 81.7078 21.5595 81.7078 22.4381C81.7078 23.3548 81.4112 24.0587 80.8205 24.5449C80.2299 25.031 79.3988 25.2741 78.3275 25.2741H74.7222V16.9688H76.2563V19.7794H78.5806C79.5881 19.7794 80.3603 20.0022 80.8998 20.4504ZM79.6597 23.6713C79.9869 23.3953 80.1506 22.9901 80.1506 22.4609C80.1506 21.4557 79.519 20.9543 78.2584 20.9543H76.2589V24.0866H78.2584C78.8644 24.0866 79.3324 23.9473 79.6597 23.6713ZM82.9172 16.9688H84.4514V25.2716H82.9172V16.9688Z" fill="white"/>
<path d="M92.8971 18.2728H90.1177V25.2716H88.5733V18.2728H85.8066V16.9688H92.8971V18.2728Z" fill="white"/>
<path d="M100.425 20.4504C100.964 20.8961 101.233 21.5595 101.233 22.4381C101.233 23.3548 100.936 24.0587 100.345 24.5449C99.7548 25.031 98.9237 25.2741 97.8524 25.2741H94.2471V16.9688H95.7812V19.7794H98.1055C99.113 19.7794 99.8852 20.0022 100.425 20.4504ZM99.1845 23.6713C99.5118 23.3953 99.6755 22.9901 99.6755 22.4609C99.6755 21.4557 99.0439 20.9543 97.7833 20.9543H95.7838V24.0866H97.7833C98.3893 24.0866 98.8573 23.9473 99.1845 23.6713ZM102.442 16.9688H103.976V25.2716H102.442V16.9688Z" fill="white"/>
<path d="M106.349 16.9684H107.883V22.8632L112.389 16.9684H113.838V25.2712H112.304V19.3891L107.799 25.2712H106.349V16.9684ZM108.451 15.9707C108.088 15.677 107.901 15.2516 107.894 14.6895H108.983C108.99 14.9832 109.088 15.2085 109.269 15.3655C109.453 15.5251 109.719 15.6036 110.072 15.6036C110.415 15.6036 110.686 15.5251 110.88 15.3655C111.077 15.2085 111.177 14.9832 111.187 14.6895H112.266C112.258 15.244 112.069 15.6694 111.698 15.9656C111.327 16.2619 110.785 16.4113 110.075 16.4113C109.356 16.4113 108.814 16.2644 108.451 15.9707Z" fill="white"/>
<path d="M124.838 17.3232C125.378 17.5613 125.79 17.9006 126.079 18.3437C126.365 18.7868 126.511 19.3135 126.511 19.9212C126.511 20.5213 126.367 21.0455 126.079 21.4937C125.79 21.9418 125.378 22.2837 124.838 22.5192C124.299 22.7572 123.667 22.8762 122.939 22.8762H121.046V25.2716H119.489V16.9688H122.939C123.665 16.9688 124.299 17.0878 124.838 17.3232ZM124.411 21.1442C124.762 20.8606 124.938 20.453 124.938 19.9212C124.938 19.392 124.762 18.9843 124.411 18.6982C124.061 18.4146 123.545 18.2703 122.867 18.2703H121.046V21.5671H122.867C123.545 21.5722 124.061 21.4278 124.411 21.1442Z" fill="white"/>
<path d="M134.271 23.9802V25.2741H127.981V16.9688H134.102V18.2627H129.538V20.4226H133.586V21.6912H129.538V23.9802H134.271Z" fill="white"/>
<path d="M141.699 18.2728H137.541L137.554 25.2716H136.02V16.9688H141.709L141.699 18.2728Z" fill="white"/>
<path d="M143.028 16.9688H144.562V22.8635L149.068 16.9688H150.518V25.2716H148.983V19.3895L144.478 25.2716H143.028V16.9688Z" fill="white"/>
<path d="M154.433 24.8379C153.745 24.4707 153.208 23.9592 152.817 23.3085C152.425 22.6552 152.229 21.9259 152.229 21.1207C152.229 20.3155 152.423 19.5837 152.817 18.933C153.208 18.2797 153.747 17.7707 154.433 17.4036C155.12 17.0364 155.89 16.8516 156.744 16.8516C157.598 16.8516 158.37 17.0364 159.056 17.4036C159.743 17.7707 160.28 18.2797 160.672 18.9279C161.063 19.5761 161.26 20.3079 161.26 21.1233C161.26 21.9386 161.063 22.6704 160.672 23.3186C160.28 23.9668 159.741 24.4758 159.056 24.843C158.368 25.2101 157.598 25.395 156.744 25.395C155.89 25.3899 155.118 25.2076 154.433 24.8379ZM158.253 23.6655C158.7 23.4174 159.05 23.0679 159.306 22.6223C159.562 22.1766 159.69 21.6753 159.69 21.1207C159.69 20.5662 159.562 20.0674 159.306 19.6192C159.05 19.1735 158.7 18.8241 158.253 18.5759C157.805 18.3278 157.302 18.2012 156.744 18.2012C156.184 18.2012 155.683 18.3253 155.235 18.5759C154.788 18.8266 154.438 19.1735 154.182 19.6192C153.926 20.0674 153.798 20.5662 153.798 21.1207C153.798 21.6753 153.926 22.1741 154.182 22.6223C154.438 23.0679 154.788 23.4174 155.235 23.6655C155.683 23.9137 156.187 24.0403 156.744 24.0403C157.302 24.0377 157.805 23.9137 158.253 23.6655Z" fill="white"/>
<path d="M170.436 16.9688V25.2716H168.879V21.714H164.543V25.2716H162.985V16.9688H164.543V20.3972H168.879V16.9688H170.436Z" fill="white"/>
<path d="M174.917 21.4883H180.905V22.4606H174.917V21.4883Z" fill="white"/>
<path d="M194.784 17.4016C195.444 17.7688 195.96 18.2777 196.336 18.926C196.712 19.5742 196.899 20.306 196.899 21.1213C196.899 21.9366 196.712 22.6684 196.336 23.3167C195.96 23.9649 195.444 24.4738 194.784 24.841C194.124 25.2082 193.385 25.393 192.562 25.393C191.81 25.393 191.125 25.2385 190.506 24.9296C189.887 24.6207 189.381 24.1902 188.985 23.6357C188.589 23.0812 188.343 22.4532 188.248 21.7493H186.932V25.2715H185.397V16.9686H186.932V20.3743H188.274C188.387 19.6856 188.64 19.0753 189.033 18.5411C189.427 18.0068 189.931 17.5915 190.542 17.2953C191.153 16.999 191.826 16.8496 192.56 16.8496C193.383 16.8496 194.124 17.0345 194.784 17.4016ZM193.973 23.6712C194.398 23.4255 194.728 23.0812 194.968 22.638C195.209 22.1949 195.329 21.6885 195.329 21.1188C195.329 20.549 195.209 20.0426 194.968 19.5995C194.728 19.1564 194.398 18.812 193.973 18.5664C193.549 18.3208 193.079 18.1992 192.56 18.1992C192.04 18.1992 191.57 18.3208 191.153 18.5664C190.734 18.812 190.401 19.1564 190.159 19.5995C189.916 20.0426 189.793 20.549 189.793 21.1188C189.793 21.6885 189.916 22.1949 190.159 22.638C190.401 23.0812 190.734 23.4255 191.153 23.6712C191.573 23.9168 192.04 24.0383 192.56 24.0383C193.081 24.0383 193.552 23.9168 193.973 23.6712Z" fill="white"/>
<path d="M204.324 18.2728H200.166L200.179 25.2716H198.645V16.9688H204.334L204.324 18.2728Z" fill="white"/>
<path d="M210.99 17.3232C211.529 17.5613 211.941 17.9006 212.23 18.3437C212.516 18.7868 212.662 19.3135 212.662 19.9212C212.662 20.5213 212.519 21.0455 212.23 21.4937C211.941 21.9418 211.529 22.2837 210.99 22.5192C210.45 22.7572 209.819 22.8762 209.09 22.8762H207.198V25.2716H205.641V16.9688H209.09C209.819 16.9688 210.45 17.0878 210.99 17.3232ZM210.565 21.1442C210.916 20.8606 211.092 20.453 211.092 19.9212C211.092 19.392 210.916 18.9843 210.565 18.6982C210.215 18.4146 209.699 18.2703 209.021 18.2703H207.2V21.5671H209.021C209.699 21.5722 210.212 21.4278 210.565 21.1442Z" fill="white"/>
<path d="M219.274 23.3497H215.081L214.255 25.2716H212.649L216.423 16.9688H217.958L221.742 25.2716H220.113L219.274 23.3497ZM218.758 22.1394L217.178 18.5083L215.608 22.1394H218.758Z" fill="white"/>
</g>
<defs>
<clipPath id="clip0">
<rect width="222" height="40" fill="white"/>
</clipPath>
</defs>
</svg>
