<svg width="219" height="80" viewBox="0 0 219 80" fill="none" xmlns="http://www.w3.org/2000/svg">
<path d="M48.0285 0H14.3813C13.9154 0 13.4629 0.0266711 13.0104 0.0666778L0.0665492 13.0288C0.0266197 13.4822 0 13.9423 0 14.4091V48.1214C0 56.076 6.43531 62.5238 14.3813 62.5238H48.0285C48.4944 62.5238 48.9536 62.4971 49.4061 62.4571L62.3433 49.4949C62.3832 49.0415 62.4098 48.5814 62.4098 48.1147V14.4091C62.4032 6.44774 55.9678 0 48.0285 0ZM41.3403 41.4202H21.0628V21.1035H41.347V41.4202H41.3403Z" fill="#27348B"/>
<path d="M41.3403 41.4202L3.43394 79.4066C2.1695 80.6734 0 79.7733 0 77.9797V42.207L21.0628 21.1035V41.4269H41.3403V41.4202Z" fill="#55A932"/>
<path d="M41.3405 41.4199L21.063 61.7433V41.4199H41.3405Z" fill="#008D36"/>
<path d="M78.335 4.32031H79.9654V10.668L84.7636 4.32031H86.3076V13.2685H84.6771V6.92741L79.8789 13.2685H78.335V4.32031Z" fill="#202020"/>
<path d="M96.7354 4.32031V13.2685H95.0783V9.4345H90.4598V13.2685H88.8027V4.32031H90.4598V8.01426H95.0783V4.32031H96.7354Z" fill="#202020"/>
<path d="M99.251 4.32031H100.881V10.668L105.68 4.32031H107.224V13.2685H105.593V6.92741L100.795 13.2685H99.251V4.32031Z" fill="#202020"/>
<path d="M118.837 11.8549V15.2288H117.306V13.2618H109.733V4.32031H111.363V11.8616H115.869V4.32031H117.512V11.8616H118.837V11.8549Z" fill="#202020"/>
<path d="M120.367 4.32031H121.998V10.668L126.796 4.32031H128.34V13.2685H126.709V6.92741L121.911 13.2685H120.367V4.32031Z" fill="#202020"/>
<path d="M136.758 11.1956H132.293L131.414 13.2626H129.704L133.724 4.31445H135.354L139.387 13.2626H137.65L136.758 11.1956ZM136.213 9.88872L134.529 5.9814L132.859 9.88872H136.213Z" fill="#202020"/>
<path d="M146.787 5.72055H143.826V13.2618H142.182V5.72055H139.234V4.32031H146.787V5.72055Z" fill="#202020"/>
<path d="M148.225 4.32031H149.855V10.668L154.653 4.32031H156.197V13.2685H154.567V6.92741L149.769 13.2685H148.225V4.32031Z" fill="#202020"/>
<path d="M165.88 9.39449C166.18 9.76789 166.326 10.228 166.326 10.7814C166.326 11.5682 166.04 12.175 165.461 12.6084C164.882 13.0418 164.043 13.2618 162.945 13.2618H158.713V4.32031H162.706C163.711 4.32031 164.489 4.52035 165.055 4.92041C165.614 5.32048 165.9 5.88724 165.9 6.6207C165.9 7.08744 165.787 7.49417 165.561 7.83423C165.335 8.17429 165.008 8.43433 164.583 8.61436C165.148 8.76772 165.581 9.02776 165.88 9.39449ZM160.343 8.14095H162.559C163.098 8.14095 163.504 8.03426 163.784 7.82089C164.063 7.60753 164.203 7.29414 164.203 6.87407C164.203 6.454 164.063 6.14062 163.784 5.92058C163.504 5.70054 163.098 5.59386 162.559 5.59386H160.343V8.14095ZM164.656 10.6547C164.656 9.78789 164.07 9.34782 162.892 9.34782H160.343V11.9816H162.892C164.063 11.9816 164.656 11.5415 164.656 10.6547Z" fill="#202020"/>
<path d="M176.142 4.32031V13.2685H174.485V9.4345H169.867V13.2685H168.209V4.32031H169.867V8.01426H174.485V4.32031H176.142Z" fill="#202020"/>
<path d="M180.315 12.7956C179.582 12.4022 179.01 11.8488 178.591 11.1487C178.172 10.4485 177.965 9.66175 177.965 8.78827C177.965 7.91479 178.172 7.13466 178.591 6.42787C179.01 5.72776 179.582 5.17433 180.315 4.78093C181.047 4.38753 181.865 4.1875 182.777 4.1875C183.689 4.1875 184.507 4.38753 185.239 4.78093C185.971 5.17433 186.544 5.72776 186.963 6.42121C187.382 7.12132 187.588 7.90812 187.588 8.78827C187.588 9.66841 187.382 10.4552 186.963 11.1553C186.544 11.8554 185.971 12.4022 185.239 12.7956C184.507 13.189 183.689 13.389 182.777 13.389C181.865 13.389 181.047 13.1957 180.315 12.7956ZM184.381 11.5287C184.86 11.262 185.232 10.8886 185.505 10.4019C185.778 9.92179 185.911 9.3817 185.911 8.78827C185.911 8.19483 185.778 7.65474 185.505 7.17466C185.232 6.69458 184.86 6.32119 184.381 6.04781C183.902 5.77443 183.369 5.64774 182.777 5.64774C182.185 5.64774 181.645 5.7811 181.166 6.04781C180.687 6.31452 180.315 6.68792 180.042 7.17466C179.769 7.65474 179.636 8.19483 179.636 8.78827C179.636 9.3817 179.769 9.92179 180.042 10.4019C180.315 10.8819 180.687 11.2553 181.166 11.5287C181.645 11.7954 182.178 11.9288 182.777 11.9288C183.369 11.9355 183.908 11.8021 184.381 11.5287Z" fill="#202020"/>
<path d="M196.12 11.8682V13.2618H189.425V4.32031H195.94V5.71388H191.082V8.04093H195.395V9.40783H191.082V11.8749H196.12V11.8682Z" fill="#202020"/>
<path d="M78.335 21.5371H85.2827V22.904H79.9654V25.1044H82.6074C83.6789 25.1044 84.4908 25.3244 85.0498 25.7778C85.6088 26.2246 85.8883 26.8713 85.8883 27.7115C85.8883 28.5983 85.5822 29.2784 84.9699 29.7651C84.3577 30.2452 83.4859 30.4853 82.3545 30.4853H78.335V21.5371ZM82.2614 29.2051C82.9002 29.2051 83.386 29.0784 83.7121 28.8317C84.0449 28.585 84.2113 28.2249 84.2113 27.7581C84.2113 26.838 83.5591 26.3779 82.2614 26.3779H79.9654V29.2051H82.2614Z" fill="#202020"/>
<path d="M97.7008 22.0036C98.3995 22.397 98.9519 22.9504 99.3512 23.6439C99.7505 24.344 99.9501 25.1308 99.9501 26.0109C99.9501 26.8911 99.7505 27.6779 99.3512 28.378C98.9519 29.0781 98.3995 29.6249 97.7008 30.0183C97.002 30.4117 96.2101 30.6117 95.3316 30.6117C94.533 30.6117 93.801 30.445 93.1422 30.1116C92.4833 29.7782 91.9443 29.3181 91.525 28.718C91.1057 28.1246 90.8396 27.4445 90.7397 26.6844H89.3355V30.4783H87.7051V21.5368H89.3355V25.2041H90.7663C90.8861 24.464 91.1523 23.8039 91.5782 23.2305C91.9975 22.657 92.5365 22.2103 93.1887 21.8902C93.8409 21.5702 94.553 21.4102 95.3383 21.4102C96.2101 21.4102 96.9953 21.6035 97.7008 22.0036ZM96.8356 28.758C97.2882 28.4913 97.6409 28.1246 97.8938 27.6445C98.1466 27.1644 98.2731 26.6244 98.2731 26.0109C98.2731 25.3975 98.1466 24.8507 97.8938 24.3773C97.6409 23.8972 97.2882 23.5305 96.8356 23.2638C96.3831 22.9971 95.884 22.8704 95.3316 22.8704C94.7793 22.8704 94.2801 23.0038 93.8343 23.2638C93.3884 23.5305 93.0357 23.8972 92.7761 24.3773C92.5166 24.8574 92.3901 25.3975 92.3901 26.0109C92.3901 26.6244 92.5166 27.1711 92.7761 27.6445C93.0357 28.1246 93.3884 28.4913 93.8343 28.758C94.2801 29.0248 94.7793 29.1514 95.3316 29.1514C95.884 29.1514 96.3897 29.0181 96.8356 28.758Z" fill="#202020"/>
<path d="M110.398 29.0776V32.3848H108.867V30.4778H102.02V32.3848H100.476L100.489 29.0776H100.868C101.427 29.0509 101.82 28.6375 102.046 27.8307C102.272 27.0239 102.412 25.8704 102.459 24.3768L102.559 21.543H109.1V29.0842H110.398V29.0776ZM103.637 27.4173C103.49 28.1907 103.264 28.7375 102.945 29.0709H107.47V22.9365H103.976L103.91 24.5235C103.876 25.6837 103.783 26.6505 103.637 27.4173Z" fill="#202020"/>
<path d="M119.755 26.7121H118.224V30.4794H116.607V26.7121H115.076L112.82 30.4794H110.904L113.712 25.812L111.097 21.5312H112.854L115.037 25.2785H116.607V21.5379H118.224V25.2852H119.768L121.964 21.5379H123.728L121.119 25.832L123.914 30.4861H122.004L119.755 26.7121Z" fill="#202020"/>
<path d="M131.774 29.085V30.4786H125.079V21.5371H131.594V22.9307H126.736V25.2577H131.049V26.6246H126.736V29.0917H131.774V29.085Z" fill="#202020"/>
<path d="M140.099 22.944H137.138V30.4853H135.494V22.944H132.546V21.5371H140.099V22.944Z" fill="#202020"/>
<path d="M141.543 21.5371H143.173V27.8848L147.972 21.5371H149.516V30.4853H147.885V24.1442L143.087 30.4853H141.543V21.5371Z" fill="#202020"/>
<path d="M157.708 21.9172C158.28 22.1705 158.719 22.5373 159.026 23.0174C159.332 23.4974 159.485 24.0575 159.485 24.7176C159.485 25.3644 159.332 25.9312 159.026 26.4113C158.719 26.8913 158.28 27.2581 157.708 27.5181C157.136 27.7782 156.457 27.8982 155.685 27.8982H153.668V30.4786H152.011V21.5371H155.685C156.457 21.5371 157.136 21.6638 157.708 21.9172ZM157.255 26.0312C157.628 25.7245 157.814 25.2844 157.814 24.7176C157.814 24.1509 157.628 23.7108 157.255 23.4041C156.883 23.0974 156.33 22.944 155.612 22.944H153.675V26.4979H155.612C156.33 26.4913 156.883 26.3379 157.255 26.0312Z" fill="#202020"/>
<path d="M162.852 30.0124C162.12 29.619 161.548 29.0656 161.128 28.3655C160.709 27.6653 160.503 26.8785 160.503 26.0051C160.503 25.1316 160.709 24.3515 161.128 23.6447C161.548 22.9446 162.12 22.3911 162.852 21.9977C163.584 21.6043 164.403 21.4043 165.314 21.4043C166.226 21.4043 167.045 21.6043 167.777 21.9977C168.509 22.3911 169.081 22.9446 169.5 23.638C169.92 24.3381 170.126 25.1249 170.126 26.0051C170.126 26.8852 169.92 27.672 169.5 28.3721C169.081 29.0722 168.509 29.619 167.777 30.0124C167.045 30.4058 166.226 30.6058 165.314 30.6058C164.403 30.6125 163.584 30.4125 162.852 30.0124ZM166.925 28.7522C167.404 28.4855 167.777 28.1121 168.05 27.6253C168.322 27.1453 168.456 26.6052 168.456 26.0117C168.456 25.4183 168.322 24.8782 168.05 24.3981C167.777 23.9181 167.404 23.5447 166.925 23.2713C166.446 22.9979 165.913 22.8712 165.321 22.8712C164.729 22.8712 164.19 23.0046 163.711 23.2713C163.231 23.538 162.859 23.9114 162.586 24.3981C162.313 24.8782 162.18 25.4183 162.18 26.0117C162.18 26.6052 162.313 27.1453 162.586 27.6253C162.859 28.1054 163.231 28.4788 163.711 28.7522C164.19 29.0189 164.722 29.1523 165.321 29.1523C165.913 29.1523 166.446 29.0189 166.925 28.7522Z" fill="#202020"/>
<path d="M179.143 26.618C179.443 26.9914 179.589 27.4514 179.589 28.0049C179.589 28.7917 179.303 29.3984 178.724 29.8318C178.145 30.2652 177.307 30.4853 176.209 30.4853H171.976V21.5371H175.969C176.974 21.5371 177.753 21.7371 178.318 22.1372C178.877 22.5373 179.163 23.104 179.163 23.8375C179.163 24.3042 179.05 24.711 178.824 25.051C178.598 25.3911 178.272 25.6511 177.846 25.8312C178.411 25.9845 178.844 26.2446 179.143 26.618ZM173.607 25.3577H175.823C176.362 25.3577 176.768 25.2511 177.047 25.0377C177.327 24.8243 177.466 24.5109 177.466 24.0909C177.466 23.6708 177.327 23.3574 177.047 23.1374C176.768 22.9173 176.362 22.8107 175.823 22.8107H173.607V25.3577ZM177.919 27.8715C177.919 27.0047 177.333 26.5646 176.155 26.5646H173.607V29.1984H176.155C177.327 29.2051 177.919 28.7583 177.919 27.8715Z" fill="#202020"/>
<path d="M187.396 28.4124H182.93L182.052 30.4794H180.341L184.361 21.5312H185.991L190.024 30.4794H188.287L187.396 28.4124ZM186.843 27.1055L185.159 23.1982L183.489 27.1055H186.843Z" fill="#202020"/>
<path d="M199.321 21.5371V30.4853H197.664V26.6513H193.046V30.4853H191.389V21.5371H193.046V25.2311H197.664V21.5371H199.321Z" fill="#202020"/>
<path d="M201.83 21.5371H203.461V27.8848L208.259 21.5371H209.803V30.4853H208.172V24.1442L203.374 30.4853H201.83V21.5371Z" fill="#202020"/>
<path d="M219 29.085V30.4786H212.305V21.5371H218.82V22.9307H213.962V25.2577H218.274V26.6246H213.962V29.0917H219V29.085Z" fill="#202020"/>
<path d="M88.3238 39.2204C89.0226 39.6138 89.5749 40.1672 89.9742 40.8607C90.3735 41.5608 90.5732 42.3476 90.5732 43.2277C90.5732 44.1079 90.3735 44.8947 89.9742 45.5948C89.5749 46.2949 89.0226 46.8417 88.3238 47.2351C87.625 47.6284 86.8331 47.8285 85.9547 47.8285C85.1561 47.8285 84.424 47.6618 83.7652 47.3284C83.1064 46.995 82.5673 46.5349 82.148 45.9348C81.7288 45.3414 81.4626 44.6613 81.3628 43.9012H79.9586V47.6951H78.3281V38.7536H79.9586V42.4209H81.3894C81.5092 41.6808 81.7754 41.0207 82.2013 40.4473C82.6205 39.8738 83.1596 39.4271 83.8118 39.107C84.464 38.787 85.176 38.627 85.9613 38.627C86.8331 38.627 87.625 38.827 88.3238 39.2204ZM87.4653 45.9748C87.9179 45.7081 88.2706 45.3414 88.5235 44.8613C88.7763 44.3812 88.9028 43.8412 88.9028 43.2277C88.9028 42.6143 88.7763 42.0675 88.5235 41.5941C88.2706 41.114 87.9179 40.7473 87.4653 40.4806C87.0128 40.2139 86.5137 40.0872 85.9613 40.0872C85.409 40.0872 84.9098 40.2206 84.464 40.4806C84.0181 40.7473 83.6654 41.114 83.4058 41.5941C83.1463 42.0742 83.0198 42.6143 83.0198 43.2277C83.0198 43.8412 83.1463 44.3879 83.4058 44.8613C83.6654 45.3414 84.0181 45.7081 84.464 45.9748C84.9098 46.2416 85.409 46.3682 85.9613 46.3682C86.5137 46.3682 87.0128 46.2349 87.4653 45.9748Z" fill="#202020"/>
<path d="M98.486 40.1608H94.0605L94.0738 47.7021H92.4434V38.7539H98.4993L98.486 40.1608Z" fill="#202020"/>
<path d="M105.58 39.134C106.152 39.3873 106.591 39.7541 106.898 40.2342C107.204 40.7142 107.357 41.2743 107.357 41.9344C107.357 42.5812 107.204 43.148 106.898 43.6281C106.591 44.1081 106.152 44.4749 105.58 44.7349C105.008 44.9949 104.329 45.115 103.557 45.115H101.54V47.6954H99.8833V38.7539H103.557C104.335 38.7539 105.008 38.8806 105.58 39.134ZM105.127 43.2547C105.5 42.9479 105.686 42.5079 105.686 41.9411C105.686 41.3743 105.5 40.9343 105.127 40.6276C104.755 40.3208 104.202 40.1675 103.484 40.1675H101.547V43.7214H103.484C104.209 43.7147 104.755 43.5614 105.127 43.2547Z" fill="#202020"/>
<path d="M115.516 42.5012C116.088 42.9813 116.374 43.6947 116.374 44.6416C116.374 45.6284 116.062 46.3885 115.429 46.9086C114.797 47.4287 113.919 47.6954 112.774 47.6954H108.934V38.7539H110.565V41.7811H113.04C114.118 41.7811 114.943 42.0211 115.516 42.5012ZM114.198 45.9751C114.544 45.6751 114.724 45.2417 114.724 44.6749C114.724 43.5947 114.052 43.0546 112.707 43.0546H110.578V46.4285H112.707C113.353 46.4218 113.845 46.2752 114.198 45.9751ZM117.665 38.7539H119.296V47.7021H117.665V38.7539Z" fill="#202020"/>
<path d="M82.1218 62.4234V63.697H81.7358V62.7835H78.3418V58.8828H78.7477V62.4234H81.0969V58.8828H81.5029V62.4234H82.1218Z" fill="#202020"/>
<path d="M85.6887 62.4234V62.7835H82.9336V58.8828H85.6022V59.2429H83.3462V60.6298H85.356V60.9832H83.3462V62.4301H85.6887V62.4234Z" fill="#202020"/>
<path d="M89.8548 58.8828V62.7835H89.4489V60.9832H87.0132V62.7835H86.6006V58.8828H87.0132V60.6231H89.4489V58.8828H89.8548Z" fill="#202020"/>
<path d="M93.7147 59.2429H92.3438V62.7835H91.9378V59.2429H90.5669V58.8828H93.708V59.2429H93.7147Z" fill="#202020"/>
<path d="M97.062 59.2423C97.3415 59.4824 97.4812 59.8091 97.4812 60.2225C97.4812 60.6359 97.3415 60.9626 97.062 61.2027C96.7825 61.436 96.3898 61.556 95.8974 61.556H94.8525V62.7896H94.4399V58.8889H95.8974C96.3898 58.8823 96.7758 59.0023 97.062 59.2423ZM96.7625 60.9359C96.9688 60.7692 97.0686 60.5292 97.0686 60.2225C97.0686 59.9091 96.9688 59.6624 96.7625 59.4957C96.5562 59.329 96.2634 59.2423 95.8774 59.2423H94.8459V61.1893H95.8774C96.27 61.1893 96.5629 61.1026 96.7625 60.9359Z" fill="#202020"/>
<path d="M100.496 62.5569C100.183 62.3835 99.9368 62.1502 99.7638 61.8501C99.5907 61.5501 99.4976 61.21 99.4976 60.8366C99.4976 60.4632 99.5841 60.1232 99.7638 59.8231C99.9434 59.5231 100.183 59.283 100.496 59.1097C100.809 58.9363 101.161 58.8496 101.547 58.8496C101.933 58.8496 102.279 58.9363 102.592 59.103C102.898 59.2763 103.144 59.5097 103.324 59.8098C103.504 60.1098 103.59 60.4499 103.59 60.8299C103.59 61.21 103.504 61.5434 103.324 61.8434C103.144 62.1435 102.905 62.3835 102.592 62.5569C102.279 62.7303 101.933 62.8103 101.547 62.8103C101.161 62.8169 100.809 62.7303 100.496 62.5569ZM102.379 62.2435C102.625 62.1035 102.825 61.9101 102.965 61.6634C103.105 61.4167 103.178 61.1433 103.178 60.8366C103.178 60.5299 103.105 60.2565 102.965 60.0098C102.825 59.7631 102.632 59.5697 102.379 59.4297C102.133 59.2897 101.853 59.223 101.547 59.223C101.241 59.223 100.962 59.2897 100.709 59.4297C100.456 59.5697 100.263 59.7631 100.116 60.0098C99.9767 60.2565 99.9035 60.5299 99.9035 60.8366C99.9035 61.1433 99.9767 61.4167 100.116 61.6634C100.256 61.9101 100.456 62.1035 100.709 62.2435C100.962 62.3835 101.234 62.4502 101.547 62.4502C101.853 62.4502 102.133 62.3769 102.379 62.2435Z" fill="#202020"/>
<path d="M107.064 59.2429H105.693V62.7835H105.287V59.2429H103.917V58.8828H107.058V59.2429H107.064Z" fill="#202020"/>
<path d="M109.074 60.9965H108.182V62.7835H107.783V58.8828H108.182V60.6298H109.074L110.392 58.8828H110.838L109.394 60.7765L110.924 62.7835H110.452L109.074 60.9965Z" fill="#202020"/>
<path d="M114.179 59.2423C114.458 59.4824 114.598 59.8091 114.598 60.2225C114.598 60.6359 114.458 60.9626 114.179 61.2027C113.899 61.436 113.507 61.556 113.014 61.556H111.969V62.7896H111.557V58.8889H113.014C113.507 58.8823 113.899 59.0023 114.179 59.2423ZM113.886 60.9359C114.092 60.7692 114.192 60.5292 114.192 60.2225C114.192 59.9091 114.092 59.6624 113.886 59.4957C113.68 59.329 113.387 59.2423 113.001 59.2423H111.969V61.1893H113.001C113.387 61.1893 113.68 61.1026 113.886 60.9359Z" fill="#202020"/>
<path d="M118.132 60.5898C118.371 60.7965 118.498 61.1032 118.498 61.5033C118.498 61.9233 118.371 62.2434 118.112 62.4567C117.852 62.6768 117.479 62.7835 116.994 62.7835H115.45V58.8828H115.856V60.2764H117.08C117.533 60.2764 117.885 60.3831 118.132 60.5898ZM117.799 62.2167C117.985 62.0567 118.078 61.8233 118.078 61.5099C118.078 60.9098 117.712 60.6098 116.98 60.6098H115.849V62.4567H116.98C117.34 62.4567 117.613 62.3767 117.799 62.2167ZM119.163 58.8828H119.569V62.7835H119.163V58.8828Z" fill="#202020"/>
<path d="M123.429 59.2429H122.058V62.7835H121.652V59.2429H120.281V58.8828H123.422V59.2429H123.429Z" fill="#202020"/>
<path d="M126.836 60.5898C127.076 60.7965 127.202 61.1032 127.202 61.5033C127.202 61.9233 127.076 62.2434 126.816 62.4567C126.557 62.6768 126.184 62.7835 125.698 62.7835H124.154V58.8828H124.56V60.2764H125.778C126.244 60.2764 126.59 60.3831 126.836 60.5898ZM126.51 62.2167C126.696 62.0567 126.79 61.8233 126.79 61.5099C126.79 60.9098 126.424 60.6098 125.692 60.6098H124.56V62.4567H125.692C126.044 62.4567 126.317 62.3767 126.51 62.2167ZM127.874 58.8828H128.28V62.7835H127.874V58.8828Z" fill="#202020"/>
<path d="M129.591 58.883H129.997V62.1169L132.486 58.883H132.859V62.7836H132.453V59.5564L129.964 62.7836H129.591V58.883ZM130.556 58.4096C130.397 58.2829 130.31 58.1095 130.31 57.8828H130.616C130.623 58.0295 130.676 58.1495 130.783 58.2362C130.889 58.3229 131.035 58.3629 131.215 58.3629C131.395 58.3629 131.535 58.3229 131.648 58.2362C131.754 58.1495 131.814 58.0362 131.814 57.8828H132.12C132.114 58.1095 132.034 58.2829 131.867 58.4096C131.701 58.5363 131.488 58.5963 131.208 58.5963C130.936 58.6029 130.716 58.5363 130.556 58.4096Z" fill="#202020"/>
<path d="M138.249 59.2423C138.529 59.4824 138.669 59.8091 138.669 60.2225C138.669 60.6359 138.529 60.9626 138.249 61.2027C137.97 61.436 137.577 61.556 137.085 61.556H136.04V62.7896H135.627V58.8889H137.085C137.584 58.8823 137.97 59.0023 138.249 59.2423ZM137.957 60.9359C138.163 60.7692 138.263 60.5292 138.263 60.2225C138.263 59.9091 138.163 59.6624 137.957 59.4957C137.75 59.329 137.458 59.2423 137.072 59.2423H136.04V61.1893H137.072C137.458 61.1893 137.75 61.1026 137.957 60.9359Z" fill="#202020"/>
<path d="M142.269 62.4234V62.7835H139.514V58.8828H142.182V59.2429H139.926V60.6298H141.936V60.9832H139.926V62.4301H142.269V62.4234Z" fill="#202020"/>
<path d="M145.656 59.2429H143.58L143.587 62.7835H143.181V58.8828H145.656V59.2429Z" fill="#202020"/>
<path d="M146.362 58.8828H146.768V62.1167L149.257 58.8828H149.629V62.7835H149.223V59.5563L146.734 62.7835H146.362V58.8828Z" fill="#202020"/>
<path d="M151.606 62.5569C151.293 62.3835 151.047 62.1502 150.874 61.8501C150.701 61.5501 150.607 61.21 150.607 60.8366C150.607 60.4632 150.694 60.1232 150.874 59.8231C151.053 59.5231 151.293 59.283 151.606 59.1097C151.918 58.9363 152.271 58.8496 152.657 58.8496C153.043 58.8496 153.389 58.9363 153.702 59.103C154.008 59.2763 154.254 59.5097 154.434 59.8098C154.614 60.1098 154.7 60.4499 154.7 60.8299C154.7 61.21 154.614 61.5434 154.434 61.8434C154.254 62.1435 154.015 62.3835 153.702 62.5569C153.389 62.7303 153.043 62.8103 152.657 62.8103C152.264 62.8169 151.918 62.7303 151.606 62.5569ZM153.482 62.2435C153.729 62.1035 153.928 61.9101 154.068 61.6634C154.208 61.4167 154.281 61.1433 154.281 60.8366C154.281 60.5299 154.208 60.2565 154.068 60.0098C153.928 59.7631 153.735 59.5697 153.482 59.4297C153.236 59.2897 152.957 59.223 152.65 59.223C152.344 59.223 152.065 59.2897 151.812 59.4297C151.559 59.5697 151.366 59.7631 151.22 60.0098C151.08 60.2565 151.007 60.5299 151.007 60.8366C151.007 61.1433 151.08 61.4167 151.22 61.6634C151.359 61.9101 151.559 62.1035 151.812 62.2435C152.065 62.3835 152.338 62.4502 152.65 62.4502C152.957 62.4502 153.236 62.3769 153.482 62.2435Z" fill="#202020"/>
<path d="M158.926 58.8828V62.7835H158.52V60.9832H156.084V62.7835H155.672V58.8828H156.084V60.6231H158.52V58.8828H158.926Z" fill="#202020"/>
</svg>
