<svg width="159" height="80" viewBox="0 0 159 80" fill="none" xmlns="http://www.w3.org/2000/svg">
<g clip-path="url(#clip0)">
<path d="M41.3654 41.4204H21.0735V21.107H41.3654V41.4204ZM48.046 0H14.3825C13.924 0 13.4654 0.0208877 13.0068 0.0626632L0.0625328 13.0339C0.0208443 13.483 0 13.9426 0 14.4021V48.1149C0 56.0731 6.44088 62.517 14.3825 62.517H48.046C48.515 62.517 48.9736 62.4961 49.4217 62.4543L62.366 49.4935C62.4077 49.0444 62.4286 48.5744 62.4286 48.1149V14.4021C62.439 6.45431 55.9981 0 48.046 0Z" fill="#28348B"/>
<path d="M41.3654 41.4203L3.42888 79.4046C2.1678 80.6684 0 79.7702 0 77.9738V42.2036L21.0735 21.107V41.4308H41.3654V41.4203Z" fill="#48BED8"/>
<path d="M41.3651 41.4204L21.0732 61.7442V41.4204H41.3651Z" fill="#43A7BB"/>
<path d="M84.0961 11.7494C84.5756 11.4778 84.9507 11.1019 85.2217 10.6214C85.4927 10.141 85.6282 9.59795 85.6282 9.00265C85.6282 8.40735 85.4927 7.86427 85.2217 7.38385C84.9507 6.90343 84.5756 6.52745 84.0961 6.25591C83.6167 5.98437 83.0852 5.8486 82.4911 5.8486C81.8971 5.8486 81.3551 5.98437 80.8861 6.25591C80.4067 6.52745 80.0315 6.90343 79.7605 7.38385C79.4896 7.86427 79.3541 8.40735 79.3541 9.00265C79.3541 9.59795 79.4896 10.141 79.7605 10.6214C80.0315 11.1019 80.4067 11.4778 80.8861 11.7494C81.3655 12.0209 81.8971 12.1567 82.4911 12.1567C83.0852 12.1567 83.6271 12.0209 84.0961 11.7494ZM80.0315 13.0235C79.302 12.6267 78.7287 12.0836 78.3118 11.3734C77.895 10.6737 77.6865 9.87993 77.6865 9.01309C77.6865 8.14625 77.895 7.36296 78.3118 6.65278C78.7287 5.95304 79.302 5.39952 80.0315 5.00265C80.7611 4.60578 81.5844 4.40735 82.4911 4.40735C83.3979 4.40735 84.2212 4.60578 84.9508 5.00265C85.6803 5.39952 86.2535 5.9426 86.6704 6.64234C87.0873 7.34207 87.2957 8.12536 87.2957 9.00265C87.2957 9.87993 87.0873 10.6737 86.6704 11.363C86.2535 12.0627 85.6803 12.6058 84.9508 13.0026C84.2212 13.3995 83.3979 13.5979 82.4911 13.5979C81.5844 13.6084 80.7611 13.4204 80.0315 13.0235Z" fill="black"/>
<path d="M97.0719 4.54303V13.483H95.4148V9.65008H90.7977V13.483H89.1406V4.54303H90.7977V8.22971H95.4148V4.54303H97.0719Z" fill="black"/>
<path d="M107.119 4.5431V13.4935H105.482V5.94258H101.96L101.887 8.17756C101.845 9.43083 101.741 10.4439 101.584 11.2272C101.428 12.0105 101.167 12.5953 100.803 13.0026C100.448 13.4099 99.9481 13.6084 99.3227 13.6084C99.1039 13.6084 98.8016 13.5666 98.416 13.483L98.5307 12.0418C98.6453 12.0731 98.7704 12.094 98.9163 12.094C99.4374 12.094 99.8022 11.7807 100.021 11.1645C100.24 10.5483 100.375 9.57704 100.427 8.24023L100.553 4.53265H107.119V4.5431Z" fill="black"/>
<path d="M115.009 10.1096L113.32 6.2036L111.653 10.1096H115.009ZM115.551 11.4151H111.079L110.194 13.483H108.484L112.507 4.54303H114.144L118.177 13.483H116.447L115.551 11.4151Z" fill="black"/>
<path d="M121.803 3.46734C121.418 3.15402 121.22 2.69449 121.209 2.08875H122.366C122.376 2.40206 122.481 2.64227 122.668 2.81982C122.866 2.98692 123.148 3.07047 123.523 3.07047C123.888 3.07047 124.179 2.98692 124.388 2.81982C124.596 2.65271 124.701 2.40206 124.711 2.08875H125.857C125.847 2.68405 125.649 3.14358 125.253 3.46734C124.857 3.79109 124.284 3.94775 123.523 3.94775C122.762 3.93731 122.189 3.78065 121.803 3.46734ZM119.562 4.54305H121.199V10.8929L125.993 4.54305H127.535V13.4934H125.899V7.14358L121.105 13.483H119.562V4.54305Z" fill="black"/>
<path d="M137.968 4.54303V13.483H136.311V9.65008H131.694V13.483H130.037V4.54303H131.694V8.22971H136.311V4.54303H137.968Z" fill="black"/>
<path d="M84.0961 28.9711C84.5756 28.6996 84.9507 28.3236 85.2217 27.8432C85.4927 27.3628 85.6282 26.8197 85.6282 26.2244C85.6282 25.6291 85.4927 25.086 85.2217 24.6056C84.9507 24.1252 84.5756 23.7492 84.0961 23.4777C83.6167 23.2061 83.0852 23.0703 82.4911 23.0703C81.8971 23.0703 81.3551 23.2061 80.8861 23.4777C80.4067 23.7492 80.0315 24.1252 79.7605 24.6056C79.4896 25.086 79.3541 25.6291 79.3541 26.2244C79.3541 26.8197 79.4896 27.3628 79.7605 27.8432C80.0315 28.3236 80.4067 28.6996 80.8861 28.9711C81.3655 29.2427 81.8971 29.3784 82.4911 29.3784C83.0852 29.3784 83.6271 29.2427 84.0961 28.9711ZM80.0315 30.2348C79.302 29.838 78.7287 29.2949 78.3118 28.5847C77.895 27.885 77.6865 27.0912 77.6865 26.2244C77.6865 25.3576 77.895 24.5743 78.3118 23.8641C78.7287 23.1643 79.302 22.6108 80.0315 22.214C80.7611 21.8171 81.5844 21.6187 82.4911 21.6187C83.3979 21.6187 84.2212 21.8171 84.9508 22.214C85.6803 22.6108 86.2535 23.1539 86.6704 23.8536C87.0873 24.5534 87.2957 25.3367 87.2957 26.214C87.2957 27.0912 87.0873 27.885 86.6704 28.5743C86.2535 29.274 85.6803 29.8171 84.9508 30.214C84.2212 30.6108 83.3979 30.8093 82.4911 30.8093C81.5844 30.8301 80.7611 30.6317 80.0315 30.2348Z" fill="black"/>
<path d="M97.0513 21.7544V30.7048H95.4151V23.1643H90.7876V30.7048H89.1514V21.7544H97.0513Z" fill="black"/>
<path d="M104.805 26.2556C105.18 25.9528 105.368 25.5141 105.368 24.9397C105.368 24.3653 105.18 23.9267 104.805 23.6238C104.43 23.3209 103.888 23.1643 103.158 23.1643H101.22V26.7152H103.158C103.888 26.7152 104.43 26.5585 104.805 26.2556ZM105.264 22.1408C105.837 22.4019 106.275 22.7674 106.587 23.2374C106.89 23.7178 107.046 24.2817 107.046 24.9397C107.046 25.5872 106.89 26.1512 106.587 26.6316C106.285 27.112 105.837 27.4776 105.264 27.7387C104.691 27.9893 104.013 28.1251 103.242 28.1251H101.23V30.7047H99.5732V21.7543H103.252C104.013 21.7543 104.691 21.8901 105.264 22.1408Z" fill="black"/>
<path d="M114.477 28.9711C114.956 28.6996 115.332 28.3236 115.603 27.8432C115.874 27.3628 116.009 26.8197 116.009 26.2244C116.009 25.6291 115.874 25.086 115.603 24.6056C115.332 24.1252 114.956 23.7492 114.477 23.4777C113.998 23.2061 113.466 23.0703 112.872 23.0703C112.278 23.0703 111.736 23.2061 111.267 23.4777C110.788 23.7492 110.412 24.1252 110.141 24.6056C109.87 25.086 109.735 25.6291 109.735 26.2244C109.735 26.8197 109.87 27.3628 110.141 27.8432C110.412 28.3236 110.788 28.6996 111.267 28.9711C111.746 29.2427 112.278 29.3784 112.872 29.3784C113.466 29.3784 114.008 29.2427 114.477 28.9711ZM110.412 30.2348C109.683 29.838 109.11 29.2949 108.693 28.5847C108.276 27.885 108.067 27.0912 108.067 26.2244C108.067 25.3576 108.276 24.5743 108.693 23.8641C109.11 23.1643 109.683 22.6108 110.412 22.214C111.142 21.8171 111.965 21.6187 112.872 21.6187C113.779 21.6187 114.602 21.8171 115.332 22.214C116.061 22.6108 116.634 23.1539 117.051 23.8536C117.468 24.5534 117.677 25.3367 117.677 26.214C117.677 27.0912 117.468 27.885 117.051 28.5743C116.634 29.274 116.061 29.8171 115.332 30.214C114.602 30.6108 113.779 30.8093 112.872 30.8093C111.965 30.8301 111.142 30.6317 110.412 30.2348Z" fill="black"/>
<path d="M121.188 30.2348C120.459 29.838 119.886 29.2949 119.479 28.5951C119.062 27.8954 118.864 27.1121 118.864 26.2348C118.864 25.3575 119.073 24.5743 119.49 23.8745C119.906 23.1748 120.48 22.6317 121.209 22.2348C121.939 21.838 122.752 21.6395 123.658 21.6395C124.388 21.6395 125.055 21.7649 125.659 22.026C126.264 22.2766 126.775 22.6526 127.192 23.133L126.108 24.1356C125.461 23.4359 124.669 23.0912 123.721 23.0912C123.106 23.0912 122.554 23.227 122.074 23.4985C121.584 23.7701 121.209 24.1356 120.938 24.616C120.667 25.0964 120.532 25.6291 120.532 26.2348C120.532 26.8406 120.667 27.3837 120.938 27.8536C121.209 28.334 121.584 28.6996 122.074 28.9711C122.554 29.2427 123.106 29.3784 123.721 29.3784C124.659 29.3784 125.461 29.0233 126.108 28.3236L127.181 29.3471C126.764 29.838 126.254 30.2035 125.649 30.4646C125.045 30.7152 124.367 30.851 123.638 30.851C122.731 30.8301 121.918 30.6317 121.188 30.2348Z" fill="black"/>
<path d="M137.458 21.7543H139.094V30.7047H137.458V21.7543ZM133.987 28.9815C134.341 28.6786 134.508 28.2504 134.508 27.676C134.508 26.5898 133.841 26.0572 132.497 26.0572H130.371V29.4306H132.497C133.143 29.4201 133.643 29.2739 133.987 28.9815ZM135.311 25.5037C135.884 25.9841 136.176 26.6943 136.176 27.6447C136.176 28.6368 135.863 29.3888 135.227 29.911C134.602 30.4332 133.716 30.6943 132.57 30.6943H128.734V21.7439H130.371V24.7726H132.851C133.914 24.7831 134.738 25.0233 135.311 25.5037Z" fill="black"/>
<path d="M82.1582 47.4153V48.679H81.7726V47.7704H78.375V43.8748H78.7815V47.4153H81.1369V43.8748H81.5433V47.4153H82.1582Z" fill="black"/>
<path d="M85.7329 47.4153V47.7704H82.9814V43.8748H85.6495V44.2299H83.3879V45.6189H85.3994V45.9636H83.3879V47.4153H85.7329Z" fill="black"/>
<path d="M89.9018 43.8748V47.7704H89.4953V45.974H87.0565V47.7704H86.6396V43.8748H87.0565V45.6085H89.4953V43.8748H89.9018Z" fill="black"/>
<path d="M93.7578 44.2299H92.3925V47.7704H91.9861V44.2299H90.6104V43.8748H93.7578V44.2299Z" fill="black"/>
<path d="M96.8111 45.9225C97.0196 45.7554 97.1134 45.5152 97.1134 45.2123C97.1134 44.899 97.0091 44.6588 96.8111 44.4813C96.6027 44.3142 96.3109 44.2306 95.9252 44.2306H94.8934V46.1836H95.9252C96.3109 46.1732 96.6027 46.0896 96.8111 45.9225ZM97.1029 44.2306C97.3843 44.4708 97.5302 44.7946 97.5302 45.2123C97.5302 45.6301 97.3843 45.9539 97.1029 46.1941C96.8215 46.4343 96.4359 46.5492 95.9357 46.5492H94.8934V47.7815H94.4766V43.886H95.9357C96.4359 43.8755 96.8215 43.9904 97.1029 44.2306Z" fill="black"/>
<path d="M102.429 47.2272C102.679 47.0914 102.877 46.893 103.013 46.6528C103.159 46.4021 103.221 46.1306 103.221 45.8277C103.221 45.5249 103.148 45.2429 103.013 45.0027C102.877 44.752 102.679 44.564 102.429 44.4282C102.179 44.2925 101.898 44.2194 101.595 44.2194C101.293 44.2194 101.012 44.2925 100.762 44.4282C100.512 44.564 100.314 44.7625 100.168 45.0027C100.022 45.2533 99.9488 45.5249 99.9488 45.8277C99.9488 46.1306 100.022 46.4126 100.168 46.6528C100.314 46.9034 100.512 47.0914 100.762 47.2272C101.012 47.363 101.293 47.4361 101.595 47.4361C101.898 47.4361 102.179 47.363 102.429 47.2272ZM100.543 47.5405C100.23 47.3734 99.98 47.1332 99.8133 46.8303C99.6361 46.5275 99.5527 46.1933 99.5527 45.8173C99.5527 45.4413 99.6465 45.1071 99.8133 44.8042C99.9905 44.5014 100.23 44.2611 100.543 44.094C100.856 43.9165 101.21 43.8329 101.595 43.8329C101.981 43.8329 102.325 43.9165 102.638 44.0836C102.95 44.2507 103.19 44.4909 103.367 44.7938C103.544 45.0967 103.638 45.4309 103.638 45.8068C103.638 46.1828 103.544 46.517 103.367 46.8199C103.19 47.1228 102.95 47.363 102.638 47.5301C102.325 47.6972 101.981 47.7807 101.595 47.7807C101.21 47.8016 100.866 47.7181 100.543 47.5405Z" fill="black"/>
<path d="M107.118 44.2299H105.742V47.7704H105.336V44.2299H103.971V43.8748H107.118V44.2299Z" fill="black"/>
<path d="M109.13 45.9845H108.234V47.7704H107.838V43.8748H108.234V45.6189H109.13L110.443 43.8748H110.892L109.443 45.7652L110.975 47.7704H110.496L109.13 45.9845Z" fill="black"/>
<path d="M113.935 45.9212C114.144 45.7541 114.238 45.5139 114.238 45.211C114.238 44.8977 114.133 44.6575 113.935 44.4799C113.727 44.3128 113.435 44.2293 113.05 44.2293H112.018V46.1823H113.05C113.435 46.1718 113.737 46.0883 113.935 45.9212ZM114.238 44.2293C114.519 44.4695 114.665 44.7932 114.665 45.211C114.665 45.6287 114.519 45.9525 114.238 46.1927C113.956 46.4329 113.571 46.5478 113.07 46.5478H112.028V47.7802H111.611V43.8846H113.07C113.56 43.8742 113.956 43.9891 114.238 44.2293Z" fill="black"/>
<path d="M119.22 43.8748H119.626V47.7704H119.22V43.8748ZM117.855 47.2064C118.042 47.0498 118.136 46.8095 118.136 46.4962C118.136 45.9009 117.771 45.5981 117.031 45.5981H115.906V47.4466H117.031C117.396 47.4466 117.667 47.3631 117.855 47.2064ZM118.188 45.5772C118.428 45.786 118.553 46.0889 118.553 46.4962C118.553 46.914 118.428 47.2377 118.167 47.4466C117.907 47.6659 117.542 47.7704 117.052 47.7704H115.51V43.8748H115.916V45.2639H117.136C117.594 45.2639 117.949 45.3683 118.188 45.5772Z" fill="black"/>
<path d="M123.491 44.2299H122.116V47.7704H121.709V44.2299H120.344V43.8748H123.491V44.2299Z" fill="black"/>
<path d="M127.932 43.8747H128.338V47.7703H127.932V43.8747ZM126.567 47.2063C126.754 47.0496 126.848 46.8094 126.848 46.4961C126.848 45.9008 126.483 45.5979 125.743 45.5979H124.618V47.4465H125.743C126.108 47.4465 126.379 47.3629 126.567 47.2063ZM126.9 45.577C127.14 45.7859 127.265 46.0888 127.265 46.4961C127.265 46.9139 127.14 47.2376 126.879 47.4465C126.619 47.6658 126.254 47.7703 125.764 47.7703H124.222V43.8747H124.628V45.2637H125.848C126.306 45.2637 126.65 45.3682 126.9 45.577Z" fill="black"/>
<path d="M130.621 43.3943C130.464 43.269 130.381 43.0915 130.37 42.8617H130.673C130.673 43.0079 130.735 43.1228 130.839 43.2168C130.944 43.3003 131.09 43.3421 131.277 43.3421C131.454 43.3421 131.6 43.3003 131.705 43.2168C131.819 43.1332 131.871 43.0184 131.871 42.8617H132.174C132.174 43.0915 132.09 43.269 131.923 43.3943C131.757 43.5197 131.538 43.5823 131.267 43.5823C130.996 43.5823 130.777 43.5197 130.621 43.3943ZM129.651 43.8747H130.058V47.1019L132.549 43.8747H132.924V47.7703H132.517V44.5432L130.027 47.7703H129.651V43.8747Z" fill="black"/>
<path d="M138.02 45.9219C138.229 45.7547 138.323 45.5145 138.323 45.2117C138.323 44.8984 138.218 44.6581 138.02 44.4806C137.812 44.3135 137.52 44.2299 137.135 44.2299H136.103V46.1829H137.135C137.52 46.1725 137.822 46.089 138.02 45.9219ZM138.323 44.2299C138.604 44.4702 138.75 44.7939 138.75 45.2117C138.75 45.6294 138.604 45.9532 138.323 46.1934C138.041 46.4336 137.656 46.5485 137.155 46.5485H136.113V47.7809H135.696V43.8853H137.155C137.645 43.8749 138.031 43.9897 138.323 44.2299Z" fill="black"/>
<path d="M142.335 47.4153V47.7704H139.584V43.8748H142.252V44.2299H140.001V45.6189H142.012V45.9636H140.001V47.4153H142.335Z" fill="black"/>
<path d="M145.723 44.2299H143.649L143.659 47.7704H143.253V43.8748H145.723V44.2299Z" fill="black"/>
<path d="M146.432 43.8748H146.838V47.102L149.329 43.8748H149.704V47.7704H149.298V44.5432L146.807 47.7704H146.432V43.8748Z" fill="black"/>
<path d="M153.56 47.2272C153.81 47.0914 153.998 46.893 154.144 46.6528C154.29 46.4021 154.352 46.1306 154.352 45.8277C154.352 45.5249 154.279 45.2429 154.144 45.0027C153.998 44.752 153.81 44.564 153.56 44.4282C153.31 44.2925 153.029 44.2194 152.726 44.2194C152.414 44.2194 152.143 44.2925 151.893 44.4282C151.642 44.564 151.444 44.7625 151.298 45.0027C151.153 45.2533 151.08 45.5249 151.08 45.8277C151.08 46.1306 151.153 46.4126 151.298 46.6528C151.444 46.9034 151.642 47.0914 151.893 47.2272C152.143 47.363 152.424 47.4361 152.726 47.4361C153.029 47.4361 153.31 47.363 153.56 47.2272ZM151.674 47.5405C151.361 47.3734 151.111 47.1332 150.944 46.8303C150.767 46.5275 150.684 46.1933 150.684 45.8173C150.684 45.4413 150.777 45.1071 150.944 44.8042C151.121 44.5014 151.361 44.2611 151.674 44.094C151.986 43.9165 152.341 43.8329 152.726 43.8329C153.112 43.8329 153.456 43.9165 153.769 44.0836C154.081 44.2507 154.321 44.4909 154.498 44.7938C154.675 45.0967 154.769 45.4309 154.769 45.8068C154.769 46.1828 154.686 46.517 154.498 46.8199C154.321 47.1228 154.071 47.363 153.769 47.5301C153.456 47.6972 153.112 47.7807 152.726 47.7807C152.341 47.8016 151.986 47.7181 151.674 47.5405Z" fill="black"/>
<path d="M159 43.8748V47.7704H158.593V45.974H156.165V47.7704H155.748V43.8748H156.165V45.6085H158.593V43.8748H159Z" fill="black"/>
</g>
<defs>
<clipPath id="clip0">
<rect width="159" height="80" fill="white"/>
</clipPath>
</defs>
</svg>
