<svg width="190" height="80" viewBox="0 0 190 80" fill="none" xmlns="http://www.w3.org/2000/svg">
<path d="M41.8015 41.4227H21.2993V21.0999H41.8126V41.4227H41.8015ZM48.5655 0H14.5353C14.0704 0 13.6054 0.0218878 13.1515 0.0656635L0.0664219 13.0342C0.0221407 13.4829 0 13.9425 0 14.4022V48.1094C0 56.0657 6.50935 62.5116 14.5353 62.5116H48.5544C49.0194 62.5116 49.4844 62.4897 49.9493 62.446L63.0344 49.4884C63.0787 49.0397 63.1009 48.58 63.1009 48.1094V14.4022C63.1009 6.44596 56.5915 0 48.5655 0Z" fill="#28348B"/>
<path d="M41.8015 41.4228L3.46501 79.3982C2.19192 80.6677 0 79.7703 0 77.9755V42.1998L21.2993 21.1V41.4228H41.8015Z" fill="#A84191"/>
<path d="M41.8011 41.423L21.2988 61.7459V41.423H41.8011Z" fill="#83346D"/>
<path d="M82.5184 9.71816H80.8467V13.4829H79.1973V4.54169H80.8467V8.2845H82.5737L85.1642 4.54169H86.9465L83.8579 8.87547L87.0572 13.4829H85.1642L82.5184 9.71816Z" fill="black"/>
<path d="M96.2229 4.54169V13.4829H94.5513V9.65249H89.8796V13.4829H88.208V4.54169H89.8796V8.22978H94.5513V4.54169H96.2229Z" fill="black"/>
<path d="M98.7686 4.54169H100.418V10.8892L105.267 4.54169H106.828V13.4829H105.178V7.14634L100.329 13.4829H98.7686V4.54169Z" fill="black"/>
<path d="M115.485 5.94251H111.002L111.024 13.4829H109.363V4.54169H115.496L115.485 5.94251Z" fill="black"/>
<path d="M120.588 10.1121L118.884 6.20516L117.19 10.1121H120.588ZM121.142 11.4145H116.625L115.74 13.4829H114.013L118.076 4.54169H119.725L123.799 13.4829H122.05L121.142 11.4145Z" fill="black"/>
<path d="M87.1897 21.7566V30.6978H85.5402V23.1684H80.8575V30.6978H79.208V21.7566H87.1897Z" fill="black"/>
<path d="M95.0273 26.2545C95.4037 25.9481 95.5919 25.5104 95.5919 24.9413C95.5919 24.3722 95.4037 23.9344 95.0273 23.628C94.6509 23.3216 94.0974 23.1684 93.3667 23.1684H91.4073V26.7251H93.3667C94.0974 26.7142 94.6509 26.561 95.0273 26.2545ZM95.4812 22.1396C96.0568 22.3913 96.5107 22.7634 96.8207 23.234C97.1307 23.7156 97.2856 24.2737 97.2856 24.9303C97.2856 25.576 97.1307 26.1451 96.8207 26.6266C96.5107 27.1082 96.0679 27.4803 95.4812 27.732C94.9055 27.9837 94.2192 28.115 93.4332 28.115H91.3962V30.6978H89.7246V21.7566H93.4332C94.2192 21.7566 94.9055 21.8879 95.4812 22.1396Z" fill="black"/>
<path d="M105.643 29.3079V30.7087H98.8682V21.7566H105.455V23.1465H100.551V25.4775H104.901V26.8455H100.551V29.3079H105.643Z" fill="black"/>
<path d="M109.63 27.6442C109.486 28.4213 109.254 28.9685 108.933 29.2968H113.505V23.1682H109.973L109.907 24.755C109.862 25.9042 109.774 26.8672 109.63 27.6442ZM116.46 29.2968V32.6018H114.911V30.6976H107.992V32.6018H106.431L106.442 29.2968H106.829C107.394 29.2749 107.792 28.859 108.025 28.0492C108.257 27.2393 108.39 26.0902 108.445 24.5909L108.545 21.7564H115.165V29.2968H116.46Z" fill="black"/>
<path d="M125.749 21.7566V30.6978H124.099V23.1574H120.546L120.468 25.39C120.424 26.6376 120.324 27.6554 120.158 28.4324C119.992 29.2094 119.738 29.8004 119.372 30.2053C119.007 30.6102 118.509 30.8072 117.878 30.8072C117.656 30.8072 117.346 30.7634 116.959 30.6759L117.07 29.2313C117.18 29.2641 117.313 29.286 117.457 29.286C117.977 29.286 118.354 28.9796 118.575 28.3558C118.797 27.7429 118.93 26.7689 118.985 25.4337L119.118 21.7238H125.749V21.7566Z" fill="black"/>
<path d="M134.096 28.9688C134.572 28.7061 134.959 28.3231 135.236 27.8416C135.513 27.36 135.645 26.8238 135.645 26.2218C135.645 25.6309 135.513 25.0837 135.236 24.6022C134.959 24.1206 134.583 23.7485 134.096 23.4749C133.609 23.2013 133.077 23.07 132.468 23.07C131.87 23.07 131.328 23.2013 130.841 23.4749C130.354 23.7376 129.977 24.1206 129.701 24.6022C129.424 25.0837 129.291 25.6199 129.291 26.2218C129.291 26.8128 129.424 27.36 129.701 27.8416C129.977 28.3231 130.354 28.6952 130.841 28.9688C131.317 29.2314 131.859 29.3737 132.468 29.3737C133.066 29.3737 133.609 29.2424 134.096 28.9688ZM129.977 30.2383C129.236 29.8443 128.66 29.2971 128.239 28.5857C127.819 27.8853 127.608 27.0974 127.608 26.2328C127.608 25.3682 127.819 24.5803 128.239 23.8799C128.66 23.1794 129.236 22.6322 129.977 22.2273C130.719 21.8333 131.549 21.6364 132.468 21.6364C133.387 21.6364 134.217 21.8333 134.959 22.2273C135.701 22.6213 136.276 23.1685 136.697 23.8689C137.118 24.5693 137.328 25.3573 137.328 26.2328C137.328 27.1083 137.118 27.8963 136.697 28.5967C136.276 29.2971 135.69 29.8443 134.959 30.2383C134.217 30.6322 133.387 30.8292 132.468 30.8292C131.549 30.8292 130.719 30.6322 129.977 30.2383Z" fill="black"/>
<path d="M146.76 26.9331H145.21V30.7087H143.571V26.9331H142.021L139.741 30.7087H137.804L140.638 26.0357L138.003 21.7566H139.774L141.988 25.4994H143.571V21.7566H145.21V25.4994H146.771L148.985 21.7566H150.767L148.132 26.0466L150.955 30.7087H149.029L146.76 26.9331Z" fill="black"/>
<path d="M158.903 29.3079V30.7087H152.128V21.7566H158.726V23.1465H153.811V25.4775H158.172V26.8455H153.811V29.3079H158.903Z" fill="black"/>
<path d="M168.789 21.7566V30.6978H167.118V26.8674H162.446V30.6978H160.774V21.7566H162.446V25.4556H167.118V21.7566H168.789Z" fill="black"/>
<path d="M171.336 21.7566H172.985V28.1041L177.834 21.7566H179.395V30.6978H177.746V24.3612L172.897 30.6978H171.336V21.7566Z" fill="black"/>
<path d="M184.199 20.684C183.811 20.3666 183.612 19.907 183.601 19.3051H184.774C184.785 19.6224 184.885 19.8632 185.084 20.0383C185.284 20.2134 185.571 20.29 185.948 20.29C186.313 20.29 186.612 20.2025 186.822 20.0383C187.033 19.8632 187.143 19.6224 187.155 19.3051H188.317C188.306 19.896 188.107 20.3557 187.708 20.673C187.31 20.9904 186.723 21.1546 185.959 21.1546C185.173 21.1546 184.586 21.0014 184.199 20.684ZM181.94 21.7565H183.59V28.104L188.439 21.7565H190V30.6977H188.35V24.3611L183.501 30.6977H181.94V21.7565Z" fill="black"/>
<path d="M83.0383 47.4088V48.6892H82.6509V47.7699H79.208V43.8739H79.6287V47.4088H81.9977V43.8739H82.4073V47.4088H83.0383Z" fill="black"/>
<path d="M86.6471 47.4088V47.7699H83.8574V43.8739H86.5586V44.2241H84.2781V45.614H86.315V45.9642H84.2781V47.4088H86.6471Z" fill="black"/>
<path d="M90.8543 43.8739V47.7699H90.4447V45.9751H87.9871V47.7699H87.5664V43.8739H87.9871V45.603H90.4447V43.8739H90.8543Z" fill="black"/>
<path d="M94.7612 44.2241H93.3774V47.7699H92.9678V44.2241H91.584V43.8739H94.7612V44.2241Z" fill="black"/>
<path d="M97.8398 45.9211C98.0501 45.757 98.1497 45.5162 98.1497 45.2098C98.1497 44.8924 98.0501 44.6517 97.8398 44.4875C97.6294 44.3124 97.3305 44.2358 96.9431 44.2358H95.9024V46.1838H96.9431C97.3416 46.1729 97.6405 46.0962 97.8398 45.9211ZM98.1387 44.2248C98.4265 44.4656 98.5704 44.7939 98.5704 45.2098C98.5704 45.6257 98.4265 45.954 98.1387 46.1838C97.8508 46.4246 97.4634 46.534 96.9541 46.534H95.8914V47.7707H95.4707V43.8746H96.9431C97.4634 43.8746 97.8619 43.995 98.1387 44.2248Z" fill="black"/>
<path d="M103.518 47.2228C103.773 47.0805 103.961 46.8945 104.105 46.6427C104.249 46.391 104.315 46.1174 104.315 45.811C104.315 45.5046 104.249 45.231 104.105 44.9793C103.961 44.7276 103.762 44.5415 103.518 44.3992C103.263 44.257 102.987 44.1913 102.677 44.1913C102.367 44.1913 102.079 44.257 101.835 44.3992C101.581 44.5415 101.381 44.7276 101.237 44.9793C101.094 45.231 101.016 45.5046 101.016 45.811C101.016 46.1174 101.094 46.391 101.237 46.6427C101.381 46.8945 101.581 47.0805 101.835 47.2228C102.09 47.365 102.367 47.4307 102.677 47.4307C102.987 47.4307 103.263 47.365 103.518 47.2228ZM101.614 47.5401C101.293 47.365 101.049 47.1352 100.872 46.8288C100.695 46.5333 100.606 46.194 100.606 45.811C100.606 45.4389 100.695 45.0997 100.872 44.7932C101.049 44.4977 101.293 44.257 101.614 44.0819C101.935 43.9068 102.278 43.8192 102.677 43.8192C103.064 43.8192 103.418 43.9068 103.728 44.0709C104.038 44.246 104.293 44.4758 104.47 44.7823C104.647 45.0887 104.736 45.428 104.736 45.8001C104.736 46.1722 104.647 46.5114 104.47 46.8178C104.293 47.1243 104.038 47.3541 103.728 47.5292C103.418 47.7043 103.064 47.7809 102.677 47.7809C102.289 47.8028 101.935 47.7152 101.614 47.5401Z" fill="black"/>
<path d="M108.257 44.2241H106.873V47.7699H106.464V44.2241H105.08V43.8739H108.257V44.2241Z" fill="black"/>
<path d="M110.294 45.9861H109.386V47.7699H108.987V43.8739H109.386V45.6249H110.294L111.622 43.8739H112.076L110.615 45.7672L112.153 47.7699H111.677L110.294 45.9861Z" fill="black"/>
<path d="M115.153 45.9204C115.363 45.7563 115.463 45.5155 115.463 45.2091C115.463 44.8917 115.363 44.6509 115.153 44.4868C114.943 44.3117 114.644 44.235 114.256 44.235H113.216V46.1831H114.256C114.644 46.1721 114.943 46.0955 115.153 45.9204ZM115.452 44.2241C115.74 44.4649 115.884 44.7932 115.884 45.2091C115.884 45.6249 115.74 45.9532 115.452 46.1831C115.164 46.4238 114.777 46.5333 114.267 46.5333H113.216V47.7699H112.795V43.8739H114.267C114.765 43.8739 115.164 43.9943 115.452 44.2241Z" fill="black"/>
<path d="M120.488 43.8739H120.898V47.7699H120.488V43.8739ZM119.115 47.2009C119.304 47.0367 119.403 46.8069 119.403 46.4895C119.403 45.8876 119.038 45.5921 118.285 45.5921H117.145V47.4307H118.285C118.639 47.4416 118.916 47.365 119.115 47.2009ZM119.448 45.5702C119.691 45.7781 119.813 46.0846 119.813 46.4895C119.813 46.9054 119.68 47.2227 119.425 47.4416C119.16 47.6605 118.794 47.7699 118.296 47.7699H116.735V43.8739H117.145V45.2638H118.385C118.839 45.2638 119.193 45.3623 119.448 45.5702Z" fill="black"/>
<path d="M124.807 44.2241H123.423V47.7699H123.014V44.2241H121.63V43.8739H124.807V44.2241Z" fill="black"/>
<path d="M129.29 43.874H129.7V47.77H129.29V43.874ZM127.917 47.2009C128.105 47.0368 128.205 46.8069 128.205 46.4896C128.205 45.8876 127.84 45.5922 127.098 45.5922H125.958V47.4307H127.098C127.452 47.4417 127.729 47.3651 127.917 47.2009ZM128.249 45.5703C128.493 45.7782 128.615 46.0846 128.615 46.4896C128.615 46.9054 128.482 47.2228 128.227 47.4417C127.962 47.6606 127.596 47.77 127.098 47.77H125.537V43.874H125.947V45.2638H127.187C127.64 45.2638 128.006 45.3623 128.249 45.5703Z" fill="black"/>
<path d="M132.002 43.3926C131.835 43.2722 131.758 43.0862 131.747 42.8673H132.057C132.057 43.0205 132.112 43.13 132.223 43.2175C132.334 43.3051 132.478 43.3488 132.666 43.3488C132.843 43.3488 132.987 43.3051 133.097 43.2175C133.208 43.13 133.264 43.0205 133.264 42.8673H133.574C133.574 43.0971 133.485 43.2722 133.319 43.3926C133.153 43.5239 132.931 43.5787 132.655 43.5787C132.389 43.5896 132.168 43.5239 132.002 43.3926ZM131.027 43.8742H131.437V47.1026L133.961 43.8742H134.337V47.7702H133.928V44.5417L131.415 47.7702H131.038V43.8742H131.027Z" fill="black"/>
<path d="M139.497 45.9205C139.707 45.7563 139.807 45.5156 139.807 45.2091C139.807 44.8917 139.707 44.651 139.497 44.4868C139.286 44.3117 138.987 44.2351 138.6 44.2351H137.559V46.1831H138.6C138.987 46.1722 139.286 46.0956 139.497 45.9205ZM139.796 44.2242C140.083 44.4649 140.227 44.7933 140.227 45.2091C140.227 45.625 140.083 45.9533 139.796 46.1831C139.508 46.4239 139.12 46.5333 138.611 46.5333H137.559V47.77H137.139V43.874H138.611C139.109 43.874 139.508 43.9943 139.796 44.2242Z" fill="black"/>
<path d="M143.859 47.4088V47.7699H141.069V43.8739H143.77V44.2241H141.49V45.614H143.527V45.9642H141.49V47.4088H143.859Z" fill="black"/>
<path d="M147.28 44.2241H145.177L145.188 47.7699H144.778V43.8739H147.28V44.2241Z" fill="black"/>
<path d="M147.988 43.8739H148.398V47.1024L150.922 43.8739H151.298V47.7699H150.889V44.5415L148.365 47.7699H147.988V43.8739Z" fill="black"/>
<path d="M155.196 47.2228C155.45 47.0805 155.639 46.8945 155.782 46.6427C155.926 46.391 155.993 46.1174 155.993 45.811C155.993 45.5046 155.915 45.231 155.782 44.9793C155.639 44.7276 155.439 44.5415 155.196 44.3992C154.941 44.257 154.664 44.1913 154.354 44.1913C154.044 44.1913 153.757 44.257 153.513 44.3992C153.258 44.5415 153.059 44.7276 152.915 44.9793C152.771 45.231 152.694 45.5046 152.694 45.811C152.694 46.1174 152.771 46.391 152.915 46.6427C153.059 46.8945 153.258 47.0805 153.513 47.2228C153.768 47.365 154.044 47.4307 154.354 47.4307C154.664 47.4307 154.941 47.365 155.196 47.2228ZM153.292 47.5401C152.971 47.365 152.727 47.1352 152.55 46.8288C152.373 46.5333 152.284 46.194 152.284 45.811C152.284 45.4389 152.373 45.0997 152.55 44.7932C152.727 44.4977 152.971 44.257 153.292 44.0819C153.613 43.9068 153.956 43.8192 154.354 43.8192C154.742 43.8192 155.096 43.9068 155.406 44.0709C155.716 44.246 155.971 44.4758 156.148 44.7823C156.325 45.0887 156.413 45.428 156.413 45.8001C156.413 46.1722 156.325 46.5114 156.148 46.8178C155.971 47.1243 155.716 47.3541 155.406 47.5292C155.096 47.7043 154.742 47.7809 154.354 47.7809C153.956 47.8028 153.613 47.7152 153.292 47.5401Z" fill="black"/>
<path d="M160.697 43.8739V47.7699H160.287V45.9751H157.83V47.7699H157.409V43.8739H157.83V45.603H160.287V43.8739H160.697Z" fill="black"/>
</svg>
