<svg width="221" height="80" viewBox="0 0 221 80" fill="none" xmlns="http://www.w3.org/2000/svg">
<path d="M48.4672 0H14.5126C14.0425 0 13.5858 0.0266711 13.1292 0.0666778L0.0671569 13.0288C0.0268628 13.4822 0 13.9423 0 14.4091V48.1214C0 56.076 6.49408 62.5238 14.5126 62.5238H48.4672C48.9372 62.5238 49.4006 62.4971 49.8573 62.4571L62.9126 49.4949C62.9529 49.0415 62.9798 48.5814 62.9798 48.1147V14.4091C62.973 6.44774 56.479 0 48.4672 0ZM41.7179 41.4202H21.2552V21.1035H41.7246V41.4202H41.7179Z" fill="#27348B"/>
<path d="M41.7179 41.4204L3.4653 79.4067C2.18932 80.6736 0 79.7735 0 77.9798V42.2072L21.2552 21.1037V41.4271H41.7179V41.4204Z" fill="#55A932"/>
<path d="M41.7176 41.4203L21.2549 61.7437V41.4203H41.7176Z" fill="#008D36"/>
<path d="M79.0508 4.32056H80.6961V10.6683L85.5381 4.32056H87.0962V13.2687H85.4508V6.92766L80.6088 13.2687H79.0508V4.32056Z" fill="#202020"/>
<path d="M97.6194 4.32056V13.2687H95.9471V9.43474H91.2865V13.2687H89.6143V4.32056H91.2865V8.01451H95.9471V4.32056H97.6194Z" fill="#202020"/>
<path d="M100.158 4.32056H101.804V10.6683L106.646 4.32056H108.204V13.2687H106.558V6.92766L101.716 13.2687H100.158V4.32056Z" fill="#202020"/>
<path d="M119.922 11.8551V15.229H118.378V13.262H110.735V4.32056H112.381V11.8618H116.927V4.32056H118.586V11.8618H119.922V11.8551Z" fill="#202020"/>
<path d="M121.467 4.32056H123.112V10.6683L127.954 4.32056H129.512V13.2687H127.867V6.92766L123.025 13.2687H121.467V4.32056Z" fill="#202020"/>
<path d="M138.008 11.1951H133.502L132.616 13.2621H130.89L134.946 4.31396H136.591L140.661 13.2621H138.908L138.008 11.1951ZM137.458 9.88823L135.759 5.98091L134.073 9.88823H137.458Z" fill="#202020"/>
<path d="M148.128 5.72079H145.14V13.262H143.481V5.72079H140.506V4.32056H148.128V5.72079Z" fill="#202020"/>
<path d="M149.579 4.32056H151.224V10.6683L156.066 4.32056H157.625V13.2687H155.979V6.92766L151.137 13.2687H149.579V4.32056Z" fill="#202020"/>
<path d="M167.396 9.39473C167.698 9.76813 167.846 10.2282 167.846 10.7816C167.846 11.5684 167.557 12.1752 166.973 12.6086C166.389 13.042 165.542 13.262 164.434 13.262H160.163V4.32056H164.192C165.207 4.32056 165.992 4.52059 166.563 4.92066C167.127 5.32072 167.416 5.88748 167.416 6.62094C167.416 7.08768 167.302 7.49442 167.074 7.83448C166.845 8.17453 166.516 8.43458 166.086 8.6146C166.657 8.76796 167.094 9.02801 167.396 9.39473ZM161.808 8.14119H164.045C164.589 8.14119 164.998 8.03451 165.28 7.82114C165.562 7.60777 165.704 7.29439 165.704 6.87432C165.704 6.45425 165.562 6.14086 165.28 5.92082C164.998 5.70079 164.589 5.5941 164.045 5.5941H161.808V8.14119ZM166.16 10.6549C166.16 9.78813 165.569 9.34806 164.381 9.34806H161.808V11.9818H164.381C165.562 11.9818 166.16 11.5418 166.16 10.6549Z" fill="#202020"/>
<path d="M177.751 4.32056V13.2687H176.079V9.43474H171.418V13.2687H169.746V4.32056H171.418V8.01451H176.079V4.32056H177.751Z" fill="#202020"/>
<path d="M181.962 12.7954C181.224 12.402 180.646 11.8486 180.223 11.1485C179.8 10.4484 179.592 9.66156 179.592 8.78808C179.592 7.9146 179.8 7.13447 180.223 6.42769C180.646 5.72757 181.224 5.17415 181.962 4.78075C182.701 4.38735 183.527 4.18732 184.447 4.18732C185.367 4.18732 186.193 4.38735 186.932 4.78075C187.671 5.17415 188.248 5.72757 188.671 6.42102C189.094 7.12114 189.303 7.90794 189.303 8.78808C189.303 9.66823 189.094 10.455 188.671 11.1551C188.248 11.8553 187.671 12.402 186.932 12.7954C186.193 13.1888 185.367 13.3888 184.447 13.3888C183.527 13.3888 182.701 13.1955 181.962 12.7954ZM186.066 11.5285C186.549 11.2618 186.925 10.8884 187.201 10.4017C187.476 9.92161 187.61 9.38152 187.61 8.78808C187.61 8.19465 187.476 7.65456 187.201 7.17448C186.925 6.6944 186.549 6.32101 186.066 6.04763C185.582 5.77425 185.045 5.64756 184.447 5.64756C183.85 5.64756 183.306 5.78092 182.822 6.04763C182.339 6.31434 181.962 6.68773 181.687 7.17448C181.412 7.65456 181.277 8.19465 181.277 8.78808C181.277 9.38152 181.412 9.92161 181.687 10.4017C181.962 10.8818 182.339 11.2552 182.822 11.5285C183.306 11.7953 183.843 11.9286 184.447 11.9286C185.045 11.9353 185.589 11.8019 186.066 11.5285Z" fill="#202020"/>
<path d="M197.911 11.8685V13.262H191.155V4.32056H197.73V5.71412H192.827V8.04118H197.179V9.40807H192.827V11.8751H197.911V11.8685Z" fill="#202020"/>
<path d="M79.0508 21.5367H86.062V22.9036H80.6961V25.104H83.3623C84.4435 25.104 85.2628 25.324 85.8269 25.7775C86.391 26.2242 86.6731 26.871 86.6731 27.7111C86.6731 28.5979 86.3642 29.278 85.7463 29.7648C85.1285 30.2449 84.2487 30.4849 83.1071 30.4849H79.0508V21.5367ZM83.013 29.2047C83.6578 29.2047 84.148 29.078 84.4771 28.8313C84.8128 28.5846 84.9807 28.2245 84.9807 27.7578C84.9807 26.8376 84.3226 26.3776 83.013 26.3776H80.6961V29.2047H83.013Z" fill="#202020"/>
<path d="M98.5928 22.0036C99.298 22.397 99.8554 22.9504 100.258 23.6439C100.661 24.344 100.863 25.1308 100.863 26.0109C100.863 26.8911 100.661 27.6779 100.258 28.378C99.8554 29.0781 99.298 29.6249 98.5928 30.0183C97.8877 30.4117 97.0885 30.6117 96.202 30.6117C95.3962 30.6117 94.6574 30.445 93.9926 30.1116C93.3277 29.7782 92.7838 29.3181 92.3607 28.718C91.9376 28.1246 91.669 27.4445 91.5682 26.6844H90.1512V30.4783H88.5059V21.5368H90.1512V25.2041H91.5951C91.716 24.464 91.9846 23.8039 92.4144 23.2305C92.8375 22.657 93.3815 22.2103 94.0396 21.8902C94.6977 21.5702 95.4163 21.4102 96.2088 21.4102C97.0885 21.4102 97.881 21.6035 98.5928 22.0036ZM97.7198 28.758C98.1765 28.4913 98.5324 28.1246 98.7876 27.6445C99.0428 27.1644 99.1704 26.6244 99.1704 26.0109C99.1704 25.3975 99.0428 24.8507 98.7876 24.3773C98.5324 23.8972 98.1765 23.5305 97.7198 23.2638C97.2631 22.9971 96.7594 22.8704 96.202 22.8704C95.6446 22.8704 95.141 23.0038 94.691 23.2638C94.2411 23.5305 93.8851 23.8972 93.6232 24.3773C93.3613 24.8574 93.2337 25.3975 93.2337 26.0109C93.2337 26.6244 93.3613 27.1711 93.6232 27.6445C93.8851 28.1246 94.2411 28.4913 94.691 28.758C95.141 29.0248 95.6446 29.1514 96.202 29.1514C96.7594 29.1514 97.2698 29.0181 97.7198 28.758Z" fill="#202020"/>
<path d="M111.407 29.0782V32.3854H109.862V30.4784H102.952V32.3854H101.394L101.407 29.0782H101.79C102.354 29.0515 102.75 28.6381 102.978 27.8313C103.207 27.0245 103.348 25.871 103.395 24.3774L103.496 21.5436H110.097V29.0848H111.407V29.0782ZM104.584 27.4179C104.436 28.1914 104.207 28.7381 103.885 29.0715H108.452V22.9371H104.926L104.859 24.5241C104.825 25.6843 104.731 26.6511 104.584 27.4179Z" fill="#202020"/>
<path d="M120.849 26.711H119.304V30.4783H117.672V26.711H116.128L113.851 30.4783H111.917L114.751 25.8109L112.112 21.5302H113.885L116.087 25.2774H117.672V21.5368H119.304V25.2841H120.862L123.078 21.5368H124.858L122.226 25.8309L125.046 30.485H123.119L120.849 26.711Z" fill="#202020"/>
<path d="M132.978 29.0847V30.4782H126.222V21.5367H132.796V22.9303H127.894V25.2574H132.246V26.6243H127.894V29.0913H132.978V29.0847Z" fill="#202020"/>
<path d="M141.379 22.9436H138.391V30.4849H136.732V22.9436H133.757V21.5367H141.379V22.9436Z" fill="#202020"/>
<path d="M142.836 21.5367H144.481V27.8845L149.323 21.5367H150.881V30.4849H149.236V24.1438L144.394 30.4849H142.836V21.5367Z" fill="#202020"/>
<path d="M159.149 21.9168C159.727 22.1702 160.17 22.5369 160.479 23.017C160.788 23.4971 160.942 24.0572 160.942 24.7173C160.942 25.364 160.788 25.9308 160.479 26.4109C160.17 26.891 159.727 27.2577 159.149 27.5177C158.571 27.7778 157.886 27.8978 157.107 27.8978H155.073V30.4782H153.4V21.5367H157.107C157.886 21.5367 158.571 21.6634 159.149 21.9168ZM158.692 26.0308C159.068 25.7241 159.256 25.284 159.256 24.7173C159.256 24.1505 159.068 23.7104 158.692 23.4037C158.316 23.097 157.759 22.9436 157.034 22.9436H155.079V26.4976H157.034C157.759 26.4909 158.316 26.3375 158.692 26.0308Z" fill="#202020"/>
<path d="M164.339 30.0116C163.601 29.6182 163.023 29.0648 162.6 28.3647C162.177 27.6645 161.969 26.8777 161.969 26.0043C161.969 25.1308 162.177 24.3507 162.6 23.6439C163.023 22.9438 163.601 22.3903 164.339 21.9969C165.078 21.6035 165.904 21.4035 166.824 21.4035C167.744 21.4035 168.57 21.6035 169.309 21.9969C170.048 22.3903 170.625 22.9438 171.048 23.6372C171.471 24.3373 171.68 25.1241 171.68 26.0043C171.68 26.8844 171.471 27.6712 171.048 28.3713C170.625 29.0714 170.048 29.6182 169.309 30.0116C168.57 30.405 167.744 30.605 166.824 30.605C165.904 30.6117 165.078 30.4117 164.339 30.0116ZM168.449 28.7514C168.933 28.4847 169.309 28.1113 169.584 27.6245C169.86 27.1445 169.994 26.6044 169.994 26.0109C169.994 25.4175 169.86 24.8774 169.584 24.3973C169.309 23.9173 168.933 23.5439 168.449 23.2705C167.966 22.9971 167.429 22.8704 166.831 22.8704C166.233 22.8704 165.689 23.0038 165.206 23.2705C164.722 23.5372 164.346 23.9106 164.071 24.3973C163.795 24.8774 163.661 25.4175 163.661 26.0109C163.661 26.6044 163.795 27.1445 164.071 27.6245C164.346 28.1046 164.722 28.478 165.206 28.7514C165.689 29.0181 166.227 29.1515 166.831 29.1515C167.429 29.1515 167.966 29.0181 168.449 28.7514Z" fill="#202020"/>
<path d="M180.78 26.6176C181.082 26.991 181.23 27.4511 181.23 28.0045C181.23 28.7913 180.941 29.3981 180.357 29.8315C179.772 30.2649 178.926 30.4849 177.818 30.4849H173.547V21.5367H177.576C178.59 21.5367 179.376 21.7368 179.947 22.1368C180.511 22.5369 180.8 23.1037 180.8 23.8371C180.8 24.3039 180.686 24.7106 180.457 25.0507C180.229 25.3907 179.9 25.6508 179.47 25.8308C180.041 25.9842 180.477 26.2442 180.78 26.6176ZM175.192 25.3574H177.429C177.973 25.3574 178.382 25.2507 178.664 25.0373C178.946 24.824 179.087 24.5106 179.087 24.0905C179.087 23.6704 178.946 23.357 178.664 23.137C178.382 22.917 177.973 22.8103 177.429 22.8103H175.192V25.3574ZM179.544 27.8711C179.544 27.0043 178.953 26.5642 177.764 26.5642H175.192V29.198H177.764C178.946 29.2047 179.544 28.7579 179.544 27.8711Z" fill="#202020"/>
<path d="M189.107 28.4113H184.601L183.714 30.4783H181.988L186.045 21.5302H187.69L191.76 30.4783H190.007L189.107 28.4113ZM188.55 27.1044L186.85 23.1971L185.165 27.1044H188.55Z" fill="#202020"/>
<path d="M201.142 21.5367V30.4849H199.47V26.6509H194.809V30.4849H193.137V21.5367H194.809V25.2307H199.47V21.5367H201.142Z" fill="#202020"/>
<path d="M203.674 21.5367H205.319V27.8845L210.161 21.5367H211.719V30.4849H210.074V24.1438L205.232 30.4849H203.674V21.5367Z" fill="#202020"/>
<path d="M221 29.0847V30.4782H214.244V21.5367H220.819V22.9303H215.916V25.2574H220.268V26.6243H215.916V29.0913H221V29.0847Z" fill="#202020"/>
<path d="M89.1309 39.2198C89.8361 39.6132 90.3935 40.1666 90.7964 40.86C91.1993 41.5602 91.4008 42.347 91.4008 43.2271C91.4008 44.1073 91.1993 44.8941 90.7964 45.5942C90.3935 46.2943 89.8361 46.841 89.1309 47.2344C88.4258 47.6278 87.6266 47.8279 86.7401 47.8279C85.9342 47.8279 85.1955 47.6612 84.5307 47.3278C83.8658 46.9944 83.3218 46.5343 82.8988 45.9342C82.4757 45.3408 82.207 44.6607 82.1063 43.9006H80.6893V47.6945H79.0439V38.753H80.6893V42.4203H82.1332C82.254 41.6802 82.5227 41.0201 82.9525 40.4466C83.3756 39.8732 83.9195 39.4265 84.5777 39.1064C85.2358 38.7864 85.9544 38.6263 86.7468 38.6263C87.6266 38.6263 88.4258 38.8264 89.1309 39.2198ZM88.2646 45.9742C88.7212 45.7075 89.0772 45.3408 89.3324 44.8607C89.5876 44.3806 89.7152 43.8405 89.7152 43.2271C89.7152 42.6137 89.5876 42.0669 89.3324 41.5935C89.0772 41.1134 88.7212 40.7467 88.2646 40.48C87.8079 40.2133 87.3042 40.0866 86.7468 40.0866C86.1894 40.0866 85.6858 40.2199 85.2358 40.48C84.7859 40.7467 84.4299 41.1134 84.168 41.5935C83.9061 42.0736 83.7785 42.6137 83.7785 43.2271C83.7785 43.8405 83.9061 44.3873 84.168 44.8607C84.4299 45.3408 84.7859 45.7075 85.2358 45.9742C85.6858 46.2409 86.1894 46.3676 86.7468 46.3676C87.3042 46.3676 87.8079 46.2343 88.2646 45.9742Z" fill="#202020"/>
<path d="M99.3859 40.1598H94.92L94.9334 47.701H93.2881V38.7529H99.3994L99.3859 40.1598Z" fill="#202020"/>
<path d="M106.545 39.1329C107.122 39.3863 107.565 39.753 107.874 40.2331C108.183 40.7132 108.338 41.2733 108.338 41.9334C108.338 42.5802 108.183 43.1469 107.874 43.627C107.565 44.1071 107.122 44.4738 106.545 44.7339C105.967 44.9939 105.282 45.1139 104.503 45.1139H102.468V47.6944H100.796V38.7529H104.503C105.289 38.7529 105.967 38.8796 106.545 39.1329ZM106.088 43.2536C106.464 42.9469 106.652 42.5068 106.652 41.9401C106.652 41.3733 106.464 40.9332 106.088 40.6265C105.712 40.3198 105.154 40.1664 104.429 40.1664H102.475V43.7204H104.429C105.161 43.7137 105.712 43.5603 106.088 43.2536Z" fill="#202020"/>
<path d="M116.572 42.5002C117.149 42.9802 117.438 43.6937 117.438 44.6405C117.438 45.6273 117.122 46.3875 116.484 46.9076C115.846 47.4277 114.96 47.6944 113.805 47.6944H109.93V38.7529H111.575V41.78H114.073C115.161 41.78 115.994 42.0201 116.572 42.5002ZM115.242 45.9741C115.591 45.674 115.772 45.2406 115.772 44.6739C115.772 43.5937 115.094 43.0536 113.737 43.0536H111.588V46.4275H113.737C114.389 46.4208 114.886 46.2741 115.242 45.9741ZM118.741 38.7529H120.386V47.701H118.741V38.7529Z" fill="#202020"/>
<path d="M82.8721 62.4238V63.6973H82.4826V62.7838H79.0576V58.8832H79.4673V62.4238H81.8379V58.8832H82.2476V62.4238H82.8721Z" fill="#202020"/>
<path d="M86.4717 62.4238V62.7838H83.6914V58.8832H86.3844V59.2432H84.1078V60.6301H86.1359V60.9835H84.1078V62.4304H86.4717V62.4238Z" fill="#202020"/>
<path d="M90.6766 58.8832V62.7838H90.2669V60.9835H87.8089V62.7838H87.3926V58.8832H87.8089V60.6235H90.2669V58.8832H90.6766Z" fill="#202020"/>
<path d="M94.5711 59.2432H93.1876V62.7838H92.778V59.2432H91.3945V58.8832H94.5643V59.2432H94.5711Z" fill="#202020"/>
<path d="M97.9487 59.2432C98.2308 59.4833 98.3718 59.81 98.3718 60.2234C98.3718 60.6368 98.2308 60.9635 97.9487 61.2036C97.6667 61.4369 97.2704 61.557 96.7735 61.557H95.7191V62.7905H95.3027V58.8899H96.7735C97.2704 58.8832 97.66 59.0032 97.9487 59.2432ZM97.6465 60.9369C97.8547 60.7702 97.9554 60.5301 97.9554 60.2234C97.9554 59.91 97.8547 59.6633 97.6465 59.4966C97.4383 59.3299 97.1428 59.2432 96.7533 59.2432H95.7124V61.1902H96.7533C97.1496 61.1902 97.445 61.1036 97.6465 60.9369Z" fill="#202020"/>
<path d="M101.414 62.5573C101.098 62.3839 100.849 62.1505 100.675 61.8505C100.5 61.5504 100.406 61.2104 100.406 60.837C100.406 60.4636 100.494 60.1235 100.675 59.8235C100.856 59.5234 101.098 59.2834 101.414 59.11C101.729 58.9367 102.085 58.85 102.475 58.85C102.864 58.85 103.213 58.9367 103.529 59.1033C103.838 59.2767 104.086 59.5101 104.268 59.8101C104.449 60.1102 104.536 60.4502 104.536 60.8303C104.536 61.2104 104.449 61.5438 104.268 61.8438C104.086 62.1439 103.845 62.3839 103.529 62.5573C103.213 62.7306 102.864 62.8106 102.475 62.8106C102.085 62.8173 101.729 62.7306 101.414 62.5573ZM103.314 62.2439C103.563 62.1039 103.764 61.9105 103.905 61.6638C104.046 61.4171 104.12 61.1437 104.12 60.837C104.12 60.5303 104.046 60.2569 103.905 60.0102C103.764 59.7635 103.569 59.5701 103.314 59.4301C103.066 59.29 102.784 59.2234 102.475 59.2234C102.166 59.2234 101.884 59.29 101.629 59.4301C101.373 59.5701 101.179 59.7635 101.031 60.0102C100.89 60.2569 100.816 60.5303 100.816 60.837C100.816 61.1437 100.89 61.4171 101.031 61.6638C101.172 61.9105 101.373 62.1039 101.629 62.2439C101.884 62.3839 102.159 62.4506 102.475 62.4506C102.784 62.4506 103.066 62.3772 103.314 62.2439Z" fill="#202020"/>
<path d="M108.043 59.2432H106.659V62.7838H106.25V59.2432H104.866V58.8832H108.036V59.2432H108.043Z" fill="#202020"/>
<path d="M110.07 60.9969H109.171V62.7838H108.768V58.8832H109.171V60.6301H110.07L111.4 58.8832H111.85L110.393 60.7768L111.937 62.7838H111.461L110.07 60.9969Z" fill="#202020"/>
<path d="M115.222 59.2432C115.504 59.4833 115.645 59.81 115.645 60.2234C115.645 60.6368 115.504 60.9635 115.222 61.2036C114.94 61.4369 114.544 61.557 114.047 61.557H112.993V62.7905H112.576V58.8899H114.047C114.544 58.8832 114.94 59.0032 115.222 59.2432ZM114.927 60.9369C115.135 60.7702 115.236 60.5301 115.236 60.2234C115.236 59.91 115.135 59.6633 114.927 59.4966C114.718 59.3299 114.423 59.2432 114.033 59.2432H112.993V61.1902H114.033C114.423 61.1902 114.718 61.1036 114.927 60.9369Z" fill="#202020"/>
<path d="M119.211 60.5901C119.453 60.7968 119.581 61.1035 119.581 61.5036C119.581 61.9237 119.453 62.2437 119.191 62.4571C118.929 62.6771 118.553 62.7838 118.063 62.7838H116.505V58.8832H116.915V60.2767H118.15C118.607 60.2767 118.963 60.3834 119.211 60.5901ZM118.876 62.2171C119.064 62.057 119.158 61.8237 119.158 61.5103C119.158 60.9102 118.788 60.6101 118.049 60.6101H116.908V62.4571H118.049C118.412 62.4571 118.687 62.3771 118.876 62.2171ZM120.252 58.8832H120.662V62.7838H120.252V58.8832Z" fill="#202020"/>
<path d="M124.556 59.2432H123.173V62.7838H122.763V59.2432H121.38V58.8832H124.55V59.2432H124.556Z" fill="#202020"/>
<path d="M127.995 60.5901C128.236 60.7968 128.364 61.1035 128.364 61.5036C128.364 61.9237 128.236 62.2437 127.974 62.4571C127.712 62.6771 127.336 62.7838 126.846 62.7838H125.288V58.8832H125.698V60.2767H126.927C127.397 60.2767 127.746 60.3834 127.995 60.5901ZM127.665 62.2171C127.853 62.057 127.948 61.8237 127.948 61.5103C127.948 60.9102 127.578 60.6101 126.839 60.6101H125.698V62.4571H126.839C127.195 62.4571 127.471 62.3771 127.665 62.2171ZM129.042 58.8832H129.452V62.7838H129.042V58.8832Z" fill="#202020"/>
<path d="M130.775 58.8832H131.185V62.117L133.697 58.8832H134.073V62.7838H133.663V59.5566L131.151 62.7838H130.775V58.8832ZM131.749 58.4098C131.588 58.2831 131.501 58.1097 131.501 57.883H131.81C131.816 58.0297 131.87 58.1497 131.977 58.2364C132.085 58.3231 132.233 58.3631 132.414 58.3631C132.595 58.3631 132.736 58.3231 132.851 58.2364C132.958 58.1497 133.018 58.0364 133.018 57.883H133.327C133.321 58.1097 133.24 58.2831 133.072 58.4098C132.904 58.5364 132.689 58.5964 132.407 58.5964C132.132 58.6031 131.91 58.5364 131.749 58.4098Z" fill="#202020"/>
<path d="M139.512 59.2432C139.794 59.4833 139.935 59.81 139.935 60.2234C139.935 60.6368 139.794 60.9635 139.512 61.2036C139.23 61.4369 138.834 61.557 138.337 61.557H137.283V62.7905H136.866V58.8899H138.337C138.841 58.8832 139.23 59.0032 139.512 59.2432ZM139.217 60.9369C139.425 60.7702 139.526 60.5301 139.526 60.2234C139.526 59.91 139.425 59.6633 139.217 59.4966C139.009 59.3299 138.713 59.2432 138.324 59.2432H137.283V61.1902H138.324C138.713 61.1902 139.009 61.1036 139.217 60.9369Z" fill="#202020"/>
<path d="M143.568 62.4238V62.7838H140.788V58.8832H143.481V59.2432H141.204V60.6301H143.233V60.9835H141.204V62.4304H143.568V62.4238Z" fill="#202020"/>
<path d="M146.987 59.2432H144.892L144.899 62.7838H144.489V58.8832H146.987V59.2432Z" fill="#202020"/>
<path d="M147.699 58.8832H148.109V62.1171L150.621 58.8832H150.997V62.7838H150.587V59.5566L148.075 62.7838H147.699V58.8832Z" fill="#202020"/>
<path d="M152.991 62.5573C152.675 62.3839 152.427 62.1505 152.252 61.8505C152.077 61.5504 151.983 61.2104 151.983 60.837C151.983 60.4636 152.071 60.1235 152.252 59.8235C152.433 59.5234 152.675 59.2834 152.991 59.11C153.306 58.9367 153.662 58.85 154.052 58.85C154.441 58.85 154.791 58.9367 155.106 59.1033C155.415 59.2767 155.664 59.5101 155.845 59.8101C156.026 60.1102 156.114 60.4502 156.114 60.8303C156.114 61.2104 156.026 61.5438 155.845 61.8438C155.664 62.1439 155.422 62.3839 155.106 62.5573C154.791 62.7306 154.441 62.8106 154.052 62.8106C153.656 62.8173 153.306 62.7306 152.991 62.5573ZM154.885 62.2439C155.133 62.1039 155.335 61.9105 155.476 61.6638C155.617 61.4171 155.69 61.1437 155.69 60.837C155.69 60.5303 155.617 60.2569 155.476 60.0102C155.335 59.7635 155.14 59.5701 154.885 59.4301C154.636 59.29 154.354 59.2234 154.045 59.2234C153.736 59.2234 153.454 59.29 153.199 59.4301C152.944 59.5701 152.749 59.7635 152.601 60.0102C152.46 60.2569 152.386 60.5303 152.386 60.837C152.386 61.1437 152.46 61.4171 152.601 61.6638C152.742 61.9105 152.944 62.1039 153.199 62.2439C153.454 62.3839 153.729 62.4506 154.045 62.4506C154.354 62.4506 154.636 62.3772 154.885 62.2439Z" fill="#202020"/>
<path d="M160.378 58.8832V62.7838H159.968V60.9835H157.51V62.7838H157.094V58.8832H157.51V60.6235H159.968V58.8832H160.378Z" fill="#202020"/>
</svg>
