<svg width="163" height="60" viewBox="0 0 163 60" fill="none" xmlns="http://www.w3.org/2000/svg">
<path d="M35.7473 0H10.7039C10.3571 0 10.0203 0.0200033 9.68351 0.0500083L0.049532 9.77163C0.0198128 10.1117 0 10.4567 0 10.8068V36.091C0 42.057 4.78975 46.8928 10.7039 46.8928H35.7473C36.094 46.8928 36.4358 46.8728 36.7726 46.8428L46.4016 37.1212C46.4313 36.7811 46.4511 36.4361 46.4511 36.086V10.8068C46.4462 4.83581 41.6564 0 35.7473 0ZM30.7693 31.0652H15.6769V15.8276H30.7743V31.0652H30.7693Z" fill="white"/>
<path d="M30.7693 31.0657L2.55585 59.5554C1.61474 60.5056 0 59.8305 0 58.4852V31.6558L15.6769 15.8281V31.0707H30.7693V31.0657Z" fill="#55A932"/>
<path d="M30.7692 31.0645L15.6768 46.307V31.0645H30.7692Z" fill="#008D36"/>
<path d="M58.3042 3.24023H59.5177V8.00103L63.089 3.24023H64.2381V9.95135H63.0246V5.19556L59.4533 9.95135H58.3042V3.24023Z" fill="white"/>
<path d="M71.9999 3.24023V9.95135H70.7666V7.07587H67.329V9.95135H66.0957V3.24023H67.329V6.0107H70.7666V3.24023H71.9999Z" fill="white"/>
<path d="M73.8721 3.24023H75.0856V8.00103L78.6569 3.24023H79.806V9.95135H78.5925V5.19556L75.0212 9.95135H73.8721V3.24023Z" fill="white"/>
<path d="M88.4493 8.89118V11.4216H87.3101V9.94635H81.6733V3.24023H82.8869V8.89618H86.2402V3.24023H87.4636V8.89618H88.4493V8.89118Z" fill="white"/>
<path d="M89.5889 3.24023H90.8024V8.00103L94.3737 3.24023H95.5228V9.95135H94.3093V5.19556L90.738 9.95135H89.5889V3.24023Z" fill="white"/>
<path d="M101.788 8.39719H98.4649L97.8111 9.94745H96.5381L99.5298 3.23633H100.743L103.745 9.94745H102.452L101.788 8.39719ZM101.382 7.41703L100.129 4.48654L98.8859 7.41703H101.382Z" fill="white"/>
<path d="M109.253 4.29041H107.049V9.94635H105.825V4.29041H103.631V3.24023H109.253V4.29041Z" fill="white"/>
<path d="M110.323 3.24023H111.536V8.00103L115.108 3.24023H116.257V9.95135H115.043V5.19556L111.472 9.95135H110.323V3.24023Z" fill="white"/>
<path d="M123.463 7.04587C123.686 7.32591 123.795 7.67097 123.795 8.08604C123.795 8.67614 123.582 9.13122 123.151 9.45627C122.721 9.78132 122.096 9.94635 121.279 9.94635H118.129V3.24023H121.101C121.849 3.24023 122.428 3.39026 122.849 3.69031C123.265 3.99036 123.478 4.41543 123.478 4.96552C123.478 5.31558 123.394 5.62063 123.226 5.87567C123.057 6.13072 122.815 6.32575 122.498 6.46077C122.919 6.57579 123.241 6.77082 123.463 7.04587ZM119.342 6.10571H120.992C121.393 6.10571 121.695 6.0257 121.903 5.86567C122.111 5.70564 122.215 5.47061 122.215 5.15555C122.215 4.8405 122.111 4.60546 121.903 4.44043C121.695 4.27541 121.393 4.19539 120.992 4.19539H119.342V6.10571ZM122.552 7.99103C122.552 7.34092 122.116 7.01086 121.24 7.01086H119.342V8.98619H121.24C122.111 8.98619 122.552 8.65614 122.552 7.99103Z" fill="white"/>
<path d="M131.101 3.24023V9.95135H129.868V7.07587H126.431V9.95135H125.197V3.24023H126.431V6.0107H129.868V3.24023H131.101Z" fill="white"/>
<path d="M134.207 9.5967C133.662 9.30165 133.236 8.88658 132.924 8.36149C132.612 7.83641 132.458 7.24631 132.458 6.5912C132.458 5.93609 132.612 5.35099 132.924 4.82091C133.236 4.29582 133.662 3.88075 134.207 3.5857C134.752 3.29065 135.361 3.14062 136.04 3.14062C136.718 3.14062 137.327 3.29065 137.872 3.5857C138.417 3.88075 138.843 4.29582 139.155 4.8159C139.467 5.34099 139.621 5.93109 139.621 6.5912C139.621 7.25131 139.467 7.84141 139.155 8.3665C138.843 8.89158 138.417 9.30165 137.872 9.5967C137.327 9.89175 136.718 10.0418 136.04 10.0418C135.361 10.0418 134.752 9.89675 134.207 9.5967ZM137.233 8.64654C137.59 8.44651 137.867 8.16646 138.07 7.8014C138.274 7.44134 138.373 7.03627 138.373 6.5912C138.373 6.14613 138.274 5.74106 138.07 5.381C137.867 5.02094 137.59 4.74089 137.233 4.53586C136.877 4.33082 136.48 4.23581 136.04 4.23581C135.599 4.23581 135.198 4.33582 134.841 4.53586C134.484 4.73589 134.207 5.01594 134.004 5.381C133.801 5.74106 133.702 6.14613 133.702 6.5912C133.702 7.03627 133.801 7.44134 134.004 7.8014C134.207 8.16146 134.484 8.44151 134.841 8.64654C135.198 8.84658 135.594 8.94659 136.04 8.94659C136.48 8.95159 136.882 8.85158 137.233 8.64654Z" fill="white"/>
<path d="M145.971 8.90118V9.94635H140.988V3.24023H145.837V4.28541H142.222V6.0307H145.431V7.05587H142.222V8.90618H145.971V8.90118Z" fill="white"/>
<path d="M58.3042 16.1523H63.4753V17.1775H59.5177V18.8278H61.4842C62.2816 18.8278 62.8859 18.9928 63.302 19.3329C63.7181 19.6679 63.9261 20.153 63.9261 20.7831C63.9261 21.4482 63.6982 21.9583 63.2425 22.3234C62.7869 22.6834 62.138 22.8635 61.2959 22.8635H58.3042V16.1523ZM61.2266 21.9033C61.7021 21.9033 62.0637 21.8083 62.3064 21.6233C62.5541 21.4382 62.6779 21.1682 62.6779 20.8181C62.6779 20.128 62.1925 19.783 61.2266 19.783H59.5177V21.9033H61.2266Z" fill="white"/>
<path d="M72.718 16.5037C73.2381 16.7987 73.6492 17.2138 73.9464 17.7339C74.2436 18.259 74.3922 18.8491 74.3922 19.5092C74.3922 20.1693 74.2436 20.7594 73.9464 21.2845C73.6492 21.8096 73.2381 22.2196 72.718 22.5147C72.1979 22.8097 71.6085 22.9597 70.9547 22.9597C70.3603 22.9597 69.8155 22.8347 69.3251 22.5847C68.8347 22.3346 68.4335 21.9896 68.1215 21.5395C67.8094 21.0944 67.6113 20.5843 67.537 20.0143H66.4919V22.8597H65.2783V16.1536H66.4919V18.9041H67.5568C67.646 18.349 67.8441 17.8539 68.1611 17.4238C68.4731 16.9937 68.8743 16.6587 69.3598 16.4187C69.8452 16.1786 70.3752 16.0586 70.9596 16.0586C71.6085 16.0586 72.193 16.2036 72.718 16.5037ZM72.0741 21.5695C72.4109 21.3695 72.6735 21.0944 72.8617 20.7344C73.0499 20.3743 73.144 19.9692 73.144 19.5092C73.144 19.0491 73.0499 18.639 72.8617 18.284C72.6735 17.9239 72.4109 17.6489 72.0741 17.4488C71.7373 17.2488 71.3658 17.1538 70.9547 17.1538C70.5436 17.1538 70.1721 17.2538 69.8402 17.4488C69.5084 17.6489 69.2458 17.9239 69.0527 18.284C68.8595 18.644 68.7654 19.0491 68.7654 19.5092C68.7654 19.9692 68.8595 20.3793 69.0527 20.7344C69.2458 21.0944 69.5084 21.3695 69.8402 21.5695C70.1721 21.7695 70.5436 21.8646 70.9547 21.8646C71.3658 21.8646 71.7422 21.7645 72.0741 21.5695Z" fill="white"/>
<path d="M82.1689 21.8091V24.2896H81.0297V22.8593H75.9328V24.2896H74.7837L74.7936 21.8091H75.0759C75.492 21.7891 75.7842 21.4791 75.9526 20.874C76.1211 20.2689 76.2251 19.4037 76.2598 18.2836L76.334 16.1582H81.203V21.8141H82.1689V21.8091ZM77.1365 20.5639C77.0275 21.144 76.8591 21.5541 76.6213 21.8041H79.9895V17.2034H77.3891L77.3395 18.3936C77.3148 19.2637 77.2454 19.9888 77.1365 20.5639Z" fill="white"/>
<path d="M89.1332 20.0341H87.9939V22.8596H86.7903V20.0341H85.6511L83.9719 22.8596H82.5454L84.6357 19.359L82.6891 16.1484H83.9967L85.6214 18.9589H86.7903V16.1534H87.9939V18.9639H89.1431L90.7776 16.1534H92.0902L90.1486 19.374L92.2289 22.8646H90.8074L89.1332 20.0341Z" fill="white"/>
<path d="M98.0786 21.8133V22.8585H93.0957V16.1523H97.9449V17.1975H94.3291V18.9428H97.5387V19.968H94.3291V21.8183H98.0786V21.8133Z" fill="white"/>
<path d="M104.275 17.2075H102.071V22.8635H100.847V17.2075H98.6528V16.1523H104.275V17.2075Z" fill="white"/>
<path d="M105.35 16.1523H106.563V20.9131L110.134 16.1523H111.284V22.8635H110.07V18.1077L106.499 22.8635H105.35V16.1523Z" fill="white"/>
<path d="M117.381 16.4374C117.807 16.6274 118.134 16.9025 118.362 17.2625C118.59 17.6226 118.704 18.0427 118.704 18.5377C118.704 19.0228 118.59 19.4479 118.362 19.808C118.134 20.168 117.807 20.4431 117.381 20.6381C116.955 20.8331 116.45 20.9231 115.875 20.9231H114.374V22.8585H113.141V16.1523H115.875C116.45 16.1523 116.955 16.2474 117.381 16.4374ZM117.044 19.5229C117.322 19.2929 117.46 18.9628 117.46 18.5377C117.46 18.1127 117.322 17.7826 117.044 17.5526C116.767 17.3225 116.356 17.2075 115.821 17.2075H114.379V19.873H115.821C116.356 19.868 116.767 19.7529 117.044 19.5229Z" fill="white"/>
<path d="M121.21 22.5088C120.665 22.2138 120.239 21.7987 119.927 21.2736C119.615 20.7485 119.461 20.1584 119.461 19.5033C119.461 18.8482 119.615 18.2631 119.927 17.733C120.239 17.2079 120.665 16.7929 121.21 16.4978C121.755 16.2028 122.364 16.0527 123.043 16.0527C123.721 16.0527 124.33 16.2028 124.875 16.4978C125.42 16.7929 125.846 17.2079 126.158 17.728C126.47 18.2531 126.624 18.8432 126.624 19.5033C126.624 20.1634 126.47 20.7535 126.158 21.2786C125.846 21.8037 125.42 22.2138 124.875 22.5088C124.33 22.8039 123.721 22.9539 123.043 22.9539C122.364 22.9589 121.755 22.8089 121.21 22.5088ZM124.241 21.5637C124.598 21.3636 124.875 21.0836 125.078 20.7185C125.281 20.3585 125.381 19.9534 125.381 19.5083C125.381 19.0632 125.281 18.6582 125.078 18.2981C124.875 17.938 124.598 17.658 124.241 17.453C123.885 17.2479 123.488 17.1529 123.048 17.1529C122.607 17.1529 122.206 17.2529 121.849 17.453C121.492 17.653 121.215 17.933 121.012 18.2981C120.809 18.6582 120.71 19.0632 120.71 19.5083C120.71 19.9534 120.809 20.3585 121.012 20.7185C121.215 21.0786 121.492 21.3586 121.849 21.5637C122.206 21.7637 122.602 21.8637 123.048 21.8637C123.488 21.8637 123.885 21.7637 124.241 21.5637Z" fill="white"/>
<path d="M133.336 19.963C133.558 20.243 133.667 20.5881 133.667 21.0032C133.667 21.5933 133.454 22.0483 133.023 22.3734C132.593 22.6984 131.968 22.8635 131.151 22.8635H128.001V16.1523H130.973C131.721 16.1523 132.3 16.3024 132.721 16.6024C133.137 16.9025 133.35 17.3275 133.35 17.8776C133.35 18.2277 133.266 18.5327 133.098 18.7878C132.929 19.0428 132.687 19.2379 132.37 19.3729C132.791 19.4879 133.113 19.6829 133.336 19.963ZM129.214 19.0178H130.864C131.265 19.0178 131.567 18.9378 131.775 18.7778C131.983 18.6178 132.087 18.3827 132.087 18.0677C132.087 17.7526 131.983 17.5176 131.775 17.3525C131.567 17.1875 131.265 17.1075 130.864 17.1075H129.214V19.0178ZM132.424 20.9031C132.424 20.253 131.988 19.923 131.112 19.923H129.214V21.8983H131.112C131.983 21.9033 132.424 21.5682 132.424 20.9031Z" fill="white"/>
<path d="M139.477 21.3093H136.154L135.5 22.8596H134.227L137.219 16.1484H138.432L141.434 22.8596H140.141L139.477 21.3093ZM139.066 20.3291L137.813 17.3986L136.57 20.3291H139.066Z" fill="white"/>
<path d="M148.353 16.1523V22.8635H147.12V19.988H143.683V22.8635H142.449V16.1523H143.683V18.9228H147.12V16.1523H148.353Z" fill="white"/>
<path d="M150.221 16.1523H151.434V20.9131L155.006 16.1523H156.155V22.8635H154.941V18.1077L151.37 22.8635H150.221V16.1523Z" fill="white"/>
<path d="M163 21.8133V22.8585H158.017V16.1523H162.866V17.1975H159.25V18.9428H162.46V19.968H159.25V21.8183H163V21.8133Z" fill="white"/>
<path d="M65.739 29.4158C66.2591 29.7108 66.6702 30.1259 66.9674 30.646C67.2646 31.1711 67.4132 31.7612 67.4132 32.4213C67.4132 33.0814 67.2646 33.6715 66.9674 34.1966C66.6702 34.7217 66.2591 35.1317 65.739 35.4268C65.2189 35.7218 64.6295 35.8719 63.9757 35.8719C63.3813 35.8719 62.8365 35.7468 62.3461 35.4968C61.8557 35.2468 61.4545 34.9017 61.1425 34.4516C60.8304 34.0065 60.6323 33.4965 60.558 32.9264H59.5129V35.7718H58.2993V29.0657H59.5129V31.8162H60.5778C60.667 31.2611 60.8651 30.766 61.1821 30.3359C61.4941 29.9059 61.8953 29.5708 62.3808 29.3308C62.8662 29.0907 63.3962 28.9707 63.9806 28.9707C64.6295 28.9707 65.2189 29.1207 65.739 29.4158ZM65.1001 34.4816C65.4369 34.2816 65.6994 34.0065 65.8876 33.6465C66.0758 33.2864 66.17 32.8814 66.17 32.4213C66.17 31.9612 66.0758 31.5511 65.8876 31.1961C65.6994 30.836 65.4369 30.561 65.1001 30.3609C64.7632 30.1609 64.3918 30.0659 63.9806 30.0659C63.5695 30.0659 63.198 30.1659 62.8662 30.3609C62.5343 30.561 62.2718 30.836 62.0786 31.1961C61.8854 31.5561 61.7913 31.9612 61.7913 32.4213C61.7913 32.8814 61.8854 33.2914 62.0786 33.6465C62.2718 34.0065 62.5343 34.2816 62.8662 34.4816C63.198 34.6817 63.5695 34.7767 63.9806 34.7767C64.3918 34.7767 64.7632 34.6767 65.1001 34.4816Z" fill="white"/>
<path d="M73.3027 30.1196H70.0088L70.0187 35.7756H68.8052V29.0645H73.3126L73.3027 30.1196Z" fill="white"/>
<path d="M78.5827 29.3495C79.0087 29.5395 79.3356 29.8146 79.5634 30.1746C79.7913 30.5347 79.9052 30.9548 79.9052 31.4499C79.9052 31.9349 79.7913 32.36 79.5634 32.7201C79.3356 33.0801 79.0087 33.3552 78.5827 33.5502C78.1567 33.7452 77.6515 33.8353 77.0769 33.8353H75.5761V35.7706H74.3428V29.0645H77.0769C77.6565 29.0645 78.1567 29.1595 78.5827 29.3495ZM78.2459 32.44C78.5233 32.21 78.662 31.8799 78.662 31.4549C78.662 31.0298 78.5233 30.6997 78.2459 30.4697C77.9685 30.2396 77.5574 30.1246 77.0225 30.1246H75.5811V32.7901H77.0225C77.5624 32.7851 77.9685 32.6701 78.2459 32.44Z" fill="white"/>
<path d="M85.9778 31.8749C86.4038 32.235 86.6168 32.7701 86.6168 33.4802C86.6168 34.2203 86.384 34.7904 85.9134 35.1805C85.4429 35.5705 84.7891 35.7706 83.9371 35.7706H81.0791V29.0645H82.2926V31.3348H84.1352C84.9376 31.3348 85.5518 31.5149 85.9778 31.8749ZM84.9971 34.4804C85.2547 34.2553 85.3884 33.9303 85.3884 33.5052C85.3884 32.6951 84.8881 32.29 83.8876 32.29H82.3025V34.8204H83.8876C84.368 34.8154 84.7346 34.7054 84.9971 34.4804ZM87.5777 29.0645H88.7912V35.7756H87.5777V29.0645Z" fill="white"/>
<path d="M61.1225 46.8176V47.7727H60.8352V47.0876H58.3091V44.1621H58.6112V46.8176H60.3597V44.1621H60.6619V46.8176H61.1225Z" fill="white"/>
<path d="M63.7772 46.8176V47.0876H61.7266V44.1621H63.7128V44.4322H62.0337V45.4723H63.5295V45.7374H62.0337V46.8226H63.7772V46.8176Z" fill="white"/>
<path d="M66.8782 44.1621V47.0876H66.576V45.7374H64.7632V47.0876H64.4561V44.1621H64.7632V45.4673H66.576V44.1621H66.8782Z" fill="white"/>
<path d="M69.7511 44.4322H68.7307V47.0876H68.4286V44.4322H67.4082V44.1621H69.7461V44.4322H69.7511Z" fill="white"/>
<path d="M72.2426 44.4332C72.4506 44.6132 72.5546 44.8583 72.5546 45.1683C72.5546 45.4784 72.4506 45.7234 72.2426 45.9035C72.0345 46.0785 71.7423 46.1685 71.3758 46.1685H70.5981V47.0937H70.291V44.1682H71.3758C71.7423 44.1632 72.0296 44.2532 72.2426 44.4332ZM72.0197 45.7034C72.1732 45.5784 72.2475 45.3984 72.2475 45.1683C72.2475 44.9333 72.1732 44.7483 72.0197 44.6232C71.8661 44.4982 71.6482 44.4332 71.3609 44.4332H70.5932V45.8935H71.3609C71.6531 45.8935 71.8711 45.8284 72.0197 45.7034Z" fill="white"/>
<path d="M74.7982 46.9172C74.5654 46.7872 74.3821 46.6121 74.2533 46.3871C74.1245 46.1621 74.0552 45.907 74.0552 45.627C74.0552 45.3469 74.1196 45.0919 74.2533 44.8668C74.387 44.6418 74.5654 44.4618 74.7982 44.3318C75.031 44.2017 75.2935 44.1367 75.5808 44.1367C75.8681 44.1367 76.1256 44.2017 76.3584 44.3267C76.5863 44.4568 76.7695 44.6318 76.9033 44.8568C77.037 45.0819 77.1014 45.3369 77.1014 45.622C77.1014 45.907 77.037 46.1571 76.9033 46.3821C76.7695 46.6071 76.5912 46.7872 76.3584 46.9172C76.1256 47.0472 75.8681 47.1072 75.5808 47.1072C75.2935 47.1122 75.031 47.0472 74.7982 46.9172ZM76.1999 46.6821C76.3832 46.5771 76.5318 46.4321 76.6358 46.2471C76.7398 46.062 76.7943 45.857 76.7943 45.627C76.7943 45.3969 76.7398 45.1919 76.6358 45.0069C76.5318 44.8218 76.3881 44.6768 76.1999 44.5718C76.0166 44.4668 75.8086 44.4168 75.5808 44.4168C75.3529 44.4168 75.1449 44.4668 74.9567 44.5718C74.7684 44.6768 74.6248 44.8218 74.5158 45.0069C74.4118 45.1919 74.3573 45.3969 74.3573 45.627C74.3573 45.857 74.4118 46.062 74.5158 46.2471C74.6198 46.4321 74.7684 46.5771 74.9567 46.6821C75.1449 46.7872 75.348 46.8372 75.5808 46.8372C75.8086 46.8372 76.0166 46.7822 76.1999 46.6821Z" fill="white"/>
<path d="M79.6871 44.4322H78.6668V47.0876H78.3646V44.4322H77.3442V44.1621H79.6822V44.4322H79.6871Z" fill="white"/>
<path d="M81.1831 45.7474H80.5194V47.0876H80.2222V44.1621H80.5194V45.4723H81.1831L82.1638 44.1621H82.4957L81.4208 45.5823L82.5601 47.0876H82.2084L81.1831 45.7474Z" fill="white"/>
<path d="M84.9819 44.4332C85.1899 44.6132 85.2939 44.8583 85.2939 45.1683C85.2939 45.4784 85.1899 45.7234 84.9819 45.9035C84.7738 46.0785 84.4816 46.1685 84.115 46.1685H83.3374V47.0937H83.0303V44.1682H84.115C84.4816 44.1632 84.7738 44.2532 84.9819 44.4332ZM84.7639 45.7034C84.9175 45.5784 84.9918 45.3984 84.9918 45.1683C84.9918 44.9333 84.9175 44.7483 84.7639 44.6232C84.6104 44.4982 84.3924 44.4332 84.1051 44.4332H83.3374V45.8935H84.1051C84.3924 45.8935 84.6104 45.8284 84.7639 45.7034Z" fill="white"/>
<path d="M87.9244 45.4423C88.1027 45.5974 88.1968 45.8274 88.1968 46.1274C88.1968 46.4425 88.1027 46.6825 87.9095 46.8426C87.7163 47.0076 87.439 47.0876 87.0774 47.0876H85.9282V44.1621H86.2304V45.2073H87.1418C87.4786 45.2073 87.7411 45.2873 87.9244 45.4423ZM87.6767 46.6625C87.8154 46.5425 87.8847 46.3675 87.8847 46.1324C87.8847 45.6824 87.6123 45.4573 87.0675 45.4573H86.2254V46.8426H87.0675C87.3349 46.8426 87.538 46.7825 87.6767 46.6625ZM88.6921 44.1621H88.9943V47.0876H88.6921V44.1621Z" fill="white"/>
<path d="M91.8668 44.4322H90.8464V47.0876H90.5443V44.4322H89.5239V44.1621H91.8618V44.4322H91.8668Z" fill="white"/>
<path d="M94.4029 45.4423C94.5812 45.5974 94.6753 45.8274 94.6753 46.1274C94.6753 46.4425 94.5812 46.6825 94.388 46.8426C94.1948 47.0076 93.9175 47.0876 93.5559 47.0876H92.4067V44.1621H92.7089V45.2073H93.6153C93.962 45.2073 94.2196 45.2873 94.4029 45.4423ZM94.1602 46.6625C94.2989 46.5425 94.3682 46.3675 94.3682 46.1324C94.3682 45.6824 94.0958 45.4573 93.5509 45.4573H92.7089V46.8426H93.5509C93.8134 46.8426 94.0165 46.7825 94.1602 46.6625ZM95.1756 44.1621H95.4777V47.0876H95.1756V44.1621Z" fill="white"/>
<path d="M96.4536 44.1622H96.7558V46.5876L98.6083 44.1622H98.8856V47.0877H98.5835V44.6673L96.731 47.0877H96.4536V44.1622ZM97.1718 43.8072C97.0529 43.7122 96.9886 43.5821 96.9886 43.4121H97.2164C97.2214 43.5221 97.261 43.6121 97.3402 43.6772C97.4195 43.7422 97.5285 43.7722 97.6622 43.7722C97.7959 43.7722 97.8999 43.7422 97.9842 43.6772C98.0634 43.6121 98.108 43.5271 98.108 43.4121H98.3358C98.3309 43.5821 98.2714 43.7122 98.1476 43.8072C98.0238 43.9022 97.8653 43.9472 97.6572 43.9472C97.4542 43.9522 97.2907 43.9022 97.1718 43.8072Z" fill="white"/>
<path d="M102.898 44.4332C103.106 44.6132 103.21 44.8583 103.21 45.1683C103.21 45.4784 103.106 45.7234 102.898 45.9035C102.69 46.0785 102.398 46.1685 102.031 46.1685H101.253V47.0937H100.946V44.1682H102.031C102.403 44.1632 102.69 44.2532 102.898 44.4332ZM102.68 45.7034C102.833 45.5784 102.908 45.3984 102.908 45.1683C102.908 44.9333 102.833 44.7483 102.68 44.6232C102.526 44.4982 102.308 44.4332 102.021 44.4332H101.253V45.8935H102.021C102.308 45.8935 102.526 45.8284 102.68 45.7034Z" fill="white"/>
<path d="M105.889 46.8176V47.0876H103.839V44.1621H105.825V44.4322H104.146V45.4723H105.642V45.7374H104.146V46.8226H105.889V46.8176Z" fill="white"/>
<path d="M108.411 44.4322H106.866L106.871 47.0876H106.568V44.1621H108.411V44.4322Z" fill="white"/>
<path d="M108.936 44.1621H109.238V46.5875L111.09 44.1621H111.368V47.0876H111.065V44.6672L109.213 47.0876H108.936V44.1621Z" fill="white"/>
<path d="M112.839 46.9172C112.606 46.7872 112.423 46.6121 112.294 46.3871C112.165 46.1621 112.096 45.907 112.096 45.627C112.096 45.3469 112.16 45.0919 112.294 44.8668C112.428 44.6418 112.606 44.4618 112.839 44.3318C113.071 44.2017 113.334 44.1367 113.621 44.1367C113.909 44.1367 114.166 44.2017 114.399 44.3267C114.627 44.4568 114.81 44.6318 114.944 44.8568C115.078 45.0819 115.142 45.3369 115.142 45.622C115.142 45.907 115.078 46.1571 114.944 46.3821C114.81 46.6071 114.632 46.7872 114.399 46.9172C114.166 47.0472 113.909 47.1072 113.621 47.1072C113.329 47.1122 113.071 47.0472 112.839 46.9172ZM114.235 46.6821C114.419 46.5771 114.567 46.4321 114.671 46.2471C114.775 46.062 114.83 45.857 114.83 45.627C114.83 45.3969 114.775 45.1919 114.671 45.0069C114.567 44.8218 114.424 44.6768 114.235 44.5718C114.052 44.4668 113.844 44.4168 113.616 44.4168C113.388 44.4168 113.18 44.4668 112.992 44.5718C112.804 44.6768 112.66 44.8218 112.551 45.0069C112.447 45.1919 112.393 45.3969 112.393 45.627C112.393 45.857 112.447 46.062 112.551 46.2471C112.655 46.4321 112.804 46.5771 112.992 46.6821C113.18 46.7872 113.384 46.8372 113.616 46.8372C113.844 46.8372 114.052 46.7822 114.235 46.6821Z" fill="white"/>
<path d="M118.287 44.1621V47.0876H117.985V45.7374H116.172V47.0876H115.865V44.1621H116.172V45.4673H117.985V44.1621H118.287Z" fill="white"/>
</svg>
