<svg width="60" height="60" viewBox="0 0 60 60" fill="none" xmlns="http://www.w3.org/2000/svg">
<path d="M51.7969 5.27344H49.6289V3.80859C49.6289 1.70859 47.9203 0 45.8203 0C43.7203 0 42.0117 1.70859 42.0117 3.80859V5.27344H39.082V3.80859C39.082 1.70859 37.3734 0 35.2734 0C33.1734 0 31.4648 1.70859 31.4648 3.80859V5.27344H28.5352V3.80859C28.5352 1.70859 26.8266 0 24.7266 0C22.6266 0 20.918 1.70859 20.918 3.80859V5.27344H17.9883V3.80859C17.9883 1.70859 16.2797 0 14.1797 0C12.0797 0 10.3711 1.70859 10.3711 3.80859V5.27344H8.20312C3.67969 5.27344 0 8.95312 0 13.4766V51.7969C0 56.3203 3.67969 60 8.20312 60H51.7969C56.3203 60 60 56.3203 60 51.7969V13.4766C60 8.95312 56.3203 5.27344 51.7969 5.27344ZM44.3555 3.80859C44.3555 3.00117 45.0129 2.34375 45.8203 2.34375C46.6277 2.34375 47.2852 3.00117 47.2852 3.80859V9.08203C47.2852 9.88945 46.6277 10.5469 45.8203 10.5469C45.0129 10.5469 44.3555 9.88945 44.3555 9.08203V3.80859ZM33.8086 3.80859C33.8086 3.00117 34.466 2.34375 35.2734 2.34375C36.0809 2.34375 36.7383 3.00117 36.7383 3.80859V9.08203C36.7383 9.88945 36.0809 10.5469 35.2734 10.5469C34.466 10.5469 33.8086 9.88945 33.8086 9.08203V3.80859ZM23.2617 3.80859C23.2617 3.00117 23.9191 2.34375 24.7266 2.34375C25.534 2.34375 26.1914 3.00117 26.1914 3.80859V9.08203C26.1914 9.88945 25.534 10.5469 24.7266 10.5469C23.9191 10.5469 23.2617 9.88945 23.2617 9.08203V3.80859ZM12.7148 3.80859C12.7148 3.00117 13.3723 2.34375 14.1797 2.34375C14.9871 2.34375 15.6445 3.00117 15.6445 3.80859V9.08203C15.6445 9.88945 14.9871 10.5469 14.1797 10.5469C13.3723 10.5469 12.7148 9.88945 12.7148 9.08203V3.80859ZM57.6562 51.7969C57.6562 55.0277 55.0277 57.6562 51.7969 57.6562H8.20312C4.97227 57.6562 2.34375 55.0277 2.34375 51.7969V13.4766C2.34375 10.2457 4.97227 7.61719 8.20312 7.61719H10.3711V9.08203C10.3711 11.182 12.0797 12.8906 14.1797 12.8906C16.2797 12.8906 17.9883 11.182 17.9883 9.08203V7.61719H20.918V9.08203C20.918 11.182 22.6266 12.8906 24.7266 12.8906C26.8266 12.8906 28.5352 11.182 28.5352 9.08203V7.61719H31.4648V9.08203C31.4648 11.182 33.1734 12.8906 35.2734 12.8906C37.3734 12.8906 39.082 11.182 39.082 9.08203V7.61719H42.0117V9.08203C42.0117 11.182 43.7203 12.8906 45.8203 12.8906C47.9203 12.8906 49.6289 11.182 49.6289 9.08203V7.61719H51.7969C55.0277 7.61719 57.6562 10.2457 57.6562 13.4766V51.7969Z" fill="#27348B"/>
<path d="M51.7969 15.8203H24.7266C24.0797 15.8203 23.5547 16.3453 23.5547 16.9922C23.5547 17.6391 24.0797 18.1641 24.7266 18.1641H51.7969C52.1039 18.1641 52.3828 18.443 52.3828 18.75V51.7969C52.3828 52.1039 52.1039 52.3828 51.7969 52.3828H8.20312C7.89609 52.3828 7.61719 52.1039 7.61719 51.7969V18.75C7.61719 18.443 7.89609 18.1641 8.20312 18.1641H14.1797C14.8266 18.1641 15.3516 17.6391 15.3516 16.9922C15.3516 16.3453 14.8266 15.8203 14.1797 15.8203H8.20312C6.58828 15.8203 5.27344 17.134 5.27344 18.75V51.7969C5.27344 53.4129 6.58828 54.7266 8.20312 54.7266H51.7969C53.4117 54.7266 54.7266 53.4129 54.7266 51.7969V18.75C54.7266 17.134 53.4129 15.8203 51.7969 15.8203Z" fill="#27348B"/>
<path d="M19.1334 32.6132C18.8814 33.3738 19.0678 34.2058 19.6186 34.7859L23.1014 38.4632L22.4135 43.3242C22.2939 44.121 22.6209 44.9132 23.2654 45.3913C23.6463 45.6749 24.0998 45.8191 24.5568 45.8191C24.8721 45.8191 25.1885 45.7499 25.485 45.6093L30.0646 43.4296L34.4393 45.5683C35.1518 45.9433 36.0049 45.8929 36.674 45.4335C37.3479 44.9706 37.7006 44.1796 37.5951 43.3687L36.9389 38.3448L40.3654 34.8034C40.9232 34.2304 41.1189 33.3995 40.8752 32.6331C40.6326 31.8702 39.9928 31.3066 39.2064 31.1613L34.2295 30.2343L31.9209 25.882C31.5494 25.1741 30.8205 24.7312 30.0178 24.7253C29.2162 24.7206 28.4826 25.1519 28.0994 25.855L25.6795 30.3034L20.8197 31.1554C20.0311 31.2925 19.3854 31.8515 19.1334 32.6132ZM26.6393 32.5148C26.9908 32.4527 27.2955 32.2347 27.4666 31.9206L30.0002 27.2659L32.4236 31.8339C32.5912 32.1491 32.8936 32.3718 33.2439 32.4363L38.4564 33.4077L34.8611 37.1238C34.6127 37.3804 34.4955 37.7366 34.5412 38.0906L35.2279 43.3464L30.5861 41.0765C30.265 40.9195 29.89 40.9171 29.5678 41.0706L24.776 43.3511L25.5002 38.2312C25.5506 37.8773 25.4369 37.5198 25.1908 37.2609L21.5416 33.4089L26.6393 32.5148Z" fill="#27348B"/>
<path d="M19.4531 18.1641C20.1 18.1641 20.625 17.6391 20.625 16.9922C20.625 16.3453 20.1 15.8203 19.4531 15.8203C18.8062 15.8203 18.2812 16.3453 18.2812 16.9922C18.2812 17.6391 18.8062 18.1641 19.4531 18.1641Z" fill="#27348B"/>
</svg>
