<svg width="60" height="60" viewBox="0 0 60 60" fill="none" xmlns="http://www.w3.org/2000/svg">
<g clip-path="url(#clip0)">
<path d="M26.9531 15.8203C29.9262 15.8203 32.7223 16.9781 34.8258 19.0805C36.9281 21.1852 38.0859 23.9801 38.0859 26.9531C38.0859 27.6 38.6109 28.125 39.2578 28.125H52.7344C53.3812 28.125 53.9062 27.6 53.9062 26.9531C53.9062 19.7531 51.102 12.9844 46.0113 7.89492C46.0113 7.89492 46.0102 7.89492 46.0102 7.89375C40.9207 2.80313 34.1531 0 26.9531 0C19.7531 0 12.9855 2.80313 7.89492 7.89492C2.80313 12.9855 0 19.7543 0 26.9531C0 34.1531 2.8043 40.9219 7.89492 46.0113C7.89492 46.0113 7.89492 46.0113 7.89609 46.0125C12.9855 51.1031 19.7531 53.9062 26.9531 53.9062C27.6 53.9062 28.125 53.3812 28.125 52.7344V39.2578C28.125 38.6109 27.6 38.0859 26.9531 38.0859C23.9801 38.0859 21.184 36.9281 19.0805 34.8258C16.9781 32.7211 15.8203 29.9262 15.8203 26.9531C15.8203 20.8148 20.8148 15.8203 26.9531 15.8203ZM40.3793 25.7812C40.1426 23.0109 39.0668 20.4141 37.2762 18.2871L45.1641 10.3992C49.0371 14.6496 51.2684 20.0355 51.5355 25.7812H40.3793ZM35.6191 16.6301C33.4922 14.8395 30.8953 13.7637 28.125 13.527V2.3707C33.8695 2.63789 39.2555 4.86914 43.5059 8.74219L35.6191 16.6301ZM25.7812 51.5355C20.0367 51.2684 14.6508 49.0371 10.4004 45.1641L18.2883 37.2762C20.4152 39.0668 23.0121 40.1426 25.7824 40.3793V51.5355H25.7812ZM16.6301 35.6191L8.74219 43.507C4.60664 38.9684 2.34375 33.1348 2.34375 26.9531C2.34375 13.7766 12.7535 2.98477 25.7812 2.37188V13.527C18.8965 14.1223 13.4766 19.9172 13.4766 26.9531C13.4766 30.1594 14.5887 33.1945 16.6301 35.6191Z" fill="#27348B"/>
<path d="M59.8445 40.0814C59.6886 39.8095 59.4367 39.615 59.1343 39.5341C59.1343 39.5341 45.8921 35.9752 45.789 35.9752C45.2629 35.9752 44.7988 36.3314 44.6605 36.84C43.6293 40.6322 40.6328 43.6287 36.8406 44.6588C36.2183 44.8287 35.8492 45.4732 36.0179 46.0955L39.5336 59.1326C39.6156 59.4349 39.8101 59.6881 40.082 59.8439C40.2601 59.9459 40.4617 59.9998 40.6632 59.9998C40.7664 59.9998 40.8707 59.9869 40.9714 59.9588C43.7136 59.217 46.3117 58.0474 48.6941 56.4841C48.9554 56.3119 49.1347 56.0494 49.198 55.7423C49.2613 55.4365 49.2015 55.1236 49.0304 54.8611C48.8125 54.5306 48.4457 54.3326 48.0496 54.3326C47.8211 54.3326 47.5996 54.3994 47.4074 54.5248C45.5664 55.733 43.5742 56.688 41.4847 57.363L38.5714 46.5642C39.4855 46.2267 40.3656 45.7884 41.1871 45.2611C41.9992 44.7396 42.7586 44.1279 43.4429 43.4435C44.1273 42.7591 44.739 41.9998 45.2617 41.1865C45.789 40.365 46.2273 39.4849 46.5648 38.5709L57.3636 41.4841C56.6816 43.5935 55.7148 45.6056 54.4879 47.463C54.3156 47.7244 54.2558 48.0373 54.3179 48.3443C54.3812 48.6502 54.5593 48.9138 54.8207 49.0873C55.0129 49.2138 55.2355 49.2806 55.4652 49.2806C55.8613 49.2806 56.2269 49.0838 56.4449 48.7545C58.0281 46.3556 59.2105 43.7365 59.9593 40.9709C60.0414 40.6685 60.0004 40.3533 59.8445 40.0814Z" fill="#27348B"/>
<path d="M52.1357 53.3566C52.783 53.3566 53.3076 52.8319 53.3076 52.1847C53.3076 51.5375 52.783 51.0128 52.1357 51.0128C51.4885 51.0128 50.9639 51.5375 50.9639 52.1847C50.9639 52.8319 51.4885 53.3566 52.1357 53.3566Z" fill="#27348B"/>
<path d="M40.3932 25.781C40.1564 23.0107 39.0807 20.4138 37.29 18.2869L45.1779 10.399C49.051 14.6494 51.2822 20.0353 51.5494 25.781H40.3932Z" fill="#E4E6F2"/>
<path d="M16.6442 35.6189L8.75635 43.5068C4.6208 38.9681 2.35791 33.1357 2.35791 26.9529C2.35791 13.7763 12.7677 2.98453 25.7954 2.37164V13.5267C18.9106 14.122 13.4907 19.917 13.4907 26.9529C13.4896 30.1591 14.6017 33.1943 16.6442 35.6189Z" fill="#ED6C71"/>
</g>
<defs>
<clipPath id="clip0">
<rect width="60" height="60" fill="white"/>
</clipPath>
</defs>
</svg>
