<svg width="165" height="60" viewBox="0 0 165 60" fill="none" xmlns="http://www.w3.org/2000/svg">
<g clip-path="url(#clip0)">
<path d="M64.7881 9.80716V12.3399H63.6533V10.8602H58.0342V4.1499H59.2447V9.80716H62.5872V4.1499H63.8046V9.80716H64.7881Z" fill="black"/>
<path d="M70.8818 9.81405V10.8602H65.916V4.1499H70.7511V5.19601H67.1471V6.94412H70.3453V7.96959H67.1471V9.81405H70.8818Z" fill="black"/>
<path d="M78.1383 4.1499V10.8602H76.9072V7.98335H73.4821V10.8602H72.251V4.1499H73.4821V6.92347H76.9072V4.1499H78.1383Z" fill="black"/>
<path d="M84.7957 5.20978H82.6017V10.8602H81.3844V5.20978H79.1973V4.1499H84.7957V5.20978Z" fill="black"/>
<path d="M89.7404 7.52912C90.0155 7.302 90.16 6.97165 90.16 6.54495C90.16 6.11824 90.0224 5.78789 89.7404 5.56078C89.4653 5.33366 89.0595 5.21666 88.5231 5.21666H87.0856V7.88012H88.5231C89.0595 7.87323 89.4653 7.75623 89.7404 7.52912ZM90.0774 4.43896C90.5039 4.63166 90.8271 4.90696 91.0541 5.26484C91.281 5.62272 91.3911 6.04942 91.3911 6.53806C91.3911 7.02671 91.2742 7.44653 91.0541 7.80441C90.8271 8.16917 90.497 8.44447 90.0774 8.63717C89.651 8.82987 89.1489 8.92623 88.5781 8.92623H87.0856V10.8602H85.8545V4.1499H88.5781C89.1558 4.1499 89.651 4.24625 90.0774 4.43896Z" fill="black"/>
<path d="M62.2848 22.4775C62.6356 22.2779 62.9175 21.9957 63.117 21.6378C63.3165 21.2731 63.4196 20.8739 63.4196 20.4265C63.4196 19.9792 63.3165 19.5731 63.117 19.2152C62.9175 18.8574 62.6356 18.5752 62.2848 18.3756C61.934 18.176 61.5351 18.0728 61.0949 18.0728C60.6548 18.0728 60.2559 18.176 59.9051 18.3756C59.5543 18.5752 59.2723 18.8574 59.0729 19.2152C58.8734 19.58 58.7703 19.9792 58.7703 20.4265C58.7703 20.8739 58.8734 21.2799 59.0729 21.6378C59.2723 21.9957 59.5543 22.2779 59.9051 22.4775C60.2559 22.677 60.6548 22.7803 61.0949 22.7803C61.5351 22.7803 61.934 22.677 62.2848 22.4775ZM59.2655 23.4272C58.7221 23.1313 58.2957 22.7183 57.9862 22.1884C57.6767 21.6585 57.5254 21.0735 57.5254 20.4196C57.5254 19.7658 57.6767 19.1808 57.9862 18.6509C58.2957 18.121 58.7221 17.7149 59.2655 17.4121C59.8088 17.1161 60.414 16.9647 61.0881 16.9647C61.7621 16.9647 62.3673 17.1161 62.9107 17.4121C63.454 17.708 63.8804 18.121 64.1899 18.644C64.4994 19.1671 64.6576 19.7589 64.6576 20.4196C64.6576 21.0803 64.4994 21.6653 64.1899 22.1953C63.8804 22.7183 63.454 23.1313 62.9107 23.4272C62.3673 23.7232 61.7621 23.8746 61.0881 23.8746C60.414 23.8746 59.8088 23.7232 59.2655 23.4272Z" fill="black"/>
<path d="M70.7303 18.1212H68.5363V23.7785H67.319V18.1212H65.1318V17.0682H70.7303V18.1212Z" fill="black"/>
<path d="M74.2316 20.9499H73.0005V23.7785H71.79V17.0682H73.0005V19.8762H74.266L76.1712 17.0682H77.4779L75.2152 20.3167L77.5605 23.7785H76.1712L74.2316 20.9499Z" fill="black"/>
<path d="M82.2922 20.4406C82.5673 20.2135 82.7049 19.8831 82.7049 19.4564C82.7049 19.0297 82.5673 18.6993 82.2922 18.4722C82.0171 18.2451 81.6113 18.1281 81.0749 18.1281H79.6374V20.7916H81.0749C81.6044 20.7847 82.0102 20.6677 82.2922 20.4406ZM82.6223 17.3504C83.0488 17.5431 83.372 17.8184 83.599 18.1763C83.826 18.5342 83.936 18.9609 83.936 19.4495C83.936 19.9382 83.826 20.358 83.599 20.7159C83.372 21.0737 83.0419 21.3559 82.6223 21.5417C82.1959 21.7344 81.6939 21.8308 81.123 21.8308H79.6305V23.7647H78.3994V17.0682H81.123C81.7007 17.0682 82.2028 17.1646 82.6223 17.3504Z" fill="black"/>
<path d="M91.5911 17.0682H92.8016V23.7785H91.5911V17.0682ZM89.0188 22.4846C89.2802 22.2644 89.404 21.934 89.404 21.5073C89.404 20.6952 88.9088 20.2892 87.9115 20.2892H86.3296V22.8219H87.9115C88.3861 22.815 88.7575 22.7049 89.0188 22.4846ZM89.9955 19.8762C90.4219 20.241 90.6351 20.7709 90.6351 21.4798C90.6351 22.2231 90.4012 22.7874 89.9336 23.1797C89.4659 23.572 88.8125 23.7716 87.9665 23.7716H85.1191V17.0682H86.3296V19.3394H88.166C88.9569 19.3394 89.569 19.5183 89.9955 19.8762Z" fill="black"/>
<path d="M99.4657 18.1212H97.2717V23.7785H96.0543V18.1212H93.8672V17.0682H99.4657V18.1212Z" fill="black"/>
<path d="M107.004 17.0682H108.215V23.7785H107.004V17.0682ZM104.432 22.4846C104.693 22.2644 104.817 21.934 104.817 21.5073C104.817 20.6952 104.315 20.2892 103.325 20.2892H101.743V22.8219H103.325C103.806 22.815 104.177 22.7049 104.432 22.4846ZM105.415 19.8762C105.842 20.241 106.055 20.7709 106.055 21.4798C106.055 22.2231 105.821 22.7874 105.353 23.1797C104.886 23.572 104.232 23.7716 103.386 23.7716H100.539V17.0682H101.75V19.3394H103.586C104.377 19.3394 104.989 19.5183 105.415 19.8762Z" fill="black"/>
<path d="M111.749 16.2629C111.46 16.0289 111.316 15.6848 111.309 15.2306H112.169C112.176 15.4646 112.251 15.6504 112.396 15.7743C112.54 15.9051 112.753 15.967 113.029 15.967C113.297 15.967 113.51 15.9051 113.668 15.7743C113.82 15.6435 113.902 15.4646 113.909 15.2306H114.762C114.755 15.6779 114.604 16.0221 114.315 16.2629C114.019 16.5038 113.593 16.6208 113.035 16.6208C112.465 16.6139 112.038 16.4969 111.749 16.2629ZM110.092 17.0682H111.302V21.8307L114.858 17.0682H116V23.7784H114.789V19.0227L111.233 23.7784H110.092V17.0682Z" fill="black"/>
<path d="M61.9133 33.3518C62.1884 33.1247 62.3259 32.7944 62.3259 32.3677C62.3259 31.9409 62.1884 31.6106 61.9133 31.3835C61.6381 31.1564 61.2324 31.0394 60.6959 31.0394H59.2585V33.7028H60.6959C61.2324 33.6959 61.6381 33.5858 61.9133 33.3518ZM62.2503 30.2685C62.6767 30.4613 62.9999 30.7365 63.2269 31.0944C63.4539 31.4523 63.5639 31.879 63.5639 32.3677C63.5639 32.8563 63.4539 33.2761 63.2269 33.6409C62.9999 33.9988 62.6698 34.2809 62.2503 34.4668C61.8239 34.6595 61.3218 34.7558 60.7509 34.7558H59.2585V36.6897H58.0273V29.9795H60.7509C61.3287 29.9795 61.8239 30.0758 62.2503 30.2685Z" fill="black"/>
<path d="M69.6991 35.6436V36.6897H64.7334V29.9795H69.5684V31.0256H65.9645V32.7668H69.1627V33.7923H65.9645V35.6436H69.6991Z" fill="black"/>
<path d="M75.5663 31.0325H72.2856L72.2925 36.6897H71.082V29.9795H75.5732L75.5663 31.0325Z" fill="black"/>
<path d="M76.6113 29.9795H77.8287V34.7421L81.3845 29.9795H82.5262V36.6897H81.3157V31.9341L77.7599 36.6897H76.6113V29.9795Z" fill="black"/>
<path d="M88.6403 35.3888C88.991 35.1892 89.273 34.9071 89.4725 34.5492C89.6719 34.1844 89.7751 33.7853 89.7751 33.3379C89.7751 32.8906 89.6719 32.4845 89.4725 32.1266C89.273 31.7687 88.991 31.4866 88.6403 31.2801C88.2895 31.0805 87.8906 30.9773 87.4504 30.9773C87.0102 30.9773 86.6113 31.0805 86.2606 31.2801C85.9098 31.4797 85.6278 31.7619 85.4284 32.1266C85.2289 32.4845 85.1257 32.8906 85.1257 33.3379C85.1257 33.7853 85.2289 34.1913 85.4284 34.5492C85.6278 34.9071 85.9098 35.1892 86.2606 35.3888C86.6113 35.5884 87.0102 35.6917 87.4504 35.6917C87.8837 35.6917 88.2826 35.5884 88.6403 35.3888ZM85.6209 36.3386C85.0776 36.0427 84.6512 35.6297 84.3417 35.0998C84.0322 34.5698 83.8809 33.9848 83.8809 33.331C83.8809 32.6772 84.0322 32.0922 84.3417 31.5623C84.6512 31.0323 85.0776 30.6263 85.6209 30.3235C86.1643 30.0275 86.7695 29.8761 87.4435 29.8761C88.1176 29.8761 88.7228 30.0275 89.2661 30.3235C89.8095 30.6194 90.2359 31.0323 90.5454 31.5554C90.8549 32.0784 91.0062 32.6703 91.0062 33.331C91.0062 33.9917 90.848 34.5836 90.5454 35.1067C90.2359 35.6297 89.8095 36.0427 89.2661 36.3386C88.7228 36.6345 88.1176 36.7859 87.4435 36.7859C86.7695 36.7859 86.1643 36.6345 85.6209 36.3386Z" fill="black"/>
<path d="M98.2555 29.9795V36.6897H97.0244V33.8129H93.6061V36.6897H92.375V29.9795H93.6061V32.7531H97.0244V29.9795H98.2555Z" fill="black"/>
<path d="M30.661 31.0668H15.6194V15.8293H30.661V31.0668ZM35.6542 0H9.69762L0 9.82794V46.8961H36.5896L46.2803 37.075V10.7639C46.2803 4.81762 41.5209 0 35.6542 0Z" fill="#28348B"/>
<path d="M30.661 31.0667L2.54476 59.5526C1.60251 60.5092 0 59.8348 0 58.4858V31.6517L15.6193 15.8224V31.0667H30.661Z" fill="#48BED8"/>
<path d="M15.6191 46.3112L30.6608 31.0669H15.6191V46.3112Z" fill="#48BED8"/>
</g>
<path d="M58.8167 43.2592L60.4145 45.4561L62.0123 43.2592H62.7047L60.7873 45.9269L62.8645 48.8388H62.1544L60.4145 46.4325L58.6746 48.8388H58L60.0594 45.9618L58.142 43.2592H58.8167Z" fill="black"/>
<path d="M65.7949 48.2116C66.0257 48.0721 66.2033 47.8454 66.3098 47.5839V46.9039H64.9783C64.2503 46.9039 63.8953 47.148 63.8953 47.6536C63.8953 47.8977 63.984 48.0895 64.1793 48.229C64.3746 48.3685 64.6232 48.4383 64.9605 48.4383C65.2978 48.4383 65.5641 48.3511 65.7949 48.2116ZM66.4341 45.0208C66.7359 45.2998 66.8779 45.7008 66.8779 46.2413V48.8393H66.3276V48.1767C66.2033 48.4034 66.008 48.5603 65.7594 48.6824C65.5109 48.8044 65.2091 48.8742 64.8717 48.8742C64.4101 48.8742 64.0195 48.7696 63.7532 48.5429C63.4692 48.3162 63.3271 48.0198 63.3271 47.6536C63.3271 47.3049 63.4514 47.0085 63.7177 46.7993C63.984 46.59 64.3924 46.468 64.9605 46.468H66.3098V46.2064C66.3098 45.8403 66.2033 45.5613 66.008 45.3869C65.7949 45.1951 65.5109 45.108 65.1203 45.108C64.854 45.108 64.6054 45.1603 64.3569 45.2474C64.1083 45.3346 63.8953 45.4567 63.7177 45.6136L63.4514 45.1951C63.6645 45.0208 63.9308 44.8813 64.2148 44.7767C64.5167 44.6721 64.8362 44.6197 65.1558 44.6197C65.7239 44.6023 66.15 44.7418 66.4341 45.0208Z" fill="black"/>
<path d="M68.4033 44.6376H68.9714V46.5032H71.6168V44.6376H72.1849V48.8397H71.6168V46.9914H68.9714V48.8397H68.4033V44.6376Z" fill="black"/>
<path d="M76.7824 45.1432H75.1845V48.8397H74.6164V45.1432H73.0186V44.6376H76.7824V45.1432Z" fill="black"/>
<path d="M81.7193 44.6377H82.2874V48.8398H81.7193V44.6377ZM80.1392 48.1772C80.3345 48.0203 80.441 47.7762 80.441 47.4623C80.441 47.1485 80.3345 46.9218 80.1392 46.7823C79.9439 46.6254 79.6421 46.5557 79.2515 46.5557L78.1863 46.5382V48.4039L79.2515 48.4213C79.6421 48.4213 79.9262 48.3342 80.1392 48.1772ZM80.6008 46.4685C80.8848 46.6952 81.0091 47.0264 81.0091 47.4623C81.0091 47.9157 80.8671 48.247 80.5653 48.4911C80.2635 48.7352 79.8374 48.8398 79.287 48.8398L77.6182 48.8224V44.6202H78.1863V46.0849L79.3935 46.1023C79.9084 46.1372 80.3167 46.2418 80.6008 46.4685Z" fill="black"/>
<path d="M85.6769 46.4343H83.582V46.9226H85.6769V46.4343Z" fill="black"/>
<path d="M92.9404 43.2592V48.8388H92.3723V44.3751L90.1708 48.1239H89.8868L87.6853 44.3925V48.8388H87.1172V43.2592H87.5965L90.0288 47.3915L92.4433 43.2592H92.9404Z" fill="black"/>
<path d="M96.7734 48.2116C97.0042 48.0721 97.1818 47.8454 97.2883 47.5839V46.9039H95.9568C95.2289 46.9039 94.8738 47.148 94.8738 47.6536C94.8738 47.8977 94.9626 48.0895 95.1579 48.229C95.3531 48.3685 95.6017 48.4383 95.939 48.4383C96.2763 48.4383 96.5426 48.3511 96.7734 48.2116ZM97.4126 45.0208C97.7144 45.2998 97.8564 45.7008 97.8564 46.2413V48.8393H97.3061V48.1767C97.1818 48.4034 96.9865 48.5603 96.7379 48.6824C96.4894 48.8044 96.1876 48.8742 95.8502 48.8742C95.3886 48.8742 94.9981 48.7696 94.7318 48.5429C94.4477 48.3162 94.3057 48.0198 94.3057 47.6536C94.3057 47.3049 94.4299 47.0085 94.6962 46.7993C94.9626 46.59 95.3709 46.468 95.939 46.468H97.2883V46.2064C97.2883 45.8403 97.1818 45.5613 96.9865 45.3869C96.7734 45.1951 96.4894 45.108 96.0988 45.108C95.8325 45.108 95.5839 45.1603 95.3354 45.2474C95.0868 45.3346 94.8738 45.4567 94.6962 45.6136L94.4299 45.1951C94.643 45.0208 94.9093 44.8813 95.1934 44.7767C95.4952 44.6721 95.8147 44.6197 96.1343 44.6197C96.7024 44.6023 97.1285 44.7418 97.4126 45.0208Z" fill="black"/>
<path d="M99.3662 44.6376H99.9343V46.5032H102.597V44.6376H103.166V48.8397H102.597V46.9914H99.9343V48.8397H99.3662V44.6376Z" fill="black"/>
<path d="M105.438 48.6131C105.101 48.4388 104.852 48.1772 104.657 47.8459C104.48 47.5147 104.373 47.1485 104.373 46.7475C104.373 46.329 104.462 45.9628 104.657 45.649C104.835 45.3351 105.101 45.0736 105.438 44.8992C105.758 44.7249 106.131 44.6202 106.557 44.6202C106.912 44.6202 107.249 44.69 107.533 44.8295C107.817 44.969 108.048 45.1782 108.208 45.4397L107.782 45.7362C107.64 45.5269 107.462 45.37 107.249 45.2654C107.036 45.1608 106.805 45.1085 106.557 45.1085C106.255 45.1085 105.971 45.1782 105.74 45.3177C105.492 45.4572 105.314 45.649 105.172 45.8931C105.03 46.1372 104.959 46.4336 104.959 46.7475C104.959 47.0787 105.03 47.3577 105.172 47.6018C105.314 47.8459 105.492 48.0377 105.74 48.1772C105.989 48.3167 106.255 48.3865 106.557 48.3865C106.805 48.3865 107.036 48.3342 107.249 48.2295C107.462 48.1249 107.64 47.968 107.782 47.7588L108.208 48.0552C108.048 48.3167 107.817 48.526 107.515 48.6654C107.231 48.8049 106.894 48.8747 106.539 48.8747C106.131 48.8747 105.758 48.7875 105.438 48.6131Z" fill="black"/>
<path d="M109.307 44.6376H109.875V47.9853L112.698 44.6376H113.195V48.8397H112.627V45.5094L109.822 48.8397H109.307V44.6376Z" fill="black"/>
<path d="M115.878 43.7672C115.664 43.5928 115.558 43.3313 115.558 43H115.966C115.966 43.2092 116.037 43.3662 116.197 43.5057C116.339 43.6277 116.534 43.6975 116.765 43.6975C116.996 43.6975 117.191 43.6277 117.333 43.5057C117.475 43.3836 117.564 43.2092 117.564 43H117.972C117.972 43.3313 117.848 43.5928 117.635 43.7672C117.422 43.9416 117.12 44.0287 116.765 44.0287C116.375 44.0287 116.091 43.9416 115.878 43.7672ZM114.83 44.639H115.398V47.9693L118.221 44.639H118.718V48.8411H118.15V45.5108L115.345 48.8411H114.83V44.639Z" fill="black"/>
<path d="M120.99 48.6131C120.653 48.4388 120.404 48.1772 120.209 47.8459C120.031 47.5147 119.925 47.1485 119.925 46.7475C119.925 46.329 120.014 45.9628 120.209 45.649C120.386 45.3351 120.653 45.0736 120.99 44.8992C121.31 44.7249 121.7 44.6202 122.109 44.6202C122.464 44.6202 122.801 44.69 123.085 44.8295C123.369 44.969 123.6 45.1782 123.76 45.4397L123.334 45.7362C123.191 45.5269 123.014 45.37 122.801 45.2654C122.588 45.1608 122.357 45.1085 122.109 45.1085C121.807 45.1085 121.523 45.1782 121.292 45.3177C121.043 45.4572 120.866 45.649 120.724 45.8931C120.582 46.1372 120.511 46.4336 120.511 46.7475C120.511 47.0787 120.582 47.3577 120.724 47.6018C120.866 47.8459 121.043 48.0377 121.292 48.1772C121.54 48.3167 121.807 48.3865 122.109 48.3865C122.357 48.3865 122.588 48.3342 122.801 48.2295C123.014 48.1249 123.191 47.968 123.334 47.7588L123.76 48.0552C123.6 48.3167 123.369 48.526 123.067 48.6654C122.783 48.8049 122.446 48.8747 122.091 48.8747C121.7 48.8747 121.327 48.7875 120.99 48.6131Z" fill="black"/>
<path d="M126.387 46.974H125.428V48.8397H124.86V44.6376H125.428V46.4858H126.405L127.896 44.6376H128.5L126.849 46.6776L128.624 48.8397H127.95L126.387 46.974Z" fill="black"/>
<path d="M129.528 44.6376H130.096V47.9853L132.902 44.6376H133.416V48.8397H132.848V45.5094L130.043 48.8397H129.528V44.6376Z" fill="black"/>
<path d="M136.097 43.7672C135.884 43.5928 135.778 43.3313 135.778 43H136.186C136.186 43.2092 136.257 43.3662 136.417 43.5057C136.559 43.6277 136.754 43.6975 136.985 43.6975C137.216 43.6975 137.411 43.6277 137.553 43.5057C137.695 43.3836 137.784 43.2092 137.784 43H138.192C138.192 43.3313 138.068 43.5928 137.855 43.7672C137.642 43.9416 137.34 44.0287 136.985 44.0287C136.63 44.0287 136.31 43.9416 136.097 43.7672ZM135.05 44.639H135.618V47.9693L138.441 44.639H138.956V48.8411H138.387V45.5108L135.582 48.8411H135.068V44.639H135.05Z" fill="black"/>
<path d="M60.7158 57.7853C60.9466 57.6458 61.1241 57.4192 61.2307 57.1576V56.4776H59.8991C59.1712 56.4776 58.8162 56.7217 58.8162 57.2274C58.8162 57.4715 58.9049 57.6633 59.1002 57.8028C59.2955 57.9423 59.5441 58.012 59.8814 58.012C60.201 58.012 60.485 57.9248 60.7158 57.7853ZM61.3549 54.5945C61.639 54.8735 61.7988 55.2745 61.7988 55.815V58.413H61.2484V57.7505C61.1242 57.9771 60.9289 58.1341 60.6803 58.2561C60.4318 58.3782 60.1299 58.4479 59.7926 58.4479C59.331 58.4479 58.9404 58.3433 58.6741 58.1166C58.3901 57.89 58.248 57.5935 58.248 57.2274C58.248 56.8786 58.3723 56.5822 58.6386 56.373C58.9049 56.1638 59.3133 56.0417 59.8814 56.0417H61.2307V55.7802C61.2307 55.414 61.1242 55.135 60.9289 54.9607C60.7158 54.7689 60.4318 54.6817 60.0412 54.6817C59.7749 54.6817 59.5263 54.734 59.2778 54.8212C59.0292 54.9084 58.8162 55.0304 58.6386 55.1873L58.3901 54.7689C58.6031 54.5945 58.8694 54.455 59.1535 54.3504C59.4553 54.2458 59.7749 54.1935 60.0944 54.1935C60.627 54.176 61.0531 54.3155 61.3549 54.5945Z" fill="black"/>
<path d="M66.0259 57.7854C66.2034 57.6633 66.2922 57.489 66.2922 57.2274C66.2922 56.9833 66.2034 56.7915 66.0436 56.6695C65.8839 56.5474 65.6175 56.4951 65.2625 56.4951H63.8599V57.9597H65.1915C65.5643 57.9597 65.8483 57.9074 66.0259 57.7854ZM63.8599 56.0766H65.1205C65.44 56.0766 65.6886 56.0069 65.8661 55.8848C66.0436 55.7628 66.1324 55.5884 66.1324 55.3443C66.1324 55.1176 66.0436 54.9433 65.8661 54.8212C65.6886 54.6992 65.44 54.6469 65.1205 54.6469H63.8599V56.0766ZM66.8603 57.2797C66.8603 57.6459 66.7183 57.9249 66.452 58.1341C66.1857 58.3259 65.7773 58.4305 65.227 58.4305H63.3096V54.2284H65.1737C65.6531 54.2284 66.0259 54.3156 66.31 54.5074C66.5763 54.6992 66.7183 54.9607 66.7183 55.3094C66.7183 55.5361 66.6473 55.7279 66.523 55.9023C66.3987 56.0592 66.2212 56.1813 65.9904 56.2684C66.5763 56.3731 66.8603 56.7218 66.8603 57.2797Z" fill="black"/>
<path d="M71.1534 54.7168H69.5556V58.4133H68.9875V54.7168H67.3896V54.2112H71.1534V54.7168Z" fill="black"/>
<path d="M74.3329 57.7507C74.5637 57.6112 74.759 57.4194 74.8832 57.1753C75.0253 56.9312 75.0785 56.6348 75.0785 56.321C75.0785 56.0071 75.0075 55.7107 74.8832 55.4666C74.7412 55.2225 74.5637 55.0307 74.3329 54.8912C74.1021 54.7517 73.818 54.682 73.534 54.682C73.2321 54.682 72.9658 54.7517 72.735 54.8912C72.5042 55.0307 72.3089 55.2225 72.1669 55.4666C72.0249 55.7107 71.9539 56.0071 71.9539 56.321C71.9539 56.6348 72.0249 56.9312 72.1669 57.1753C72.3089 57.4194 72.4865 57.6112 72.735 57.7507C72.9836 57.8902 73.2499 57.96 73.534 57.96C73.8358 57.96 74.1021 57.8902 74.3329 57.7507ZM72.4332 58.1866C72.1136 57.9948 71.8473 57.7507 71.6698 57.4194C71.4923 57.0881 71.3857 56.722 71.3857 56.321C71.3857 55.9025 71.4745 55.5363 71.6698 55.2225C71.8651 54.8912 72.1136 54.6471 72.4332 54.4727C72.7528 54.2984 73.1256 54.2112 73.534 54.2112C73.9423 54.2112 74.2974 54.2984 74.6347 54.4727C74.972 54.6471 75.2206 54.9086 75.3981 55.2225C75.5756 55.5538 75.6822 55.9199 75.6822 56.321C75.6822 56.722 75.5934 57.1056 75.3981 57.4194C75.2206 57.7507 74.9543 57.9948 74.6347 58.1866C74.3151 58.3784 73.9423 58.4656 73.534 58.4656C73.1256 58.4482 72.7528 58.361 72.4332 58.1866Z" fill="black"/>
<path d="M76.8877 54.2112H77.4558V56.0769H80.1189V54.2112H80.687V58.4133H80.1189V56.5651H77.4558V58.4133H76.8877V54.2112Z" fill="black"/>
<path d="M84.8594 57.7507C85.0902 57.6112 85.2855 57.4194 85.4098 57.1753C85.534 56.9312 85.605 56.6348 85.605 56.321C85.605 56.0071 85.534 55.7107 85.4098 55.4666C85.2677 55.2225 85.0902 55.0307 84.8594 54.8912C84.6286 54.7517 84.3445 54.682 84.0605 54.682C83.7587 54.682 83.4924 54.7517 83.2616 54.8912C83.0308 55.0307 82.8355 55.2225 82.6934 55.4666C82.5514 55.7107 82.4804 56.0071 82.4804 56.321C82.4804 56.6348 82.5514 56.9312 82.6934 57.1753C82.8355 57.4194 83.013 57.6112 83.2616 57.7507C83.5101 57.8902 83.7764 57.96 84.0605 57.96C84.3445 57.96 84.6108 57.8902 84.8594 57.7507ZM82.942 58.1866C82.6224 57.9948 82.3561 57.7507 82.1786 57.4194C82.0011 57.0881 81.8945 56.722 81.8945 56.321C81.8945 55.9025 81.9833 55.5363 82.1786 55.2225C82.3739 54.8912 82.6224 54.6471 82.942 54.4727C83.2616 54.2984 83.6344 54.2112 84.0427 54.2112C84.4511 54.2112 84.8061 54.2984 85.1435 54.4727C85.4808 54.6471 85.7293 54.9086 85.9069 55.2225C86.0844 55.5538 86.1909 55.9199 86.1909 56.321C86.1909 56.722 86.1022 57.1056 85.9069 57.4194C85.7293 57.7507 85.463 57.9948 85.1435 58.1866C84.8239 58.3784 84.4511 58.4656 84.0427 58.4656C83.6344 58.4482 83.2793 58.361 82.942 58.1866Z" fill="black"/>
<path d="M92.1218 54.2112V58.4133H91.6069V55.1004L89.9025 57.9076H89.6362L87.9319 55.083V58.4133H87.417V54.2112H87.9851L89.7783 57.2451L91.6069 54.2112H92.1218Z" fill="black"/>
<path d="M93.7559 54.2112H94.324V56.0769H96.9693V54.2112H97.5374V58.4133H96.9693V56.5651H94.324V58.4133H93.7559V54.2112Z" fill="black"/>
<path d="M103.272 54.2112H103.84V58.4133H103.272V54.2112ZM101.692 57.7507C101.887 57.5938 101.994 57.3497 101.994 57.0358C101.994 56.722 101.887 56.4953 101.692 56.3558C101.497 56.1989 101.195 56.1292 100.804 56.1292L99.739 56.1117V57.9774L100.804 57.9948C101.195 57.9948 101.497 57.9251 101.692 57.7507ZM102.154 56.0594C102.438 56.2861 102.562 56.6174 102.562 57.0533C102.562 57.5066 102.42 57.8379 102.118 58.082C101.816 58.3261 101.39 58.4307 100.84 58.4307L99.1709 58.4133V54.2112H99.739V55.6758L100.946 55.6933C101.461 55.7107 101.869 55.8153 102.154 56.0594Z" fill="black"/>
<path d="M106.52 53.339C106.307 53.1646 106.201 52.9031 106.201 52.5718H106.609C106.609 52.781 106.68 52.9379 106.84 53.0774C106.982 53.1995 107.177 53.2692 107.408 53.2692C107.639 53.2692 107.834 53.1995 107.976 53.0774C108.118 52.9554 108.207 52.781 108.207 52.5718H108.615C108.615 52.9031 108.491 53.1646 108.278 53.339C108.065 53.5133 107.763 53.6005 107.408 53.6005C107.017 53.6179 106.733 53.5133 106.52 53.339ZM105.455 54.2108H106.023V57.5411L108.846 54.2108H109.343V58.4129H108.775V55.0826L105.97 58.4129H105.455V54.2108Z" fill="black"/>
<path d="M115.629 57.7507C115.86 57.6112 116.055 57.4194 116.179 57.1753C116.321 56.9312 116.374 56.6348 116.374 56.321C116.374 56.0071 116.303 55.7107 116.179 55.4666C116.037 55.2225 115.86 55.0307 115.629 54.8912C115.398 54.7517 115.114 54.682 114.83 54.682C114.528 54.682 114.262 54.7517 114.031 54.8912C113.8 55.0307 113.605 55.2225 113.463 55.4666C113.321 55.7107 113.25 56.0071 113.25 56.321C113.25 56.6348 113.321 56.9312 113.463 57.1753C113.605 57.4194 113.782 57.6112 114.031 57.7507C114.279 57.8902 114.546 57.96 114.83 57.96C115.132 57.96 115.398 57.8902 115.629 57.7507ZM113.729 58.1866C113.41 57.9948 113.143 57.7507 112.966 57.4194C112.788 57.0881 112.682 56.722 112.682 56.321C112.682 55.9025 112.77 55.5363 112.966 55.2225C113.161 54.8912 113.41 54.6471 113.729 54.4727C114.049 54.2984 114.422 54.2112 114.83 54.2112C115.238 54.2112 115.593 54.2984 115.931 54.4727C116.268 54.6471 116.516 54.9086 116.694 55.2225C116.872 55.5538 116.978 55.9199 116.978 56.321C116.978 56.722 116.889 57.1056 116.694 57.4194C116.516 57.7507 116.25 57.9948 115.931 58.1866C115.611 58.3784 115.238 58.4656 114.83 58.4656C114.422 58.4482 114.049 58.361 113.729 58.1866Z" fill="black"/>
<path d="M119.712 56.5476H118.754V58.4133H118.186V54.2112H118.754V56.0594H119.73L121.221 54.2112H121.825L120.174 56.2512L121.949 58.4133H121.275L119.712 56.5476Z" fill="black"/>
<path d="M125.782 57.7491C126.03 57.6096 126.208 57.4178 126.35 57.1737C126.492 56.9296 126.563 56.6332 126.563 56.3193C126.563 56.0055 126.492 55.7091 126.35 55.465C126.208 55.2209 126.03 55.0291 125.782 54.8896C125.551 54.7501 125.267 54.6803 124.983 54.6803C124.681 54.6803 124.415 54.7501 124.184 54.8896C123.953 55.0291 123.758 55.2209 123.616 55.465C123.474 55.7091 123.403 55.9881 123.403 56.3193C123.403 56.6332 123.474 56.9296 123.616 57.1737C123.758 57.4178 123.936 57.6096 124.184 57.7491C124.415 57.8886 124.681 57.9583 124.983 57.9583C125.285 57.9583 125.551 57.8886 125.782 57.7491ZM126.101 54.4537C126.421 54.628 126.67 54.8896 126.847 55.2034C127.025 55.5347 127.113 55.9009 127.113 56.3193C127.113 56.7378 127.025 57.1214 126.847 57.4353C126.67 57.7491 126.421 58.0107 126.101 58.185C125.782 58.3594 125.427 58.4466 125.019 58.4466C124.681 58.4466 124.362 58.3768 124.095 58.2373C123.811 58.0978 123.598 57.8886 123.421 57.6096V59.9461H122.853V54.2096H123.403V55.0465C123.58 54.7675 123.793 54.5583 124.078 54.4013C124.362 54.2444 124.681 54.1747 125.036 54.1747C125.409 54.1921 125.782 54.2793 126.101 54.4537Z" fill="black"/>
<path d="M131.821 54.2112L129.708 58.919C129.53 59.32 129.335 59.599 129.104 59.7559C128.873 59.9128 128.607 60 128.288 60C128.074 60 127.897 59.9651 127.719 59.8954C127.542 59.8256 127.4 59.7385 127.258 59.6164L127.524 59.1979C127.737 59.4072 127.986 59.5118 128.288 59.5118C128.483 59.5118 128.643 59.4595 128.785 59.3549C128.927 59.2502 129.051 59.0759 129.157 58.8143L129.335 58.4133L127.453 54.2286H128.039L129.619 57.803L131.217 54.2286H131.821V54.2112Z" fill="black"/>
<path d="M135.691 54.7168H133.276V58.4133H132.708V54.2112H135.691V54.7168Z" fill="black"/>
<path d="M140.397 56.0061H138.302V56.4943H140.397V56.0061Z" fill="black"/>
<path d="M149.59 57.6274C149.928 57.4356 150.194 57.1566 150.389 56.8079C150.584 56.4592 150.673 56.0581 150.673 55.6222C150.673 55.1863 150.567 54.7853 150.389 54.4366C150.194 54.0878 149.928 53.8089 149.59 53.6171C149.253 53.4253 148.88 53.3207 148.454 53.3207C148.046 53.3207 147.673 53.4253 147.335 53.6171C146.998 53.8263 146.732 54.0878 146.537 54.4366C146.341 54.7853 146.252 55.1863 146.252 55.6222C146.252 56.0581 146.341 56.4592 146.537 56.8079C146.732 57.1566 146.998 57.4356 147.335 57.6274C147.673 57.8366 148.046 57.9238 148.454 57.9238C148.88 57.9412 149.253 57.8366 149.59 57.6274ZM149.892 53.1463C150.318 53.3904 150.655 53.7391 150.904 54.1576C151.153 54.5935 151.277 55.0817 151.277 55.6048C151.277 56.1453 151.153 56.6335 150.904 57.0694C150.655 57.5053 150.318 57.8366 149.892 58.0807C149.466 58.3248 148.987 58.4469 148.454 58.4469C147.957 58.4469 147.495 58.3423 147.087 58.1156C146.679 57.8889 146.341 57.5751 146.093 57.1741C145.844 56.773 145.702 56.3197 145.667 55.8315H144.513V58.3946H143.927V52.815H144.513V55.2909H145.667C145.702 54.8027 145.862 54.3668 146.11 53.9832C146.359 53.5996 146.696 53.3032 147.105 53.0765C147.513 52.8673 147.957 52.7627 148.454 52.7627C148.987 52.7801 149.466 52.9022 149.892 53.1463Z" fill="black"/>
<path d="M155.539 54.7168H153.125V58.4133H152.557V54.2112H155.539V54.7168Z" fill="black"/>
<path d="M159.303 57.7491C159.551 57.6096 159.729 57.4178 159.871 57.1737C160.013 56.9296 160.066 56.6332 160.066 56.3193C160.066 56.0055 159.995 55.7091 159.871 55.465C159.729 55.2209 159.551 55.0291 159.303 54.8896C159.054 54.7501 158.788 54.6803 158.504 54.6803C158.202 54.6803 157.936 54.7501 157.705 54.8896C157.474 55.0291 157.279 55.2209 157.137 55.465C156.995 55.7091 156.924 55.9881 156.924 56.3193C156.924 56.6332 156.995 56.9296 157.137 57.1737C157.279 57.4178 157.456 57.6096 157.705 57.7491C157.953 57.8886 158.22 57.9583 158.504 57.9583C158.788 57.9583 159.054 57.8886 159.303 57.7491ZM159.604 54.4537C159.924 54.628 160.173 54.8896 160.35 55.2034C160.528 55.5347 160.616 55.9009 160.616 56.3193C160.616 56.7378 160.528 57.1214 160.35 57.4353C160.173 57.7491 159.924 58.0107 159.604 58.185C159.285 58.3594 158.93 58.4466 158.521 58.4466C158.184 58.4466 157.865 58.3768 157.598 58.2373C157.314 58.0978 157.101 57.8886 156.924 57.6096V59.9461H156.355V54.2096H156.906V55.0465C157.083 54.7675 157.296 54.5583 157.58 54.4013C157.865 54.2444 158.184 54.1747 158.539 54.1747C158.93 54.1921 159.285 54.2793 159.604 54.4537Z" fill="black"/>
<path d="M163.917 57.7853C164.148 57.6458 164.325 57.4192 164.432 57.1576V56.4776H163.1C162.372 56.4776 162.017 56.7217 162.017 57.2274C162.017 57.4715 162.106 57.6633 162.301 57.8028C162.497 57.9423 162.745 58.012 163.083 58.012C163.42 58.012 163.686 57.9248 163.917 57.7853ZM164.556 54.5945C164.858 54.8735 165 55.2745 165 55.815V58.413H164.45V57.7505C164.325 57.9771 164.13 58.1341 163.881 58.2561C163.633 58.3782 163.331 58.4479 162.994 58.4479C162.514 58.4479 162.142 58.3433 161.875 58.1166C161.591 57.89 161.449 57.5935 161.449 57.2274C161.449 56.8786 161.573 56.5822 161.84 56.373C162.106 56.1638 162.514 56.0417 163.083 56.0417H164.432V55.7802C164.432 55.414 164.325 55.135 164.13 54.9607C163.935 54.7689 163.633 54.6817 163.242 54.6817C162.976 54.6817 162.71 54.734 162.479 54.8212C162.23 54.9084 162.017 55.0304 161.84 55.1873L161.591 54.7689C161.804 54.5945 162.071 54.455 162.355 54.3504C162.656 54.2458 162.976 54.1935 163.296 54.1935C163.846 54.176 164.272 54.3155 164.556 54.5945Z" fill="black"/>
<defs>
<clipPath id="clip0">
<rect width="116" height="60" fill="white"/>
</clipPath>
</defs>
</svg>
