<svg width="55" height="60" viewBox="0 0 55 60" fill="none" xmlns="http://www.w3.org/2000/svg">
<path d="M52.7109 11.5934H46.8321V5.80547C46.8321 2.60508 44.2252 0 41.0213 0H17.3174C14.1112 0 11.5031 2.60508 11.5031 5.80547V20.148C5.08838 20.5734 0 25.9219 0 32.4363C0 38.9531 5.08838 44.3027 11.5031 44.7281V54.1945C11.5031 57.3961 14.1112 60 17.3174 60H41.0213C44.2252 60 46.8321 57.3949 46.8321 54.1945V29.0543H52.7109C53.9739 29.0543 55 28.0277 55 26.7668V13.8809C55 12.6199 53.9727 11.5934 52.7109 11.5934ZM21.9601 2.34375H36.3774V3.72656C36.3774 4.49062 35.7547 5.11289 34.9901 5.11289H23.3439C22.5805 5.11289 21.9601 4.49062 21.9601 3.72656V2.34375ZM2.34542 32.4363C2.34542 26.9379 6.82281 22.4637 12.3263 22.4637C17.8322 22.4637 22.3108 26.9379 22.3108 32.4363C22.3108 34.2973 21.7924 36.116 20.8109 37.6945C20.6455 37.9605 20.5939 38.2816 20.6666 38.5863L21.5978 42.4559L17.2799 41.4188C17.1896 41.3977 17.0981 41.3859 17.0054 41.3859C16.8366 41.3859 16.6689 41.4223 16.5129 41.4937C15.1948 42.1031 13.7852 42.4113 12.324 42.4113C6.82281 42.4125 2.34542 37.9371 2.34542 32.4363ZM44.4867 51.2648H28.5707C27.9233 51.2648 27.398 51.7898 27.398 52.4367C27.398 53.0836 27.9233 53.6086 28.5707 53.6086H44.4867V54.1934C44.4867 56.1023 42.9317 57.6551 41.0213 57.6551H17.3174C15.4047 57.6551 13.8485 56.1023 13.8485 54.1934V53.6086H18.0386C18.6859 53.6086 19.2113 53.0836 19.2113 52.4367C19.2113 51.7898 18.6859 51.2648 18.0386 51.2648H13.8485V44.6637C14.9743 44.5254 16.0684 44.2336 17.1192 43.7895L22.9135 45.1816C23.0038 45.2039 23.0965 45.2145 23.188 45.2145C23.4952 45.2145 23.7954 45.0938 24.0171 44.8711C24.3055 44.5828 24.4228 44.1656 24.3278 43.7684L23.059 38.5008C24.105 36.6539 24.6562 34.568 24.6562 32.4363C24.6562 26.1598 19.9313 20.9648 13.8485 20.2137V5.80547C13.8485 3.89648 15.4047 2.34375 17.3174 2.34375H19.6159V3.72656C19.6159 5.7832 21.2893 7.45664 23.3451 7.45664H34.9913C37.0494 7.45664 38.724 5.7832 38.724 3.72656V2.34375H41.0225C42.9328 2.34375 44.4878 3.89648 44.4878 5.80547V11.5934H31.8015C30.5385 11.5934 29.5124 12.6199 29.5124 13.8809V26.7656C29.5124 28.0277 30.5397 29.0531 31.8015 29.0531H32.7725L34.1035 32.6227C34.236 32.9777 34.5316 33.2473 34.8986 33.3457C34.9995 33.3727 35.1015 33.3855 35.2023 33.3855C35.4709 33.3855 35.7359 33.293 35.9482 33.1184L40.8829 29.0543H44.4855L44.4867 51.2648ZM52.6546 26.7105H40.4631C40.191 26.7105 39.9272 26.8055 39.7173 26.9777L35.7277 30.2637L34.6864 27.4734C34.5151 27.0152 34.0777 26.7105 33.5875 26.7105H31.8578V13.9371H52.6546V26.7105Z" fill="#27348B"/>
<path d="M48.1561 21.2425C48.8034 21.2425 49.3288 20.7129 49.3288 20.066C49.3288 19.4191 48.8034 18.8941 48.1561 18.8941C47.5088 18.8941 46.9834 19.4191 46.9834 20.066V20.0765C46.9834 20.7234 47.5076 21.2425 48.1561 21.2425Z" fill="#27348B"/>
<path d="M42.2577 18.8941C41.6103 18.8941 41.085 19.4191 41.085 20.066V20.0765C41.085 20.7234 41.6103 21.2437 42.2577 21.2437C42.905 21.2437 43.4304 20.714 43.4304 20.0672C43.4304 19.4203 42.9062 18.8941 42.2577 18.8941Z" fill="#27348B"/>
<path d="M36.3568 18.8941C35.7095 18.8941 35.1841 19.4191 35.1841 20.066V20.0765C35.1841 20.7234 35.7095 21.2437 36.3568 21.2437C37.0041 21.2437 37.5295 20.714 37.5295 20.0672C37.5295 19.4203 37.0053 18.8941 36.3568 18.8941Z" fill="#27348B"/>
<path d="M13.1415 39.0305L17.769 34.5692C17.7784 34.5598 17.7878 34.5504 17.7972 34.541C19.5093 32.7715 19.5093 29.8934 17.7995 28.1262C16.3911 26.6649 14.0081 26.6028 12.3277 27.927C10.6507 26.6004 8.26773 26.6625 6.85931 28.1239C5.14716 29.8934 5.14716 32.7715 6.85931 34.5399C6.86869 34.5492 6.87807 34.5586 6.88746 34.568L11.5114 39.0293C11.739 39.2485 12.0321 39.3586 12.3253 39.3586C12.6208 39.3586 12.914 39.2485 13.1415 39.0305ZM8.53277 32.8981C7.71656 32.0403 7.72125 30.6047 8.54684 29.7516C9.22701 29.0461 10.3552 29.2711 11.0119 29.8864L11.0541 29.925C11.3953 30.2426 11.7483 30.5719 12.3277 30.5719C12.9105 30.5719 13.2775 30.2274 13.6024 29.9227L13.6423 29.8852C14.299 29.2711 15.4295 29.0461 16.112 29.7539C16.9364 30.6047 16.9399 32.0403 16.1249 32.8981L12.3277 36.559L8.53277 32.8981Z" fill="#27348B"/>
<path d="M23.3041 51.2649C22.6567 51.2649 22.1313 51.7899 22.1313 52.4368C22.1313 53.0836 22.6567 53.6086 23.3041 53.6086H23.3076C23.9549 53.6086 24.4791 53.0836 24.4791 52.4368C24.4791 51.7899 23.9526 51.2649 23.3041 51.2649Z" fill="#27348B"/>
</svg>
