<svg width="59" height="59" viewBox="0 0 59 59" fill="none" xmlns="http://www.w3.org/2000/svg">
<path d="M51.7401 6.22266H30.9668C30.3307 6.22266 29.8145 6.73891 29.8145 7.375C29.8145 8.01109 30.3307 8.52734 30.9668 8.52734H51.7401C52.3762 8.52734 52.8924 8.01109 52.8924 7.375C52.8924 6.73891 52.3762 6.22266 51.7401 6.22266Z" fill="#27348B"/>
<path d="M52.5549 12.0915C52.3406 11.8772 52.0433 11.7539 51.7402 11.7539C51.4372 11.7539 51.1399 11.8772 50.9255 12.0915C50.7112 12.3059 50.5879 12.6032 50.5879 12.9062C50.5879 13.2093 50.7112 13.5066 50.9255 13.721C51.1399 13.9353 51.4372 14.0586 51.7402 14.0586C52.0433 14.0586 52.3406 13.9353 52.5549 13.721C52.7693 13.5066 52.8926 13.2093 52.8926 12.9062C52.8926 12.6032 52.7693 12.3059 52.5549 12.0915Z" fill="#27348B"/>
<path d="M46.8184 11.7539H30.9668C30.3307 11.7539 29.8145 12.2702 29.8145 12.9062C29.8145 13.5423 30.3307 14.0586 30.9668 14.0586H46.8184C47.4545 14.0586 47.9708 13.5423 47.9708 12.9062C47.9708 12.2702 47.4545 11.7539 46.8184 11.7539Z" fill="#27348B"/>
<path d="M51.7406 17.2852H35.8164C35.1803 17.2852 34.6641 17.8014 34.6641 18.4375C34.6641 19.0736 35.1803 19.5898 35.8164 19.5898H51.7406C52.3767 19.5898 52.893 19.0736 52.893 18.4375C52.893 17.8014 52.3767 17.2852 51.7406 17.2852Z" fill="#27348B"/>
<path d="M31.0351 17.2852H30.9521C30.3161 17.2852 29.7998 17.8014 29.7998 18.4375C29.7998 19.0736 30.3161 19.5898 30.9521 19.5898H31.0351C31.6712 19.5898 32.1875 19.0736 32.1875 18.4375C32.1875 17.8014 31.6724 17.2852 31.0351 17.2852Z" fill="#27348B"/>
<path d="M55.7803 41.9543L52.4282 40.8435C53.3051 39.7395 53.8317 38.3452 53.8317 36.8287V35.4425C53.8317 31.8771 50.9313 28.9767 47.3659 28.9767C43.8006 28.9767 40.9001 31.8771 40.9001 35.4425V36.8287C40.9001 38.3452 41.4256 39.7395 42.3037 40.8435L38.9746 41.9463L35.7664 40.8827C37.1735 39.3627 38.0366 37.33 38.0366 35.1002V33.1781C38.0366 33.0156 38.0308 32.8543 38.0216 32.6941C38.0204 32.6884 38.0204 32.6814 38.0204 32.6757C37.7588 28.2104 34.0448 24.6565 29.515 24.6565C24.8169 24.6565 20.9934 28.4789 20.9934 33.1781V35.1002C20.9934 37.33 21.8554 39.3627 23.2635 40.8827L20.0416 41.9509L16.6986 40.8435C17.5755 39.7395 18.1022 38.3452 18.1022 36.8287V35.4425C18.1022 31.8771 15.2017 28.9767 11.6364 28.9767C8.07102 28.9767 5.17057 31.8771 5.17057 35.4425V36.8287C5.17057 38.3452 5.69603 39.7395 6.57412 40.8435L3.22195 41.9543C1.29408 42.5916 0 44.3835 0 46.4128V53.2312C0 53.8673 0.51625 54.3835 1.15234 54.3835H13.8258V57.8475C13.8258 58.4836 14.3421 58.9998 14.9782 58.9998H44.0506C44.6867 58.9998 45.203 58.4836 45.203 57.8475V54.3835H57.8477C58.4837 54.3835 59 53.8673 59 53.2312V46.4128C59 44.3835 57.7059 42.5916 55.7803 41.9543ZM43.2037 35.4413C43.2037 33.147 45.0705 31.2802 47.3648 31.2802C49.6591 31.2802 51.5259 33.147 51.5259 35.4413V36.8276C51.5259 38.2657 50.793 39.5356 49.6798 40.2835C49.6096 40.318 49.5427 40.3607 49.4805 40.4091C48.8594 40.7778 48.1357 40.9898 47.3636 40.9898C46.5916 40.9898 45.8679 40.7778 45.2468 40.4091C45.1846 40.3607 45.1177 40.318 45.0474 40.2835C43.9354 39.5356 43.2025 38.2657 43.2025 36.8276L43.2037 35.4413ZM29.515 26.9612C32.5733 26.9612 35.12 29.1818 35.6351 32.0938C34.9506 32.3565 34.2165 32.4948 33.4779 32.4948C31.6042 32.4948 29.8722 31.642 28.7245 30.1555C28.5067 29.8732 28.169 29.7072 27.813 29.7072C27.4569 29.7072 27.1193 29.8732 26.9015 30.1555C26.0049 31.3159 24.7523 32.088 23.3546 32.3715C23.7487 29.3235 26.3599 26.9612 29.515 26.9612ZM23.2981 34.7199C24.9955 34.486 26.5627 33.7381 27.8118 32.5685C29.3387 33.9997 31.3426 34.7995 33.4779 34.7995C34.2419 34.7995 35.0013 34.6934 35.7319 34.4872V35.1002C35.7319 37.2632 34.621 39.1703 32.9409 40.2846C32.8568 40.3249 32.7784 40.3745 32.707 40.4333C31.7736 40.9944 30.6812 41.3171 29.515 41.3171C28.3488 41.3171 27.2575 40.9933 26.323 40.4333C26.2504 40.3745 26.172 40.3249 26.0891 40.2846C24.4089 39.1703 23.2981 37.2632 23.2981 35.1002V34.7199ZM33.0273 42.8612L29.515 46.3736L26.0026 42.8612C27.0743 43.3487 28.2635 43.6218 29.515 43.6218C30.7664 43.6218 31.9556 43.3487 33.0273 42.8612ZM7.47295 35.4413C7.47295 33.147 9.33975 31.2802 11.6341 31.2802C13.9284 31.2802 15.7952 33.147 15.7952 35.4413V36.8276C15.7952 38.2657 15.0623 39.5344 13.9503 40.2835C13.88 40.318 13.812 40.3607 13.7498 40.4091C13.1287 40.7778 12.4061 40.9898 11.6329 40.9898C10.8597 40.9898 10.1372 40.7778 9.51606 40.4091C9.45383 40.3607 9.38699 40.318 9.3167 40.2835C8.20469 39.5356 7.4718 38.2657 7.4718 36.8276V35.4413H7.47295ZM13.8258 48.3913V52.0788H2.30469V46.4128C2.30469 45.3803 2.96383 44.4676 3.94447 44.1427L8.67484 42.5755C9.56215 43.0341 10.5681 43.2957 11.6341 43.2957C12.7 43.2957 13.706 43.0341 14.5933 42.5755L16.6571 43.2588C14.9217 44.3501 13.8258 46.2699 13.8258 48.3913ZM39.8803 56.6951V52.6619C39.8803 52.0258 39.3641 51.5096 38.728 51.5096C38.0919 51.5096 37.5756 52.0258 37.5756 52.6619V56.6951H21.4244V52.6619C21.4244 52.0258 20.9081 51.5096 20.272 51.5096C19.6359 51.5096 19.1197 52.0258 19.1197 52.6619V56.6951H16.1305V48.3913C16.1305 46.7665 17.1665 45.3307 18.7095 44.8202L23.2094 43.3291L28.6991 48.8189C28.9238 49.0436 29.2188 49.1565 29.5138 49.1565C29.8088 49.1565 30.1038 49.0436 30.3285 48.8189L35.8183 43.3291L40.3182 44.8202C41.8612 45.3319 42.8971 46.7665 42.8971 48.3913V56.6951H39.8803ZM56.6953 52.0788H45.203V48.3913C45.203 46.2664 44.1036 44.342 42.3613 43.2519L44.4056 42.5743C45.2929 43.0329 46.2989 43.2945 47.3648 43.2945C48.4307 43.2945 49.4367 43.0329 50.324 42.5743L55.0544 44.1415C56.035 44.4665 56.6942 45.3791 56.6942 46.4116L56.6953 52.0788Z" fill="#27348B"/>
<path d="M53.2383 0H5.76172C2.58471 0 0 2.58471 0 5.76172V21.1997C0 24.3767 2.58471 26.9614 5.76172 26.9614H17.5352C18.1713 26.9614 18.6876 26.4451 18.6876 25.809C18.6876 25.1729 18.1713 24.6567 17.5352 24.6567H5.76172C3.85574 24.6567 2.30469 23.1056 2.30469 21.1997V5.76172C2.30469 3.85574 3.85574 2.30469 5.76172 2.30469H53.2383C55.1443 2.30469 56.6953 3.85574 56.6953 5.76172V21.1997C56.6953 23.1056 55.1443 24.6567 53.2383 24.6567H44.6337C44.3917 24.6567 44.1555 24.7328 43.9596 24.8745L41.3887 26.7298V25.8102C41.3887 25.1741 40.8725 24.6579 40.2364 24.6579H37.6816C37.0455 24.6579 36.5293 25.1741 36.5293 25.8102C36.5293 26.4463 37.0455 26.9625 37.6816 26.9625H39.084V28.9826C39.084 29.4147 39.326 29.8111 39.7109 30.0082C39.8769 30.0923 40.0566 30.1349 40.2352 30.1349C40.4726 30.1349 40.7088 30.0612 40.9094 29.9171L45.0059 26.9625H53.2383C56.4153 26.9625 59 24.3778 59 21.2008V5.76172C59 2.58471 56.4153 0 53.2383 0Z" fill="#27348B"/>
<path d="M21.7788 5.5299H8.87713C7.09676 5.5299 5.64941 6.9784 5.64941 8.75761V18.2034C5.64941 19.9837 7.09791 21.4311 8.87713 21.4311H21.7788C23.5591 21.4311 25.0065 19.9826 25.0065 18.2034V8.75761C25.0065 6.97724 23.558 5.5299 21.7788 5.5299ZM22.7018 18.2034C22.7018 18.7127 22.287 19.1264 21.7788 19.1264H8.87713C8.36779 19.1264 7.9541 18.7116 7.9541 18.2034V8.75761C7.9541 8.24828 8.36894 7.83459 8.87713 7.83459H21.7788C22.2881 7.83459 22.7018 8.24943 22.7018 8.75761V18.2034Z" fill="#27348B"/>
<path d="M30.3147 51.6169C30.1004 51.4026 29.8031 51.2793 29.5 51.2793C29.1969 51.2793 28.8996 51.4026 28.6853 51.6169C28.471 51.8313 28.3477 52.1286 28.3477 52.4316C28.3477 52.7347 28.471 53.032 28.6853 53.2463C28.8996 53.4607 29.1969 53.584 29.5 53.584C29.8031 53.584 30.1004 53.4607 30.3147 53.2463C30.529 53.032 30.6523 52.7347 30.6523 52.4316C30.6523 52.1286 30.529 51.8313 30.3147 51.6169Z" fill="#27348B"/>
<path d="M29.5146 26.9612C32.5729 26.9612 35.1196 29.1818 35.6347 32.0938C34.9502 32.3565 34.2162 32.4948 33.4775 32.4948C31.6038 32.4948 29.8718 31.642 28.7241 30.1555C28.5063 29.8732 28.1687 29.7073 27.8126 29.7073C27.4565 29.7073 27.1189 29.8732 26.8999 30.1555C26.0034 31.3159 24.7508 32.088 23.353 32.3715C23.7483 29.3235 26.3595 26.9612 29.5146 26.9612Z" fill="#ED6C71"/>
<path d="M39.8797 56.6953V52.6621C39.8797 52.026 39.3634 51.5098 38.7273 51.5098C38.0913 51.5098 37.575 52.026 37.575 52.6621V56.6953H21.4238V52.6621C21.4238 52.026 20.9075 51.5098 20.2714 51.5098C19.6353 51.5098 19.1191 52.026 19.1191 52.6621V56.6953H16.1299V48.3915C16.1299 46.7667 17.1658 45.3309 18.7088 44.8204L23.2099 43.3281L28.6997 48.8179C28.9244 49.0426 29.2194 49.1555 29.5144 49.1555C29.8094 49.1555 30.1044 49.0426 30.3291 48.8179L35.8188 43.3281L40.3187 44.8193C41.8617 45.3309 42.8977 46.7656 42.8977 48.3904V56.6953H39.8797Z" fill="#ED6C71"/>
<path d="M13.841 48.3914V52.0788H2.31982V46.4128C2.31982 45.3803 2.97897 44.4676 3.95961 44.1427L8.68998 42.5755C9.57729 43.0341 10.5833 43.2957 11.6492 43.2957C12.7151 43.2957 13.7211 43.0341 14.6084 42.5755L16.6723 43.2588C14.9357 44.3501 13.841 46.2699 13.841 48.3914Z" fill="#E4E6F2"/>
<path d="M56.71 52.0791H45.2177V48.3916C45.2177 46.2666 44.1183 44.3422 42.376 43.2521L44.4202 42.5745C45.3075 43.0332 46.3135 43.2947 47.3795 43.2947C48.4454 43.2947 49.4514 43.0332 50.3387 42.5745L55.069 44.1417C56.0497 44.4667 56.7088 45.3793 56.7088 46.4118L56.71 52.0791Z" fill="#E4E6F2"/>
<path d="M22.7018 18.2034C22.7018 18.7127 22.2869 19.1264 21.7788 19.1264H8.87713C8.36779 19.1264 7.9541 18.7116 7.9541 18.2034V8.75762C7.9541 8.24828 8.36895 7.83459 8.87713 7.83459H21.7788C22.2881 7.83459 22.7018 8.24943 22.7018 8.75762V18.2034Z" fill="#E4E6F2"/>
</svg>
