<svg width="60" height="51" viewBox="0 0 60 51" fill="none" xmlns="http://www.w3.org/2000/svg">
<g clip-path="url(#clip0)">
<path d="M44.0476 0C38.3933 0 33.3988 2.70312 30.0015 6.78679C26.5925 2.68574 21.5956 0 15.9566 0C8.6968 0 -0.0383562 5.88381 -0.000856238 15.4212C0.0542219 29.1988 17.7284 43.0575 29.3312 50.7937C29.7273 51.0661 30.2616 51.0672 30.6566 50.8041C34.3503 48.3421 37.7546 45.8662 40.7745 43.4459C41.2773 43.0425 41.3546 42.3134 40.948 41.8149C40.5402 41.3177 39.803 41.2412 39.2991 41.6434C36.8359 43.6174 34.1077 45.6308 31.171 47.6466V41.6109C31.5554 41.6886 31.948 41.728 32.3429 41.728C35.5738 41.728 38.2023 39.1281 38.2023 35.9323C38.2023 32.7365 35.5738 30.1366 32.3429 30.1366C31.948 30.1366 31.5554 30.176 31.171 30.2536V25.5012H37.6573C38.0757 25.5012 38.4636 25.2798 38.6722 24.9216C38.882 24.5623 38.8808 24.1206 38.671 23.7624C38.364 23.2374 38.2011 22.6358 38.2011 22.0249C38.2011 20.1077 39.7784 18.5475 41.7167 18.5475C43.655 18.5475 45.2323 20.1077 45.2323 22.0249C45.2323 22.6369 45.0695 23.2374 44.7624 23.7624C44.5527 24.1206 44.5527 24.5634 44.7613 24.9216C44.971 25.2809 45.3577 25.5012 45.7761 25.5H54.4034C52.6362 28.4767 50.1613 31.5809 47.0206 34.7546C46.5683 35.2125 46.5753 35.9462 47.0382 36.3936C47.5011 36.8411 48.2429 36.8341 48.6952 36.3762C54.2124 30.8031 60.0167 23.1238 59.9968 15.2984C59.9781 6.32892 51.8698 0 44.0476 0ZM15.9566 2.31829C20.2433 2.31829 24.0155 4.03614 27.0191 6.98964C24.0859 7.30492 21.796 9.7681 21.796 12.7506C21.796 15.9463 24.4245 18.5463 27.6554 18.5463C28.0503 18.5463 28.4429 18.5069 28.8273 18.4292V23.1829H22.3409C21.9226 23.1829 21.5347 23.4043 21.3261 23.7624C21.1163 24.1218 21.1175 24.5634 21.3273 24.9216C21.6343 25.4467 21.7972 26.0483 21.7972 26.6591C21.7972 28.5764 20.2198 30.1366 18.2816 30.1366C16.3433 30.1366 14.7659 28.5764 14.7659 26.6591C14.7659 26.0471 14.9288 25.4467 15.2359 24.9216C15.4456 24.5634 15.4456 24.1206 15.237 23.7624C15.0273 23.4031 14.6405 23.1829 14.2222 23.1829H4.34328C3.02492 20.4392 2.35227 17.8276 2.34289 15.412C2.31242 7.63412 9.47258 2.31829 15.9566 2.31829ZM29.4132 32.9208C29.7765 33.1283 30.223 33.1272 30.5851 32.9197C31.1159 32.616 31.7241 32.4549 32.3417 32.4549C34.28 32.4549 35.8573 34.0151 35.8573 35.9323C35.8573 37.8495 34.28 39.4097 32.3417 39.4097C31.7241 39.4097 31.1159 39.2486 30.5851 38.9449C30.2218 38.7374 29.7753 38.7374 29.4132 38.9437C29.0499 39.1512 28.8273 39.5338 28.8273 39.9476V47.6431C17.5011 39.8815 9.69875 32.4467 5.58547 25.5H12.5394C12.4609 25.8814 12.421 26.2697 12.421 26.6603C12.421 29.8561 15.0495 32.456 18.2804 32.456C21.5113 32.456 24.1398 29.8561 24.1398 26.6603C24.1398 26.2697 24.0999 25.8814 24.0214 25.5012H28.8273V31.917C28.8273 32.3308 29.0511 32.7145 29.4132 32.9208ZM55.6538 23.1829H47.4589C47.5374 22.8027 47.5773 22.4144 47.5773 22.0237C47.5773 18.828 44.9488 16.228 41.7179 16.228C38.487 16.228 35.8585 18.828 35.8585 22.0237C35.8585 22.4144 35.8984 22.8027 35.9769 23.1829H31.171V16.767C31.171 16.3532 30.9472 15.9695 30.5851 15.7632C30.223 15.5569 29.7753 15.5569 29.4132 15.7644C28.8823 16.068 28.2741 16.2292 27.6566 16.2292C25.7183 16.2292 24.1409 14.669 24.1409 12.7517C24.1409 10.8345 25.7183 9.27431 27.6566 9.27431C28.2741 9.27431 28.8823 9.43543 29.4132 9.73912C29.964 10.0544 30.6683 9.87127 30.9988 9.34617C33.0613 6.0971 37.9175 2.31829 44.0476 2.31829C49.7394 2.31829 57.6355 6.83083 57.6554 15.3042C57.6613 17.7511 56.9886 20.3998 55.6538 23.1829Z" fill="#27348B"/>
<path d="M44.0625 40.3382C44.7097 40.3382 45.2344 39.8192 45.2344 39.179C45.2344 38.5389 44.7097 38.0199 44.0625 38.0199C43.4153 38.0199 42.8906 38.5389 42.8906 39.179C42.8906 39.8192 43.4153 40.3382 44.0625 40.3382Z" fill="#27348B"/>
<path d="M29.4142 32.9206C29.7774 33.1281 30.2239 33.127 30.586 32.9195C31.1169 32.6158 31.7251 32.4547 32.3427 32.4547C34.281 32.4547 35.8583 34.0149 35.8583 35.9321C35.8583 37.8493 34.281 39.4095 32.3427 39.4095C31.7251 39.4095 31.1169 39.2484 30.586 38.9447C30.2227 38.7372 29.7763 38.7372 29.4142 38.9436C29.0509 39.151 28.8282 39.5336 28.8282 39.9474V47.6429C17.502 39.8813 9.69971 32.4466 5.58643 25.4998H12.5403C12.4618 25.8812 12.422 26.2695 12.422 26.6601C12.422 29.8559 15.0505 32.4558 18.2813 32.4558C21.5122 32.4558 24.1407 29.8559 24.1407 26.6601C24.1407 26.2695 24.1009 25.8812 24.0224 25.501H28.8282V31.9168C28.8282 32.3306 29.052 32.7143 29.4142 32.9206Z" fill="#ED6C71"/>
<path d="M55.655 23.1828H47.4601C47.5386 22.8026 47.5784 22.4143 47.5784 22.0237C47.5784 18.8279 44.9499 16.228 41.719 16.228C38.4882 16.228 35.8597 18.8279 35.8597 22.0237C35.8597 22.4143 35.8995 22.8026 35.978 23.1828H31.1722V16.767C31.1722 16.3531 30.9483 15.9695 30.5862 15.7631C30.2229 15.5557 29.7765 15.5568 29.4144 15.7643C28.8835 16.068 28.2753 16.2291 27.6577 16.2291C25.7194 16.2291 24.1421 14.6689 24.1421 12.7517C24.1421 10.8345 25.7194 9.27426 27.6577 9.27426C28.2753 9.27426 28.8835 9.43538 29.4144 9.73907C29.9651 10.0544 30.6694 9.87122 30.9999 9.34612C33.0624 6.09704 37.9187 2.31824 44.0487 2.31824C49.7405 2.31824 57.6366 6.83078 57.6565 15.3041C57.6624 17.7511 56.9897 20.3997 55.655 23.1828Z" fill="#E4E6F2"/>
</g>
<defs>
<clipPath id="clip0">
<rect width="60" height="51" fill="white"/>
</clipPath>
</defs>
</svg>
