<svg width="60" height="57" viewBox="0 0 60 57" fill="none" xmlns="http://www.w3.org/2000/svg">
<g clip-path="url(#clip0)">
<path d="M50.0016 30.6774H46.8809C48.2168 28.9609 48.9445 26.8701 48.9445 24.6974C48.9445 22.9185 48.4641 21.209 47.5641 19.7108H50.0004C55.5129 19.7108 59.9988 15.2902 59.9988 9.85539C59.9988 4.4206 55.5152 0 50.0016 0H40.8117C40.1648 0 39.6398 0.517489 39.6398 1.15511C39.6398 1.79273 40.1648 2.31022 40.8117 2.31022H50.0016C54.2227 2.31022 57.6562 5.69469 57.6562 9.85539C57.6562 14.0161 54.2227 17.4006 50.0016 17.4006H28.8445C28.5797 17.4006 28.323 17.4895 28.1156 17.6512L21.5379 22.8065L21.4535 18.5002C21.4418 17.91 20.9801 17.4237 20.3836 17.3717C16.466 17.0332 13.398 13.7319 13.398 9.85539C13.398 5.69469 16.8328 2.31022 21.0551 2.31022H30.2449C30.8918 2.31022 31.4168 1.79273 31.4168 1.15511C31.4168 0.517489 30.8918 0 30.2449 0H21.0551C15.5402 0 11.0543 4.4206 11.0543 9.85539C11.0543 11.625 11.5383 13.3392 12.4395 14.842H9.99844C4.48477 14.842 0 19.2626 0 24.6974C0 30.1322 4.48477 34.5528 9.99844 34.5528H13.1227C11.7996 36.2542 11.0555 38.3508 11.0555 40.5362C11.0555 43.0082 11.9977 45.3761 13.7074 47.2035C15.1629 48.7595 17.0602 49.8037 19.1309 50.2068L19.2422 55.8668C19.2504 56.3058 19.5117 56.702 19.9148 56.8903C20.0742 56.9642 20.2441 57 20.4141 57C20.6742 57 20.932 56.9145 21.1441 56.7493L29.2559 50.3916H50.0051C55.5176 50.3916 60.0035 45.971 60.0035 40.5362C60 35.0991 55.5152 30.6774 50.0016 30.6774ZM9.99844 32.2426C5.77852 32.2426 2.34375 28.8581 2.34375 24.6974C2.34375 20.5367 5.77734 17.1522 9.99844 17.1522H14.3496C15.702 18.3628 17.352 19.1817 19.1297 19.526L19.241 25.186C19.2492 25.6249 19.5105 26.0223 19.9137 26.2094C20.073 26.2833 20.243 26.3192 20.4129 26.3192C20.673 26.3192 20.9309 26.2337 21.143 26.0685L29.2559 19.7108H44.6801C45.9234 21.0946 46.6043 22.8481 46.6043 24.6974C46.6043 28.5739 43.5363 31.8752 39.6187 32.2137C39.0223 32.2657 38.5605 32.752 38.5488 33.3422L38.4645 37.6485L31.8867 32.4932C31.6793 32.3303 31.4227 32.2426 31.1578 32.2426H9.99844ZM50.0016 48.0802H28.8445C28.5797 48.0802 28.323 48.1692 28.1156 48.3309L21.5379 53.4862L21.4535 49.1799C21.4418 48.5897 20.9812 48.1034 20.3848 48.0514C16.4672 47.7106 13.398 44.4082 13.398 40.5351C13.398 38.1948 14.5172 35.9839 16.4062 34.5516H30.7465L38.8594 40.9093C39.0703 41.0745 39.3281 41.16 39.5895 41.16C39.7594 41.16 39.9293 41.1242 40.0887 41.0503C40.4918 40.8631 40.7531 40.4669 40.7613 40.0268L40.8727 34.3668C42.109 34.1265 43.2832 33.6564 44.3391 32.9853H50.0039C54.225 32.9853 57.6586 36.3709 57.6586 40.5339C57.6562 44.6958 54.2227 48.0802 50.0016 48.0802Z" fill="#27348B"/>
<path d="M50.592 5.79993H30.5283C29.8814 5.79993 29.3564 6.31742 29.3564 6.95504C29.3564 7.59266 29.8814 8.11014 30.5283 8.11014H50.592C51.2389 8.11014 51.7639 7.59266 51.7639 6.95504C51.7639 6.31742 51.24 5.79993 50.592 5.79993Z" fill="#27348B"/>
<path d="M20.4658 8.11014H24.6459C25.2928 8.11014 25.8178 7.59266 25.8178 6.95504C25.8178 6.31742 25.2928 5.79993 24.6459 5.79993H20.4658C19.8189 5.79993 19.2939 6.31742 19.2939 6.95504C19.2939 7.59266 19.8178 8.11014 20.4658 8.11014Z" fill="#27348B"/>
<path d="M20.4658 13.9098H40.5295C41.1764 13.9098 41.7014 13.3923 41.7014 12.7547C41.7014 12.1171 41.1764 11.5996 40.5295 11.5996H20.4658C19.8189 11.5996 19.2939 12.1171 19.2939 12.7547C19.2939 13.3923 19.8178 13.9098 20.4658 13.9098Z" fill="#27348B"/>
<path d="M50.5921 11.5996H46.4097C45.7628 11.5996 45.2378 12.1171 45.2378 12.7547C45.2378 13.3923 45.7628 13.9098 46.4097 13.9098H50.5921C51.239 13.9098 51.764 13.3923 51.764 12.7547C51.764 12.1171 51.2401 11.5996 50.5921 11.5996Z" fill="#27348B"/>
<path d="M35.5293 2.31022H35.5363C36.1832 2.31022 36.7047 1.79273 36.7047 1.15511C36.7047 0.517489 36.1762 0 35.5293 0C34.8824 0 34.3574 0.517489 34.3574 1.15511C34.3574 1.79273 34.8824 2.31022 35.5293 2.31022Z" fill="#27348B"/>
<path d="M9.99844 32.2426C5.77734 32.2426 2.34375 28.8581 2.34375 24.6974C2.34375 20.5367 5.77734 17.1522 9.99844 17.1522H14.3496C15.702 18.3628 17.352 19.1817 19.1297 19.526L19.241 25.186C19.2492 25.6249 19.5105 26.0223 19.9137 26.2094C20.073 26.2834 20.243 26.3192 20.4129 26.3192C20.673 26.3192 20.9309 26.2337 21.143 26.0685L29.2559 19.7108H44.6801C45.9234 21.0946 46.6043 22.8481 46.6043 24.6974C46.6043 28.5739 43.5363 31.8752 39.6187 32.2137C39.0223 32.2657 38.5605 32.752 38.5488 33.3422L38.4645 37.6485L31.8867 32.4932C31.6793 32.3303 31.4227 32.2426 31.1578 32.2426H9.99844Z" fill="#E4E6F2"/>
<path d="M50.0015 48.0802H28.8444C28.5796 48.0802 28.3229 48.1691 28.1155 48.3309L21.5378 53.4861L21.4534 49.1799C21.4417 48.5896 20.9812 48.1033 20.3847 48.0513C16.4671 47.7106 13.3979 44.4081 13.3979 40.535C13.3979 38.1948 14.5171 35.9839 16.4062 34.5516H30.7464L38.8593 40.9093C39.0702 41.0745 39.328 41.1599 39.5894 41.1599C39.7593 41.1599 39.9292 41.1241 40.0886 41.0502C40.4917 40.8631 40.753 40.4669 40.7612 40.0268L40.8726 34.3667C42.1089 34.1265 43.2831 33.6563 44.339 32.9852H50.0038C54.2249 32.9852 57.6585 36.3709 57.6585 40.5339C57.6562 44.6957 54.2226 48.0802 50.0015 48.0802Z" fill="#ED6C71"/>
</g>
<defs>
<clipPath id="clip0">
<rect width="60" height="57" fill="white"/>
</clipPath>
</defs>
</svg>
