<svg width="60" height="60" viewBox="0 0 60 60" fill="none" xmlns="http://www.w3.org/2000/svg">
<path d="M48.5327 21.5099C50.7605 19.587 51.3874 16.2853 49.8628 13.6449C48.3382 11.0034 45.1683 9.89537 42.3898 10.865L37.4187 2.24969C36.8187 1.20971 35.8495 0.465195 34.6906 0.154491C33.5304 -0.156214 32.3199 0.00324202 31.2804 0.603546C29.3281 1.73146 28.5417 4.11275 29.348 6.14933L22.5921 12.3869C22.1163 12.8265 22.087 13.5675 22.5253 14.0436C22.9648 14.5196 23.7054 14.5489 24.1812 14.1104L30.5128 8.26563L44.8449 33.1009L17.9538 41.4817L9.814 27.3745L16.4316 21.2648C16.9074 20.8251 16.9367 20.0841 16.4984 19.6081C16.0589 19.1321 15.3183 19.1028 14.8425 19.5413L8.24486 25.6323C7.90618 25.4224 7.5347 25.2618 7.13978 25.1562C6.07454 24.8701 4.96243 25.0167 4.00736 25.5689C2.03626 26.7074 1.35892 29.2376 2.49681 31.2097L3.0347 32.1418C0.0159496 34.3613 -0.919207 38.5552 0.995637 41.8733C1.99056 43.598 3.5972 44.8303 5.51907 45.3462C6.16126 45.5185 6.81165 45.6029 7.4597 45.6029C8.4804 45.6029 9.49056 45.3907 10.4363 44.9733L10.9742 45.9043C11.5249 46.8598 12.4156 47.5434 13.4808 47.8283C13.837 47.9232 14.1968 47.9713 14.5554 47.9713C15.2702 47.9713 15.9769 47.7837 16.612 47.4167C17.1652 47.0967 17.6163 46.6687 17.9538 46.1727L25.2663 58.8436C25.6941 59.5846 26.4734 59.9997 27.2738 59.9997C27.6663 59.9997 28.0636 59.9 28.4269 59.6902L33.8234 56.5737C34.4738 56.1974 34.9027 55.5255 34.9706 54.7775C35.0386 54.0283 34.7363 53.2908 34.162 52.8042L30.2409 49.4803L25.6577 41.538L46.0952 35.1691C46.9636 36.2654 48.2773 36.8692 49.6214 36.8692C50.3831 36.8692 51.1554 36.6757 51.8609 36.2677C54.0066 35.0284 54.7449 32.2731 53.5062 30.1263L48.5327 21.5099ZM6.12611 43.0809C4.80892 42.728 3.70736 41.8827 3.02532 40.7008C1.75736 38.5048 2.31165 35.7471 4.21478 34.1913L9.25501 42.925C8.26009 43.3037 7.17376 43.3612 6.12611 43.0809ZM16.2722 44.3015C16.1492 44.7623 15.8538 45.1468 15.4413 45.3848C15.0288 45.6229 14.5472 45.6862 14.0878 45.5631C13.6273 45.44 13.2429 45.1445 13.005 44.7318L4.52415 30.0384C4.28626 29.6257 4.22298 29.145 4.34603 28.6842C4.46907 28.2234 4.76439 27.8388 5.17689 27.6008C5.45228 27.4425 5.75697 27.3605 6.06634 27.3605C6.22103 27.3605 6.37689 27.3804 6.5304 27.4226C6.99095 27.5457 7.37532 27.8412 7.61321 28.2539L16.0929 42.9473C16.332 43.36 16.3952 43.8419 16.2722 44.3015ZM28.312 50.8286C28.38 50.9459 28.4667 51.0502 28.5687 51.137L32.6117 54.5653L27.2808 57.6442L19.155 43.5628L23.3632 42.252L28.312 50.8286ZM47.8331 14.8174C48.7074 16.3322 48.4507 18.1953 47.3269 19.4205L43.5956 12.9543C45.2187 12.5932 46.9589 13.3026 47.8331 14.8174ZM51.6898 32.9297C51.541 33.4843 51.1859 33.9486 50.6878 34.2358C50.191 34.5231 49.6109 34.5993 49.0566 34.4504C48.5023 34.3015 48.0382 33.9462 47.7511 33.4479L31.6648 5.57247C31.0718 4.54539 31.4245 3.22753 32.4523 2.63426C32.7839 2.44315 33.1507 2.34466 33.5234 2.34466C33.7097 2.34466 33.8984 2.36929 34.0835 2.41853C34.6378 2.56743 35.1019 2.92269 35.389 3.42099L51.4753 31.2965C51.7624 31.7959 51.8386 32.3751 51.6898 32.9297Z" fill="#27348B"/>
<path d="M52.928 13.0905C53.1272 13.0905 53.3287 13.0401 53.5127 12.9334L57.4713 10.6471C58.0315 10.3235 58.2237 9.60593 57.9002 9.04549C57.5768 8.48505 56.8596 8.29276 56.2994 8.61636L52.3408 10.9027C51.7807 11.2263 51.5885 11.9438 51.9119 12.5043C52.1287 12.8806 52.5225 13.0905 52.928 13.0905Z" fill="#27348B"/>
<path d="M46.8922 7.80855C46.9942 7.83551 47.0962 7.84841 47.1969 7.84841C47.7149 7.84841 48.1883 7.50253 48.3278 6.97844L49.5395 2.45387C49.7071 1.82894 49.3356 1.18526 48.711 1.01759C48.0864 0.84993 47.443 1.2216 47.2755 1.84653L46.0637 6.3711C45.8962 6.99837 46.2665 7.64088 46.8922 7.80855Z" fill="#27348B"/>
<path d="M59.1306 19.5414L54.8122 18.3842C54.1876 18.2165 53.5442 18.5882 53.3766 19.2131C53.2091 19.838 53.5805 20.4817 54.2052 20.6494L58.5235 21.8066C58.6255 21.8336 58.7274 21.8465 58.8282 21.8465C59.3462 21.8465 59.8196 21.5006 59.9591 20.9765C60.1278 20.3516 59.7563 19.7091 59.1306 19.5414Z" fill="#27348B"/>
<path d="M19.5117 17.9998C19.8199 17.9998 20.1223 17.8744 20.3402 17.6563C20.5582 17.4382 20.6836 17.1357 20.6836 16.8273C20.6836 16.519 20.5582 16.2165 20.3402 15.9984C20.1223 15.7792 19.8199 15.6549 19.5117 15.6549C19.2035 15.6549 18.9012 15.7792 18.6832 15.9984C18.4652 16.2165 18.3398 16.5178 18.3398 16.8273C18.3398 17.1357 18.4652 17.4382 18.6832 17.6563C18.9012 17.8744 19.2035 17.9998 19.5117 17.9998Z" fill="#27348B"/>
</svg>
