<svg width="70" height="20" viewBox="0 0 70 20" fill="none" xmlns="http://www.w3.org/2000/svg">
<path d="M0 4C0 1.79086 1.79086 0 4 0H70V16C70 18.2091 68.2091 20 66 20H0V4Z" fill="#ED6C71"/>
<path d="M12.0569 14.08C11.3569 14.08 10.7236 13.9267 10.1569 13.62C9.59691 13.3067 9.15691 12.88 8.83691 12.34C8.51691 11.7933 8.35691 11.18 8.35691 10.5C8.35691 9.82 8.51691 9.21 8.83691 8.67C9.15691 8.12333 9.60025 7.69667 10.1669 7.39C10.7336 7.07667 11.3669 6.92 12.0669 6.92C12.6136 6.92 13.1136 7.01333 13.5669 7.2C14.0202 7.38 14.4069 7.65 14.7269 8.01L14.0769 8.64C13.5502 8.08667 12.8936 7.81 12.1069 7.81C11.5869 7.81 11.1169 7.92667 10.6969 8.16C10.2769 8.39333 9.94691 8.71667 9.70691 9.13C9.47358 9.53667 9.35691 9.99333 9.35691 10.5C9.35691 11.0067 9.47358 11.4667 9.70691 11.88C9.94691 12.2867 10.2769 12.6067 10.6969 12.84C11.1169 13.0733 11.5869 13.19 12.1069 13.19C12.8869 13.19 13.5436 12.91 14.0769 12.35L14.7269 12.98C14.4069 13.34 14.0169 13.6133 13.5569 13.8C13.1036 13.9867 12.6036 14.08 12.0569 14.08ZM19.1082 14.08C18.4015 14.08 17.7648 13.9267 17.1982 13.62C16.6315 13.3067 16.1848 12.8767 15.8582 12.33C15.5382 11.7833 15.3782 11.1733 15.3782 10.5C15.3782 9.82667 15.5382 9.21667 15.8582 8.67C16.1848 8.12333 16.6315 7.69667 17.1982 7.39C17.7648 7.07667 18.4015 6.92 19.1082 6.92C19.8082 6.92 20.4415 7.07667 21.0082 7.39C21.5748 7.69667 22.0182 8.12333 22.3382 8.67C22.6582 9.21 22.8182 9.82 22.8182 10.5C22.8182 11.18 22.6582 11.7933 22.3382 12.34C22.0182 12.88 21.5748 13.3067 21.0082 13.62C20.4415 13.9267 19.8082 14.08 19.1082 14.08ZM19.1082 13.19C19.6215 13.19 20.0815 13.0733 20.4882 12.84C20.9015 12.6067 21.2248 12.2867 21.4582 11.88C21.6982 11.4667 21.8182 11.0067 21.8182 10.5C21.8182 9.99333 21.6982 9.53667 21.4582 9.13C21.2248 8.71667 20.9015 8.39333 20.4882 8.16C20.0815 7.92667 19.6215 7.81 19.1082 7.81C18.5948 7.81 18.1282 7.92667 17.7082 8.16C17.2948 8.39333 16.9682 8.71667 16.7282 9.13C16.4948 9.53667 16.3782 9.99333 16.3782 10.5C16.3782 11.0067 16.4948 11.4667 16.7282 11.88C16.9682 12.2867 17.2948 12.6067 17.7082 12.84C18.1282 13.0733 18.5948 13.19 19.1082 13.19ZM24.4347 7H29.7147V7.85H25.4247V9.85H27.6047C28.4381 9.85 29.0714 10.0233 29.5047 10.37C29.9381 10.7167 30.1547 11.2167 30.1547 11.87C30.1547 12.5567 29.9181 13.0833 29.4447 13.45C28.9781 13.8167 28.3081 14 27.4347 14H24.4347V7ZM27.3947 13.21C27.9681 13.21 28.4047 13.1 28.7047 12.88C29.0047 12.66 29.1547 12.3367 29.1547 11.91C29.1547 11.0633 28.5681 10.64 27.3947 10.64H25.4247V13.21H27.3947ZM34.8192 9.44C35.6525 9.44 36.2892 9.62667 36.7292 10C37.1758 10.3733 37.3992 10.9233 37.3992 11.65C37.3992 12.4167 37.1592 13 36.6792 13.4C36.2058 13.8 35.5258 14 34.6392 14H31.7492V7H32.7392V9.44H34.8192ZM34.5992 13.21C35.1792 13.21 35.6225 13.08 35.9292 12.82C36.2425 12.5533 36.3992 12.17 36.3992 11.67C36.3992 10.71 35.7992 10.23 34.5992 10.23H32.7392V13.21H34.5992ZM38.5092 7H39.4992V14H38.5092V7ZM46.4908 7.87H44.0908V14H43.1108V7.87H40.7208V7H46.4908V7.87ZM47.7062 7H48.6962V12.4L52.8362 7H53.7562V14H52.7762V8.61L48.6262 14H47.7062V7ZM61.0686 7V14H60.0886V11.96H58.1586C58.0386 11.96 57.9486 11.9567 57.8886 11.95L56.4886 14H55.4286L56.9786 11.78C56.4786 11.6133 56.0953 11.3367 55.8286 10.95C55.562 10.5567 55.4286 10.08 55.4286 9.52C55.4286 8.72667 55.682 8.11 56.1886 7.67C56.702 7.22333 57.392 7 58.2586 7H61.0686ZM56.4386 9.51C56.4386 10.03 56.5886 10.43 56.8886 10.71C57.1953 10.9833 57.6453 11.12 58.2386 11.12H60.0886V7.87H58.2986C57.6986 7.87 57.2386 8.01 56.9186 8.29C56.5986 8.57 56.4386 8.97667 56.4386 9.51Z" fill="white"/>
</svg>
