<svg width="80" height="20" viewBox="0 0 80 20" fill="none" xmlns="http://www.w3.org/2000/svg">
<path d="M0 4C0 1.79086 1.79086 0 4 0H80V16C80 18.2091 78.2091 20 76 20H0V4Z" fill="#ED6C71"/>
<path d="M12.8972 14.08C12.1906 14.08 11.5539 13.9267 10.9872 13.62C10.4206 13.3067 9.97389 12.8767 9.64723 12.33C9.32723 11.7833 9.16723 11.1733 9.16723 10.5C9.16723 9.82667 9.32723 9.21667 9.64723 8.67C9.97389 8.12333 10.4206 7.69667 10.9872 7.39C11.5539 7.07667 12.1906 6.92 12.8972 6.92C13.5972 6.92 14.2306 7.07667 14.7972 7.39C15.3639 7.69667 15.8072 8.12333 16.1272 8.67C16.4472 9.21 16.6072 9.82 16.6072 10.5C16.6072 11.18 16.4472 11.7933 16.1272 12.34C15.8072 12.88 15.3639 13.3067 14.7972 13.62C14.2306 13.9267 13.5972 14.08 12.8972 14.08ZM12.8972 13.19C13.4106 13.19 13.8706 13.0733 14.2772 12.84C14.6906 12.6067 15.0139 12.2867 15.2472 11.88C15.4872 11.4667 15.6072 11.0067 15.6072 10.5C15.6072 9.99333 15.4872 9.53667 15.2472 9.13C15.0139 8.71667 14.6906 8.39333 14.2772 8.16C13.8706 7.92667 13.4106 7.81 12.8972 7.81C12.3839 7.81 11.9172 7.92667 11.4972 8.16C11.0839 8.39333 10.7572 8.71667 10.5172 9.13C10.2839 9.53667 10.1672 9.99333 10.1672 10.5C10.1672 11.0067 10.2839 11.4667 10.5172 11.88C10.7572 12.2867 11.0839 12.6067 11.4972 12.84C11.9172 13.0733 12.3839 13.19 12.8972 13.19ZM18.2238 7H23.5038V7.85H19.2138V9.85H21.3938C22.2271 9.85 22.8605 10.0233 23.2938 10.37C23.7271 10.7167 23.9438 11.2167 23.9438 11.87C23.9438 12.5567 23.7071 13.0833 23.2338 13.45C22.7671 13.8167 22.0971 14 21.2238 14H18.2238V7ZM21.1838 13.21C21.7571 13.21 22.1938 13.1 22.4938 12.88C22.7938 12.66 22.9438 12.3367 22.9438 11.91C22.9438 11.0633 22.3571 10.64 21.1838 10.64H19.2138V13.21H21.1838ZM34.3082 7V14H25.5382V7H26.5282V13.13H29.4382V7H30.4182V13.13H33.3282V7H34.3082ZM35.3582 13.13V15.53H34.4382V14H33.3082V13.13H35.3582ZM41.8194 13.13V14H36.7394V7H41.6794V7.87H37.7394V10.02H41.2494V10.87H37.7394V13.13H41.8194ZM46.4905 14.08C45.7905 14.08 45.1572 13.9267 44.5905 13.62C44.0305 13.3067 43.5905 12.88 43.2705 12.34C42.9505 11.7933 42.7905 11.18 42.7905 10.5C42.7905 9.82 42.9505 9.21 43.2705 8.67C43.5905 8.12333 44.0338 7.69667 44.6005 7.39C45.1672 7.07667 45.8005 6.92 46.5005 6.92C47.0472 6.92 47.5472 7.01333 48.0005 7.2C48.4538 7.38 48.8405 7.65 49.1605 8.01L48.5105 8.64C47.9838 8.08667 47.3272 7.81 46.5405 7.81C46.0205 7.81 45.5505 7.92667 45.1305 8.16C44.7105 8.39333 44.3805 8.71667 44.1405 9.13C43.9072 9.53667 43.7905 9.99333 43.7905 10.5C43.7905 11.0067 43.9072 11.4667 44.1405 11.88C44.3805 12.2867 44.7105 12.6067 45.1305 12.84C45.5505 13.0733 46.0205 13.19 46.5405 13.19C47.3205 13.19 47.9772 12.91 48.5105 12.35L49.1605 12.98C48.8405 13.34 48.4505 13.6133 47.9905 13.8C47.5372 13.9867 47.0372 14.08 46.4905 14.08ZM55.2701 7.87H52.8701V14H51.8901V7.87H49.5001V7H55.2701V7.87ZM60.8455 10.37C61.3188 10.4833 61.6755 10.6867 61.9155 10.98C62.1622 11.2667 62.2855 11.6367 62.2855 12.09C62.2855 12.6967 62.0622 13.1667 61.6155 13.5C61.1755 13.8333 60.5322 14 59.6855 14H56.4855V7H59.4955C60.2622 7 60.8588 7.15667 61.2855 7.47C61.7188 7.77667 61.9355 8.22 61.9355 8.8C61.9355 9.18 61.8388 9.50333 61.6455 9.77C61.4588 10.0367 61.1922 10.2367 60.8455 10.37ZM57.4755 10.08H59.4255C59.9122 10.08 60.2822 9.98333 60.5355 9.79C60.7955 9.59667 60.9255 9.31333 60.9255 8.94C60.9255 8.56667 60.7955 8.28333 60.5355 8.09C60.2755 7.89 59.9055 7.79 59.4255 7.79H57.4755V10.08ZM59.6655 13.21C60.7388 13.21 61.2755 12.81 61.2755 12.01C61.2755 11.61 61.1388 11.3167 60.8655 11.13C60.5988 10.9367 60.1988 10.84 59.6655 10.84H57.4755V13.21H59.6655ZM67.1062 14.08C66.3995 14.08 65.7629 13.9267 65.1962 13.62C64.6295 13.3067 64.1829 12.8767 63.8562 12.33C63.5362 11.7833 63.3762 11.1733 63.3762 10.5C63.3762 9.82667 63.5362 9.21667 63.8562 8.67C64.1829 8.12333 64.6295 7.69667 65.1962 7.39C65.7629 7.07667 66.3995 6.92 67.1062 6.92C67.8062 6.92 68.4395 7.07667 69.0062 7.39C69.5729 7.69667 70.0162 8.12333 70.3362 8.67C70.6562 9.21 70.8162 9.82 70.8162 10.5C70.8162 11.18 70.6562 11.7933 70.3362 12.34C70.0162 12.88 69.5729 13.3067 69.0062 13.62C68.4395 13.9267 67.8062 14.08 67.1062 14.08ZM67.1062 13.19C67.6195 13.19 68.0795 13.0733 68.4862 12.84C68.8995 12.6067 69.2229 12.2867 69.4562 11.88C69.6962 11.4667 69.8162 11.0067 69.8162 10.5C69.8162 9.99333 69.6962 9.53667 69.4562 9.13C69.2229 8.71667 68.8995 8.39333 68.4862 8.16C68.0795 7.92667 67.6195 7.81 67.1062 7.81C66.5929 7.81 66.1262 7.92667 65.7062 8.16C65.2929 8.39333 64.9662 8.71667 64.7262 9.13C64.4929 9.53667 64.3762 9.99333 64.3762 10.5C64.3762 11.0067 64.4929 11.4667 64.7262 11.88C64.9662 12.2867 65.2929 12.6067 65.7062 12.84C66.1262 13.0733 66.5929 13.19 67.1062 13.19Z" fill="white"/>
</svg>
