<svg width="50" height="20" viewBox="0 0 50 20" fill="none" xmlns="http://www.w3.org/2000/svg">
<path d="M0 4C0 1.79086 1.79086 0 4 0H50V16C50 18.2091 48.2091 20 46 20H0V4Z" fill="#ED6C71"/>
<path d="M14.3295 7V14H13.3495V7.87H10.2495L10.1795 9.92C10.1462 10.8867 10.0662 11.67 9.93953 12.27C9.81953 12.87 9.6262 13.3233 9.35953 13.63C9.09286 13.93 8.73286 14.08 8.27953 14.08C8.07286 14.08 7.86286 14.0533 7.64953 14L7.71953 13.11C7.8262 13.1367 7.93286 13.15 8.03953 13.15C8.3262 13.15 8.5562 13.0367 8.72953 12.81C8.90286 12.5767 9.03286 12.23 9.11953 11.77C9.2062 11.31 9.26286 10.7033 9.28953 9.95L9.39953 7H14.3295ZM22.3099 6.92C22.9833 6.92 23.5899 7.07667 24.1299 7.39C24.6699 7.69667 25.0933 8.12333 25.3999 8.67C25.7133 9.21 25.8699 9.82 25.8699 10.5C25.8699 11.18 25.7133 11.7933 25.3999 12.34C25.0933 12.88 24.6699 13.3067 24.1299 13.62C23.5899 13.9267 22.9833 14.08 22.3099 14.08C21.6833 14.08 21.1133 13.9433 20.5999 13.67C20.0866 13.3967 19.6699 13.02 19.3499 12.54C19.0299 12.06 18.8399 11.5133 18.7799 10.9H17.4999V14H16.5099V7H17.4999V10H18.7899C18.8633 9.40667 19.0599 8.87667 19.3799 8.41C19.7066 7.94333 20.1233 7.58 20.6299 7.32C21.1366 7.05333 21.6966 6.92 22.3099 6.92ZM22.3099 13.18C22.7899 13.18 23.2233 13.0667 23.6099 12.84C24.0033 12.6067 24.3099 12.2867 24.5299 11.88C24.7566 11.4733 24.8699 11.0133 24.8699 10.5C24.8699 9.98667 24.7566 9.52667 24.5299 9.12C24.3099 8.71333 24.0033 8.39667 23.6099 8.17C23.2233 7.93667 22.7899 7.82 22.3099 7.82C21.8366 7.82 21.4066 7.93667 21.0199 8.17C20.6333 8.39667 20.3266 8.71333 20.0999 9.12C19.8799 9.52667 19.7699 9.98667 19.7699 10.5C19.7699 11.0133 19.8799 11.4733 20.0999 11.88C20.3266 12.2867 20.6333 12.6067 21.0199 12.84C21.4066 13.0667 21.8366 13.18 22.3099 13.18ZM33.9709 13.13V15.53H33.0409V14H27.2809L27.2709 15.53H26.3409L26.3509 13.13H26.6909C27.1309 13.1033 27.4409 12.7567 27.6209 12.09C27.8009 11.4167 27.9109 10.47 27.9509 9.25L28.0209 7H32.9409V13.13H33.9709ZM28.8309 9.34C28.7976 10.3267 28.7176 11.1433 28.5909 11.79C28.4709 12.4367 28.2743 12.8833 28.0009 13.13H31.9509V7.87H28.8809L28.8309 9.34ZM35.338 7H36.328V12.4L40.468 7H41.388V14H40.408V8.61L36.258 14H35.338V7Z" fill="white"/>
</svg>
