<svg width="16" height="16" viewBox="0 0 16 16" fill="none" xmlns="http://www.w3.org/2000/svg">
<path d="M8 0C3.58875 0 0 3.58875 0 8C0 12.4113 3.58875 16 8 16C12.4113 16 16 12.4113 16 8C16 3.58875 12.4113 0 8 0ZM8 12.8228C7.54625 12.8228 7.17719 12.4537 7.17719 12C7.17719 11.5463 7.54625 11.1772 8 11.1772C8.45375 11.1772 8.82281 11.5463 8.82281 12C8.82281 12.4537 8.45375 12.8228 8 12.8228ZM10.3797 7.20625C9.98781 7.73313 9.4575 8.13438 8.88562 8.33625C8.74844 8.38438 8.65625 8.51469 8.65625 8.66063V9.33344C8.65625 9.69531 8.36187 9.98969 8 9.98969C7.63812 9.98969 7.34375 9.69531 7.34375 9.33344V8.66C7.34375 7.95906 7.78813 7.33125 8.44938 7.09781C8.78844 6.97844 9.10469 6.73313 9.33937 6.40688C9.55094 6.11313 9.67719 5.77375 9.67719 5.49969C9.67719 4.575 8.92469 3.8225 8 3.8225C7.07531 3.8225 6.32281 4.575 6.32281 5.49969C6.32281 5.86156 6.02844 6.15594 5.66656 6.15594C5.30469 6.15594 5.01031 5.86156 5.01031 5.49969C5.01031 3.85125 6.35156 2.51 8 2.51C9.64844 2.51 10.9897 3.85125 10.9897 5.49969C10.9897 6.07125 10.7728 6.67719 10.3797 7.20625Z" fill="#27348B"/>
</svg>
