<svg width="15" height="15" viewBox="0 0 18 18" fill="none" xmlns="http://www.w3.org/2000/svg">
<path d="M9 0C4.03734 0 0 4.03734 0 9C0 13.9627 4.03734 18 9 18C13.9627 18 18 13.9627 18 9C18 4.03734 13.9627 0 9 0ZM9 14.4257C8.48953 14.4257 8.07434 14.0105 8.07434 13.5C8.07434 12.9895 8.48953 12.5743 9 12.5743C9.51047 12.5743 9.92566 12.9895 9.92566 13.5C9.92566 14.0105 9.51047 14.4257 9 14.4257ZM11.6771 8.10703C11.2363 8.69977 10.6397 9.15117 9.99633 9.37828C9.84199 9.43242 9.73828 9.57902 9.73828 9.7432V10.5001C9.73828 10.9072 9.40711 11.2384 9 11.2384C8.59289 11.2384 8.26172 10.9072 8.26172 10.5001V9.7425C8.26172 8.95395 8.76164 8.24766 9.50555 7.98504C9.88699 7.85074 10.2428 7.57477 10.5068 7.20773C10.7448 6.87727 10.8868 6.49547 10.8868 6.18715C10.8868 5.14688 10.0403 4.30031 9 4.30031C7.95973 4.30031 7.11316 5.14688 7.11316 6.18715C7.11316 6.59426 6.78199 6.92543 6.37488 6.92543C5.96777 6.92543 5.6366 6.59426 5.6366 6.18715C5.6366 4.33266 7.14551 2.82375 9 2.82375C10.8545 2.82375 12.3634 4.33266 12.3634 6.18715C12.3634 6.83016 12.1194 7.51184 11.6771 8.10703Z" fill="white"/>
</svg>
