<svg width="225" height="50" viewBox="0 0 225 50" fill="none" xmlns="http://www.w3.org/2000/svg">
<path d="M11.5219 50H213.478C213.837 50 214.232 50 214.591 49.9641L224.964 39.5908C225 39.2319 225 38.8729 225 38.4781V11.5219C225 5.1687 219.831 0 213.478 0H11.5219C11.163 0 10.7681 0.0358817 10.4092 0.0717754L0.0358944 10.4451C6.37025e-07 10.804 0 11.163 0 11.5578V38.514C0 44.8313 5.1687 50 11.5219 50Z" fill="#ED6C71"/>
<path d="M36.0893 30.168C35.072 30.168 34.1526 29.9487 33.3313 29.51C32.5193 29.0713 31.88 28.4693 31.4133 27.704C30.956 26.9293 30.7273 26.0613 30.7273 25.1C30.7273 24.1387 30.956 23.2753 31.4133 22.51C31.88 21.7353 32.5193 21.1287 33.3313 20.69C34.1526 20.2513 35.072 20.032 36.0893 20.032C37.1066 20.032 38.0213 20.2513 38.8333 20.69C39.6453 21.1287 40.2846 21.7353 40.7513 22.51C41.218 23.2753 41.4513 24.1387 41.4513 25.1C41.4513 26.0613 41.218 26.9293 40.7513 27.704C40.2846 28.4693 39.6453 29.0713 38.8333 29.51C38.0213 29.9487 37.1066 30.168 36.0893 30.168ZM36.0893 28.236C36.668 28.236 37.1906 28.1053 37.6573 27.844C38.124 27.5733 38.488 27.2 38.7493 26.724C39.02 26.248 39.1553 25.7067 39.1553 25.1C39.1553 24.4933 39.02 23.952 38.7493 23.476C38.488 23 38.124 22.6313 37.6573 22.37C37.1906 22.0993 36.668 21.964 36.0893 21.964C35.5106 21.964 34.988 22.0993 34.5213 22.37C34.0546 22.6313 33.686 23 33.4153 23.476C33.154 23.952 33.0233 24.4933 33.0233 25.1C33.0233 25.7067 33.154 26.248 33.4153 26.724C33.686 27.2 34.0546 27.5733 34.5213 27.844C34.988 28.1053 35.5106 28.236 36.0893 28.236ZM50.5518 22.048H47.4158V30H45.1758V22.048H42.0538V20.2H50.5518V22.048ZM60.9078 20.2V30H58.6538V22.048H54.2298V30H51.9758V20.2H60.9078ZM67.5791 20.2C68.4471 20.2 69.1985 20.3447 69.8331 20.634C70.4771 20.9233 70.9718 21.334 71.3171 21.866C71.6625 22.398 71.8351 23.028 71.8351 23.756C71.8351 24.4747 71.6625 25.1047 71.3171 25.646C70.9718 26.178 70.4771 26.5887 69.8331 26.878C69.1985 27.158 68.4471 27.298 67.5791 27.298H65.6051V30H63.3371V20.2H67.5791ZM67.4531 25.45C68.1345 25.45 68.6525 25.3053 69.0071 25.016C69.3618 24.7173 69.5391 24.2973 69.5391 23.756C69.5391 23.2053 69.3618 22.7853 69.0071 22.496C68.6525 22.1973 68.1345 22.048 67.4531 22.048H65.6051V25.45H67.4531ZM79.4751 27.9H74.9251L74.0571 30H71.7331L76.1011 20.2H78.3411L82.7231 30H80.3431L79.4751 27.9ZM78.7611 26.178L77.2071 22.426L75.6531 26.178H78.7611ZM90.8127 24.89C91.41 25.0673 91.8674 25.3567 92.1847 25.758C92.502 26.1593 92.6607 26.654 92.6607 27.242C92.6607 28.11 92.3294 28.7867 91.6667 29.272C91.0134 29.7573 90.0754 30 88.8527 30H84.0227V20.2H88.5867C89.7254 20.2 90.612 20.4193 91.2467 20.858C91.8814 21.2967 92.1987 21.922 92.1987 22.734C92.1987 23.2193 92.0774 23.6487 91.8347 24.022C91.592 24.386 91.2514 24.6753 90.8127 24.89ZM86.2767 24.26H88.3907C88.8854 24.26 89.2587 24.162 89.5107 23.966C89.7627 23.7607 89.8887 23.462 89.8887 23.07C89.8887 22.6873 89.758 22.3933 89.4967 22.188C89.2447 21.9827 88.876 21.88 88.3907 21.88H86.2767V24.26ZM88.7687 28.32C89.8327 28.32 90.3647 27.9 90.3647 27.06C90.3647 26.248 89.8327 25.842 88.7687 25.842H86.2767V28.32H88.7687ZM94.4543 20.2H96.7083V26.584L101.384 20.2H103.512V30H101.272V23.63L96.5963 30H94.4543V20.2ZM113.442 22.048H110.306V30H108.066V22.048H104.944V20.2H113.442V22.048ZM119.612 23.42C120.807 23.42 121.722 23.686 122.356 24.218C123 24.75 123.322 25.5387 123.322 26.584C123.322 27.6947 122.968 28.544 122.258 29.132C121.558 29.7107 120.569 30 119.29 30H114.866V20.2H117.12V23.42H119.612ZM119.164 28.32C119.752 28.32 120.21 28.1753 120.536 27.886C120.872 27.5967 121.04 27.1767 121.04 26.626C121.04 25.6087 120.415 25.1 119.164 25.1H117.12V28.32H119.164ZM133.163 20.2C134.031 20.2 134.782 20.3447 135.417 20.634C136.061 20.9233 136.556 21.334 136.901 21.866C137.246 22.398 137.419 23.028 137.419 23.756C137.419 24.4747 137.246 25.1047 136.901 25.646C136.556 26.178 136.061 26.5887 135.417 26.878C134.782 27.158 134.031 27.298 133.163 27.298H131.189V30H128.921V20.2H133.163ZM133.037 25.45C133.718 25.45 134.236 25.3053 134.591 25.016C134.946 24.7173 135.123 24.2973 135.123 23.756C135.123 23.2053 134.946 22.7853 134.591 22.496C134.236 22.1973 133.718 22.048 133.037 22.048H131.189V25.45H133.037ZM146.503 28.18V30H138.915V20.2H146.321V22.02H141.169V24.148H145.719V25.912H141.169V28.18H146.503ZM153.907 24.89C154.477 25.086 154.92 25.394 155.237 25.814C155.564 26.2247 155.727 26.7053 155.727 27.256C155.727 27.8533 155.531 28.3713 155.139 28.81C154.747 29.2487 154.215 29.5847 153.543 29.818C152.881 30.0513 152.153 30.168 151.359 30.168C150.687 30.168 150.015 30.084 149.343 29.916C148.681 29.748 148.051 29.4913 147.453 29.146L148.153 27.522C148.583 27.7833 149.054 27.984 149.567 28.124C150.09 28.2547 150.599 28.32 151.093 28.32C151.765 28.32 152.321 28.1987 152.759 27.956C153.207 27.7133 153.431 27.3727 153.431 26.934C153.431 26.57 153.277 26.2947 152.969 26.108C152.671 25.9213 152.26 25.828 151.737 25.828H149.343V24.12H151.569C152.027 24.12 152.381 24.0267 152.633 23.84C152.895 23.6533 153.025 23.3967 153.025 23.07C153.025 22.6873 152.839 22.3887 152.465 22.174C152.101 21.9593 151.63 21.852 151.051 21.852C150.622 21.852 150.179 21.9127 149.721 22.034C149.264 22.146 148.83 22.3187 148.419 22.552L147.733 20.788C148.769 20.256 149.889 19.99 151.093 19.99C151.859 19.99 152.563 20.102 153.207 20.326C153.851 20.55 154.365 20.8767 154.747 21.306C155.13 21.7353 155.321 22.2347 155.321 22.804C155.321 23.2707 155.195 23.686 154.943 24.05C154.691 24.414 154.346 24.694 153.907 24.89ZM166.175 20.032C167.155 20.032 168.037 20.2513 168.821 20.69C169.614 21.1287 170.235 21.7353 170.683 22.51C171.131 23.2753 171.355 24.1387 171.355 25.1C171.355 26.0613 171.131 26.9293 170.683 27.704C170.235 28.4693 169.614 29.0713 168.821 29.51C168.037 29.9487 167.155 30.168 166.175 30.168C165.297 30.168 164.495 29.9953 163.767 29.65C163.039 29.2953 162.437 28.8053 161.961 28.18C161.494 27.5453 161.195 26.822 161.065 26.01H159.777V30H157.523V20.2H159.777V24.05H161.093C161.242 23.266 161.55 22.5707 162.017 21.964C162.493 21.348 163.09 20.872 163.809 20.536C164.527 20.2 165.316 20.032 166.175 20.032ZM166.175 28.236C166.716 28.236 167.206 28.1053 167.645 27.844C168.083 27.5827 168.429 27.214 168.681 26.738C168.933 26.262 169.059 25.716 169.059 25.1C169.059 24.484 168.933 23.938 168.681 23.462C168.429 22.986 168.083 22.6173 167.645 22.356C167.206 22.0947 166.716 21.964 166.175 21.964C165.633 21.964 165.143 22.0947 164.705 22.356C164.266 22.6173 163.921 22.986 163.669 23.462C163.417 23.938 163.291 24.484 163.291 25.1C163.291 25.716 163.417 26.262 163.669 26.738C163.921 27.214 164.266 27.5827 164.705 27.844C165.143 28.1053 165.633 28.236 166.175 28.236ZM182.04 30L182.026 24.134L179.142 28.964H178.134L175.25 24.246V30H173.122V20.2H174.998L178.666 26.29L182.278 20.2H184.154L184.168 30H182.04ZM194.191 28.18V30H186.603V20.2H194.009V22.02H188.857V24.148H193.407V25.912H188.857V28.18H194.191Z" fill="white"/>
</svg>
