<svg width="8" height="16" viewBox="0 0 8 16" fill="none" xmlns="http://www.w3.org/2000/svg">
<path d="M3.54282 15.8166C3.5425 15.8162 3.5425 15.8162 3.54218 15.8159L0.187336 12.5503C-0.0639541 12.3056 -0.0629864 11.91 0.189594 11.6663C0.442175 11.4228 0.850562 11.4238 1.10185 11.6684L3.35443 13.8612L3.35443 0.625C3.35443 0.279687 3.64314 0 3.9996 0C4.35605 0 4.64476 0.279687 4.64476 0.625L4.64476 13.8612L6.89702 11.6687C7.14831 11.4241 7.55669 11.4231 7.80927 11.6666C8.06185 11.91 8.06282 12.3059 7.81153 12.5506L4.45669 15.8162C4.45637 15.8166 4.45637 15.8166 4.45605 15.8169C4.20411 16.0616 3.79411 16.0606 3.54282 15.8166Z" fill="#27348B"/>
</svg>
