<svg width="50" height="50" viewBox="0 0 50 50" fill="none" xmlns="http://www.w3.org/2000/svg">
<circle cx="25" cy="25" r="25" fill="white"/>
<g clip-path="url(#clip0)">
<path d="M36.7861 30.3671C36.7216 30.2591 36.3225 29.392 34.4024 27.6099C32.3922 25.7438 32.6623 26.0468 35.0834 22.82C36.558 20.8549 37.1476 19.6548 36.9631 19.1418C36.7876 18.6527 35.703 18.7817 35.703 18.7817L32.0967 18.8028C32.0967 18.8028 31.8297 18.7667 31.6302 18.8853C31.4367 19.0023 31.3122 19.2723 31.3122 19.2723C31.3122 19.2723 30.7406 20.7934 29.9786 22.0865C28.372 24.8152 27.7284 24.9592 27.4659 24.7897C26.8553 24.3952 27.0084 23.2026 27.0084 22.3565C27.0084 19.7118 27.4089 18.6092 26.2268 18.3242C25.8338 18.2297 25.5457 18.1667 24.5422 18.1562C23.2551 18.1427 22.1645 18.1607 21.548 18.4622C21.1369 18.6632 20.8204 19.1118 21.0139 19.1373C21.2524 19.1688 21.7925 19.2828 22.079 19.6728C22.4495 20.1754 22.436 21.3064 22.436 21.3064C22.436 21.3064 22.649 24.4192 21.9395 24.8062C21.4519 25.0717 20.7844 24.5302 19.3518 22.0535C18.6182 20.7859 18.0632 19.3833 18.0632 19.3833C18.0632 19.3833 17.9567 19.1223 17.7662 18.9828C17.5352 18.8133 17.2111 18.7592 17.2111 18.7592L13.7819 18.7802C13.7819 18.7802 13.2674 18.7953 13.0783 19.0188C12.9103 19.2183 13.0648 19.6293 13.0648 19.6293C13.0648 19.6293 15.75 25.9103 18.7893 29.077C21.578 31.9797 24.7432 31.7892 24.7432 31.7892H26.1773C26.1773 31.7892 26.6108 31.7412 26.8313 31.5027C27.0354 31.2837 27.0279 30.8726 27.0279 30.8726C27.0279 30.8726 26.9994 28.948 27.8934 28.6645C28.774 28.3855 29.9051 30.5246 31.1037 31.3482C32.0097 31.9707 32.6983 31.8342 32.6983 31.8342L35.904 31.7892C35.904 31.7892 37.5811 31.6857 36.7861 30.3671Z" fill="#27348B"/>
</g>
<defs>
<clipPath id="clip0">
<rect width="24" height="24" fill="white" transform="translate(13 13)"/>
</clipPath>
</defs>
</svg>
