<svg width="50" height="50" viewBox="0 0 50 50" fill="none" xmlns="http://www.w3.org/2000/svg">
<circle cx="25" cy="25" r="25" fill="white"/>
<path d="M34.6551 25.1509C34.4095 24.0737 33.5393 23.2797 32.4915 23.1606C30.0118 22.88 27.5007 22.88 25.0026 22.88C22.502 22.8774 19.9935 22.88 17.5137 23.1606C16.4659 23.2797 15.5984 24.0737 15.3528 25.1509C15.0052 26.6833 15 28.3586 15 29.9387C15 31.5188 15 33.1941 15.3475 34.7265C15.5932 35.8037 16.4607 36.5977 17.5085 36.7168C19.9882 36.9974 22.4993 37 24.9974 36.9974C27.498 36.9974 30.0065 36.9974 32.4863 36.7168C33.5341 36.5977 34.4042 35.8037 34.6472 34.7265C34.9948 33.1915 34.9974 31.5188 34.9974 29.9387C35 28.3586 35.0026 26.6833 34.6551 25.1509ZM20.7042 26.3392H19.2566V34.131H17.9109V26.3392H16.492V25.0635H20.7068V26.3392H20.7042ZM24.3572 34.131H23.1474V33.3926C22.6666 33.9511 22.2119 34.2237 21.7651 34.2237C21.3758 34.2237 21.1066 34.0649 20.9864 33.7208C20.9211 33.517 20.8793 33.1941 20.8793 32.7151V27.3741H22.0891V32.3498C22.0891 32.6357 22.0891 32.7865 22.0996 32.8262C22.1283 33.0168 22.2198 33.1121 22.3818 33.1121C22.6248 33.1121 22.8782 32.9241 23.1448 32.5377V27.3741H24.3546L24.3572 34.131ZM28.9483 32.1037C28.9483 32.7283 28.9065 33.1782 28.8255 33.4641C28.6634 33.9669 28.342 34.2237 27.8612 34.2237C27.4301 34.2237 27.0172 33.9828 26.6122 33.4773V34.131H25.4024V25.0635H26.6122V28.0252C27.0016 27.5382 27.417 27.292 27.8612 27.292C28.342 27.292 28.6661 27.5488 28.8255 28.0543C28.9065 28.3269 28.9483 28.7742 28.9483 29.412V32.1037ZM33.5106 30.9762H31.0935V32.1751C31.0935 32.7998 31.2947 33.1121 31.7102 33.1121C32.0081 33.1121 32.1806 32.948 32.2511 32.6198C32.2616 32.5536 32.2772 32.281 32.2772 31.7914H33.5106V31.9713C33.5106 32.3657 33.4949 32.6383 33.4845 32.7601C33.4453 33.03 33.3486 33.2762 33.2022 33.4932C32.8678 33.9828 32.3713 34.2263 31.739 34.2263C31.1066 34.2263 30.6258 33.996 30.2757 33.5355C30.0196 33.1968 29.8863 32.6648 29.8863 31.9475V29.5814C29.8863 28.8589 30.0039 28.3322 30.26 27.9908C30.6101 27.5276 31.0909 27.2973 31.7076 27.2973C32.3138 27.2973 32.7946 27.5276 33.1343 27.9908C33.3878 28.3322 33.508 28.8615 33.508 29.5814L33.5106 30.9762Z" fill="#27348B"/>
<path d="M31.7 28.393C31.295 28.393 31.0938 28.7053 31.0938 29.3299V29.9545H32.3036V29.3299C32.301 28.7053 32.0998 28.393 31.7 28.393Z" fill="#27348B"/>
<path d="M27.213 28.393C27.0144 28.393 26.8132 28.4883 26.6094 28.6921V32.8103C26.8106 33.0141 27.0118 33.112 27.213 33.112C27.5605 33.112 27.7382 32.8103 27.7382 32.2016V29.3167C27.7408 28.7053 27.5631 28.393 27.213 28.393Z" fill="#27348B"/>
<path d="M27.8904 22.2555C28.3372 22.2555 28.7997 21.9802 29.2858 21.4165V22.1602H30.5086V15.3344H29.2884V20.5536C29.0166 20.9401 28.7605 21.1333 28.5175 21.1333C28.3529 21.1333 28.2588 21.0353 28.2301 20.8448C28.2144 20.8051 28.2144 20.6542 28.2144 20.3631V15.3344H26.9941V20.7336C26.9941 21.2153 27.0359 21.5409 27.1013 21.7499C27.2267 22.094 27.4958 22.2555 27.8904 22.2555Z" fill="#27348B"/>
<path d="M19.3846 18.4521V22.1628H20.7382V18.4521L22.3687 13H20.9995L20.0745 16.5995L19.1155 13H17.6914C17.9762 13.8496 18.2741 14.7018 18.5589 15.554C18.9927 16.8297 19.2618 17.7931 19.3846 18.4521Z" fill="#27348B"/>
<path d="M24.1848 22.2554C24.7963 22.2554 25.2718 22.0225 25.6089 21.5567C25.865 21.2153 25.9878 20.6754 25.9878 19.9502V17.5602C25.9878 16.8298 25.865 16.2978 25.6089 15.9511C25.2718 15.4826 24.7963 15.2497 24.1848 15.2497C23.576 15.2497 23.1004 15.4826 22.7633 15.9511C22.5046 16.2951 22.3818 16.8298 22.3818 17.5602V19.9502C22.3818 20.6754 22.5046 21.2153 22.7633 21.5567C23.1004 22.0225 23.576 22.2554 24.1848 22.2554ZM23.6021 17.3115C23.6021 16.6789 23.7903 16.3639 24.1848 16.3639C24.5794 16.3639 24.7675 16.6789 24.7675 17.3115V20.1831C24.7675 20.8156 24.5794 21.1306 24.1848 21.1306C23.7903 21.1306 23.6021 20.8156 23.6021 20.1831V17.3115Z" fill="#27348B"/>
</svg>
