<svg width="210" height="50" viewBox="0 0 210 50" fill="none" xmlns="http://www.w3.org/2000/svg">
<path d="M11.5219 50H198.478C198.837 50 199.232 50 199.591 49.9641L209.964 39.5908C210 39.2319 210 38.8729 210 38.4781V11.5219C210 5.1687 204.831 0 198.478 0H11.5219C11.163 0 10.7681 0.0358817 10.4092 0.0717754L0.0358944 10.4451C6.37025e-07 10.804 0 11.163 0 11.5578V38.514C0 44.8313 5.1687 50 11.5219 50Z" fill="#ED6C71"/>
<path d="M58.3641 20.6V29H56.4321V22.184H52.6401V29H50.7081V20.6H58.3641ZM64.4543 29.144C63.5823 29.144 62.7943 28.956 62.0903 28.58C61.3943 28.204 60.8463 27.688 60.4463 27.032C60.0543 26.368 59.8583 25.624 59.8583 24.8C59.8583 23.976 60.0543 23.236 60.4463 22.58C60.8463 21.916 61.3943 21.396 62.0903 21.02C62.7943 20.644 63.5823 20.456 64.4543 20.456C65.3263 20.456 66.1103 20.644 66.8063 21.02C67.5023 21.396 68.0503 21.916 68.4503 22.58C68.8503 23.236 69.0503 23.976 69.0503 24.8C69.0503 25.624 68.8503 26.368 68.4503 27.032C68.0503 27.688 67.5023 28.204 66.8063 28.58C66.1103 28.956 65.3263 29.144 64.4543 29.144ZM64.4543 27.488C64.9503 27.488 65.3983 27.376 65.7983 27.152C66.1983 26.92 66.5103 26.6 66.7343 26.192C66.9663 25.784 67.0823 25.32 67.0823 24.8C67.0823 24.28 66.9663 23.816 66.7343 23.408C66.5103 23 66.1983 22.684 65.7983 22.46C65.3983 22.228 64.9503 22.112 64.4543 22.112C63.9583 22.112 63.5103 22.228 63.1103 22.46C62.7103 22.684 62.3943 23 62.1623 23.408C61.9383 23.816 61.8263 24.28 61.8263 24.8C61.8263 25.32 61.9383 25.784 62.1623 26.192C62.3943 26.6 62.7103 26.92 63.1103 27.152C63.5103 27.376 63.9583 27.488 64.4543 27.488ZM78.9775 27.416V30.74H77.1775V29H71.2495V30.74H69.4495L69.4615 27.416H69.7975C70.3015 27.4 70.6575 27.032 70.8655 26.312C71.0735 25.592 71.2015 24.564 71.2495 23.228L71.3455 20.6H77.8015V27.416H78.9775ZM72.9655 23.408C72.9255 24.408 72.8415 25.248 72.7135 25.928C72.5855 26.6 72.3895 27.096 72.1255 27.416H75.8815V22.184H73.0015L72.9655 23.408ZM86.0445 27.2H82.1445L81.4005 29H79.4085L83.1525 20.6H85.0725L88.8285 29H86.7885L86.0445 27.2ZM85.4325 25.724L84.1005 22.508L82.7685 25.724H85.4325ZM95.9406 22.184H93.2526V29H91.3326V22.184H88.6566V20.6H95.9406V22.184ZM101.229 23.36C102.253 23.36 103.037 23.588 103.581 24.044C104.133 24.5 104.409 25.176 104.409 26.072C104.409 27.024 104.105 27.752 103.497 28.256C102.897 28.752 102.049 29 100.953 29H97.1612V20.6H99.0932V23.36H101.229ZM100.845 27.56C101.349 27.56 101.741 27.436 102.021 27.188C102.309 26.94 102.453 26.58 102.453 26.108C102.453 25.236 101.917 24.8 100.845 24.8H99.0932V27.56H100.845ZM113.984 24.62C114.472 24.788 114.852 25.052 115.124 25.412C115.404 25.764 115.544 26.176 115.544 26.648C115.544 27.16 115.376 27.604 115.04 27.98C114.704 28.356 114.248 28.644 113.672 28.844C113.104 29.044 112.48 29.144 111.8 29.144C111.224 29.144 110.648 29.072 110.072 28.928C109.504 28.784 108.964 28.564 108.452 28.268L109.052 26.876C109.42 27.1 109.824 27.272 110.264 27.392C110.712 27.504 111.148 27.56 111.572 27.56C112.148 27.56 112.624 27.456 113 27.248C113.384 27.04 113.576 26.748 113.576 26.372C113.576 26.06 113.444 25.824 113.18 25.664C112.924 25.504 112.572 25.424 112.124 25.424H110.072V23.96H111.98C112.372 23.96 112.676 23.88 112.892 23.72C113.116 23.56 113.228 23.34 113.228 23.06C113.228 22.732 113.068 22.476 112.748 22.292C112.436 22.108 112.032 22.016 111.536 22.016C111.168 22.016 110.788 22.068 110.396 22.172C110.004 22.268 109.632 22.416 109.28 22.616L108.692 21.104C109.58 20.648 110.54 20.42 111.572 20.42C112.228 20.42 112.832 20.516 113.384 20.708C113.936 20.9 114.376 21.18 114.704 21.548C115.032 21.916 115.196 22.344 115.196 22.832C115.196 23.232 115.088 23.588 114.872 23.9C114.656 24.212 114.36 24.452 113.984 24.62ZM122.771 27.2H118.871L118.127 29H116.135L119.879 20.6H121.799L125.555 29H123.515L122.771 27.2ZM122.159 25.724L120.827 22.508L119.495 25.724H122.159ZM132.943 20.6V29H131.023V26.768H129.247L127.759 29H125.707L127.459 26.468C126.891 26.236 126.455 25.888 126.151 25.424C125.847 24.952 125.695 24.388 125.695 23.732C125.695 23.084 125.843 22.528 126.139 22.064C126.435 21.592 126.855 21.232 127.399 20.984C127.943 20.728 128.583 20.6 129.319 20.6H132.943ZM129.367 22.184C128.815 22.184 128.391 22.312 128.095 22.568C127.807 22.824 127.663 23.204 127.663 23.708C127.663 24.196 127.803 24.572 128.083 24.836C128.363 25.1 128.775 25.232 129.319 25.232H131.023V22.184H129.367ZM140.868 24.62C141.38 24.772 141.772 25.02 142.044 25.364C142.316 25.708 142.452 26.132 142.452 26.636C142.452 27.38 142.168 27.96 141.6 28.376C141.04 28.792 140.236 29 139.188 29H135.048V20.6H138.96C139.936 20.6 140.696 20.788 141.24 21.164C141.784 21.54 142.056 22.076 142.056 22.772C142.056 23.188 141.952 23.556 141.744 23.876C141.536 24.188 141.244 24.436 140.868 24.62ZM136.98 24.08H138.792C139.216 24.08 139.536 23.996 139.752 23.828C139.968 23.652 140.076 23.396 140.076 23.06C140.076 22.732 139.964 22.48 139.74 22.304C139.524 22.128 139.208 22.04 138.792 22.04H136.98V24.08ZM139.116 27.56C140.028 27.56 140.484 27.2 140.484 26.48C140.484 25.784 140.028 25.436 139.116 25.436H136.98V27.56H139.116ZM147.241 25.616H145.897V29H143.965V20.6H145.897V23.996H147.289L149.497 20.6H151.549L148.801 24.656L151.633 29H149.425L147.241 25.616ZM160.28 20.6L156.704 27.248C156.36 27.888 155.944 28.372 155.456 28.7C154.976 29.028 154.452 29.192 153.884 29.192C153.444 29.192 152.988 29.096 152.516 28.904L152.984 27.428C153.32 27.532 153.6 27.584 153.824 27.584C154.064 27.584 154.28 27.528 154.472 27.416C154.664 27.296 154.84 27.112 155 26.864L155.072 26.768L151.76 20.6H153.836L156.068 25.112L158.372 20.6H160.28Z" fill="white"/>
</svg>
