<svg width="330" height="50" viewBox="0 0 330 50" fill="none" xmlns="http://www.w3.org/2000/svg">
<path d="M11.5219 50H318.478C318.837 50 319.232 50 319.591 49.9641L329.964 39.5908C330 39.2319 330 38.8729 330 38.4781V11.5219C330 5.1687 324.831 0 318.478 0H11.5219C11.163 0 10.7681 0.0358817 10.4092 0.0717754L0.0358944 10.4451C6.37025e-07 10.804 0 11.163 0 11.5578V38.514C0 44.8313 5.1687 50 11.5219 50Z" fill="#ED6C71"/>
<path d="M59.5338 20.2V30H57.2798V22.048H52.8558V30H50.6018V20.2H59.5338ZM66.6391 30.168C65.6218 30.168 64.7025 29.9487 63.8811 29.51C63.0691 29.0713 62.4298 28.4693 61.9631 27.704C61.5058 26.9293 61.2771 26.0613 61.2771 25.1C61.2771 24.1387 61.5058 23.2753 61.9631 22.51C62.4298 21.7353 63.0691 21.1287 63.8811 20.69C64.7025 20.2513 65.6218 20.032 66.6391 20.032C67.6565 20.032 68.5711 20.2513 69.3831 20.69C70.1951 21.1287 70.8345 21.7353 71.3011 22.51C71.7678 23.2753 72.0011 24.1387 72.0011 25.1C72.0011 26.0613 71.7678 26.9293 71.3011 27.704C70.8345 28.4693 70.1951 29.0713 69.3831 29.51C68.5711 29.9487 67.6565 30.168 66.6391 30.168ZM66.6391 28.236C67.2178 28.236 67.7405 28.1053 68.2071 27.844C68.6738 27.5733 69.0378 27.2 69.2991 26.724C69.5698 26.248 69.7051 25.7067 69.7051 25.1C69.7051 24.4933 69.5698 23.952 69.2991 23.476C69.0378 23 68.6738 22.6313 68.2071 22.37C67.7405 22.0993 67.2178 21.964 66.6391 21.964C66.0605 21.964 65.5378 22.0993 65.0711 22.37C64.6045 22.6313 64.2358 23 63.9651 23.476C63.7038 23.952 63.5731 24.4933 63.5731 25.1C63.5731 25.7067 63.7038 26.248 63.9651 26.724C64.2358 27.2 64.6045 27.5733 65.0711 27.844C65.5378 28.1053 66.0605 28.236 66.6391 28.236ZM83.5828 28.152V32.03H81.4828V30H74.5668V32.03H72.4668L72.4808 28.152H72.8728C73.4608 28.1333 73.8762 27.704 74.1188 26.864C74.3615 26.024 74.5108 24.8247 74.5668 23.266L74.6788 20.2H82.2108V28.152H83.5828ZM76.5688 23.476C76.5222 24.6427 76.4242 25.6227 76.2748 26.416C76.1255 27.2 75.8968 27.7787 75.5888 28.152H79.9708V22.048H76.6108L76.5688 23.476ZM91.8276 27.9H87.2776L86.4096 30H84.0856L88.4536 20.2H90.6936L95.0756 30H92.6956L91.8276 27.9ZM91.1136 26.178L89.5596 22.426L88.0056 26.178H91.1136ZM103.373 22.048H100.237V30H97.997V22.048H94.875V20.2H103.373V22.048ZM109.543 23.42C110.738 23.42 111.652 23.686 112.287 24.218C112.931 24.75 113.253 25.5387 113.253 26.584C113.253 27.6947 112.898 28.544 112.189 29.132C111.489 29.7107 110.5 30 109.221 30H104.797V20.2H107.051V23.42H109.543ZM109.095 28.32C109.683 28.32 110.14 28.1753 110.467 27.886C110.803 27.5967 110.971 27.1767 110.971 26.626C110.971 25.6087 110.346 25.1 109.095 25.1H107.051V28.32H109.095ZM124.424 24.89C124.993 25.086 125.436 25.394 125.754 25.814C126.08 26.2247 126.244 26.7053 126.244 27.256C126.244 27.8533 126.048 28.3713 125.656 28.81C125.264 29.2487 124.732 29.5847 124.06 29.818C123.397 30.0513 122.669 30.168 121.876 30.168C121.204 30.168 120.532 30.084 119.86 29.916C119.197 29.748 118.567 29.4913 117.97 29.146L118.67 27.522C119.099 27.7833 119.57 27.984 120.084 28.124C120.606 28.2547 121.115 28.32 121.61 28.32C122.282 28.32 122.837 28.1987 123.276 27.956C123.724 27.7133 123.948 27.3727 123.948 26.934C123.948 26.57 123.794 26.2947 123.486 26.108C123.187 25.9213 122.776 25.828 122.254 25.828H119.86V24.12H122.086C122.543 24.12 122.898 24.0267 123.15 23.84C123.411 23.6533 123.542 23.3967 123.542 23.07C123.542 22.6873 123.355 22.3887 122.982 22.174C122.618 21.9593 122.146 21.852 121.568 21.852C121.138 21.852 120.695 21.9127 120.238 22.034C119.78 22.146 119.346 22.3187 118.936 22.552L118.25 20.788C119.286 20.256 120.406 19.99 121.61 19.99C122.375 19.99 123.08 20.102 123.724 20.326C124.368 20.55 124.881 20.8767 125.264 21.306C125.646 21.7353 125.838 22.2347 125.838 22.804C125.838 23.2707 125.712 23.686 125.46 24.05C125.208 24.414 124.862 24.694 124.424 24.89ZM134.675 27.9H130.125L129.257 30H126.933L131.301 20.2H133.541L137.923 30H135.543L134.675 27.9ZM133.961 26.178L132.407 22.426L130.853 26.178H133.961ZM146.543 20.2V30H144.303V27.396H142.231L140.495 30H138.101L140.145 27.046C139.482 26.7753 138.974 26.3693 138.619 25.828C138.264 25.2773 138.087 24.6193 138.087 23.854C138.087 23.098 138.26 22.4493 138.605 21.908C138.95 21.3573 139.44 20.9373 140.075 20.648C140.71 20.3493 141.456 20.2 142.315 20.2H146.543ZM142.371 22.048C141.727 22.048 141.232 22.1973 140.887 22.496C140.551 22.7947 140.383 23.238 140.383 23.826C140.383 24.3953 140.546 24.834 140.873 25.142C141.2 25.45 141.68 25.604 142.315 25.604H144.303V22.048H142.371ZM155.788 24.89C156.386 25.0673 156.843 25.3567 157.16 25.758C157.478 26.1593 157.636 26.654 157.636 27.242C157.636 28.11 157.305 28.7867 156.642 29.272C155.989 29.7573 155.051 30 153.828 30H148.998V20.2H153.562C154.701 20.2 155.588 20.4193 156.222 20.858C156.857 21.2967 157.174 21.922 157.174 22.734C157.174 23.2193 157.053 23.6487 156.81 24.022C156.568 24.386 156.227 24.6753 155.788 24.89ZM151.252 24.26H153.366C153.861 24.26 154.234 24.162 154.486 23.966C154.738 23.7607 154.864 23.462 154.864 23.07C154.864 22.6873 154.734 22.3933 154.472 22.188C154.22 21.9827 153.852 21.88 153.366 21.88H151.252V24.26ZM153.744 28.32C154.808 28.32 155.34 27.9 155.34 27.06C155.34 26.248 154.808 25.842 153.744 25.842H151.252V28.32H153.744ZM163.224 26.052H161.656V30H159.402V20.2H161.656V24.162H163.28L165.856 20.2H168.25L165.044 24.932L168.348 30H165.772L163.224 26.052ZM178.436 20.2L174.264 27.956C173.863 28.7027 173.377 29.2673 172.808 29.65C172.248 30.0327 171.637 30.224 170.974 30.224C170.461 30.224 169.929 30.112 169.378 29.888L169.924 28.166C170.316 28.2873 170.643 28.348 170.904 28.348C171.184 28.348 171.436 28.2827 171.66 28.152C171.884 28.012 172.089 27.7973 172.276 27.508L172.36 27.396L168.496 20.2H170.918L173.522 25.464L176.21 20.2H178.436ZM192.672 20.2V30H190.404V25.982H185.952V30H183.684V20.2H185.952V24.064H190.404V20.2H192.672ZM201.763 27.9H197.213L196.345 30H194.021L198.389 20.2H200.629L205.011 30H202.631L201.763 27.9ZM201.049 26.178L199.495 22.426L197.941 26.178H201.049ZM219.124 20.2L214.952 27.956C214.55 28.7027 214.065 29.2673 213.496 29.65C212.936 30.0327 212.324 30.224 211.662 30.224C211.148 30.224 210.616 30.112 210.066 29.888L210.612 28.166C211.004 28.2873 211.33 28.348 211.592 28.348C211.872 28.348 212.124 28.2827 212.348 28.152C212.572 28.012 212.777 27.7973 212.964 27.508L213.048 27.396L209.184 20.2H211.606L214.21 25.464L216.898 20.2H219.124ZM228.456 20.2V30H226.216V26.472C225.367 26.78 224.578 26.934 223.85 26.934C222.534 26.934 221.526 26.6213 220.826 25.996C220.126 25.3613 219.776 24.4513 219.776 23.266V20.2H222.016V23.014C222.016 23.686 222.194 24.1947 222.548 24.54C222.912 24.876 223.435 25.044 224.116 25.044C224.863 25.044 225.563 24.8993 226.216 24.61V20.2H228.456ZM237.529 27.9H232.979L232.111 30H229.787L234.155 20.2H236.395L240.777 30H238.397L237.529 27.9ZM236.815 26.178L235.261 22.426L233.707 26.178H236.815ZM246.574 30.168C245.575 30.168 244.67 29.9533 243.858 29.524C243.055 29.0853 242.42 28.4833 241.954 27.718C241.496 26.9433 241.268 26.0707 241.268 25.1C241.268 24.1293 241.496 23.2613 241.954 22.496C242.42 21.7213 243.055 21.1193 243.858 20.69C244.67 20.2513 245.58 20.032 246.588 20.032C247.437 20.032 248.202 20.1813 248.884 20.48C249.574 20.7787 250.153 21.208 250.62 21.768L249.164 23.112C248.501 22.3467 247.68 21.964 246.7 21.964C246.093 21.964 245.552 22.0993 245.076 22.37C244.6 22.6313 244.226 23 243.956 23.476C243.694 23.952 243.564 24.4933 243.564 25.1C243.564 25.7067 243.694 26.248 243.956 26.724C244.226 27.2 244.6 27.5733 245.076 27.844C245.552 28.1053 246.093 28.236 246.7 28.236C247.68 28.236 248.501 27.8487 249.164 27.074L250.62 28.418C250.153 28.9873 249.574 29.4213 248.884 29.72C248.193 30.0187 247.423 30.168 246.574 30.168ZM259.492 22.048H256.356V30H254.116V22.048H250.994V20.2H259.492V22.048ZM260.916 20.2H263.17V26.584L267.846 20.2H269.974V30H267.734V23.63L263.058 30H260.916V20.2ZM280.002 28.18V30H272.414V20.2H279.82V22.02H274.668V24.148H279.218V25.912H274.668V28.18H280.002Z" fill="white"/>
</svg>
