<svg width="122" height="150" viewBox="0 0 122 150" fill="none" xmlns="http://www.w3.org/2000/svg">
<path d="M93.8985 0H28.1015C27.217 0 26.3324 0.065388 25.4479 0.130776L0.136085 24.4551C0.0680424 25.3051 0 26.1552 0 27.0052V90.2354V146.208C0 148.496 1.97323 150 3.94646 150C4.89905 150 5.91969 149.673 6.66815 148.888L39.6007 117.241H93.8305C94.715 117.241 95.5996 117.175 96.5521 117.11L121.864 92.7855C121.932 91.9355 122 91.0854 122 90.17V27.0052C122 12.0968 109.412 0 93.8985 0Z" fill="#ED6C71"/>
<path d="M53.5292 66.7034H51.6671V64.7562V53.8644L38 68.1047V92.445C38 92.9363 38.5695 93.182 38.9039 92.8362L63.9784 66.7034H53.5292Z" fill="white"/>
<path d="M73.4423 33H47.6357L38 43.0455V65.3567L53.5292 49.1783H68.4799V64.7561L52.9507 80.9436H74.3643L84 70.8981V44.01C84 37.9318 79.2725 33 73.4423 33Z" fill="white"/>
</svg>
