<svg width="122" height="150" viewBox="0 0 122 150" fill="none" xmlns="http://www.w3.org/2000/svg">
<path d="M93.8985 0H28.1015C27.217 0 26.3324 0.065388 25.4479 0.130776L0.136085 24.4551C0.0680424 25.3051 0 26.1552 0 27.0052V90.2354V146.208C0 148.496 1.97323 150 3.94646 150C4.89905 150 5.91969 149.673 6.66815 148.888L39.6007 117.241H93.8305C94.715 117.241 95.5996 117.175 96.5521 117.11L121.864 92.7855C121.932 91.9355 122 91.0854 122 90.17V27.0052C122 12.0968 109.412 0 93.8985 0Z" fill="#ED6C71"/>
<g clip-path="url(#clip0)">
<path d="M74.8496 60.3013C75.1292 62.9722 74.769 65.7349 73.6641 68.3452V68.3462L77.4993 73.3286C77.843 73.7749 78.4858 73.8355 78.9111 73.4683C82.3551 70.4868 84.6339 66.1841 84.9718 61.3423C85.0106 60.7788 84.5601 60.3023 83.9979 60.3023L74.8496 60.3013Z" fill="white"/>
<path d="M65.2197 34.9816V47.1642C68.4695 48.5783 71.1668 51.0412 72.8893 54.1252H84.0251C84.5756 54.1252 85.0213 53.6672 84.9999 53.1134C84.6028 42.757 76.3924 34.5197 66.2363 34.0011C65.6819 33.9728 65.2197 34.423 65.2197 34.9816Z" fill="white"/>
<path d="M59.0144 78.2158C50.1486 78.3076 42.8218 71.0781 42.751 62.1611C42.6791 53.1748 49.9273 45.8399 58.8455 45.8399V41.0616C58.8455 40.502 58.3813 40.0547 57.826 40.0811C46.2357 40.6172 37 50.2373 37 62.0283C37 74.1865 46.9008 84.0781 58.9892 84C63.5478 83.9707 67.7734 82.5371 71.262 80.1084C71.7213 79.7891 71.8174 79.1455 71.4756 78.7021L68.5666 74.9229C65.9053 76.957 62.5992 78.1787 59.0144 78.2158Z" fill="white"/>
<path d="M59.625 55.7781H55.7412V60.4656H59.625C60.9096 60.4656 61.9553 59.4139 61.9553 58.1219C61.9553 56.8299 60.9096 55.7781 59.625 55.7781Z" fill="white"/>
<path d="M58.8468 48.7824C51.585 48.7824 45.6768 54.7248 45.6768 62.0285C45.6768 69.3322 51.585 75.2746 58.8468 75.2746C66.1075 75.2746 72.0168 69.3332 72.0168 62.0285C72.0168 54.7248 66.1075 48.7824 58.8468 48.7824ZM59.6235 63.591H55.7397V65.1535H58.8468C59.7051 65.1535 60.4003 65.8527 60.4003 66.716C60.4003 67.5793 59.7051 68.2785 58.8468 68.2785H55.7397V69.841C55.7397 70.7043 55.0445 71.4035 54.1862 71.4035C53.3279 71.4035 52.6327 70.7043 52.6327 69.841V54.216C52.6327 53.3527 53.3279 52.6535 54.1862 52.6535H59.6235C62.6218 52.6535 65.0609 55.1066 65.0609 58.1223C65.0609 61.1379 62.6218 63.591 59.6235 63.591Z" fill="white"/>
</g>
<defs>
<clipPath id="clip0">
<rect width="48" height="50" fill="white" transform="translate(37 34)"/>
</clipPath>
</defs>
</svg>
