<svg width="122" height="150" viewBox="0 0 122 150" fill="none" xmlns="http://www.w3.org/2000/svg">
<path d="M93.8985 0H28.1015C27.217 0 26.3324 0.065388 25.4479 0.130776L0.136085 24.4551C0.0680424 25.3051 0 26.1552 0 27.0052V90.2354V146.208C0 148.496 1.97323 150 3.94646 150C4.89905 150 5.91969 149.673 6.66815 148.888L39.6007 117.241H93.8305C94.715 117.241 95.5996 117.175 96.5521 117.11L121.864 92.7855C121.932 91.9355 122 91.0854 122 90.17V27.0052C122 12.0968 109.412 0 93.8985 0Z" fill="#ED6C71"/>
<g clip-path="url(#clip0)">
<path d="M82.8954 43.3742L82.8964 43.3712L76.553 41.7599V40.5421C76.553 39.7335 75.8983 39.0773 75.0916 39.0773H66.5932L64.6622 31.1164C64.4732 30.3322 63.686 29.8507 62.9037 30.0402L38.1138 36.0773C37.3315 36.2668 36.8511 37.0558 37.0402 37.84L45.6662 73.3332V78.5343C45.6662 79.3429 46.3209 79.9992 47.1276 79.9992H75.0916C75.8983 79.9992 76.553 79.3429 76.553 78.5343V73.6056L83.9525 45.1574C84.1561 44.3722 83.6778 43.5675 82.8954 43.3742ZM65.3588 53.9708C65.7554 54.1173 66.0398 54.5207 66.0398 54.9943C66.0398 55.3546 66.035 55.6476 66.0291 56.671C66.0281 56.9142 66.0262 57.1574 66.0262 58.339C66.0262 58.9376 65.5732 59.422 65.0139 59.422H57.1916C56.6324 59.422 56.1794 58.9367 56.1794 58.339L56.1921 54.9943H56.1969C56.1969 54.5685 56.4337 54.1662 56.8244 53.9953C57.7557 53.589 58.6306 53.2843 59.5065 53.1125C58.6501 52.5373 58.0792 51.5177 58.0792 50.3585C58.0792 48.5666 59.4412 47.1085 61.115 47.1085C62.7887 47.1085 64.1517 48.5666 64.1517 50.3585C64.1517 51.5197 63.5789 52.5412 62.7205 53.1154C63.5155 53.296 64.6885 53.6798 65.3588 53.9708ZM45.6662 40.5431V60.9953L40.2162 38.5705L62.174 33.2228L63.5945 39.0773H47.1276C46.3209 39.0773 45.6662 39.7335 45.6662 40.5431ZM69.3747 71.1564H52.941C52.3671 71.1564 51.9024 70.6906 51.9024 70.1154C51.9024 69.5402 52.3671 69.0744 52.941 69.0744H69.3747C69.9485 69.0744 70.4133 69.5402 70.4133 70.1154C70.4133 70.6906 69.9476 71.1564 69.3747 71.1564ZM69.3747 66.9923H52.941C52.3671 66.9923 51.9024 66.5265 51.9024 65.9513C51.9024 65.3761 52.3671 64.9103 52.941 64.9103H69.3747C69.9485 64.9103 70.4133 65.3761 70.4133 65.9513C70.4133 66.5265 69.9476 66.9923 69.3747 66.9923ZM76.553 62.0304V44.7785L80.7618 45.8478L76.553 62.0304Z" fill="white"/>
</g>
<defs>
<clipPath id="clip0">
<rect width="47" height="50" fill="white" transform="translate(37 30)"/>
</clipPath>
</defs>
</svg>
