<svg width="122" height="150" viewBox="0 0 122 150" fill="none" xmlns="http://www.w3.org/2000/svg">
<path d="M93.8985 0H28.1015C27.217 0 26.3324 0.065388 25.4479 0.130776L0.136085 24.4551C0.0680424 25.3051 0 26.1552 0 27.0052V90.2354V146.208C0 148.496 1.97323 150 3.94646 150C4.89905 150 5.91969 149.673 6.66815 148.888L39.6007 117.241H93.8305C94.715 117.241 95.5996 117.175 96.5521 117.11L121.864 92.7855C121.932 91.9355 122 91.0854 122 90.17V27.0052C122 12.0968 109.412 0 93.8985 0Z" fill="#ED6C71"/>
<path d="M78.7705 66.6465H71.627V73.7705C71.627 77.7569 74.8701 81 78.8564 81H86V73.876C86 69.8897 82.7568 66.6465 78.7705 66.6465Z" fill="white"/>
<path d="M36 73.876V81H43.1436C47.1299 81 50.373 77.7569 50.373 73.7705V66.6465H43.2295C39.2432 66.6465 36 69.8897 36 73.876Z" fill="white"/>
<path d="M53.8154 66.6465H68.1885V81H53.8154V66.6465Z" fill="white"/>
<path d="M61.001 47.4082C65.5384 47.4082 69.2168 43.7351 69.2168 39.2041C69.2168 34.6731 65.5384 31 61.001 31C56.4635 31 52.7852 34.6731 52.7852 39.2041C52.7852 43.7351 56.4635 47.4082 61.001 47.4082Z" fill="white"/>
<path d="M55.5703 58.3417L61 63.7616L66.4365 58.3339L64.3662 56.2606L62.4648 58.16V50.6649H59.5352V58.16L57.6406 56.2684L55.5703 58.3417Z" fill="white"/>
<path d="M48.5059 49.1281L44.75 55.6222L44.0566 53.0382L41.2275 53.798L43.2158 61.2052L50.6416 59.2189L49.8848 56.3888L47.29 57.0831L51.042 50.5958L48.5059 49.1281Z" fill="white"/>
<path d="M71.3672 59.2189L78.793 61.2052L80.7812 53.798L77.9512 53.0382L77.2578 55.6222L73.502 49.1281L70.9658 50.5948L74.7178 57.0822L72.123 56.3878L71.3672 59.2189Z" fill="white"/>
</svg>
