<svg width="122" height="150" viewBox="0 0 122 150" fill="none" xmlns="http://www.w3.org/2000/svg">
<path d="M93.8985 0H28.1015C27.217 0 26.3324 0.065388 25.4479 0.130776L0.136085 24.4551C0.0680424 25.3051 0 26.1552 0 27.0052V90.2354V146.208C0 148.496 1.97323 150 3.94646 150C4.89905 150 5.91969 149.673 6.66815 148.888L39.6007 117.241H93.8305C94.715 117.241 95.5996 117.175 96.5521 117.11L121.864 92.7855C121.932 91.9355 122 91.0854 122 90.17V27.0052C122 12.0968 109.412 0 93.8985 0Z" fill="#ED6C71"/>
<g clip-path="url(#clip0)">
<path d="M82.7942 72.9997L81.9234 77.3543C81.6154 78.8959 80.2851 80.0026 78.7428 80.0026H41.0989C39.0442 80.0026 37.507 78.0826 37.9184 76.0315L41.5382 57.9414C41.7906 56.6803 42.6943 55.6972 43.8453 55.3163C43.9286 55.288 44.0119 55.2648 44.0952 55.2442C44.1003 55.2442 44.1028 55.2416 44.1078 55.2416C44.1861 55.2236 44.2669 55.2056 44.3476 55.1927C44.3729 55.1876 44.3981 55.185 44.4259 55.1824C44.489 55.1721 44.5496 55.1644 44.6152 55.1593C44.7086 55.1516 44.802 55.1464 44.8954 55.1464H46.3695H76.0899H78.6141H82.7942H84.3693C84.8212 55.1464 85.2225 55.3317 85.5153 55.6251C85.8082 55.9185 85.9899 56.3226 86.0025 56.7601C86.005 56.8862 85.9949 57.0123 85.9697 57.141L82.7942 72.9997ZM82.7791 52.5702C82.6276 51.1007 81.4034 49.9502 79.9242 49.9502H78.6141V52.5702H82.7791ZM39.0644 57.4241C39.5566 54.9688 41.4877 53.1004 43.8453 52.6654V45.5776H39.3699C37.512 45.5776 36 47.1192 36 49.0134V72.7372L39.0644 57.4241ZM76.0899 36.4438V52.5702H46.3695V36.4438C46.3695 35.646 47.0057 35 47.7856 35H74.6712C75.4538 35 76.0899 35.6486 76.0899 36.4438ZM72.4575 47.8399C72.4575 47.1295 71.8921 46.553 71.1954 46.553H51.264C50.5673 46.553 50.0019 47.1295 50.0019 47.8399C50.0019 48.5502 50.5673 49.1267 51.264 49.1267H71.1928C71.8921 49.1267 72.4575 48.5502 72.4575 47.8399ZM72.4575 41.1947C72.4575 40.4844 71.8921 39.9079 71.1954 39.9079H51.264C50.5673 39.9079 50.0019 40.4844 50.0019 41.1947C50.0019 41.9051 50.5673 42.4816 51.264 42.4816H71.1928C71.8921 42.4816 72.4575 41.9076 72.4575 41.1947Z" fill="white"/>
</g>
<defs>
<clipPath id="clip0">
<rect width="50" height="45" fill="white" transform="translate(36 35)"/>
</clipPath>
</defs>
</svg>
