<svg width="122" height="150" viewBox="0 0 122 150" fill="none" xmlns="http://www.w3.org/2000/svg">
<path d="M93.8985 0H28.1015C27.217 0 26.3324 0.065388 25.4479 0.130776L0.136085 24.4551C0.0680424 25.3051 0 26.1552 0 27.0052V90.2354V146.208C0 148.496 1.97323 150 3.94646 150C4.89905 150 5.91969 149.673 6.66815 148.888L39.6007 117.241H93.8305C94.715 117.241 95.5996 117.175 96.5521 117.11L121.864 92.7855C121.932 91.9355 122 91.0854 122 90.17V27.0052C122 12.0968 109.412 0 93.8985 0Z" fill="#ED6C71"/>
<g clip-path="url(#clip0)">
<path d="M61.0059 66.9599C64.8492 66.9599 67.9648 63.8436 67.9648 59.9994C67.9648 56.1552 64.8492 53.0389 61.0059 53.0389C57.1625 53.0389 54.0469 56.1552 54.0469 59.9994C54.0469 63.8436 57.1625 66.9599 61.0059 66.9599Z" fill="white"/>
<path d="M80.2764 60.1802C93.7236 39.2265 81.9092 27.2688 60.9482 40.6448C54.2373 36.5042 47.9297 34.8095 43.3623 35.9094C42.5947 35.338 41.6455 35 40.6182 35C36.8242 35 34.6807 39.3418 36.9199 42.3522C35.8213 46.9205 37.5146 53.2295 41.6543 59.9419C39.9639 62.5919 38.6016 65.2428 37.6328 67.8029C33.2676 79.3425 38.252 85 45.4189 85C50.7441 85 56.7275 82.1361 61.1855 79.2742C65.9941 82.1586 72.7393 84.9893 78.2012 83.7097C81.1094 86.5081 85.998 84.454 85.998 80.3906C85.998 79.153 85.5068 78.0278 84.71 77.1995C85.75 72.764 84.1689 66.6718 80.2764 60.1802ZM69.8486 39.374C73.4297 38.0182 78.7061 36.8979 81.4043 39.5957C83.5225 41.7143 83.6035 45.9272 81.626 51.1539C80.8516 53.2022 79.8018 55.3178 78.5166 57.4472C76.8037 54.9613 74.8252 52.5399 72.6123 50.2171C72.8994 49.6164 73.0615 48.9444 73.0615 48.2343C73.0615 44.6505 69.1436 42.4664 66.1084 44.2715C65.2949 43.6288 64.4727 43.0134 63.6465 42.4293C65.7451 41.1693 67.8291 40.1378 69.8486 39.374ZM61.1377 75.7744C55.0732 71.8106 49.2393 66.036 45.166 59.9643C49.2676 54.0168 55.0176 48.2636 60.9697 44.1572C62.0488 44.882 63.125 45.6664 64.1875 46.5025C62.5801 50.4486 66.7881 54.2834 70.5635 52.3299C72.9395 54.8324 75.0234 57.4492 76.7773 60.1324C72.7002 66.0145 67.0234 71.6944 61.1377 75.7744ZM39.5937 44.0996C42.8916 44.8517 45.8623 41.8941 45.1084 38.5838C48.5576 38.195 53.2529 39.5772 58.2656 42.4684C52.7441 46.4575 47.4727 51.7282 43.4775 57.2597C40.5869 52.2449 39.2061 47.5486 39.5937 44.0996ZM52.1621 80.625C38.1064 85.9445 35.3711 76.0811 43.4385 62.6427C47.2891 68.1018 52.6406 73.5073 58.4541 77.515C56.3242 78.8004 54.209 79.8495 52.1621 80.625ZM76.8242 80.9816C73.4746 81.4719 68.8428 80.205 63.876 77.4339C69.3115 73.4839 74.4844 68.3109 78.4355 62.8712C81.2061 67.8401 82.4727 72.4729 81.9824 75.8232C78.9883 75.4374 76.4395 77.9878 76.8242 80.9816Z" fill="white"/>
</g>
<defs>
<clipPath id="clip0">
<rect width="50" height="50" fill="white" transform="translate(36 35)"/>
</clipPath>
</defs>
</svg>
