<svg width="122" height="150" viewBox="0 0 122 150" fill="none" xmlns="http://www.w3.org/2000/svg">
<path d="M93.8985 0H28.1015C27.217 0 26.3324 0.065388 25.4479 0.130776L0.136085 24.4551C0.0680424 25.3051 0 26.1552 0 27.0052V90.2354V146.208C0 148.496 1.97323 150 3.94646 150C4.89905 150 5.91969 149.673 6.66815 148.888L39.6007 117.241H93.8305C94.715 117.241 95.5996 117.175 96.5521 117.11L121.864 92.7855C121.932 91.9355 122 91.0854 122 90.17V27.0052C122 12.0968 109.412 0 93.8985 0Z" fill="#ED6C71"/>
<g clip-path="url(#clip0)">
<path d="M84.529 37.418H83.0584V35.4648C83.0584 34.6562 82.3995 34 81.5878 34C80.776 34 80.1172 34.6562 80.1172 35.4648V42.3008C80.1172 43.1094 80.776 43.7656 81.5878 43.7656C82.3995 43.7656 83.0584 43.1094 83.0584 42.3008V40.3477H84.529C85.3407 40.3477 85.9995 39.6914 85.9995 38.8828C85.9995 38.0742 85.3407 37.418 84.529 37.418Z" fill="white"/>
<path d="M40.4118 34C39.6 34 38.9412 34.6562 38.9412 35.4648V37.418H37.4706C36.6588 37.418 36 38.0742 36 38.8828C36 39.6914 36.6588 40.3477 37.4706 40.3477H38.9412V42.3008C38.9412 43.1094 39.6 43.7656 40.4118 43.7656C41.2235 43.7656 41.8824 43.1094 41.8824 42.3008V35.4648C41.8824 34.6562 41.2235 34 40.4118 34Z" fill="white"/>
<path d="M44.8232 35.9531H77.1762V41.8125H44.8232V35.9531Z" fill="white"/>
<path d="M61.1951 57.8233L60.999 57.4278L60.8029 57.8233C60.5882 58.2559 60.1745 58.5547 59.696 58.6251L59.2578 58.6885L59.5755 58.9962C59.9225 59.3331 60.0804 59.8174 59.998 60.293L59.9235 60.7276L60.3157 60.5225C60.5304 60.4102 60.7647 60.3546 61 60.3546C61.2353 60.3546 61.4696 60.4102 61.6843 60.5225L62.0764 60.7276L62.0019 60.293C61.9206 59.8184 62.0784 59.3331 62.4245 58.9962L62.7412 58.6885L62.3029 58.6251C61.8235 58.5547 61.4098 58.2549 61.1951 57.8233Z" fill="white"/>
<path d="M61.0003 50.6992C56.4052 50.6992 52.667 54.4229 52.667 59C52.667 63.5771 56.4052 67.3008 61.0003 67.3008C65.5954 67.3008 69.3337 63.5771 69.3337 59C69.3337 54.4229 65.5954 50.6992 61.0003 50.6992ZM67.3013 57.2119C67.4748 57.7422 67.3297 58.3242 66.9288 58.7139L65.0317 60.5557L65.4797 63.1572C65.5739 63.707 65.3474 64.2617 64.8944 64.5898C64.6386 64.7754 64.3346 64.8691 64.0297 64.8691C63.7954 64.8691 63.5611 64.8135 63.3454 64.7012L61.0003 63.4736L58.6552 64.7022C58.1591 64.9619 57.5591 64.918 57.1062 64.5908C56.6533 64.2627 56.4268 63.708 56.5209 63.1582L56.969 60.5566L55.0719 58.7148C54.6709 58.3252 54.5268 57.7432 54.6993 57.2129C54.8719 56.6826 55.3327 56.2959 55.8866 56.2158L58.5082 55.8359L59.6807 53.4688C59.9288 52.9688 60.4395 52.6523 60.9993 52.6523C61.5592 52.6523 62.0699 52.9688 62.318 53.4688L63.4905 55.8359L66.1121 56.2158C66.668 56.2949 67.1278 56.6816 67.3013 57.2119Z" fill="white"/>
<path d="M45.3135 44.7422V82.5352C45.3135 83.0537 45.588 83.5332 46.036 83.7969C46.4841 84.0605 47.039 84.0684 47.4939 83.8184L60.9988 76.3965L74.5037 83.8184C74.7252 83.9395 74.9694 84.001 75.2145 84.001C75.4733 84.001 75.7321 83.9326 75.9625 83.7979C76.4105 83.5342 76.685 83.0547 76.685 82.5361V44.7422H45.3135ZM60.9998 70.2305C54.7831 70.2305 49.7252 65.1924 49.7252 59C49.7252 52.8076 54.7831 47.7695 60.9998 47.7695C67.2164 47.7695 72.2743 52.8076 72.2743 59C72.2743 65.1924 67.2164 70.2305 60.9998 70.2305Z" fill="white"/>
</g>
<defs>
<clipPath id="clip0">
<rect width="50" height="50" fill="white" transform="translate(36 34)"/>
</clipPath>
</defs>
</svg>
