<svg width="122" height="150" viewBox="0 0 122 150" fill="none" xmlns="http://www.w3.org/2000/svg">
<path d="M93.8985 0H28.1015C27.217 0 26.3324 0.065388 25.4479 0.130776L0.136085 24.4551C0.0680424 25.3051 0 26.1552 0 27.0052V90.2354V146.208C0 148.496 1.97323 150 3.94646 150C4.89905 150 5.91969 149.673 6.66815 148.888L39.6007 117.241H93.8305C94.715 117.241 95.5996 117.175 96.5521 117.11L121.864 92.7855C121.932 91.9355 122 91.0854 122 90.17V27.0052C122 12.0968 109.412 0 93.8985 0Z" fill="#ED6C71"/>
<path d="M61.0003 36C56.9572 36 53.667 39.2861 53.667 43.3242C53.667 47.3623 56.9572 50.6484 61.0003 50.6484C65.0434 50.6484 68.3337 47.3623 68.3337 43.3242C68.3337 39.2861 65.0434 36 61.0003 36Z" fill="white"/>
<path d="M80.0667 77.4805V72.7188C80.0667 70.2959 78.0925 68.3242 75.6667 68.3242H62.4667V65.3945H69.8C70.6106 65.3945 71.2667 64.7393 71.2667 63.9297V57.9727C71.2667 55.1025 70.0718 52.5117 68.1622 50.6484C66.6437 52.1289 64.6637 53.1123 62.4667 53.4297V57.9727C62.4667 58.7822 61.8106 59.4375 61 59.4375C60.1894 59.4375 59.5333 58.7822 59.5333 57.9727V53.4297C57.3363 53.1113 55.3553 52.1289 53.8378 50.6484C51.9282 52.5117 50.7333 55.1025 50.7333 57.9727V63.9297C50.7333 64.7393 51.3894 65.3945 52.2 65.3945H59.5333V68.3242H46.3333C43.9075 68.3242 41.9333 70.2959 41.9333 72.7188V77.4805C40.23 78.0879 39 79.6982 39 81.6055C39 84.0283 40.9741 86 43.4 86C45.8259 86 47.8 84.0283 47.8 81.6055C47.8 79.6982 46.57 78.0879 44.8667 77.4805V72.7188C44.8667 71.9102 45.5237 71.2539 46.3333 71.2539H53.6667V77.4805C51.9634 78.0869 50.7333 79.6982 50.7333 81.6055C50.7333 84.0283 52.7075 86 55.1333 86C57.5592 86 59.5333 84.0283 59.5333 81.6055C59.5333 79.6982 58.3033 78.0879 56.6 77.4805V71.2539H65.4V77.4805C63.6967 78.0869 62.4667 79.6982 62.4667 81.6055C62.4667 84.0283 64.4408 86 66.8667 86C69.2925 86 71.2667 84.0283 71.2667 81.6055C71.2667 79.6982 70.0366 78.0879 68.3333 77.4805V71.2539H75.6667C76.4763 71.2539 77.1333 71.9102 77.1333 72.7188V77.4805C75.43 78.0869 74.2 79.6982 74.2 81.6055C74.2 84.0283 76.1741 86 78.6 86C81.0259 86 83 84.0283 83 81.6055C83 79.6982 81.77 78.0879 80.0667 77.4805Z" fill="white"/>
</svg>
