<svg width="122" height="150" viewBox="0 0 122 150" fill="none" xmlns="http://www.w3.org/2000/svg">
<path d="M93.8985 0H28.1015C27.217 0 26.3324 0.065388 25.4479 0.130776L0.136085 24.4551C0.0680424 25.3051 0 26.1552 0 27.0052V90.2354V146.208C0 148.496 1.97323 150 3.94646 150C4.89905 150 5.91969 149.673 6.66815 148.888L39.6007 117.241H93.8305C94.715 117.241 95.5996 117.175 96.5521 117.11L121.864 92.7855C121.932 91.9355 122 91.0854 122 90.17V27.0052C122 12.0968 109.412 0 93.8985 0Z" fill="#ED6C71"/>
<path d="M81.3965 37H59.4297C56.8877 37 54.8271 39.0735 54.8271 41.6315V52.52C55.9883 53.1008 57.2432 53.7287 58.4141 54.3144L60.2061 50.7069C61.291 48.5253 63.9355 47.6389 66.1025 48.7287C68.2744 49.8224 69.1543 52.4767 68.0674 54.6623L64.873 61.0922C64.958 61.9432 64.8828 62.8011 64.6445 63.6315H66.7529L61.1914 79.0218C60.8613 79.9347 61.499 81 62.5684 81C63.166 81 63.7285 80.6285 63.9443 80.0291L69.8701 63.6315H70.8965L76.8828 80.034C77.1006 80.6305 77.6611 81 78.2588 81C79.2578 81 79.9902 79.9957 79.6328 79.0179L74.0176 63.6315H81.3965C83.9385 63.6315 85.999 61.558 85.999 59V41.6315C85.999 39.0735 83.9385 37 81.3965 37ZM78.2578 57.3166H71.6855C70.877 57.3166 70.2207 56.6562 70.2207 55.8425C70.2207 55.0279 70.877 54.3685 71.6855 54.3685H78.2578C79.0674 54.3685 79.7227 55.0279 79.7227 55.8425C79.7227 56.6562 79.0674 57.3166 78.2578 57.3166ZM78.2578 51.7898H71.6855C70.877 51.7898 70.2207 51.1304 70.2207 50.3158C70.2207 49.5021 70.877 48.8417 71.6855 48.8417H78.2578C79.0674 48.8417 79.7227 49.5021 79.7227 50.3158C79.7227 51.1304 79.0674 51.7898 78.2578 51.7898ZM78.2578 46.264H62.5684C61.7588 46.264 61.1035 45.6037 61.1035 44.79C61.1035 43.9763 61.7588 43.3159 62.5684 43.3159H78.2578C79.0674 43.3159 79.7227 43.9763 79.7227 44.79C79.7227 45.6037 79.0674 46.264 78.2578 46.264Z" fill="white"/>
<path d="M61.7734 62.9995C62.0381 62.2192 62.0361 61.4035 61.8125 60.6596L65.4482 53.3433C65.8096 52.6151 65.5166 51.7297 64.793 51.3651C64.0693 51.0005 63.1895 51.2963 62.8271 52.0245L59.7266 58.2638C57.873 57.3351 55.0576 55.9259 52.7891 54.7909C50.6787 53.7344 49.1729 52.7881 46.6035 52.7881H45.3105C47.3115 52.7881 49.0967 51.8614 50.2656 50.4109C51.1572 49.3073 51.6904 47.9011 51.6904 46.368C51.6904 42.8214 48.834 39.947 45.3096 39.947C41.7861 39.948 38.9297 42.8224 38.9297 46.369C38.9297 48.0721 39.5889 49.6198 40.6641 50.7686C41.8271 52.0127 43.4785 52.7891 45.3086 52.7891C42.8545 52.7891 40.4551 53.7895 38.7285 55.5318C36.9697 57.2978 36 59.6514 36 62.1573V66.894C36 68.9331 37.3154 70.6686 39.1377 71.2857V79.5248C39.1377 80.3394 39.793 80.9988 40.6025 80.9988H50.0166C50.8262 80.9988 51.4814 80.3394 51.4814 79.5248V62.9631C52.8701 63.6618 54.6953 64.5797 56.1709 65.3226C57.2061 65.8434 58.415 65.8896 59.4932 65.4484C60.5684 65.0032 61.3975 64.1168 61.7676 63.0162C61.7695 63.0103 61.7715 63.0054 61.7734 62.9995Z" fill="white"/>
</svg>
