<svg width="122" height="150" viewBox="0 0 122 150" fill="none" xmlns="http://www.w3.org/2000/svg">
<path d="M93.8985 0H28.1015C27.217 0 26.3324 0.065388 25.4479 0.130776L0.136085 24.4551C0.0680424 25.3051 0 26.1552 0 27.0052V90.2354V146.208C0 148.496 1.97323 150 3.94646 150C4.89905 150 5.91969 149.673 6.66815 148.888L39.6007 117.241H93.8305C94.715 117.241 95.5996 117.175 96.5521 117.11L121.864 92.7855C121.932 91.9355 122 91.0854 122 90.17V27.0052C122 12.0968 109.412 0 93.8985 0Z" fill="#ED6C71"/>
<g clip-path="url(#clip0)">
<path d="M79.2432 66.4326C77.7686 63.6562 74.3613 62.5175 71.5137 63.9052L68.499 65.375C68.9395 65.917 69.3311 66.5019 69.6084 67.166C70.123 68.3994 70.2881 69.7148 70.1064 71.001L79.2432 66.4326Z" fill="white"/>
<path d="M49.2812 43.8164C49.2812 50.2881 54.5283 55.5352 61 55.5352C61.4746 55.5352 61.9258 55.4502 62.3867 55.3955C58.8965 52.7158 56.6055 48.5459 56.6055 43.8164C56.6055 39.0869 58.8965 34.8193 62.3867 32.1396C61.9268 32.085 61.4746 32 61 32C54.5283 32 49.2812 37.3447 49.2812 43.8164Z" fill="white"/>
<path d="M52.1328 32.1396C51.6729 32.085 51.2207 32 50.7461 32C44.2734 32 39.0273 37.3447 39.0273 43.8164C39.0273 50.2881 44.2734 55.5352 50.7461 55.5352C51.2207 55.5352 51.6729 55.4502 52.1328 55.3955C48.6426 52.7158 46.3516 48.5459 46.3516 43.8164C46.3516 39.0869 48.6426 34.8203 52.1328 32.1396Z" fill="white"/>
<path d="M36 61.3945H41.8594V78.9727H36V61.3945Z" fill="white"/>
<path d="M80.8916 68.8846L66.5664 76.0487L56.3711 72.1288L57.4209 69.3934L66.4121 72.8495L66.8984 71.6981C67.8564 69.4315 66.7676 66.8211 64.4824 65.9071L54.9814 62.1063C52.3428 61.0506 49.2803 61.1737 46.7373 62.4442L44.7891 63.4188V75.5711L57.6953 80.7918C60.6162 81.9608 63.7617 82.2889 66.9512 81.7459C68.6504 81.4569 70.2832 80.8397 71.8242 80.0692L86 72.9305V71.9706C85.9912 69.4012 83.1895 67.7362 80.8916 68.8846Z" fill="white"/>
<path d="M71.8232 38.4775H68.4863V42.4814H71.8232C72.9268 42.4814 73.8252 41.583 73.8252 40.4794C73.8252 39.3759 72.9277 38.4775 71.8232 38.4775Z" fill="white"/>
<path d="M71.1562 32C64.6299 32 59.3398 37.29 59.3398 43.8164C59.3398 50.3428 64.6299 55.6328 71.1562 55.6328C77.6826 55.6328 82.9727 50.3428 82.9727 43.8164C82.9727 37.29 77.6826 32 71.1562 32ZM71.8232 45.1514H68.4863V46.4863H71.1562C71.8936 46.4863 72.4912 47.084 72.4912 47.8213C72.4912 48.5586 71.8936 49.1562 71.1562 49.1562H68.4873V50.4912C68.4873 51.2285 67.8896 51.8262 67.1523 51.8262C66.415 51.8262 65.8174 51.2285 65.8174 50.4912V37.1436C65.8174 36.4062 66.415 35.8086 67.1523 35.8086H71.8232C74.3994 35.8086 76.4941 37.9043 76.4941 40.4795C76.4951 43.0557 74.3994 45.1514 71.8232 45.1514Z" fill="white"/>
</g>
<defs>
<clipPath id="clip0">
<rect width="50" height="50" fill="white" transform="translate(36 32)"/>
</clipPath>
</defs>
</svg>
