<svg width="30" height="30" viewBox="0 0 30 30" fill="none" xmlns="http://www.w3.org/2000/svg">
<circle cx="15" cy="15" r="15" fill="#F4F5FB"/>
<g clip-path="url(#clip0)">
<path d="M23.8395 19.0253C23.7911 18.9443 23.4918 18.294 22.0517 16.9574C20.5441 15.5578 20.7466 15.7851 22.5625 13.365C23.6685 11.8912 24.1106 10.9911 23.9722 10.6063C23.8406 10.2396 23.0272 10.3363 23.0272 10.3363L20.3225 10.3521C20.3225 10.3521 20.1222 10.3251 19.9726 10.4139C19.8274 10.5017 19.7341 10.7042 19.7341 10.7042C19.7341 10.7042 19.3054 11.845 18.7339 12.8149C17.5289 14.8614 17.0462 14.9694 16.8494 14.8423C16.3914 14.5464 16.5062 13.6519 16.5062 13.0174C16.5062 11.0339 16.8066 10.2069 15.92 9.99316C15.6253 9.92228 15.4092 9.87503 14.6566 9.86715C13.6912 9.85703 12.8733 9.87053 12.4109 10.0967C12.1026 10.2474 11.8652 10.5838 12.0104 10.603C12.1893 10.6266 12.5943 10.7121 12.8092 11.0046C13.0871 11.3815 13.077 12.2298 13.077 12.2298C13.077 12.2298 13.2367 14.5644 12.7046 14.8546C12.3389 15.0538 11.8382 14.6476 10.7638 12.7901C10.2136 11.8394 9.79734 10.7875 9.79734 10.7875C9.79734 10.7875 9.71746 10.5917 9.57457 10.4871C9.40131 10.3599 9.15829 10.3194 9.15829 10.3194L6.58636 10.3352C6.58636 10.3352 6.20045 10.3464 6.05869 10.5141C5.93269 10.6637 6.04857 10.972 6.04857 10.972C6.04857 10.972 8.06247 15.6827 10.3419 18.0578C12.4334 20.2348 14.8073 20.0919 14.8073 20.0919H15.8829C15.8829 20.0919 16.2081 20.0559 16.3734 19.877C16.5265 19.7128 16.5208 19.4045 16.5208 19.4045C16.5208 19.4045 16.4995 17.961 17.17 17.7484C17.8304 17.5391 18.6787 19.1435 19.5777 19.7611C20.2572 20.228 20.7736 20.1257 20.7736 20.1257L23.1779 20.0919C23.1779 20.0919 24.4358 20.0143 23.8395 19.0253Z" fill="#27348B"/>
</g>
<defs>
<clipPath id="clip0">
<rect width="18" height="18" fill="white" transform="translate(6 6)"/>
</clipPath>
</defs>
</svg>
