<svg width="30" height="30" viewBox="0 0 30 30" fill="none" xmlns="http://www.w3.org/2000/svg">
<circle cx="15" cy="15" r="15" fill="#F4F5FB"/>
<g clip-path="url(#clip0)">
<path d="M23.981 11.292C23.9388 10.3356 23.7841 9.67812 23.5626 9.10836C23.334 8.50359 22.9824 7.96213 22.5217 7.51201C22.0716 7.05489 21.5265 6.69969 20.9288 6.4747C20.3557 6.25315 19.7016 6.09848 18.7452 6.05632C17.7817 6.01058 17.4758 6 15.032 6C12.5881 6 12.2822 6.01058 11.3223 6.05274C10.3658 6.09491 9.70832 6.24971 9.13871 6.47113C8.5338 6.69969 7.99234 7.05132 7.54222 7.51201C7.0851 7.96213 6.73004 8.50716 6.50491 9.10493C6.28336 9.67812 6.1287 10.3321 6.08653 11.2885C6.04079 12.252 6.03021 12.5579 6.03021 15.0018C6.03021 17.4456 6.04079 17.7515 6.08296 18.7115C6.12513 19.6679 6.27993 20.3254 6.50148 20.8951C6.73004 21.4999 7.0851 22.0414 7.54222 22.4915C7.99234 22.9486 8.53737 23.3038 9.13514 23.5288C9.70832 23.7504 10.3623 23.905 11.3188 23.9472C12.2787 23.9895 12.5847 23.9999 15.0285 23.9999C17.4724 23.9999 17.7782 23.9895 18.7382 23.9472C19.6946 23.905 20.3522 23.7504 20.9218 23.5288C22.1315 23.0611 23.0879 22.1047 23.5556 20.8951C23.777 20.322 23.9318 19.6679 23.974 18.7115C24.0161 17.7515 24.0267 17.4456 24.0267 15.0018C24.0267 12.5579 24.0231 12.252 23.981 11.292ZM22.36 18.6411C22.3213 19.5202 22.1736 19.9949 22.0506 20.3114C21.7481 21.0956 21.1257 21.7179 20.3416 22.0204C20.0251 22.1434 19.547 22.2911 18.6713 22.3297C17.7219 22.372 17.4372 22.3824 15.0355 22.3824C12.6339 22.3824 12.3456 22.372 11.3996 22.3297C10.5205 22.2911 10.0458 22.1434 9.72934 22.0204C9.33911 21.8761 8.98391 21.6476 8.6956 21.3487C8.39671 21.0568 8.16815 20.7052 8.02393 20.315C7.90086 19.9985 7.7532 19.5202 7.71461 18.6447C7.6723 17.6953 7.66186 17.4104 7.66186 15.0088C7.66186 12.6071 7.6723 12.3188 7.71461 11.373C7.7532 10.4939 7.90086 10.0192 8.02393 9.7027C8.16815 9.31234 8.39671 8.95727 8.69917 8.66883C8.99092 8.36994 9.34255 8.14138 9.73291 7.99729C10.0494 7.87422 10.5277 7.72656 11.4032 7.68783C12.3526 7.64566 12.6374 7.63508 15.039 7.63508C17.4442 7.63508 17.7289 7.64566 18.6749 7.68783C19.554 7.72656 20.0287 7.87422 20.3452 7.99729C20.7354 8.14138 21.0906 8.36994 21.3789 8.66883C21.6778 8.96071 21.9063 9.31234 22.0506 9.7027C22.1736 10.0192 22.3213 10.4973 22.36 11.373C22.4022 12.3224 22.4128 12.6071 22.4128 15.0088C22.4128 17.4104 22.4022 17.6917 22.36 18.6411Z" fill="#27348B"/>
<path d="M15.0334 10.3779C12.4806 10.3779 10.4094 12.4489 10.4094 15.0018C10.4094 17.5547 12.4806 19.6258 15.0334 19.6258C17.5863 19.6258 19.6573 17.5547 19.6573 15.0018C19.6573 12.4489 17.5863 10.3779 15.0334 10.3779ZM15.0334 18.0013C13.3773 18.0013 12.0339 16.6581 12.0339 15.0018C12.0339 13.3456 13.3773 12.0024 15.0334 12.0024C16.6896 12.0024 18.0328 13.3456 18.0328 15.0018C18.0328 16.6581 16.6896 18.0013 15.0334 18.0013Z" fill="#27348B"/>
<path d="M20.9205 10.1947C20.9205 10.7908 20.4371 11.2741 19.8408 11.2741C19.2447 11.2741 18.7614 10.7908 18.7614 10.1947C18.7614 9.59839 19.2447 9.11517 19.8408 9.11517C20.4371 9.11517 20.9205 9.59839 20.9205 10.1947Z" fill="#27348B"/>
</g>
<defs>
<clipPath id="clip0">
<rect width="18" height="18" fill="white" transform="translate(6 6)"/>
</clipPath>
</defs>
</svg>
