<svg width="30" height="30" viewBox="0 0 30 30" fill="none" xmlns="http://www.w3.org/2000/svg">
<circle cx="15" cy="15" r="15" fill="#F4F5FB"/>
<path d="M22.7241 15.113C22.5276 14.3051 21.8315 13.7096 20.9932 13.6203C19.0094 13.4099 17.0005 13.4099 15.0021 13.4099C13.0016 13.4079 10.9948 13.4099 9.01097 13.6203C8.17272 13.7096 7.4787 14.3051 7.28221 15.113C7.00418 16.2624 7 17.5189 7 18.7039C7 19.8889 7 21.1455 7.27802 22.2948C7.47452 23.1027 8.16854 23.6982 9.00679 23.7875C10.9906 23.9979 12.9995 23.9999 14.9979 23.9979C16.9984 23.9979 19.0052 23.9979 20.989 23.7875C21.8273 23.6982 22.5234 23.1027 22.7178 22.2948C22.9958 21.1435 22.9979 19.8889 22.9979 18.7039C23 17.5189 23.0021 16.2624 22.7241 15.113ZM11.5634 16.0043H10.4053V21.8481H9.32872V16.0043H8.19362V15.0475H11.5655V16.0043H11.5634ZM14.4858 21.8481H13.5179V21.2943C13.1333 21.7132 12.7695 21.9176 12.4121 21.9176C12.1006 21.9176 11.8853 21.7985 11.7891 21.5405C11.7369 21.3876 11.7034 21.1455 11.7034 20.7862V16.7804H12.6713V20.5122C12.6713 20.7266 12.6713 20.8398 12.6796 20.8695C12.7026 21.0125 12.7758 21.0839 12.9054 21.0839C13.0998 21.0839 13.3026 20.943 13.5158 20.6532V16.7804H14.4837L14.4858 21.8481ZM18.1586 20.3276C18.1586 20.7961 18.1252 21.1335 18.0604 21.3479C17.9308 21.7251 17.6736 21.9176 17.289 21.9176C16.9441 21.9176 16.6138 21.737 16.2898 21.3579V21.8481H15.3219V15.0475H16.2898V17.2687C16.6013 16.9035 16.9336 16.7189 17.289 16.7189C17.6736 16.7189 17.9328 16.9114 18.0604 17.2906C18.1252 17.495 18.1586 17.8305 18.1586 18.3089V20.3276ZM21.8085 19.482H19.8748V20.3812C19.8748 20.8497 20.0358 21.0839 20.3682 21.0839C20.6065 21.0839 20.7444 20.9608 20.8009 20.7147C20.8093 20.6651 20.8218 20.4606 20.8218 20.0934H21.8085V20.2284C21.8085 20.5241 21.7959 20.7286 21.7876 20.8199C21.7562 21.0224 21.6789 21.207 21.5618 21.3698C21.2942 21.737 20.897 21.9196 20.3912 21.9196C19.8853 21.9196 19.5007 21.7469 19.2205 21.4015C19.0157 21.1474 18.9091 20.7485 18.9091 20.2105V18.4359C18.9091 17.894 19.0031 17.499 19.208 17.2429C19.4881 16.8956 19.8727 16.7229 20.3661 16.7229C20.8511 16.7229 21.2357 16.8956 21.5074 17.2429C21.7102 17.499 21.8064 17.896 21.8064 18.4359L21.8085 19.482Z" fill="#27348B"/>
<path d="M20.3598 17.5453C20.0358 17.5453 19.8748 17.7795 19.8748 18.248V18.7164H20.8427V18.248C20.8406 17.7795 20.6796 17.5453 20.3598 17.5453Z" fill="#27348B"/>
<path d="M16.7712 17.5453C16.6123 17.5453 16.4513 17.6167 16.2883 17.7696V20.8583C16.4492 21.0111 16.6102 21.0845 16.7712 21.0845C17.0492 21.0845 17.1913 20.8583 17.1913 20.4017V18.2381C17.1934 17.7795 17.0513 17.5453 16.7712 17.5453Z" fill="#27348B"/>
<path d="M17.3111 12.9418C17.6686 12.9418 18.0386 12.7354 18.4274 12.3126V12.8704H19.4057V7.75104H18.4295V11.6655C18.2121 11.9553 18.0072 12.1002 17.8128 12.1002C17.6811 12.1002 17.6059 12.0267 17.5829 11.8838C17.5703 11.854 17.5703 11.7409 17.5703 11.5225V7.75104H16.5941V11.8004C16.5941 12.1617 16.6276 12.4059 16.6798 12.5627C16.7802 12.8207 16.9955 12.9418 17.3111 12.9418Z" fill="#27348B"/>
<path d="M10.508 10.0891V12.8721H11.5908V10.0891L12.8952 6H11.7998L11.0598 8.6996L10.2927 6H9.15338C9.38124 6.63719 9.61954 7.27636 9.8474 7.91553C10.1944 8.8723 10.4097 9.59484 10.508 10.0891Z" fill="#27348B"/>
<path d="M14.3489 12.9411C14.838 12.9411 15.2185 12.7664 15.4882 12.417C15.693 12.161 15.7913 11.756 15.7913 11.2121V9.41967C15.7913 8.87181 15.693 8.47283 15.4882 8.21279C15.2185 7.86145 14.838 7.68677 14.3489 7.68677C13.8618 7.68677 13.4814 7.86145 13.2117 8.21279C13.0047 8.47084 12.9065 8.87181 12.9065 9.41967V11.2121C12.9065 11.756 13.0047 12.161 13.2117 12.417C13.4814 12.7664 13.8618 12.9411 14.3489 12.9411ZM13.8827 9.23308C13.8827 8.75867 14.0332 8.52245 14.3489 8.52245C14.6645 8.52245 14.815 8.75867 14.815 9.23308V11.3868C14.815 11.8612 14.6645 12.0974 14.3489 12.0974C14.0332 12.0974 13.8827 11.8612 13.8827 11.3868V9.23308Z" fill="#27348B"/>
</svg>
