<svg width="540" height="26" viewBox="0 0 540 26" fill="none" xmlns="http://www.w3.org/2000/svg">
<path d="M0.5 4C0.5 2.067 2.067 0.5 4 0.5H539.5V22C539.5 23.933 537.933 25.5 536 25.5H0.5V4Z" stroke="#ED6C71"/>
<path d="M14.0418 9.3H15.1308V15.24L19.6848 9.3H20.6968V17H19.6188V11.071L15.0538 17H14.0418V9.3ZM26.7824 12.985C27.2664 13.117 27.6441 13.348 27.9154 13.678C28.1868 14.0007 28.3224 14.3893 28.3224 14.844C28.3224 15.2987 28.1758 15.6983 27.8824 16.043C27.5964 16.3803 27.2114 16.6407 26.7274 16.824C26.2508 17 25.7301 17.088 25.1654 17.088C24.6521 17.088 24.1424 17.011 23.6364 16.857C23.1304 16.703 22.6684 16.472 22.2504 16.164L22.6354 15.35C22.9728 15.614 23.3504 15.812 23.7684 15.944C24.1864 16.076 24.6081 16.142 25.0334 16.142C25.6494 16.142 26.1664 16.0137 26.5844 15.757C27.0024 15.493 27.2114 15.1337 27.2114 14.679C27.2114 14.2903 27.0538 13.9933 26.7384 13.788C26.4231 13.5753 25.9794 13.469 25.4074 13.469H23.6914V12.578H25.3304C25.8218 12.578 26.2031 12.479 26.4744 12.281C26.7531 12.0757 26.8924 11.7933 26.8924 11.434C26.8924 11.0307 26.7128 10.7117 26.3534 10.477C25.9941 10.2423 25.5394 10.125 24.9894 10.125C24.6301 10.125 24.2634 10.1763 23.8894 10.279C23.5228 10.3817 23.1744 10.5357 22.8444 10.741L22.4924 9.839C22.8811 9.619 23.2918 9.454 23.7244 9.344C24.1571 9.234 24.5898 9.179 25.0224 9.179C25.5651 9.179 26.0638 9.26333 26.5184 9.432C26.9731 9.60067 27.3324 9.84633 27.5964 10.169C27.8678 10.4917 28.0034 10.8693 28.0034 11.302C28.0034 11.6907 27.8934 12.0317 27.6734 12.325C27.4608 12.6183 27.1638 12.8383 26.7824 12.985ZM36.3506 9.3L32.9296 15.647C32.6583 16.153 32.3393 16.5307 31.9726 16.78C31.606 17.0293 31.2063 17.154 30.7736 17.154C30.4363 17.154 30.0916 17.077 29.7396 16.923L30.0256 16.043C30.297 16.1383 30.539 16.186 30.7516 16.186C31.2356 16.186 31.6353 15.9293 31.9506 15.416L32.1266 15.141L29.0246 9.3H30.2016L32.6986 14.184L35.2616 9.3H36.3506ZM43.3511 9.3V17H42.2621V13.953C41.4481 14.2683 40.6964 14.426 40.0071 14.426C39.0684 14.426 38.3388 14.1987 37.8181 13.744C37.3048 13.2893 37.0481 12.6403 37.0481 11.797V9.3H38.1261V11.676C38.1261 12.248 38.2984 12.688 38.6431 12.996C38.9951 13.304 39.4901 13.458 40.1281 13.458C40.8394 13.458 41.5508 13.2967 42.2621 12.974V9.3H43.3511ZM51.3407 16.043V17H45.7527V9.3H51.1867V10.257H46.8527V12.622H50.7137V13.557H46.8527V16.043H51.3407ZM59.6901 9.3V17H58.5901V13.568H54.1681V17H53.0681V9.3H54.1681V12.611H58.5901V9.3H59.6901ZM62.0916 9.3H63.1806V15.24L67.7346 9.3H68.7466V17H67.6686V11.071L63.1036 17H62.0916V9.3ZM76.7352 16.043V17H71.1472V9.3H76.5812V10.257H72.2472V12.622H76.1082V13.557H72.2472V16.043H76.7352ZM84.8818 17.088C84.1044 17.088 83.4041 16.9193 82.7808 16.582C82.1574 16.2373 81.6661 15.7643 81.3068 15.163C80.9548 14.5617 80.7788 13.8907 80.7788 13.15C80.7788 12.4093 80.9548 11.7383 81.3068 11.137C81.6661 10.5357 82.1574 10.0663 82.7808 9.729C83.4041 9.38433 84.1044 9.212 84.8818 9.212C85.6518 9.212 86.3484 9.38433 86.9718 9.729C87.5951 10.0663 88.0828 10.5357 88.4348 11.137C88.7868 11.731 88.9628 12.402 88.9628 13.15C88.9628 13.898 88.7868 14.5727 88.4348 15.174C88.0828 15.768 87.5951 16.2373 86.9718 16.582C86.3484 16.9193 85.6518 17.088 84.8818 17.088ZM84.8818 16.109C85.4464 16.109 85.9524 15.9807 86.3998 15.724C86.8544 15.4673 87.2101 15.1153 87.4668 14.668C87.7308 14.2133 87.8628 13.7073 87.8628 13.15C87.8628 12.5927 87.7308 12.0903 87.4668 11.643C87.2101 11.1883 86.8544 10.8327 86.3998 10.576C85.9524 10.3193 85.4464 10.191 84.8818 10.191C84.3171 10.191 83.8038 10.3193 83.3418 10.576C82.8871 10.8327 82.5278 11.1883 82.2638 11.643C82.0071 12.0903 81.8788 12.5927 81.8788 13.15C81.8788 13.7073 82.0071 14.2133 82.2638 14.668C82.5278 15.1153 82.8871 15.4673 83.3418 15.724C83.8038 15.9807 84.3171 16.109 84.8818 16.109ZM90.741 9.3H96.549V10.235H91.83V12.435H94.228C95.1447 12.435 95.8413 12.6257 96.318 13.007C96.7947 13.3883 97.033 13.9383 97.033 14.657C97.033 15.4123 96.7727 15.9917 96.252 16.395C95.7387 16.7983 95.0017 17 94.041 17H90.741V9.3ZM93.997 16.131C94.6277 16.131 95.108 16.01 95.438 15.768C95.768 15.526 95.933 15.1703 95.933 14.701C95.933 13.7697 95.2877 13.304 93.997 13.304H91.83V16.131H93.997ZM108.434 9.3V17H98.7869V9.3H99.8759V16.043H103.077V9.3H104.155V16.043H107.356V9.3H108.434ZM109.589 16.043V18.683H108.577V17H107.334V16.043H109.589ZM116.696 16.043V17H111.108V9.3H116.542V10.257H112.208V12.622H116.069V13.557H112.208V16.043H116.696ZM121.834 17.088C121.064 17.088 120.368 16.9193 119.744 16.582C119.128 16.2373 118.644 15.768 118.292 15.174C117.94 14.5727 117.764 13.898 117.764 13.15C117.764 12.402 117.94 11.731 118.292 11.137C118.644 10.5357 119.132 10.0663 119.755 9.729C120.379 9.38433 121.075 9.212 121.845 9.212C122.447 9.212 122.997 9.31467 123.495 9.52C123.994 9.718 124.419 10.015 124.771 10.411L124.056 11.104C123.477 10.4953 122.755 10.191 121.889 10.191C121.317 10.191 120.8 10.3193 120.338 10.576C119.876 10.8327 119.513 11.1883 119.249 11.643C118.993 12.0903 118.864 12.5927 118.864 13.15C118.864 13.7073 118.993 14.2133 119.249 14.668C119.513 15.1153 119.876 15.4673 120.338 15.724C120.8 15.9807 121.317 16.109 121.889 16.109C122.747 16.109 123.47 15.801 124.056 15.185L124.771 15.878C124.419 16.274 123.99 16.5747 123.484 16.78C122.986 16.9853 122.436 17.088 121.834 17.088ZM131.492 10.257H128.852V17H127.774V10.257H125.145V9.3H131.492V10.257ZM137.625 13.007C138.146 13.1317 138.538 13.3553 138.802 13.678C139.073 13.9933 139.209 14.4003 139.209 14.899C139.209 15.5663 138.963 16.0833 138.472 16.45C137.988 16.8167 137.28 17 136.349 17H132.829V9.3H136.14C136.983 9.3 137.64 9.47233 138.109 9.817C138.586 10.1543 138.824 10.642 138.824 11.28C138.824 11.698 138.718 12.0537 138.505 12.347C138.3 12.6403 138.006 12.8603 137.625 13.007ZM133.918 12.688H136.063C136.598 12.688 137.005 12.5817 137.284 12.369C137.57 12.1563 137.713 11.8447 137.713 11.434C137.713 11.0233 137.57 10.7117 137.284 10.499C136.998 10.279 136.591 10.169 136.063 10.169H133.918V12.688ZM136.327 16.131C137.508 16.131 138.098 15.691 138.098 14.811C138.098 14.371 137.948 14.0483 137.647 13.843C137.354 13.6303 136.914 13.524 136.327 13.524H133.918V16.131H136.327ZM146.635 16.043V17H141.047V9.3H146.481V10.257H142.147V12.622H146.008V13.557H142.147V16.043H146.635ZM154.984 9.3V17H153.884V13.568H149.462V17H148.362V9.3H149.462V12.611H153.884V9.3H154.984ZM164.008 9.3V17H162.908V13.568H158.486V17H157.386V9.3H158.486V12.611H162.908V9.3H164.008ZM169.874 17.088C169.097 17.088 168.396 16.9193 167.773 16.582C167.15 16.2373 166.658 15.7643 166.299 15.163C165.947 14.5617 165.771 13.8907 165.771 13.15C165.771 12.4093 165.947 11.7383 166.299 11.137C166.658 10.5357 167.15 10.0663 167.773 9.729C168.396 9.38433 169.097 9.212 169.874 9.212C170.644 9.212 171.341 9.38433 171.964 9.729C172.587 10.0663 173.075 10.5357 173.427 11.137C173.779 11.731 173.955 12.402 173.955 13.15C173.955 13.898 173.779 14.5727 173.427 15.174C173.075 15.768 172.587 16.2373 171.964 16.582C171.341 16.9193 170.644 17.088 169.874 17.088ZM169.874 16.109C170.439 16.109 170.945 15.9807 171.392 15.724C171.847 15.4673 172.202 15.1153 172.459 14.668C172.723 14.2133 172.855 13.7073 172.855 13.15C172.855 12.5927 172.723 12.0903 172.459 11.643C172.202 11.1883 171.847 10.8327 171.392 10.576C170.945 10.3193 170.439 10.191 169.874 10.191C169.309 10.191 168.796 10.3193 168.334 10.576C167.879 10.8327 167.52 11.1883 167.256 11.643C166.999 12.0903 166.871 12.5927 166.871 13.15C166.871 13.7073 166.999 14.2133 167.256 14.668C167.52 15.1153 167.879 15.4673 168.334 15.724C168.796 15.9807 169.309 16.109 169.874 16.109ZM180.771 10.257H176.811L176.822 17H175.733V9.3H180.782L180.771 10.257ZM184.591 17.088C183.813 17.088 183.113 16.9193 182.49 16.582C181.866 16.2373 181.375 15.7643 181.016 15.163C180.664 14.5617 180.488 13.8907 180.488 13.15C180.488 12.4093 180.664 11.7383 181.016 11.137C181.375 10.5357 181.866 10.0663 182.49 9.729C183.113 9.38433 183.813 9.212 184.591 9.212C185.361 9.212 186.057 9.38433 186.681 9.729C187.304 10.0663 187.792 10.5357 188.144 11.137C188.496 11.731 188.672 12.402 188.672 13.15C188.672 13.898 188.496 14.5727 188.144 15.174C187.792 15.768 187.304 16.2373 186.681 16.582C186.057 16.9193 185.361 17.088 184.591 17.088ZM184.591 16.109C185.155 16.109 185.661 15.9807 186.109 15.724C186.563 15.4673 186.919 15.1153 187.176 14.668C187.44 14.2133 187.572 13.7073 187.572 13.15C187.572 12.5927 187.44 12.0903 187.176 11.643C186.919 11.1883 186.563 10.8327 186.109 10.576C185.661 10.3193 185.155 10.191 184.591 10.191C184.026 10.191 183.513 10.3193 183.051 10.576C182.596 10.8327 182.237 11.1883 181.973 11.643C181.716 12.0903 181.588 12.5927 181.588 13.15C181.588 13.7073 181.716 14.2133 181.973 14.668C182.237 15.1153 182.596 15.4673 183.051 15.724C183.513 15.9807 184.026 16.109 184.591 16.109ZM200.543 17L200.532 11.39L197.749 16.065H197.243L194.46 11.423V17H193.404V9.3H194.306L197.518 14.712L200.686 9.3H201.588L201.599 17H200.543ZM210.618 9.3V17H209.518V13.568H205.096V17H203.996V9.3H205.096V12.611H209.518V9.3H210.618ZM218.607 16.043V17H213.019V9.3H218.453V10.257H214.119V12.622H217.98V13.557H214.119V16.043H218.607ZM226.957 9.3V17H225.857V13.568H221.435V17H220.335V9.3H221.435V12.611H225.857V9.3H226.957ZM229.358 9.3H230.447V15.24L235.001 9.3H236.013V17H234.935V11.071L230.37 17H229.358V9.3ZM244.057 9.3V17H242.979V14.756H240.856C240.724 14.756 240.625 14.7523 240.559 14.745L239.019 17H237.853L239.558 14.558C239.008 14.3747 238.586 14.0703 238.293 13.645C238 13.2123 237.853 12.688 237.853 12.072C237.853 11.1993 238.132 10.521 238.689 10.037C239.254 9.54567 240.013 9.3 240.966 9.3H244.057ZM238.964 12.061C238.964 12.633 239.129 13.073 239.459 13.381C239.796 13.6817 240.291 13.832 240.944 13.832H242.979V10.257H241.01C240.35 10.257 239.844 10.411 239.492 10.719C239.14 11.027 238.964 11.4743 238.964 12.061ZM246.526 15.559C246.731 15.559 246.9 15.6323 247.032 15.779C247.171 15.9183 247.241 16.0943 247.241 16.307C247.241 16.417 247.226 16.5233 247.197 16.626C247.175 16.7287 247.127 16.8863 247.054 17.099L246.537 18.628H245.844L246.251 16.989C246.111 16.9377 245.998 16.8533 245.91 16.736C245.829 16.6113 245.789 16.4683 245.789 16.307C245.789 16.087 245.858 15.9073 245.998 15.768C246.137 15.6287 246.313 15.559 246.526 15.559ZM258.539 9.3V17H257.461V10.257H252.995V17H251.906V9.3H258.539ZM263.943 9.3C264.941 9.3 265.725 9.53833 266.297 10.015C266.869 10.4917 267.155 11.148 267.155 11.984C267.155 12.82 266.869 13.4763 266.297 13.953C265.725 14.4297 264.941 14.668 263.943 14.668H262.04V17H260.94V9.3H263.943ZM263.91 13.711C264.607 13.711 265.139 13.5643 265.505 13.271C265.872 12.9703 266.055 12.5413 266.055 11.984C266.055 11.4267 265.872 11.0013 265.505 10.708C265.139 10.4073 264.607 10.257 263.91 10.257H262.04V13.711H263.91ZM274.273 16.043V17H268.685V9.3H274.119V10.257H269.785V12.622H273.646V13.557H269.785V16.043H274.273ZM283.338 16.043V18.683H282.315V17H275.979L275.968 18.683H274.945L274.956 16.043H275.33C275.814 16.0137 276.155 15.6323 276.353 14.899C276.551 14.1583 276.672 13.117 276.716 11.775L276.793 9.3H282.205V16.043H283.338ZM277.684 11.874C277.647 12.9593 277.559 13.8577 277.42 14.569C277.288 15.2803 277.071 15.7717 276.771 16.043H281.116V10.257H277.739L277.684 11.874ZM291.134 9.3V17H290.056V10.257H286.646L286.569 12.512C286.532 13.5753 286.444 14.437 286.305 15.097C286.173 15.757 285.96 16.2557 285.667 16.593C285.373 16.923 284.977 17.088 284.479 17.088C284.251 17.088 284.02 17.0587 283.786 17L283.863 16.021C283.98 16.0503 284.097 16.065 284.215 16.065C284.53 16.065 284.783 15.9403 284.974 15.691C285.164 15.4343 285.307 15.053 285.403 14.547C285.498 14.041 285.56 13.3737 285.59 12.545L285.711 9.3H291.134ZM296.997 17.088C296.22 17.088 295.519 16.9193 294.896 16.582C294.273 16.2373 293.781 15.7643 293.422 15.163C293.07 14.5617 292.894 13.8907 292.894 13.15C292.894 12.4093 293.07 11.7383 293.422 11.137C293.781 10.5357 294.273 10.0663 294.896 9.729C295.519 9.38433 296.22 9.212 296.997 9.212C297.767 9.212 298.464 9.38433 299.087 9.729C299.71 10.0663 300.198 10.5357 300.55 11.137C300.902 11.731 301.078 12.402 301.078 13.15C301.078 13.898 300.902 14.5727 300.55 15.174C300.198 15.768 299.71 16.2373 299.087 16.582C298.464 16.9193 297.767 17.088 296.997 17.088ZM296.997 16.109C297.562 16.109 298.068 15.9807 298.515 15.724C298.97 15.4673 299.325 15.1153 299.582 14.668C299.846 14.2133 299.978 13.7073 299.978 13.15C299.978 12.5927 299.846 12.0903 299.582 11.643C299.325 11.1883 298.97 10.8327 298.515 10.576C298.068 10.3193 297.562 10.191 296.997 10.191C296.432 10.191 295.919 10.3193 295.457 10.576C295.002 10.8327 294.643 11.1883 294.379 11.643C294.122 12.0903 293.994 12.5927 293.994 13.15C293.994 13.7073 294.122 14.2133 294.379 14.668C294.643 15.1153 295.002 15.4673 295.457 15.724C295.919 15.9807 296.432 16.109 296.997 16.109ZM309.045 13.612H307.582V17H306.504V13.612H305.03L302.874 17H301.587L304.128 12.996L301.774 9.3H302.951L305.008 12.644H306.504V9.3H307.582V12.644H309.056L311.124 9.3H312.301L309.947 13.018L312.488 17H311.201L309.045 13.612ZM319.229 16.043V17H313.641V9.3H319.075V10.257H314.741V12.622H318.602V13.557H314.741V16.043H319.229ZM327.579 9.3V17H326.479V13.568H322.057V17H320.957V9.3H322.057V12.611H326.479V9.3H327.579ZM329.98 9.3H331.069V15.24L335.623 9.3H336.635V17H335.557V11.071L330.992 17H329.98V9.3ZM339.036 9.3H340.125V15.24L344.679 9.3H345.691V17H344.613V11.071L340.048 17H339.036V9.3ZM342.347 8.761C341.746 8.761 341.28 8.63267 340.95 8.376C340.627 8.112 340.462 7.738 340.455 7.254H341.236C341.243 7.54 341.342 7.76367 341.533 7.925C341.731 8.079 342.002 8.156 342.347 8.156C342.677 8.156 342.941 8.079 343.139 7.925C343.344 7.76367 343.451 7.54 343.458 7.254H344.228C344.221 7.73067 344.052 8.101 343.722 8.365C343.399 8.629 342.941 8.761 342.347 8.761ZM351.046 9.3H352.135V15.24L356.689 9.3H357.701V17H356.623V11.071L352.058 17H351.046V9.3ZM366.058 9.3C367.056 9.3 367.84 9.53833 368.412 10.015C368.984 10.4917 369.27 11.148 369.27 11.984C369.27 12.82 368.984 13.4763 368.412 13.953C367.84 14.4297 367.056 14.668 366.058 14.668H364.155V17H363.055V9.3H366.058ZM366.025 13.711C366.722 13.711 367.254 13.5643 367.62 13.271C367.987 12.9703 368.17 12.5413 368.17 11.984C368.17 11.4267 367.987 11.0013 367.62 10.708C367.254 10.4073 366.722 10.257 366.025 10.257H364.155V13.711H366.025ZM376.389 16.043V17H370.801V9.3H376.235V10.257H371.901V12.622H375.762V13.557H371.901V16.043H376.389ZM380.8 13.612H379.194V17H378.116V9.3H379.194V12.644H380.822L383.242 9.3H384.419L381.669 13.029L384.551 17H383.297L380.8 13.612ZM389.122 17.088C388.345 17.088 387.644 16.9193 387.021 16.582C386.398 16.2373 385.906 15.7643 385.547 15.163C385.195 14.5617 385.019 13.8907 385.019 13.15C385.019 12.4093 385.195 11.7383 385.547 11.137C385.906 10.5357 386.398 10.0663 387.021 9.729C387.644 9.38433 388.345 9.212 389.122 9.212C389.892 9.212 390.589 9.38433 391.212 9.729C391.835 10.0663 392.323 10.5357 392.675 11.137C393.027 11.731 393.203 12.402 393.203 13.15C393.203 13.898 393.027 14.5727 392.675 15.174C392.323 15.768 391.835 16.2373 391.212 16.582C390.589 16.9193 389.892 17.088 389.122 17.088ZM389.122 16.109C389.687 16.109 390.193 15.9807 390.64 15.724C391.095 15.4673 391.45 15.1153 391.707 14.668C391.971 14.2133 392.103 13.7073 392.103 13.15C392.103 12.5927 391.971 12.0903 391.707 11.643C391.45 11.1883 391.095 10.8327 390.64 10.576C390.193 10.3193 389.687 10.191 389.122 10.191C388.557 10.191 388.044 10.3193 387.582 10.576C387.127 10.8327 386.768 11.1883 386.504 11.643C386.247 12.0903 386.119 12.5927 386.119 13.15C386.119 13.7073 386.247 14.2133 386.504 14.668C386.768 15.1153 387.127 15.4673 387.582 15.724C388.044 15.9807 388.557 16.109 389.122 16.109ZM402.12 17L402.109 11.39L399.326 16.065H398.82L396.037 11.423V17H394.981V9.3H395.883L399.095 14.712L402.263 9.3H403.165L403.176 17H402.12ZM411.161 16.043V17H405.573V9.3H411.007V10.257H406.673V12.622H410.534V13.557H406.673V16.043H411.161ZM419.51 9.3V17H418.41V13.568H413.988V17H412.888V9.3H413.988V12.611H418.41V9.3H419.51ZM429.152 16.043V18.683H428.129V17H421.793L421.782 18.683H420.759L420.77 16.043H421.144C421.628 16.0137 421.969 15.6323 422.167 14.899C422.365 14.1583 422.486 13.117 422.53 11.775L422.607 9.3H428.019V16.043H429.152ZM423.498 11.874C423.462 12.9593 423.374 13.8577 423.234 14.569C423.102 15.2803 422.886 15.7717 422.585 16.043H426.93V10.257H423.553L423.498 11.874ZM435.693 15.075H431.601L430.754 17H429.621L433.108 9.3H434.197L437.695 17H436.54L435.693 15.075ZM435.308 14.195L433.647 10.422L431.986 14.195H435.308ZM446.68 16.043V18.749H445.657V17H439.024V9.3H440.113V16.043H444.403V9.3H445.492V16.043H446.68ZM448.144 9.3H449.233V15.24L453.787 9.3H454.799V17H453.721V11.071L449.156 17H448.144V9.3ZM457.2 9.3H458.289V15.24L462.843 9.3H463.855V17H462.777V11.071L458.212 17H457.2V9.3ZM460.511 8.761C459.91 8.761 459.444 8.63267 459.114 8.376C458.791 8.112 458.626 7.738 458.619 7.254H459.4C459.407 7.54 459.506 7.76367 459.697 7.925C459.895 8.079 460.166 8.156 460.511 8.156C460.841 8.156 461.105 8.079 461.303 7.925C461.508 7.76367 461.615 7.54 461.622 7.254H462.392C462.385 7.73067 462.216 8.101 461.886 8.365C461.563 8.629 461.105 8.761 460.511 8.761ZM474.248 10.257H470.288L470.299 17H469.21V9.3H474.259L474.248 10.257ZM478.572 9.3C479.569 9.3 480.354 9.53833 480.926 10.015C481.498 10.4917 481.784 11.148 481.784 11.984C481.784 12.82 481.498 13.4763 480.926 13.953C480.354 14.4297 479.569 14.668 478.572 14.668H476.669V17H475.569V9.3H478.572ZM478.539 13.711C479.236 13.711 479.767 13.5643 480.134 13.271C480.501 12.9703 480.684 12.5413 480.684 11.984C480.684 11.4267 480.501 11.0013 480.134 10.708C479.767 10.4073 479.236 10.257 478.539 10.257H476.669V13.711H478.539ZM487.933 15.075H483.841L482.994 17H481.861L485.348 9.3H486.437L489.935 17H488.78L487.933 15.075ZM487.548 14.195L485.887 10.422L484.226 14.195H487.548ZM497.366 13.612H495.903V17H494.825V13.612H493.351L491.195 17H489.908L492.449 12.996L490.095 9.3H491.272L493.329 12.644H494.825V9.3H495.903V12.644H497.377L499.445 9.3H500.622L498.268 13.018L500.809 17H499.522L497.366 13.612ZM509.461 16.043V18.683H508.438V17H502.102L502.091 18.683H501.068L501.079 16.043H501.453C501.937 16.0137 502.278 15.6323 502.476 14.899C502.674 14.1583 502.795 13.117 502.839 11.775L502.916 9.3H508.328V16.043H509.461ZM503.807 11.874C503.77 12.9593 503.682 13.8577 503.543 14.569C503.411 15.2803 503.194 15.7717 502.894 16.043H507.239V10.257H503.862L503.807 11.874ZM516.002 15.075H511.91L511.063 17H509.93L513.417 9.3H514.506L518.004 17H516.849L516.002 15.075ZM515.617 14.195L513.956 10.422L512.295 14.195H515.617ZM525.955 9.3V17H524.855V13.568H520.433V17H519.333V9.3H520.433V12.611H524.855V9.3H525.955Z" fill="#ED6C71"/>
</svg>
