<svg width="18" height="18" viewBox="0 0 18 18" fill="none" xmlns="http://www.w3.org/2000/svg">
<g clip-path="url(#clip0)">
<path d="M17.981 5.29205C17.9389 4.33564 17.7842 3.67812 17.5626 3.10836C17.3341 2.50359 16.9824 1.96213 16.5218 1.51201C16.0716 1.05489 15.5266 0.699691 14.9288 0.474702C14.3558 0.253147 13.7017 0.0984842 12.7453 0.0563159C11.7817 0.0105764 11.4759 0 9.03202 0C6.58819 0 6.28229 0.0105764 5.32232 0.0527447C4.36591 0.0949129 3.70839 0.249713 3.13877 0.471131C2.53386 0.699691 1.9924 1.05132 1.54229 1.51201C1.08517 1.96213 0.730101 2.50716 0.504975 3.10493C0.28342 3.67812 0.128757 4.33207 0.0865893 5.28848C0.0408498 6.25203 0.0302734 6.55792 0.0302734 9.00176C0.0302734 11.4456 0.0408498 11.7515 0.083018 12.7115C0.125186 13.6679 0.279986 14.3254 0.501541 14.8951C0.730101 15.4999 1.08517 16.0414 1.54229 16.4915C1.9924 16.9486 2.53743 17.3038 3.1352 17.5288C3.70839 17.7504 4.36234 17.905 5.31888 17.9472C6.27872 17.9895 6.58475 17.9999 9.02858 17.9999C11.4724 17.9999 11.7783 17.9895 12.7383 17.9472C13.6947 17.905 14.3522 17.7504 14.9218 17.5288C16.1315 17.0611 17.0879 16.1047 17.5556 14.8951C17.777 14.322 17.9318 13.6679 17.974 12.7115C18.0162 11.7515 18.0268 11.4456 18.0268 9.00176C18.0268 6.55792 18.0232 6.25203 17.981 5.29205ZM16.3601 12.6411C16.3214 13.5202 16.1737 13.9949 16.0506 14.3114C15.7482 15.0956 15.1258 15.7179 14.3416 16.0204C14.0252 16.1434 13.547 16.2911 12.6714 16.3297C11.722 16.372 11.4373 16.3824 9.03559 16.3824C6.63392 16.3824 6.34562 16.372 5.39965 16.3297C4.52057 16.2911 4.04587 16.1434 3.7294 16.0204C3.33917 15.8761 2.98397 15.6476 2.69566 15.3487C2.39678 15.0568 2.16822 14.7052 2.02399 14.315C1.90092 13.9985 1.75326 13.5202 1.71467 12.6447C1.67236 11.6953 1.66192 11.4104 1.66192 9.00876C1.66192 6.60709 1.67236 6.31878 1.71467 5.37295C1.75326 4.49387 1.90092 4.01917 2.02399 3.7027C2.16822 3.31234 2.39678 2.95727 2.69923 2.66883C2.99098 2.36994 3.34261 2.14138 3.73297 1.99729C4.04944 1.87422 4.52771 1.72656 5.40322 1.68783C6.35262 1.64566 6.6375 1.63508 9.03902 1.63508C11.4443 1.63508 11.729 1.64566 12.675 1.68783C13.554 1.72656 14.0287 1.87422 14.3452 1.99729C14.7354 2.14138 15.0906 2.36994 15.379 2.66883C15.6778 2.96071 15.9064 3.31234 16.0506 3.7027C16.1737 4.01917 16.3214 4.49731 16.3601 5.37295C16.4023 6.32235 16.4128 6.60709 16.4128 9.00876C16.4128 11.4104 16.4023 11.6917 16.3601 12.6411Z" fill="#27348B"/>
<path d="M9.03313 4.37793C6.48037 4.37793 4.40918 6.44899 4.40918 9.00189C4.40918 11.5548 6.48037 13.6258 9.03313 13.6258C11.586 13.6258 13.6571 11.5548 13.6571 9.00189C13.6571 6.44899 11.586 4.37793 9.03313 4.37793ZM9.03313 12.0013C7.37703 12.0013 6.03369 10.6581 6.03369 9.00189C6.03369 7.34565 7.37703 6.00244 9.03313 6.00244C10.6894 6.00244 12.0326 7.34565 12.0326 9.00189C12.0326 10.6581 10.6894 12.0013 9.03313 12.0013Z" fill="#27348B"/>
<path d="M14.9208 4.19472C14.9208 4.79084 14.4375 5.2742 13.8412 5.2742C13.2451 5.2742 12.7617 4.79084 12.7617 4.19472C12.7617 3.59845 13.2451 3.11523 13.8412 3.11523C14.4375 3.11523 14.9208 3.59845 14.9208 4.19472Z" fill="#27348B"/>
</g>
<defs>
<clipPath id="clip0">
<rect width="18" height="18" fill="white"/>
</clipPath>
</defs>
</svg>
