<svg width="152" height="58" viewBox="0 0 152 58" fill="none" xmlns="http://www.w3.org/2000/svg">
<g clip-path="url(#clip0)">
<path d="M27.8485 14.2608C27.4426 13.9738 26.8803 14.0688 26.5924 14.4736L26.5749 14.4981C26.287 14.9028 26.3825 15.4636 26.7882 15.7507C26.9465 15.8626 27.1285 15.9165 27.3088 15.9165C27.5909 15.9165 27.8686 15.7848 28.0443 15.5379L28.0618 15.5134C28.3497 15.1088 28.2542 14.548 27.8485 14.2608Z" fill="#161616"/>
<path d="M25.796 16.807C25.4805 16.4233 24.9129 16.3675 24.5282 16.6822C23.2766 17.706 21.8544 18.4349 20.301 18.8485C19.8203 18.9765 19.5346 19.4689 19.663 19.9483C19.7706 20.3501 20.1347 20.6152 20.5328 20.6152C20.6097 20.6152 20.6879 20.6053 20.7658 20.5845C22.5691 20.1042 24.2193 19.2587 25.6708 18.0713C26.0556 17.7567 26.1116 17.1905 25.796 16.807Z" fill="#161616"/>
<path d="M43.4223 20.3469C41.9321 20.3469 40.7197 21.556 40.7197 23.0421V23.4914C40.7197 27.2592 37.9689 30.3963 34.3653 31.0152C34.836 30.323 35.1113 29.4884 35.1113 28.5909V27.9668C35.1113 25.5788 33.1631 23.636 30.7686 23.636C28.3741 23.636 26.426 25.5788 26.426 27.9668V28.5909C26.426 29.4656 26.6882 30.2799 27.1371 30.9616C23.6751 30.2297 21.069 27.1589 21.069 23.4914V23.0421C21.069 21.556 19.8566 20.3469 18.3664 20.3469C16.8761 20.3469 15.6637 21.556 15.6637 23.0421V23.4914C15.6637 25.315 16.0358 27.0785 16.7536 28.7079H10.7883H10.6238V19.6599C10.6238 19.2588 10.3573 18.9063 9.97065 18.7961C5.16095 17.4243 1.80176 12.9832 1.80176 7.99609V7.54688C1.80176 7.05148 2.20589 6.64844 2.70263 6.64844C3.19938 6.64844 3.60351 7.05148 3.60351 7.54688V7.99609C3.60351 13.1978 7.84692 17.4297 13.0627 17.4297H17.3984C22.6142 17.4297 26.8576 13.1978 26.8576 7.99609V7.54688C26.8576 7.05148 27.2617 6.64844 27.7585 6.64844C28.2552 6.64844 28.6594 7.05148 28.6594 7.54688V7.99609C28.6594 9.37708 28.4099 10.7261 27.9179 12.0054C27.7397 12.4686 27.9718 12.9883 28.4364 13.166C28.9007 13.3438 29.422 13.1121 29.6002 12.6488C30.1715 11.1634 30.4611 9.59792 30.4611 7.99609V7.54688C30.4611 6.06068 29.2487 4.85156 27.7585 4.85156C26.2683 4.85156 25.0559 6.06068 25.0559 7.54688V7.99609C25.0559 11.7638 22.305 14.9009 18.7016 15.5199C19.1722 14.8276 19.4474 13.9932 19.4474 13.0957V12.4717C19.4474 10.0836 17.4993 8.14074 15.1048 8.14074C12.7102 8.14074 10.7622 10.0836 10.7622 12.4717V13.0957C10.7622 13.9703 11.0243 14.7847 11.4732 15.4662C8.01124 14.7344 5.40527 11.6635 5.40527 7.99609V7.54688C5.40527 6.06068 4.19287 4.85156 2.70263 4.85156C1.2124 4.85156 0 6.06068 0 7.54688V7.99609C0 10.8806 0.929886 13.6156 2.68903 15.9053C4.25151 17.9389 6.41047 19.4878 8.82212 20.3183V29.6062C8.82212 30.1023 9.22544 30.5046 9.723 30.5046H9.8875V45.1016C9.8875 45.5977 10.2908 46 10.7884 46C11.2859 46 11.6893 45.5977 11.6893 45.1016V30.5046H17.7215C17.9185 30.81 18.1288 31.1089 18.3529 31.4006C18.4125 31.4782 18.4746 31.5537 18.5359 31.6299V45.1016C18.5359 45.5977 18.9392 46 19.4368 46C19.9344 46 20.3377 45.5977 20.3377 45.1016V33.4659C21.5651 34.4918 22.976 35.2935 24.486 35.8135V45.1016C24.486 45.5977 24.8893 46 25.3868 46C25.8844 46 26.2877 45.5977 26.2877 45.1016V35.1551C26.2877 34.7541 26.0212 34.4015 25.6346 34.2914C20.8248 32.9196 17.4656 28.4786 17.4656 23.4914V23.0421C17.4656 22.5467 17.8697 22.1438 18.3665 22.1438C18.8632 22.1438 19.2673 22.5467 19.2673 23.0421V23.4914C19.2673 28.6931 23.5108 32.925 28.7266 32.925H33.0622C38.278 32.925 42.5214 28.6931 42.5214 23.4914V23.0421C42.5214 22.5467 42.9256 22.1438 43.4223 22.1438C43.9191 22.1438 44.3232 22.5467 44.3232 23.0421V23.4914C44.3232 28.5707 40.8862 33.0333 35.965 34.3438C35.5708 34.4487 35.2966 34.8048 35.2966 35.2117V41.7174C35.2966 42.2135 35.6999 42.6159 36.1975 42.6159C36.695 42.6159 37.0983 42.2135 37.0983 41.7174V35.8827C42.4472 34.1497 46.125 29.1506 46.125 23.4914V23.0421C46.125 21.556 44.9126 20.3469 43.4223 20.3469ZM12.5639 12.4716C12.5639 11.0742 13.7037 9.93753 15.1048 9.93753C16.5058 9.93753 17.6457 11.0742 17.6457 12.4716V13.0956C17.6457 14.4929 16.5059 15.6296 15.1048 15.6296C13.7037 15.6296 12.5639 14.4929 12.5639 13.0956V12.4716ZM33.3095 28.5909C33.3095 29.9881 32.1697 31.1248 30.7686 31.1248C29.3675 31.1248 28.2278 29.9881 28.2278 28.5909V27.9668C28.2278 26.5696 29.3675 25.4329 30.7686 25.4329C32.1696 25.4329 33.3095 26.5696 33.3095 27.9668V28.5909Z" fill="#161616"/>
<path d="M36.8341 44.4664C36.6666 44.2992 36.4341 44.2031 36.1972 44.2031C35.9603 44.2031 35.7278 44.2992 35.5603 44.4664C35.3927 44.6335 35.2963 44.8653 35.2963 45.1016C35.2963 45.3379 35.3927 45.5696 35.5603 45.7367C35.7278 45.9038 35.9603 46 36.1972 46C36.4341 46 36.6666 45.9039 36.8341 45.7367C37.0017 45.5696 37.0981 45.3379 37.0981 45.1016C37.0981 44.8653 37.0017 44.6335 36.8341 44.4664Z" fill="#161616"/>
<path d="M15.1048 33.6016C14.6072 33.6016 14.2039 34.0039 14.2039 34.5V45.1016C14.2039 45.5977 14.6072 46 15.1048 46C15.6023 46 16.0056 45.5977 16.0056 45.1016V34.5C16.0056 34.0039 15.6023 33.6016 15.1048 33.6016Z" fill="#161616"/>
<path d="M27.8485 14.2608C27.4427 13.9737 26.8803 14.0688 26.5924 14.4735L26.5749 14.498C26.287 14.9027 26.3825 15.4635 26.7883 15.7506C26.9466 15.8626 27.1285 15.9165 27.3089 15.9165C27.591 15.9165 27.8687 15.7848 28.0444 15.5379L28.0619 15.5134C28.3498 15.1087 28.2543 14.5479 27.8485 14.2608Z" fill="#E9A012"/>
<path d="M25.796 16.807C25.4805 16.4232 24.9129 16.3674 24.5282 16.6822C23.2766 17.706 21.8544 18.4348 20.301 18.8485C19.8203 18.9765 19.5346 19.4688 19.663 19.9482C19.7706 20.35 20.1347 20.6152 20.5328 20.6152C20.6097 20.6152 20.6879 20.6053 20.7658 20.5844C22.5691 20.1042 24.2193 19.2587 25.6708 18.0713C26.0556 17.7567 26.1116 17.1905 25.796 16.807Z" fill="#E9A012"/>
<path d="M15.1049 33.6016C14.6073 33.6016 14.204 34.0039 14.204 34.5V45.1016C14.204 45.5977 14.6073 46 15.1049 46C15.6024 46 16.0058 45.5977 16.0058 45.1016V34.5C16.0058 34.0039 15.6024 33.6016 15.1049 33.6016Z" fill="#E9A012"/>
<path d="M41.9809 7.36719C41.4834 7.36719 41.08 7.76951 41.08 8.26562V9.38238C41.08 9.8785 41.4834 10.2808 41.9809 10.2808C42.4785 10.2808 42.8818 9.8785 42.8818 9.38238V8.26562C42.8818 7.76951 42.4785 7.36719 41.9809 7.36719Z" fill="#161616"/>
<path d="M41.9809 12.7191C41.4834 12.7191 41.08 13.1214 41.08 13.6176V14.7343C41.08 15.2304 41.4834 15.6327 41.9809 15.6327C42.4785 15.6327 42.8818 15.2304 42.8818 14.7343V13.6176C42.8818 13.1214 42.4785 12.7191 41.9809 12.7191Z" fill="#161616"/>
<path d="M45.224 10.6016H44.1042C43.6067 10.6016 43.2034 11.0039 43.2034 11.5C43.2034 11.9961 43.6067 12.3984 44.1042 12.3984H45.224C45.7216 12.3984 46.1249 11.9961 46.1249 11.5C46.1249 11.0039 45.7216 10.6016 45.224 10.6016Z" fill="#161616"/>
<path d="M39.8576 10.6016H38.7378C38.2402 10.6016 37.8369 11.0039 37.8369 11.5C37.8369 11.9961 38.2402 12.3984 38.7378 12.3984H39.8576C40.3551 12.3984 40.7584 11.9961 40.7584 11.5C40.7584 11.0039 40.3551 10.6016 39.8576 10.6016Z" fill="#161616"/>
<path d="M19.8078 0C19.3103 0 18.907 0.40232 18.907 0.898438V2.0152C18.907 2.51131 19.3103 2.91363 19.8078 2.91363C20.3054 2.91363 20.7087 2.51131 20.7087 2.0152V0.898438C20.7087 0.40232 20.3054 0 19.8078 0Z" fill="#161616"/>
<path d="M19.8078 5.35193C19.3103 5.35193 18.907 5.75425 18.907 6.25037V7.36713C18.907 7.86324 19.3103 8.26556 19.8078 8.26556C20.3054 8.26556 20.7087 7.86324 20.7087 7.36713V6.25037C20.7087 5.75425 20.3054 5.35193 19.8078 5.35193Z" fill="#161616"/>
<path d="M23.0511 3.23438H21.9313C21.4338 3.23438 21.0305 3.6367 21.0305 4.13281C21.0305 4.62893 21.4338 5.03125 21.9313 5.03125H23.0511C23.5487 5.03125 23.952 4.62893 23.952 4.13281C23.952 3.6367 23.5487 3.23438 23.0511 3.23438Z" fill="#161616"/>
<path d="M17.6845 3.23438H16.5647C16.0671 3.23438 15.6638 3.6367 15.6638 4.13281C15.6638 4.62893 16.0671 5.03125 16.5647 5.03125H17.6845C18.182 5.03125 18.5853 4.62893 18.5853 4.13281C18.5853 3.6367 18.182 3.23438 17.6845 3.23438Z" fill="#161616"/>
</g>
<path d="M65.8609 1C68.2724 1 70.117 1.43761 71.3946 2.31284C72.6882 3.18807 73.3349 4.5566 73.3349 6.41845C73.3349 7.38915 73.1593 8.22459 72.8079 8.92478C72.4726 9.60904 71.9775 10.174 71.3227 10.6195C70.6679 11.0492 69.8694 11.3675 68.9272 11.5743C67.985 11.7812 66.907 11.8846 65.6932 11.8846H64.1841V17.7089H61.1657V1.40579C61.8684 1.24666 62.6429 1.14322 63.4894 1.09548C64.3517 1.03183 65.1423 1 65.8609 1ZM66.0765 3.60181C65.31 3.60181 64.6791 3.62568 64.1841 3.67342V9.30669H65.6453C67.0986 9.30669 68.2165 9.10778 68.9991 8.70995C69.7816 8.2962 70.1729 7.52441 70.1729 6.39458C70.1729 5.85353 70.0691 5.4 69.8614 5.034C69.6538 4.66799 69.3664 4.38156 68.9991 4.17468C68.6317 3.96781 68.1926 3.82459 67.6815 3.74503C67.1864 3.64955 66.6514 3.60181 66.0765 3.60181Z" fill="#161616"/>
<path d="M79.9572 15.6799C80.8516 15.6799 81.5303 15.6322 81.9934 15.5367V12.3382C81.8337 12.2904 81.6022 12.2427 81.2987 12.1949C80.9953 12.1472 80.6599 12.1233 80.2926 12.1233C79.9732 12.1233 79.6458 12.1472 79.3104 12.1949C78.991 12.2427 78.6956 12.3302 78.4241 12.4575C78.1686 12.5848 77.961 12.7678 77.8013 13.0065C77.6416 13.2293 77.5617 13.5157 77.5617 13.8658C77.5617 14.5501 77.7773 15.0275 78.2085 15.298C78.6397 15.5526 79.2226 15.6799 79.9572 15.6799ZM79.7177 4.91465C80.6759 4.91465 81.4824 5.034 82.1372 5.2727C82.7919 5.51139 83.311 5.84557 83.6942 6.27523C84.0935 6.70488 84.373 7.23002 84.5327 7.85063C84.7083 8.45534 84.7962 9.12369 84.7962 9.8557V17.4224C84.349 17.5179 83.6703 17.6293 82.76 17.7566C81.8657 17.8998 80.8516 17.9714 79.7177 17.9714C78.9671 17.9714 78.2804 17.8998 77.6575 17.7566C77.0347 17.6134 76.4997 17.3826 76.0525 17.0644C75.6214 16.7461 75.278 16.3324 75.0225 15.8231C74.7829 15.3139 74.6631 14.6854 74.6631 13.9374C74.6631 13.2213 74.7989 12.6166 75.0704 12.1233C75.3578 11.63 75.7411 11.2322 76.2202 10.9298C76.6993 10.6116 77.2503 10.3888 77.8731 10.2615C78.5119 10.1183 79.1747 10.0467 79.8614 10.0467C80.1808 10.0467 80.5162 10.0705 80.8675 10.1183C81.2189 10.1501 81.5942 10.2137 81.9934 10.3092V9.83183C81.9934 9.49765 81.9535 9.17939 81.8737 8.87704C81.7938 8.57468 81.6501 8.31212 81.4425 8.08933C81.2508 7.85063 80.9873 7.66763 80.6519 7.54033C80.3325 7.41302 79.9253 7.34937 79.4302 7.34937C78.7595 7.34937 78.1446 7.39711 77.5857 7.49259C77.0267 7.58807 76.5716 7.69946 76.2202 7.82676L75.8609 5.48752C76.2282 5.36022 76.7632 5.23291 77.4659 5.10561C78.1686 4.9783 78.9192 4.91465 79.7177 4.91465Z" fill="#161616"/>
<path d="M86.8127 15.3458H88.25C88.7451 14.6933 89.1284 13.9693 89.3999 13.1736C89.6873 12.362 89.895 11.5186 90.0227 10.6434C90.1505 9.75226 90.2303 8.84521 90.2623 7.92224C90.2942 6.99928 90.3182 6.10018 90.3341 5.22496H99.3173V15.3458H101.234V21.2416H98.6466V17.7089H89.3759V21.2416H86.8127V15.3458ZM96.4188 15.3458V7.61194H93.0171C92.9852 8.26438 92.9452 8.93273 92.8973 9.617C92.8494 10.2854 92.7616 10.9537 92.6338 11.6221C92.5061 12.2745 92.3304 12.919 92.1068 13.5555C91.8992 14.1761 91.6197 14.7729 91.2684 15.3458H96.4188Z" fill="#161616"/>
<path d="M114.836 11.455C114.836 12.4416 114.692 13.3407 114.405 14.1523C114.117 14.9638 113.71 15.6561 113.183 16.2289C112.656 16.8018 112.017 17.2474 111.266 17.5656C110.532 17.8839 109.717 18.043 108.823 18.043C107.929 18.043 107.114 17.8839 106.38 17.5656C105.645 17.2474 105.014 16.8018 104.487 16.2289C103.96 15.6561 103.545 14.9638 103.241 14.1523C102.954 13.3407 102.81 12.4416 102.81 11.455C102.81 10.4684 102.954 9.57722 103.241 8.78156C103.545 7.96998 103.96 7.27776 104.487 6.70488C105.03 6.13201 105.669 5.6944 106.404 5.39204C107.138 5.07378 107.945 4.91465 108.823 4.91465C109.701 4.91465 110.508 5.07378 111.243 5.39204C111.993 5.6944 112.632 6.13201 113.159 6.70488C113.686 7.27776 114.093 7.96998 114.381 8.78156C114.684 9.57722 114.836 10.4684 114.836 11.455ZM111.865 11.455C111.865 10.2137 111.594 9.23508 111.051 8.51899C110.524 7.78698 109.781 7.42098 108.823 7.42098C107.865 7.42098 107.114 7.78698 106.571 8.51899C106.044 9.23508 105.781 10.2137 105.781 11.455C105.781 12.7121 106.044 13.7067 106.571 14.4387C107.114 15.1707 107.865 15.5367 108.823 15.5367C109.781 15.5367 110.524 15.1707 111.051 14.4387C111.594 13.7067 111.865 12.7121 111.865 11.455Z" fill="#161616"/>
<path d="M117.127 11.4788C117.127 10.5559 117.271 9.69656 117.558 8.9009C117.846 8.08933 118.253 7.38915 118.78 6.80036C119.323 6.21157 119.978 5.75009 120.744 5.41591C121.511 5.08174 122.373 4.91465 123.332 4.91465C124.513 4.91465 125.631 5.12948 126.685 5.55913L126.063 7.92224C125.727 7.77903 125.344 7.65968 124.913 7.5642C124.497 7.46872 124.05 7.42098 123.571 7.42098C122.437 7.42098 121.575 7.77903 120.984 8.49512C120.393 9.1953 120.098 10.1899 120.098 11.4788C120.098 12.7201 120.377 13.7067 120.936 14.4387C121.495 15.1548 122.437 15.5128 123.763 15.5128C124.258 15.5128 124.745 15.4651 125.224 15.3696C125.703 15.2741 126.118 15.1548 126.47 15.0116L126.877 17.3986C126.558 17.5577 126.071 17.7009 125.416 17.8282C124.777 17.9555 124.114 18.0192 123.427 18.0192C122.357 18.0192 121.423 17.86 120.625 17.5418C119.842 17.2076 119.187 16.7541 118.66 16.1812C118.149 15.5924 117.766 14.9002 117.511 14.1045C117.255 13.2929 117.127 12.4177 117.127 11.4788Z" fill="#161616"/>
<path d="M138.864 7.63581H134.815V17.7089H131.917V7.63581H127.892V5.22496H138.864V7.63581Z" fill="#161616"/>
<path d="M152 5.22496V17.7089H149.125C149.125 16.8018 149.125 15.9027 149.125 15.0116C149.141 14.1204 149.149 13.2929 149.149 12.5291C149.165 11.7653 149.173 11.1049 149.173 10.5479C149.189 9.97505 149.197 9.55335 149.197 9.28282C148.718 9.90344 148.223 10.5877 147.712 11.3356C147.201 12.0835 146.69 12.8315 146.179 13.5794C145.684 14.3273 145.213 15.0593 144.766 15.7754C144.318 16.4915 143.927 17.136 143.592 17.7089H141.029V5.22496H143.879C143.879 6.14792 143.871 7.0311 143.855 7.8745C143.855 8.70199 143.855 9.45787 143.855 10.1421C143.855 10.8264 143.847 11.4231 143.831 11.9324C143.831 12.4416 143.831 12.8315 143.831 13.102C144.278 12.4177 144.742 11.7175 145.221 11.0014C145.7 10.2694 146.179 9.5613 146.658 8.87704C147.153 8.17685 147.64 7.51646 148.119 6.89584C148.598 6.27523 149.062 5.71827 149.509 5.22496H152Z" fill="#161616"/>
<path d="M74.2931 24.0423V40.5841H71.2748V26.6203H64.1841V40.5841H61.1657V24.0423H74.2931Z" fill="#161616"/>
<path d="M82.5305 38.5552C83.4249 38.5552 84.1036 38.5074 84.5667 38.4119V35.2134C84.407 35.1656 84.1755 35.1179 83.872 35.0702C83.5686 35.0224 83.2332 34.9986 82.8659 34.9986C82.5465 34.9986 82.2191 35.0224 81.8838 35.0702C81.5644 35.1179 81.2689 35.2054 80.9974 35.3327C80.7419 35.46 80.5343 35.643 80.3746 35.8817C80.2149 36.1045 80.135 36.391 80.135 36.7411C80.135 37.4253 80.3506 37.9027 80.7818 38.1732C81.213 38.4278 81.7959 38.5552 82.5305 38.5552ZM82.291 27.7899C83.2492 27.7899 84.0557 27.9092 84.7105 28.1479C85.3652 28.3866 85.8843 28.7208 86.2676 29.1505C86.6668 29.5801 86.9463 30.1052 87.106 30.7259C87.2817 31.3306 87.3695 31.9989 87.3695 32.7309V40.2977C86.9223 40.3931 86.2436 40.5045 85.3333 40.6318C84.439 40.775 83.4249 40.8467 82.291 40.8467C81.5404 40.8467 80.8537 40.775 80.2309 40.6318C79.608 40.4886 79.073 40.2579 78.6259 39.9396C78.1947 39.6213 77.8513 39.2076 77.5958 38.6984C77.3562 38.1892 77.2365 37.5606 77.2365 36.8127C77.2365 36.0966 77.3722 35.4919 77.6437 34.9986C77.9312 34.5052 78.3144 34.1074 78.7935 33.8051C79.2726 33.4868 79.8236 33.264 80.4464 33.1367C81.0853 32.9935 81.748 32.9219 82.4347 32.9219C82.7541 32.9219 83.0895 32.9457 83.4408 32.9935C83.7922 33.0253 84.1675 33.089 84.5667 33.1844V32.7071C84.5667 32.3729 84.5268 32.0546 84.447 31.7523C84.3671 31.4499 84.2234 31.1873 84.0158 30.9646C83.8241 30.7259 83.5606 30.5429 83.2253 30.4156C82.9058 30.2882 82.4986 30.2246 82.0035 30.2246C81.3328 30.2246 80.7179 30.2723 80.159 30.3678C79.6 30.4633 79.1449 30.5747 78.7935 30.702L78.4342 28.3628C78.8015 28.2354 79.3365 28.1081 80.0392 27.9808C80.7419 27.8535 81.4925 27.7899 82.291 27.7899Z" fill="#161616"/>
<path d="M99.2316 34.4018C99.2316 33.1128 98.9362 32.1103 98.3453 31.3942C97.7703 30.6781 96.8361 30.3201 95.5425 30.3201C95.271 30.3201 94.9836 30.336 94.6801 30.3678C94.3927 30.3837 94.1052 30.4315 93.8177 30.511V37.6481C94.0733 37.8231 94.4086 37.9902 94.8239 38.1494C95.2551 38.2926 95.7102 38.3642 96.1893 38.3642C97.2433 38.3642 98.0099 38.0061 98.489 37.2901C98.9841 36.574 99.2316 35.6112 99.2316 34.4018ZM102.202 34.3541C102.202 35.3089 102.074 36.1841 101.819 36.9798C101.579 37.7754 101.228 38.4597 100.765 39.0326C100.302 39.6054 99.7187 40.051 99.016 40.3693C98.3293 40.6875 97.5468 40.8467 96.6684 40.8467C96.0775 40.8467 95.5345 40.775 95.0395 40.6318C94.5444 40.4886 94.1371 40.3295 93.8177 40.1544V45H90.9192V28.506C91.5101 28.3468 92.2367 28.1957 93.0991 28.0524C93.9615 27.9092 94.8718 27.8376 95.83 27.8376C96.8201 27.8376 97.7065 27.9888 98.489 28.2911C99.2715 28.5935 99.9343 29.0311 100.477 29.604C101.036 30.1609 101.459 30.8452 101.747 31.6568C102.05 32.4524 102.202 33.3515 102.202 34.3541Z" fill="#161616"/>
<path d="M108.088 33.1128C108.455 32.7468 108.854 32.3411 109.286 31.8955C109.717 31.434 110.14 30.9725 110.555 30.511C110.986 30.0495 111.394 29.6119 111.777 29.1982C112.16 28.7685 112.48 28.4025 112.735 28.1002H116.137C115.786 28.5139 115.378 28.9675 114.915 29.4608C114.468 29.9541 113.997 30.4633 113.502 30.9884C113.023 31.4977 112.544 31.9989 112.064 32.4922C111.601 32.9696 111.178 33.3993 110.795 33.7812C111.29 34.1949 111.801 34.6803 112.328 35.2373C112.871 35.7783 113.398 36.3591 113.909 36.9798C114.436 37.5845 114.923 38.2051 115.37 38.8416C115.817 39.4622 116.193 40.043 116.496 40.5841H113.142C112.839 40.1067 112.48 39.6054 112.064 39.0803C111.665 38.5552 111.242 38.0459 110.795 37.5526C110.348 37.0434 109.893 36.566 109.429 36.1204C108.966 35.6749 108.519 35.293 108.088 34.9747V40.5841H105.189V28.1002H108.088V33.1128Z" fill="#161616"/>
<path d="M65.8609 1C68.2724 1 70.117 1.43761 71.3946 2.31284C72.6882 3.18807 73.3349 4.5566 73.3349 6.41845C73.3349 7.38915 73.1593 8.22459 72.8079 8.92478C72.4726 9.60904 71.9775 10.174 71.3227 10.6195C70.6679 11.0492 69.8694 11.3675 68.9272 11.5743C67.985 11.7812 66.907 11.8846 65.6932 11.8846H64.1841V17.7089H61.1657V1.40579C61.8684 1.24666 62.6429 1.14322 63.4894 1.09548C64.3517 1.03183 65.1423 1 65.8609 1ZM66.0765 3.60181C65.31 3.60181 64.6791 3.62568 64.1841 3.67342V9.30669H65.6453C67.0986 9.30669 68.2165 9.10778 68.9991 8.70995C69.7816 8.2962 70.1729 7.52441 70.1729 6.39458C70.1729 5.85353 70.0691 5.4 69.8614 5.034C69.6538 4.66799 69.3664 4.38156 68.9991 4.17468C68.6317 3.96781 68.1926 3.82459 67.6815 3.74503C67.1864 3.64955 66.6514 3.60181 66.0765 3.60181Z" fill="#E9A012"/>
<path d="M79.9572 15.6799C80.8516 15.6799 81.5303 15.6322 81.9934 15.5367V12.3382C81.8337 12.2904 81.6022 12.2427 81.2987 12.1949C80.9953 12.1472 80.6599 12.1233 80.2926 12.1233C79.9732 12.1233 79.6458 12.1472 79.3104 12.1949C78.991 12.2427 78.6956 12.3302 78.4241 12.4575C78.1686 12.5848 77.961 12.7678 77.8013 13.0065C77.6416 13.2293 77.5617 13.5157 77.5617 13.8658C77.5617 14.5501 77.7773 15.0275 78.2085 15.298C78.6397 15.5526 79.2226 15.6799 79.9572 15.6799ZM79.7177 4.91465C80.6759 4.91465 81.4824 5.034 82.1372 5.2727C82.7919 5.51139 83.311 5.84557 83.6942 6.27523C84.0935 6.70488 84.373 7.23002 84.5327 7.85063C84.7083 8.45534 84.7962 9.12369 84.7962 9.8557V17.4224C84.349 17.5179 83.6703 17.6293 82.76 17.7566C81.8657 17.8998 80.8516 17.9714 79.7177 17.9714C78.9671 17.9714 78.2804 17.8998 77.6575 17.7566C77.0347 17.6134 76.4997 17.3826 76.0525 17.0644C75.6214 16.7461 75.278 16.3324 75.0225 15.8231C74.7829 15.3139 74.6631 14.6854 74.6631 13.9374C74.6631 13.2213 74.7989 12.6166 75.0704 12.1233C75.3578 11.63 75.7411 11.2322 76.2202 10.9298C76.6993 10.6116 77.2503 10.3888 77.8731 10.2615C78.5119 10.1183 79.1747 10.0467 79.8614 10.0467C80.1808 10.0467 80.5162 10.0705 80.8675 10.1183C81.2189 10.1501 81.5942 10.2137 81.9934 10.3092V9.83183C81.9934 9.49765 81.9535 9.17939 81.8737 8.87704C81.7938 8.57468 81.6501 8.31212 81.4425 8.08933C81.2508 7.85063 80.9873 7.66763 80.6519 7.54033C80.3325 7.41302 79.9253 7.34937 79.4302 7.34937C78.7595 7.34937 78.1446 7.39711 77.5857 7.49259C77.0267 7.58807 76.5716 7.69946 76.2202 7.82676L75.8609 5.48752C76.2282 5.36022 76.7632 5.23291 77.4659 5.10561C78.1686 4.9783 78.9192 4.91465 79.7177 4.91465Z" fill="#E9A012"/>
<path d="M86.8127 15.3458H88.25C88.7451 14.6933 89.1284 13.9693 89.3999 13.1736C89.6873 12.362 89.895 11.5186 90.0227 10.6434C90.1505 9.75226 90.2303 8.84521 90.2623 7.92224C90.2942 6.99928 90.3182 6.10018 90.3341 5.22496H99.3173V15.3458H101.234V21.2416H98.6466V17.7089H89.3759V21.2416H86.8127V15.3458ZM96.4188 15.3458V7.61194H93.0171C92.9852 8.26438 92.9452 8.93273 92.8973 9.617C92.8494 10.2854 92.7616 10.9537 92.6338 11.6221C92.5061 12.2745 92.3304 12.919 92.1068 13.5555C91.8992 14.1761 91.6197 14.7729 91.2684 15.3458H96.4188Z" fill="#E9A012"/>
<path d="M114.836 11.455C114.836 12.4416 114.692 13.3407 114.405 14.1523C114.117 14.9638 113.71 15.6561 113.183 16.2289C112.656 16.8018 112.017 17.2474 111.266 17.5656C110.532 17.8839 109.717 18.043 108.823 18.043C107.929 18.043 107.114 17.8839 106.38 17.5656C105.645 17.2474 105.014 16.8018 104.487 16.2289C103.96 15.6561 103.545 14.9638 103.241 14.1523C102.954 13.3407 102.81 12.4416 102.81 11.455C102.81 10.4684 102.954 9.57722 103.241 8.78156C103.545 7.96998 103.96 7.27776 104.487 6.70488C105.03 6.13201 105.669 5.6944 106.404 5.39204C107.138 5.07378 107.945 4.91465 108.823 4.91465C109.701 4.91465 110.508 5.07378 111.243 5.39204C111.993 5.6944 112.632 6.13201 113.159 6.70488C113.686 7.27776 114.093 7.96998 114.381 8.78156C114.684 9.57722 114.836 10.4684 114.836 11.455ZM111.865 11.455C111.865 10.2137 111.594 9.23508 111.051 8.51899C110.524 7.78698 109.781 7.42098 108.823 7.42098C107.865 7.42098 107.114 7.78698 106.571 8.51899C106.044 9.23508 105.781 10.2137 105.781 11.455C105.781 12.7121 106.044 13.7067 106.571 14.4387C107.114 15.1707 107.865 15.5367 108.823 15.5367C109.781 15.5367 110.524 15.1707 111.051 14.4387C111.594 13.7067 111.865 12.7121 111.865 11.455Z" fill="#E9A012"/>
<path d="M117.127 11.4788C117.127 10.5559 117.271 9.69656 117.558 8.9009C117.846 8.08933 118.253 7.38915 118.78 6.80036C119.323 6.21157 119.978 5.75009 120.744 5.41591C121.511 5.08174 122.373 4.91465 123.332 4.91465C124.513 4.91465 125.631 5.12948 126.685 5.55913L126.063 7.92224C125.727 7.77903 125.344 7.65968 124.913 7.5642C124.497 7.46872 124.05 7.42098 123.571 7.42098C122.437 7.42098 121.575 7.77903 120.984 8.49512C120.393 9.1953 120.098 10.1899 120.098 11.4788C120.098 12.7201 120.377 13.7067 120.936 14.4387C121.495 15.1548 122.437 15.5128 123.763 15.5128C124.258 15.5128 124.745 15.4651 125.224 15.3696C125.703 15.2741 126.118 15.1548 126.47 15.0116L126.877 17.3986C126.558 17.5577 126.071 17.7009 125.416 17.8282C124.777 17.9555 124.114 18.0192 123.427 18.0192C122.357 18.0192 121.423 17.86 120.625 17.5418C119.842 17.2076 119.187 16.7541 118.66 16.1812C118.149 15.5924 117.766 14.9002 117.511 14.1045C117.255 13.2929 117.127 12.4177 117.127 11.4788Z" fill="#E9A012"/>
<path d="M138.864 7.63581H134.815V17.7089H131.917V7.63581H127.892V5.22496H138.864V7.63581Z" fill="#E9A012"/>
<path d="M152 5.22496V17.7089H149.125C149.125 16.8018 149.125 15.9027 149.125 15.0116C149.141 14.1204 149.149 13.2929 149.149 12.5291C149.165 11.7653 149.173 11.1049 149.173 10.5479C149.189 9.97505 149.197 9.55335 149.197 9.28282C148.718 9.90344 148.223 10.5877 147.712 11.3356C147.201 12.0835 146.69 12.8315 146.179 13.5794C145.684 14.3273 145.213 15.0593 144.766 15.7754C144.318 16.4915 143.927 17.136 143.592 17.7089H141.029V5.22496H143.879C143.879 6.14792 143.871 7.0311 143.855 7.8745C143.855 8.70199 143.855 9.45787 143.855 10.1421C143.855 10.8264 143.847 11.4231 143.831 11.9324C143.831 12.4416 143.831 12.8315 143.831 13.102C144.278 12.4177 144.742 11.7175 145.221 11.0014C145.7 10.2694 146.179 9.5613 146.658 8.87704C147.153 8.17685 147.64 7.51646 148.119 6.89584C148.598 6.27523 149.062 5.71827 149.509 5.22496H152Z" fill="#E9A012"/>
<path fill-rule="evenodd" clip-rule="evenodd" d="M16.7536 37.7807H10.7883H10.6238V27.3344C10.6238 26.8714 10.3573 26.4643 9.97065 26.3372C5.16095 24.7533 1.80176 19.6259 1.80176 13.8681V13.3494C1.80176 12.7775 2.20589 12.3122 2.70263 12.3122C3.19938 12.3122 3.60351 12.7775 3.60351 13.3494V13.8681C3.60351 19.8737 7.84692 24.7596 13.0627 24.7596H17.3984C22.6142 24.7596 26.8576 19.8737 26.8576 13.8681V13.3494C26.8576 12.7775 27.2617 12.3122 27.7585 12.3122C28.2552 12.3122 28.6594 12.7775 28.6594 13.3494V13.8681C28.6594 15.4625 28.4099 17.02 27.9179 18.497C27.7397 19.0318 27.9718 19.6318 28.4364 19.8369C28.9007 20.0422 29.422 19.7747 29.6002 19.2399C30.1715 17.5248 30.4611 15.7175 30.4611 13.8681V13.3494C30.4611 11.6336 29.2487 10.2376 27.7585 10.2376C26.2683 10.2376 25.0559 11.6336 25.0559 13.3494V13.8681C25.0559 18.218 22.305 21.8399 18.7016 22.5546C19.1722 21.7554 19.4474 20.792 19.4474 19.7558V19.0353C19.4474 16.2782 17.4993 14.0351 15.1048 14.0351C12.7102 14.0351 10.7622 16.2782 10.7622 19.0353V19.7558C10.7622 20.7656 11.0243 21.7058 11.4732 22.4927C8.01124 21.6477 5.40527 18.1023 5.40527 13.8681V13.3494C5.40527 11.6336 4.19287 10.2376 2.70263 10.2376C1.2124 10.2376 0 11.6336 0 13.3494V13.8681C0 17.1984 0.929886 20.3561 2.68903 22.9996C4.25151 25.3475 6.41047 27.1358 8.82212 28.0945V38.8179C8.82212 39.3907 9.22544 39.8552 9.723 39.8552H9.8875V56.7079C9.8875 57.2807 10.2908 57.7452 10.7884 57.7452C11.2859 57.7452 11.6893 57.2807 11.6893 56.7079V39.8552H17.7215C17.9185 40.2077 18.1288 40.5528 18.3529 40.8895C18.3983 40.9579 18.4452 41.0247 18.4921 41.0916C18.5067 41.1125 18.5213 41.1333 18.5359 41.1543V56.7079C18.5359 57.2807 18.9392 57.7452 19.4368 57.7452C19.9344 57.7452 20.3377 57.2807 20.3377 56.7079V43.274L18.5359 41.1543L17.7215 39.8552L16.7536 37.7807ZM15.1048 16.1096C13.7037 16.1096 12.5639 17.4219 12.5639 19.0352V19.7557C12.5639 21.3689 13.7037 22.6813 15.1048 22.6813C16.5059 22.6813 17.6457 21.3689 17.6457 19.7557V19.0352C17.6457 17.4219 16.5058 16.1096 15.1048 16.1096Z" fill="#E9A012"/>
<defs>
<clipPath id="clip0">
<rect width="46.125" height="46" fill="white"/>
</clipPath>
</defs>
</svg>
